<svg id="Capa_1" data-name="Capa 1" xmlns="http://www.w3.org/2000/svg" viewBox="0 0 494.2594 511.9119"><path d="M262.5,296.6a21.7732,21.7732,0,0,1-4.6-2.8c-1.1-.7-1.9-.6-2.5-2.2-1.7-4.3,3.7-1.9,6.3-1.9,1,0,2.4.5,2.9-.5.6-.9-1-2.7-2-3a5.5783,5.5783,0,0,0,.5-3.8c-1-2.4-1.8,0-3.4-.6a2.26,2.26,0,0,1-1.8-2.6c0-.1,0-.2.1-.2.5-1.7,1.2-1,2.7-1.6.6,0,.7-1,1.5-1.1s1.6.7,2.3.6a2.5809,2.5809,0,0,0,2.4-2.4c0-2.4-1.4-1-2.6-1.4-1.3-.4-1.2-1.4-2-2.5s-5.6-2.3-3.6-5.6c.6-.8,2-.6,2.4-1.7s-.5-1.6-.6-2.3c-.5-2.1-.3-3.3-2.4-4.2a15.5684,15.5684,0,0,0-5.2-1.5c-1.6,0-2.6,2.5-4.6.3-1-1.1,0-2.9-.8-3.8-.8-1-3.4,0-4.5,0s-3.4.4-4.2-.4v-1.6l-1-1.5c-.4-1.6,1.2-1.8,1-3.4s-3-2-3.5-3.4l-.3.5v-.7a6.2006,6.2006,0,0,0,.5-4.8,7.35,7.35,0,0,1-6.9-2c-.4-.5,0-1.1-.7-1.7a15.6925,15.6925,0,0,0-2.1-1.2c-1.7-1.1-1.4-1.2-1.7-2.7a1.6775,1.6775,0,0,0,.5-1.4c-.2-.6-1.5-1.3-2.6-1.6s-2.8,0-3.4-1.6c-.7-1.6.8-2.9.5-3.4s-2.7-.7-3.7,0c-3-2.4,1.6-3.9,1.4-5.6s-3.3-2.2-4.8-2c-1.6.2-1.7.8-3,1.2-2.7.8-4.4-1.8-6.6-2.7a18.2859,18.2859,0,0,1-3.9-2.1c-1-.7-3-1.9-4.3-1.2s-.4,2.4-1.1,3.4-2.5,0-4.1,1.4-1,3.8-2.9,2.1c-1.1-1,0-3.4-2.3-3.5-1.4,0-3.4,2.1-4.6,2.7s-2.5,0-3.8.5a21.2979,21.2979,0,0,0-3.5,1.4,20.25,20.25,0,0,1-3.4,1.4c-2,.5-2.5,0-4.1,1.5a7.9157,7.9157,0,0,0-2,3.7c-.6,1.6-.4,2.1-2.5,2.5a4.7071,4.7071,0,0,1-3.8-.8c-.7,4.1-2.5,1-4.9,3.3-1,.9-.7,1.8-.9,3-.5,2.4-.7,1.4-2.7,2.2s-2.4,4.4-1.7,7c.6,2.6,2.3,3.5-.5,4.4a2.86,2.86,0,0,1-3.7-1.4c-.5-.8,0-8.6-3-4.4-.8,1.1,0,2.7,0,3.8-.8,2.3-2.8,1-3.5,2.5s1,2.4.4,3.5-3.1.6-4.2,1.2-.7,1.3-1.7,1.7a4.4109,4.4109,0,0,1-2.3,0c-.6,0-1.4.3-1.2,2.1,0,3.1,1.6,2-1.6,3.4-.7.3-1,1-1.9,1.3s-2.3-.5-2.8.7c-.6,1.2,1.1,1.8,1.2,2.5a5.4375,5.4375,0,0,1,0,1.8c0,1.2-1.6,0-.7,1.7.5,1,2.5,1.4,3.4,2a8.2247,8.2247,0,0,0-.6,3.8c0,1,.8,1.4,1,2.1a8.8542,8.8542,0,0,1,0,2.3c0,.7,2.2,1.6,2.5,2.6a2.2674,2.2674,0,0,1-.7,2.3c-.8.6-2-.3-2.7,0l-.7,1.5c-1.9,1.5-4.4.5-5.9,2.4-.7,1-.4,2.4-1.3,3.5s-2.9.4-3.4,2.1c-.9,2.9,3.7,1.7,4.6,3.8.3.8-.3,2,0,2.8.5,2.4.9.7,1.7,1.9.8,1.1.4,1.7,1.1,2.5,1.9,2.2,5.6,0,7.9-.5-.6,1.5-5.6,3-6,4.5-.3,1.5,3.9,1.7,3,4.6,1.3,1.1,3.3.3,4.8.6a9.8259,9.8259,0,0,0,4.8.6c-1.2,1.6-3.5,3.3-3.7,5.6,1.6,0,2.8,1.1,2.1,2.8a3.9,3.9,0,0,0,3,0,2.3893,2.3893,0,0,1,.5,1.4,5.2643,5.2643,0,0,0,.3-3.9l-.7-.7a5.4453,5.4453,0,0,1,3.8,3.7c.3,1.1-.7,3.3,0,4.2,1.2,1.8,7,.7,8.7,1.2s2.4,1.6,3.7,2.1,4.3.7,3.8,3-3.5,1.5-.7,2.8a3.986,3.986,0,0,0,5-1.5c1.4,0,1.5,1.6,1.6,2.6,1,0,1.4-1.1,2.2-1.4a9.6375,9.6375,0,0,1,2.4,0c.8,0,1.4-1.2,2.3-1.5s1.9.4,2.8,0a12.8344,12.8344,0,0,1,2.4-.9l1.6.6c1.4,0,3.4-2,3.9.7,1.6.4,1.4-1.2,2.5-1.5,1.2-.3,1.5.4,2.5.7s2.6,0,3.4,1.1c2.5,0,5.6-.4,8.1-.3l3.6-1.2c1.2-.4,2.6,0,3.8,0,1.1,0,1.6-2.3,3.9-2.9s4.9-2.2,8.1-1.1a13.0636,13.0636,0,0,1,2.1.8l.6,1.5H219a9.4556,9.4556,0,0,0,2.4,1.4h3.9a19.5044,19.5044,0,0,1,4.6.4,3.1777,3.1777,0,0,0,1.3.8c.6.1.7-1.1,1.7-.5s0,2.5,2.9,2.8c2.9.2,1.7-1.2,3.3-2.3,2.4-1.7,2.1,1.5,4.4,1.5a10.1789,10.1789,0,0,0-.3-3.5l-1.9-2.2h-2c-.6,0,0-1.3,0-1.5s-2.5,0-3.3-1.5c-1.6-3.3,4.2-1,5.6-.5s2.1,1.6,3.7,1.1,1.7-3.3,3.5-.7c.5-3.4,6.7,1.1,3.9-4.4,3.4-.8,0-2.5,0-3.7,0-2.4,1.9-1.9,3.2-2.1,3.2-.7,3.7-2.3,3.8-5.6a5.5721,5.5721,0,0,1,1.1-3.7c1-1.9.6-1.6,2.6-2.1h1.3c.9,0,1.1-.8,1.9-1.1.7-.3,2.8-.7,3.2-1.5,0-3.2-5.8-2.4-7.3-2.9Z" transform="translate(-9.3839 -0.0881)" fill="#244917"/><path d="M246.8,375.6s16.9,92.2-9.9,136.4h53.9S273.9,407.8,280,364c6.1-43.9-33.2,11.6-33.2,11.6Z" transform="translate(-9.3839 -0.0881)" fill="#985b3f"/><path d="M469.9,300.4a31.4142,31.4142,0,0,1-4.6-2.8c-1.2-.7-1.9-.7-2.5-2.3-1.7-4.3,3.7-1.9,6.3-1.9.9,0,2.4.5,2.9-.5.6-.9-1.1-2.7-2-3.1a5.5783,5.5783,0,0,0,.5-3.8c-1-2.4-1.8,0-3.5-.6a2.323,2.323,0,0,1-1.7-2.8v-.2c.5-1.7,1.2-1,2.6-1.5s.8-1,1.5-1.1,1.7.7,2.3.6a2.5033,2.5033,0,0,0,2.4-2.4c0-2.4-1.3-1-2.6-1.4-1.4-.4-1.1-1.4-2-2.4-.8-1.1-5.6-2.3-3.7-5.6.6-.8,2.1-.6,2.4-1.7s-.5-1.7-.6-2.4c-.5-2-.3-3.2-2.4-4.2a13.4162,13.4162,0,0,0-5.2-1.4c-1.5,0-2.6,2.5-4.6.3-1-1.1,0-2.9-.8-3.8s-3.5,0-4.5,0-3.5.4-4.2-.4v-1.6l-1.1-1.4c-.4-1.6,1.2-1.8,1.1-3.4-.2-1.6-3-2-3.5-3.4l-.4.5V245a6.2006,6.2006,0,0,0,.5-4.8,7.88,7.88,0,0,1-7-2c-.4-.5,0-1.2-.7-1.7a7.1935,7.1935,0,0,0-2.1-1.2c-1.7-1.2-1.4-1.2-1.7-2.8a1.9954,1.9954,0,0,0,.5-1.3c-.2-.6-1.5-1.3-2.7-1.6s-2.8,0-3.4-1.6.8-2.9.5-3.4-2.7-.7-3.7,0c-3-2.4,1.5-3.9,1.4-5.6-.2-1.7-3.3-2.3-4.9-2.1s-1.7.9-3,1.3c-2.8.8-4.4-1.8-6.6-2.7a14.7128,14.7128,0,0,1-3.9-2.1c-1.1-.7-3.1-1.9-4.3-1.2s-.4,2.4-1.2,3.4-2.5,0-4.1,1.4-1,3.8-2.9,2.1c-1.1-.9,0-3.4-2.3-3.4-1.3,0-3.3,2.1-4.6,2.6-1.2.5-2.5,0-3.8.5a37.2727,37.2727,0,0,0-3.5,1.6,20.6524,20.6524,0,0,1-3.4,1.5c-2.1.5-2.5,0-4.1,1.5a7.467,7.467,0,0,0-2,3.7c-.6,1.6-.4,2.1-2.5,2.5a4.2791,4.2791,0,0,1-3.8-1.4c-.7,4.1-2.5,1-4.9,3.3-.9.9-.6,1.8-.9,3-.5,2.4-.7,1.4-2.7,2.2s-2.3,4.4-1.7,7,2.3,3.5-.6,4.4a3.1067,3.1067,0,0,1-3.7-1.4c-.5-.8,0-8.6-3-4.4-.7,1,0,2.7,0,3.8-.8,2.4-2.8,1.1-3.5,2.5-.7,1.5,1,2.4.3,3.5s-3.1.5-4.2,1.2-.7,1.3-1.7,1.7a4.4109,4.4109,0,0,1-2.3,0c-.6,0-1.4,0-1.2,2,0,3.1,1.6,2.1-1.6,3.5-.7.3-1,1-1.9,1.3s-2.3-.5-2.8.7c-.6,1.2,1,1.8,1.2,2.4a6.0389,6.0389,0,0,1,0,1.9c0,1.1-1.6,0-.7,1.7.4,1,2.5,1.4,3.4,2a8.2247,8.2247,0,0,0-.6,3.8c0,1,.8,1.4,1.1,2.1a8.8449,8.8449,0,0,1,0,2.3c0,.6,2.1,1.6,2.4,2.6a2.0872,2.0872,0,0,1-.7,2.3c-.8.6-2-.3-2.8,0l-.7,1.5c-1.9,1.4-4.4.5-5.6,2.4-.8,1-.4,2.4-1.4,3.4s-2.9.5-3.4,2.2c-.8,2.9,3.7,1.7,4.6,3.8a8.7612,8.7612,0,0,1,0,2.8c.4,2.3.9.7,1.7,1.8s.3,1.7,1.1,2.6c1.9,2.2,5.6,0,8-.5-.6,1.5-5.6,2.9-6,4.5-.3,1.6,3.9,1.7,3,4.6,1.4,1.1,3.3.3,4.8.6,1.5.2,2.7,1.1,4.8.7-1.2,1.6-3.5,3.3-3.7,5.6,1.6.3,2.8,1,2,2.8a3.8978,3.8978,0,0,0,3,0,2.41,2.41,0,0,1,.4,1.5,5.5266,5.5266,0,0,0,.3-4l-.7-.7a5.6331,5.6331,0,0,1,3.8,3.7c0,1.1-.7,3.4,0,4.2,1.2,1.7,7,.7,8.7,1.2s2.4,1.7,3.7,2.1c1.3.5,4.3.7,3.8,3s-3.4,1.5-.7,2.8a3.9351,3.9351,0,0,0,4.9-1.5c1.5,0,1.5,1.6,1.6,2.7,1-.3,1.4-1.2,2.2-1.4a9.6375,9.6375,0,0,1,2.4,0c.8,0,1.4-1.2,2.2-1.4s2,.4,2.9,0a12.37,12.37,0,0,1,2.4-1l1.6.6c1.4,0,3.4-1.9,3.9.7,1.6.5,1.4-1.1,2.5-1.4,1.2-.3,1.4.4,2.4.7a8.7849,8.7849,0,0,1,3.5,1c2.5,0,5.6-.5,8.1-.3l3.6-1.2c1.1-.5,2.6,0,3.7,0,2-.7,1.7-2.3,3.9-2.9,2.3-.6,4.9-2.3,8-1.2a8.488,8.488,0,0,1,2.2.9l.6,1.4h1.5a9.7369,9.7369,0,0,0,2.4,1.5h3.9a25.4874,25.4874,0,0,1,4.6.4,3.658,3.658,0,0,0,1.2.7c.6.1.7-1,1.7-.5s.3,2.6,2.9,2.8,1.7-1.2,3.3-2.3,2.1,1.5,4.3,1.5a6.915,6.915,0,0,0,0-3.5l-2-2.2h-1.9c-.6,0,0-1.2,0-1.5,0-.2-2.5,0-3.3-1.5-1.6-3.3,4.3-1,5.6-.5,1.4.4,2,1.6,3.7,1.1s1.7-3.4,3.5-.7c.5-3.4,6.8,1.1,4-4.4,3.4-.8,0-2.5,0-3.7,0-2.4,2-1.9,3.3-2.1,3.1-.7,3.7-2.4,3.8-5.6a5.4157,5.4157,0,0,1,1.1-3.7c1.1-1.8.6-1.5,2.6-2h1.2c.9,0,1.2-.8,1.9-1.1s2.8-.7,3.2-1.6c1-3-4.8-2.2-6.3-2.6Z" transform="translate(-9.3839 -0.0881)" fill="#1d6602"/><path d="M497,250.1a31.4142,31.4142,0,0,1-4.6-2.8c-1.1-.7-1.9-.6-2.5-2.2-1.7-4.3,3.7-1.9,6.3-1.9,1,0,2.4.5,2.9-.5.6-.9-1-2.7-2-3.1a5.5783,5.5783,0,0,0,.5-3.8c-1-2.4-1.8,0-3.4-.6a2.3359,2.3359,0,0,1-1.8-2.7c0-.1,0-.1.1-.2.5-1.7,1.2-1,2.7-1.5.6,0,.7-1,1.5-1.1s1.6.7,2.3.6a2.5809,2.5809,0,0,0,2.4-2.4c0-2.4-1.4-1-2.6-1.4-1.3-.5-1.2-1.4-2-2.4-.8-1.1-5.6-2.3-3.6-5.6.6-.8,2-.6,2.4-1.7s-.5-1.6-.6-2.4c-.5-2-.3-3.2-2.4-4.2a15.5684,15.5684,0,0,0-5.2-1.5c-1.6,0-2.6,2.5-4.6.3-1-1.1,0-2.9-.8-3.8-.8-1-3.4,0-4.5,0s-3.4.4-4.2-.4v-1.6l-1-1.5c-.4-1.6,1.2-1.8,1-3.4s-3-2-3.5-3.4l-.3.5v-.7a6.2006,6.2006,0,0,0,.5-4.8,7.35,7.35,0,0,1-6.9-2c-.4-.5,0-1.2-.7-1.7a7.1935,7.1935,0,0,0-2.1-1.2c-1.7-1.2-1.4-1.2-1.7-2.7a1.6769,1.6769,0,0,0,.5-1.4c-.2-.7-1.5-1.3-2.7-1.6s-2.7,0-3.4-1.6.8-2.9.5-3.4-2.7-.7-3.7,0c-3-2.4,1.6-3.9,1.4-5.6s-3.6-3-5.1-3-1.7.8-3,1.2c-2.7.8-4.4-1.8-6.6-2.7a18.2859,18.2859,0,0,1-3.9-2.1c-1-.7-3-1.9-4.3-1.2s-.4,2.4-1.1,3.4-2.5,0-4.1,1.4-1,3.8-2.9,2.1c-1.1-.9,0-3.4-2.3-3.4-1.4,0-3.4,2.1-4.6,2.6s-2.5,0-3.8.5a16.1534,16.1534,0,0,0-3.5,1.7,20.25,20.25,0,0,1-3.4,1.4c-2,.5-2.5,0-4.1,1.5a7.9157,7.9157,0,0,0-2,3.7c-.6,1.6-.4,2.1-2.5,2.5a4.7069,4.7069,0,0,1-3.8-.8c-.7,4.1-2.5,1-4.9,3.3-1,.9-.7,1.8-.9,3-.5,2.4-.7,1.4-2.7,2.2s-2.4,4.4-1.7,7c.6,2.6,2.3,3.5-.5,4.4a2.86,2.86,0,0,1-3.7-1.4c-.5-.8,0-8.6-3-4.4-.8,1.1,0,2.7-.3,3.8-.8,2.3-2.8,1-3.5,2.5s1,2.4.4,3.5-3.1.6-4.2,1.2-.7,1.3-1.7,1.7-1.7-.3-2.3,0-1.4,0-1.2,2.1c0,3.1,1.6,2-1.6,3.4-.7.3-1,1-1.9,1.3-1,.3-2.3-.5-2.8.7-.6,1.2,1.1,1.8,1.2,2.5a5.4375,5.4375,0,0,1,0,1.8c0,1.2-1.6,0-.7,1.7.5,1,2.5,1.4,3.4,2a8.2247,8.2247,0,0,0-.6,3.8c0,1,.8,1.4,1,2.1a8.8542,8.8542,0,0,1,0,2.3c0,.7,2.2,1.6,2.5,2.6a2.2675,2.2675,0,0,1-.7,2.3c-.8.6-2,0-2.7,0l-.7,1.5c-1.9,1.5-4.4.5-5.6,2.4-.7,1-.4,2.4-1.3,3.5s-2.9.4-3.4,2.1c-.9,2.9,3.7,1.7,4.6,3.8.3.8-.3,2,0,2.8.5,2.4.9.7,1.7,1.8s.4,1.7,1.1,2.6c1.9,2.2,5.6,0,7.9-.5-.6,1.5-5.6,2.9-6,4.5-.3,1.6,3.9,1.7,3,4.6,1.3,1.1,3.3.3,4.8.6a9.8259,9.8259,0,0,0,4.8.6c-1.2,1.6-3.5,3.3-3.7,5.6,1.6,0,2.8,1.1,2.1,2.8a3.9,3.9,0,0,0,3,0,2.3893,2.3893,0,0,1,.5,1.4,5.2643,5.2643,0,0,0,.3-3.9l-.7-.7a5.4453,5.4453,0,0,1,3.8,3.7c0,1.1-.7,3.3,0,4.2,1.2,1.7,7,.7,8.7,1.2s2.4,1.6,3.7,2.1c1.2.5,4.3.7,3.8,3s-3.5,1.5-.7,2.8a4.1022,4.1022,0,0,0,5-1.5c1.4,0,1.5,1.6,1.6,2.7,1,0,1.4-1.1,2.2-1.4a9.6367,9.6367,0,0,1,2.4,0c.8,0,1.4-1.2,2.3-1.4s1.9.4,2.8,0,2.1-.9,2.4-1l1.1,1c1.4,0,3.4-1.9,3.9.7,1.6.5,1.4-1.1,2.5-1.4,1.2-.3,1.5.4,2.5.7s2.6,0,3.4,1h.3c2.5,0,5.3-.4,8.1-.3l3.6-1.2c1.2-.5,2.6,0,3.8,0,1.1,0,1.6-2.3,3.9-2.9s4.9-2.3,8.1-1.1a13.0636,13.0636,0,0,1,2.1.8l.6,1.5h1.5a13.77,13.77,0,0,0,2.4,1.4h3.9a25.4937,25.4937,0,0,1,4.6.4,2.4319,2.4319,0,0,0,1.3.7c.6.1.7-1,1.6-.5s.3,2.5,2.9,2.8c2.6.2,1.7-1.2,3.3-2.3,2.4-1.7,2.1,1.5,4.4,1.5a10.1787,10.1787,0,0,0-.3-3.5l-1.9-2.2h-2c-.6,0,0-1.2,0-1.4s-2.5,0-3.3-1.5c-1.6-3.3,4.2-1,5.6-.5,1.4.4,2.1,1.6,3.7,1.1s1.7-3.4,3.5-.7c.5-3.4,6.7,1.1,3.9-4.4,3.4-.8,0-2.5,0-3.7,0-2.4,1.9-1.9,3.2-2.1,3.1-.7,3.7-2.3,3.8-5.6a5.4157,5.4157,0,0,1,1.1-3.7c1-1.8.6-1.5,2.6-2h1.3c.9,0,1.1-.8,1.9-1.1.7-.3,2.8-.7,3.2-1.5.6-3.4-5.2-2.7-6.6-2.7Z" transform="translate(-9.3839 -0.0881)" fill="#235912"/><path d="M317.9,363.4a31.4142,31.4142,0,0,1-4.6-2.8c-1.2-.7-1.9-.7-2.5-2.3-1.7-4.3,3.7-1.9,6.3-1.9.9,0,2.4.5,2.9-.5.6-.9-1.1-2.7-2-3.1a5.5783,5.5783,0,0,0,.5-3.8c-1-2.4-1.8,0-3.5-.6a2.323,2.323,0,0,1-1.7-2.8v-.2c.5-1.7,1.2-1,2.6-1.5s.8-1,1.5-1.1,1.7.7,2.3.6a2.5033,2.5033,0,0,0,2.4-2.4c0-2.5-1.3-1-2.6-1.4-1.4-.4-1.1-1.4-2-2.4-.8-1.1-5.6-2.3-3.7-5.6.6-.8,2.1-.6,2.4-1.7s-.5-1.7-.6-2.4c-.5-2-.3-3.2-2.4-4.2a13.4162,13.4162,0,0,0-5.2-1.4c-1.5,0-2.6,2.5-4.6,0-1-1.1,0-2.9-.8-3.8s-3.5,0-4.5,0-3.5.4-4.2-.4v-1.6l-1.1-1.4c-.4-1.6,1.2-1.8,1.1-3.4s-3-2.1-3.5-3.4l-.4.5v-.7a6.2,6.2,0,0,0,.5-4.8,8.1754,8.1754,0,0,1-7-2c-.4-.5,0-1.2-.7-1.7a7.1935,7.1935,0,0,0-2.1-1.2c-1.7-1.2-1.4-1.2-1.7-2.8a1.9953,1.9953,0,0,0,.5-1.3c-.1-.6-1.5-1.3-2.7-1.6s-2.7,0-3.4-1.6.8-3,.5-3.4a4.28,4.28,0,0,0-3.7,0c-3-2.4,1.5-3.9,1.4-5.6-.2-1.7-3.3-2.3-4.9-2.1s-1.7.9-3,1.3c-2.8.8-4.4-1.8-6.6-2.7a18.2859,18.2859,0,0,1-3.9-2.1c-1.1-.7-3.1-1.9-4.3-1.2s-.4,2.4-1.2,3.4-2.5,0-4.1,1.4-1,3.8-2.9,2.1c-1.1-.9,0-3.4-2.3-3.4-1.3,0-3.3,2.1-4.6,2.6-1.2.6-2.5,0-3.8.5a37.2961,37.2961,0,0,0-3.5,1.6,20.6514,20.6514,0,0,1-3.4,1.5c-2.1.5-2.5,0-4.1,1.4a8.92,8.92,0,0,0-2,3.7c-.6,1.6-.4,2.1-2.5,2.5a4.629,4.629,0,0,1-3.8-.8c-.7,4.1-2.5,1-4.8,3.3-1,.9-.7,1.8-1,3-.5,2.4-.7,1.4-2.7,2.2s-2.3,4.4-1.7,7,2.3,3.4-.6,4.4a3.1067,3.1067,0,0,1-3.7-1.4c-.5-.8,0-8.6-3-4.4-.7,1,0,2.7,0,3.8-.8,2.4-2.8,1.1-3.5,2.5-.7,1.5,1,2.4.3,3.5s-3.1.6-4.2,1.2c-1.1.7-.7,1.3-1.7,1.7a4.4109,4.4109,0,0,1-2.3,0c-.6,0-1.4,0-1.2,2,0,3.1,1.6,2.1-1.6,3.5-.7.3-1,1-1.9,1.3s-2.3-.5-2.8.7c-.6,1.2,1,1.8,1.2,2.4a6.0389,6.0389,0,0,1,0,1.9c0,1.1-1.6,0-.7,1.7.4,1,2.5,1.4,3.4,2a8.2249,8.2249,0,0,0-.6,3.8c0,1,.8,1.4,1.1,2.1a8.8449,8.8449,0,0,1,0,2.3c0,.6,2.2,1.6,2.4,2.6a2.0872,2.0872,0,0,1-.7,2.3c-.8.6-2-.3-2.8,0l-.7,1.5c-1.9,1.4-4.4.5-5.6,2.4-.8,1-.4,2.4-1.4,3.4-1,1.1-2.9.5-3.4,2.2-.8,2.9,3.7,1.6,4.6,3.8.3.9-.3,2,0,2.8.4,2.3.9.7,1.7,1.8s.3,1.7,1.1,2.6c1.9,2.2,5.6,0,8-.5-.6,1.5-5.6,2.9-6,4.5-.3,1.6,3.9,1.7,3,4.5,1.4,1.1,3.3.4,4.8.6s2.7,1.1,4.8.7c-1.2,1.6-3.5,3.3-3.7,5.6,1.6,0,2.8,1,2,2.8a3.8978,3.8978,0,0,0,3,0,2.41,2.41,0,0,1,.4,1.5,5.5266,5.5266,0,0,0,.3-4l-.7-.7a5.1023,5.1023,0,0,1,3.8,3.7c.3,1.1-.7,3.4,0,4.2,1.2,1.7,7,.7,8.7,1.2s2.4,1.7,3.7,2.1c1.3.5,4.3.7,3.8,3s-3.4,1.5-.7,2.8a4.1022,4.1022,0,0,0,5-1.5c1.4,0,1.5,1.6,1.6,2.7,1,0,1.4-1.2,2.2-1.4a9.6423,9.6423,0,0,1,2.4,0c.8,0,1.4-1.2,2.3-1.4s1.9.4,2.8.3,2-1,2.4-1l1.6.6c1.4,0,3.4-1.9,3.9.7,1.6.5,1.4-1.1,2.5-1.4,1.2-.3,1.4.4,2.4.7s2.7,0,3.5,1c2.5,0,5.6-.5,8.1-.3l3.6-1.3c1.1-.4,2.6,0,3.7,0,2-.7,1.7-2.3,3.9-2.9s4.9-2.3,8-1.2a8.488,8.488,0,0,1,2.2.9l.6,1.4h1.5a9.7369,9.7369,0,0,0,2.4,1.5h3.9a25.8462,25.8462,0,0,1,4.6.3,3.3963,3.3963,0,0,0,1.2.8c.6.1.7-1,1.7-.5s.3,2.6,2.9,2.8,1.7-1.2,3.3-2.3,2.1,1.5,4.3,1.5a6.915,6.915,0,0,0,0-3.5l-2.6-2.5h-1.9c-.6,0,0-1.2,0-1.5,0-.2-2.5,0-3.3-1.5-1.6-3.3,4.3-1,5.6-.5,1.4.5,2.1,1.6,3.7,1.1s1.7-3.4,3.5-.7c.5-3.4,6.8,1.1,4-4.3,3.4-.8,0-2.5,0-3.7,0-2.4,2-1.9,3.3-2.2,3.1-.7,3.7-2.3,3.8-5.6a5.4157,5.4157,0,0,1,1.1-3.7c1.1-1.8.6-1.5,2.6-2h1.2c.9,0,1.2-.8,1.9-1.1s2.8-.7,3.2-1.6c1.4-2.9-4.4-2.1-5.8-2.6Z" transform="translate(-9.3839 -0.0881)" fill="#1d6602"/><path d="M353.4,312.8a31.4142,31.4142,0,0,1-4.6-2.8c-1.1-.7-1.9-.6-2.5-2.3-1.7-4.3,3.7-1.9,6.3-1.9,1,0,2.4.5,2.9-.5.6-.9-1-2.7-2-3.1a5.5783,5.5783,0,0,0,.5-3.8c-1-2.4-1.8,0-3.4-.6a2.26,2.26,0,0,1-1.8-2.6c0-.1,0-.2.1-.2.5-1.7,1.2-1,2.7-1.6.6,0,.7-1,1.5-1.1s1.6.7,2.3.6a2.6775,2.6775,0,0,0,2.5-2.4c0-2.4-1.4-1-2.7-1.4-1.4-.5-1.1-1.4-2-2.4-.8-1.1-5.6-2.3-3.7-5.6.6-.8,2.1-.6,2.5-1.7s-.5-1.7-.6-2.4c-.5-2-.3-3.2-2.4-4.2a13.4162,13.4162,0,0,0-5.2-1.4c-1.6,0-2.6,2.5-4.6.3-1-1.1,0-2.9-.8-3.8-.8-1-3.5,0-4.5,0s-3.4.4-4.2-.4V266l-1-1.5c-.4-1.6,1.2-1.8,1-3.4s-3-2-3.5-3.4l-.3.5v-.7a6.2006,6.2006,0,0,0,.5-4.8,7.35,7.35,0,0,1-6.9-2c-.5-.5,0-1.2-.7-1.7a7.1935,7.1935,0,0,0-2.1-1.2c-1.7-1.2-1.4-1.2-1.7-2.8a1.9954,1.9954,0,0,0,.5-1.3c-.2-.6-1.5-1.3-2.7-1.6s-2.7,0-3.4-1.6.8-2.9.5-3.4-2.7-.7-3.7,0c-3-2.4,1.6-3.9,1.4-5.6s-3.3-2.2-4.9-2-1.7.8-3,1.2c-2.7.8-4.4-1.8-6.6-2.7a18.2859,18.2859,0,0,1-3.9-2.1c-1.1-.7-3-1.9-4.3-1.2s-.4,2.4-1.1,3.4-2.5,0-4.1,1.4-1,3.8-2.9,2.1c-1.1-.9,0-3.4-2.3-3.4-1.4,0-3.4,2.1-4.6,2.6s-2.5,0-3.8.5a22.1368,22.1368,0,0,0-3.5,1.6,20.6551,20.6551,0,0,1-3.4,1.5c-2.1.5-2.5,0-4.1,1.5a7.467,7.467,0,0,0-2,3.7c-.6,1.6-.4,2.1-2.5,2.5a4.7071,4.7071,0,0,1-3.8-.8c-.7,4.1-2.5,1-4.9,3.3-1,.9-.7,1.8-1,3-.5,2.4-.7,1.4-2.7,2.2s-2.3,4.4-1.7,7,2.3,3.5-.6,4.4a2.86,2.86,0,0,1-3.7-1.4c-.5-.8,0-8.6-3-4.4-.8,1.1,0,2.7,0,3.8-.8,2.3-2.8,1-3.5,2.5s1,2.4.4,3.5-3.2.5-4.3,1.2-.7,1.3-1.7,1.7a4.4109,4.4109,0,0,1-2.3,0c-.6,0-1.4,0-1.2,2.1,0,3,1.6,2-1.6,3.4-.7.3-1,1-1.9,1.3s-2.3-.5-2.8.7c-.6,1.2,1.1,1.8,1.2,2.5a5.4375,5.4375,0,0,1,0,1.8c0,1.1-1.6,0-.7,1.7.4,1,2.5,1.4,3.4,2a8.2247,8.2247,0,0,0-.6,3.8c0,1,.8,1.4,1,2.1a8.8542,8.8542,0,0,1,0,2.3c0,.6,2.2,1.6,2.4,2.6a2.0872,2.0872,0,0,1-.7,2.3c-.8.6-2,0-2.8,0l-.7,1.5c-1.9,1.4-4.4.5-5.6,2.4-.7,1-.4,2.4-1.3,3.5s-2.9.4-3.4,2.1c-.8,2.9,3.8,1.7,4.6,3.8.3.8-.3,2,0,2.8.4,2.3.9.7,1.7,1.8s.4,1.7,1.1,2.6c1.9,2.2,5.6,0,8-.5-.6,1.5-5.6,2.9-6,4.5-.3,1.6,3.9,1.7,3,4.6,1.3,1.1,3.3.3,4.8.6a9.8259,9.8259,0,0,0,4.8.6c-1.2,1.6-3.5,3.3-3.7,5.6,1.6,0,2.8,1.1,2.1,2.8a3.9,3.9,0,0,0,3,0,2.3886,2.3886,0,0,1,.5,1.4,5.2644,5.2644,0,0,0,.3-3.9l-.7-.7a5.102,5.102,0,0,1,3.8,3.7c0,1.1-.7,3.4,0,4.2,1.2,1.7,7,.7,8.7,1.2s2.4,1.6,3.7,2.1,4.3.7,3.8,3c-.6,2.3-3.4,1.5-.7,2.8a4.1022,4.1022,0,0,0,5-1.5c1.4,0,1.5,1.6,1.6,2.7,1,0,1.4-1.1,2.2-1.4a6.4562,6.4562,0,0,1,2.4,0c.8,0,1.4-1.2,2.3-1.4s1.9.4,2.8,0a15.6282,15.6282,0,0,1,2.4-1l1.6.6c1.4,0,3.4-1.9,3.9.7,1.6.5,1.4-1.1,2.5-1.4,1.2-.3,1.4.4,2.4.7s2.7.3,3.5,1c2.5,0,5.6-.4,8.1-.3l3.6-1.2c1.2-.5,2.6,0,3.8,0,1.1,0,1.6-2.3,3.9-2.9s4.9-2.3,8.1-1.1a13.073,13.073,0,0,1,2.1.8l.6,1.5h1.5a9.7388,9.7388,0,0,0,2.4,1.5h3.9a19.5044,19.5044,0,0,1,4.6.4c.3,0,.7.7,1.2.7s.7-1,1.7-.5.3,2.5,2.9,2.8c2.6.2,1.7-1.2,3.3-2.3,2.4-1.7,2.1,1.5,4.4,1.5a10.1813,10.1813,0,0,0-.3-3.5l-1.9-2.2h-2c-.6,0,0-1.2,0-1.4s-2.5,0-3.3-1.5c-1.6-3.3,4.2-1,5.6-.5s2.1,1.6,3.7,1.1,1.7-3.4,3.5-.7c.5-3.4,6.7,1.1,3.9-4.4,3.4-.8,0-2.5,0-3.7,0-2.4,2-1.9,3.3-2.1,3.1-.7,3.7-2.3,3.8-5.6a5.4152,5.4152,0,0,1,1.1-3.7c1-1.8.6-1.5,2.6-2h1.2c.9,0,1.2-.8,1.9-1.1s2.8-.7,3.2-1.5c.4-3.9-5.4-3-6.9-3.5Z" transform="translate(-9.3839 -0.0881)" fill="#244917"/><path d="M411.5,221.9a21.7732,21.7732,0,0,1-4.6-2.8c-1.2-.7-1.9-.6-2.5-2.2-1.7-4.3,3.7-1.9,6.3-1.9.9,0,2.4.4,2.9-.5.6-.8-1.1-2.7-2-3.1a5.5783,5.5783,0,0,0,.5-3.8c-1-2.4-1.8,0-3.5-.6a2.323,2.323,0,0,1-1.7-2.8V204c.5-1.7,1.2-1,2.6-1.5s.8-1,1.5-1.1c.7-.2,1.7.7,2.3.6a2.5949,2.5949,0,0,0,2.4-2.5c0-2.4-1.3-1-2.6-1.4-1.4-.4-1.1-1.4-2-2.4-.8-1-5.6-2.4-3.7-5.6.6-.8,2.1-.7,2.4-1.8s-.5-1.6-.6-2.3c-.5-2.1-.3-3.3-2.4-4.2a13.4162,13.4162,0,0,0-5.2-1.4c-1.5,0-2.6,2.5-4.6,0-1-1.1,0-2.9-.8-3.8s-3.5,0-4.5,0-3.5.5-4.2-.4v-1.6l-1.1-1.4c-.4-1.7,1.2-1.9,1.1-3.5-.2-1.6-3-2-3.5-3.4l-.4.5v-.7a6.2006,6.2006,0,0,0,.5-4.8,7.5355,7.5355,0,0,1-7-2c-.4-.5,0-1.1-.7-1.7a15.6925,15.6925,0,0,0-2.1-1.2c-1.7-1.1-1.4-1.2-1.7-2.7a2.0874,2.0874,0,0,0,.5-1.4c-.2-.6-1.5-1.2-2.7-1.6-1.2-.3-2.8,0-3.4-1.6s.8-2.9.5-3.3-2.7-.7-3.7-.3c-3-2.4,1.5-3.9,1.4-5.6-.2-1.7-3.3-2.3-4.9-2.1s-1.7.8-3,1.3c-2.8.8-4.4-1.9-6.6-2.7a18.6522,18.6522,0,0,1-3.9-2.2c-1.1-.7-3.1-1.9-4.3-1.2s-.4,2.5-1.2,3.4-2.5,0-4.1,1.4-1,3.8-2.9,2.1c-1.1-1,0-3.4-2.3-3.5-1.3,0-3.3,2.1-4.6,2.7-1.2.6-2.5,0-3.8.5a22.6128,22.6128,0,0,0-3.5,1.7,20.25,20.25,0,0,1-3.4,1.4c-2.1.5-2.5,0-4.1,1.5a7.9157,7.9157,0,0,0-2,3.7c-.6,1.6-.4,2.1-2.5,2.5a4.7071,4.7071,0,0,1-3.8-.8c-.7,4-2.5.9-4.8,3.3-1,1-.7,1.9-1,3-.5,2.5-.7,1.4-2.7,2.2s-2.3,4.4-1.7,7,2.3,3.5-.6,4.5a3.0633,3.0633,0,0,1-3.7-1.4c-.5-.8,0-8.6-3-4.4-.7,1,0,2.6,0,3.8-.8,2.3-2.8,1.1-3.5,2.5-.7,1.5,1,2.4.3,3.5s-3.1.6-4.2,1.2-.7,1.4-1.7,1.7c-1,.4-1.7-.3-2.3,0s-1.4.3-1.2,2.1c0,3.1,1.6,2-1.6,3.5-.7.3-1,1-1.9,1.3s-2.3-.5-2.8.7c-.6,1.2,1,1.7,1.2,2.4a5.4375,5.4375,0,0,1,0,1.8c0,1.2-1.6,0-.7,1.7.4,1,2.5,1.4,3.4,2a8.2247,8.2247,0,0,0-.6,3.8c0,1,.8,1.4,1.1,2.1a8.8542,8.8542,0,0,1,0,2.3c0,.7,2.1,1.6,2.4,2.6a2.0412,2.0412,0,0,1-.7,2.3c-.8.6-2-.3-2.8,0l-.7,1.5c-1.9,1.5-4.4.5-5.6,2.4s-.4,2.4-1.4,3.5-2.9.5-3.4,2.1c-.8,2.9,3.7,1.7,4.6,3.8a8.7674,8.7674,0,0,1,0,2.8c.4,2.4.9.7,1.7,1.9.8,1.1.3,1.7,1.1,2.6,1.9,2.2,5.6,0,8-.5-.6,1.5-5.6,2.9-6,4.4-.3,1.5,3.9,1.7,3,4.6,1.4,1.1,3.3.3,4.8.6a9.8259,9.8259,0,0,0,4.8.6c-1.2,1.7-3.5,3.3-3.7,5.6,1.6,0,2.8,1.1,2,2.8a3.8978,3.8978,0,0,0,3,0,2.2959,2.2959,0,0,1,.4,1.4,5.2643,5.2643,0,0,0,.3-3.9l-.7-.7a5.6333,5.6333,0,0,1,3.8,3.7c0,1.1-.7,3.3,0,4.2,1.2,1.8,7,.7,8.7,1.2s2.4,1.6,3.7,2.1,4.3.6,3.8,3-3.4,1.4-.7,2.7a3.9859,3.9859,0,0,0,5-1.5c1.4,0,1.5,1.6,1.6,2.6,1,0,1.4-1.1,2.2-1.4a9.6375,9.6375,0,0,1,2.4,0c.8,0,1.4-1.2,2.3-1.5.9-.2,1.9.5,2.8,0a7.2775,7.2775,0,0,1,2.4-.9l1.6.6c1.4,0,3.4-2,3.9.7,1.6.4,1.4-1.2,2.5-1.5,1.2-.3,1.4.4,2.4.7s2.7.3,3.5,1.1c2.5,0,5.6-.4,8.1-.3l3.6-1.2c1.1-.4,2.6,0,3.7,0,2-.7,1.7-2.3,3.9-2.9,2.3-.6,4.9-2.2,8-1.1a14.2763,14.2763,0,0,1,2.2.8l.6,1.5h1.5a9.4556,9.4556,0,0,0,2.4,1.4h3.9a25.4874,25.4874,0,0,1,4.6.4,3.3975,3.3975,0,0,0,1.2.8c.5.1.7-1,1.7-.5s.3,2.5,2.9,2.8c2.6.2,1.7-1.2,3.3-2.3s2.1,1.5,4.3,1.4a6.915,6.915,0,0,0,0-3.5l-2-2.1h-1.9c-.5,0,0-1.2,0-1.5,0-.2-2.5,0-3.3-1.5-1.6-3.3,4.3-1,5.6-.5,1.4.5,2,1.7,3.7,1.1s1.7-3.3,3.5-.7c.5-3.4,6.8,1.1,4-4.3,3.4-.8,0-2.5,0-3.8,0-2.4,2-1.9,3.3-2.1,3.1-.7,3.7-2.3,3.8-5.6A5.5721,5.5721,0,0,1,409,229c1.1-1.8.6-1.6,2.6-2.1h1.2c.9,0,1.2-.8,1.9-1.1s2.8-.7,3.2-1.5c.9-2.7-4.9-1.9-6.4-2.4Z" transform="translate(-9.3839 -0.0881)" fill="#244917"/><path d="M317.9,168.3a31.4142,31.4142,0,0,1-4.6-2.8c-1.2-.7-1.9-.6-2.5-2.2-1.7-4.3,3.7-1.9,6.3-1.9.9,0,2.4.5,2.9-.5.6-.9-1.1-2.7-2-3.1a5.5783,5.5783,0,0,0,.5-3.8c-1-2.4-1.8,0-3.5-.6a2.2207,2.2207,0,0,1-1.7-2.7c0-.1,0-.1.1-.2.5-1.7,1.2-1,2.6-1.6s.8-1,1.5-1.1,1.7.7,2.3.6a2.5034,2.5034,0,0,0,2.4-2.4c0-2.4-1.3-1-2.6-1.4-1.4-.5-1.1-1.4-2-2.4-.8-1.1-5.6-2.3-3.7-5.6.6-.8,2.1-.6,2.4-1.7s-.5-1.6-.6-2.3c-.5-2.1-.3-3.3-2.4-4.2a15.5684,15.5684,0,0,0-5.2-1.5c-1.5,0-2.6,2.5-4.6.3-1-1.1,0-2.9-.8-3.8-.8-1-3.5,0-4.5,0s-3.5.4-4.2-.4v-1.6l-1.1-1.5c-.4-1.6,1.2-1.8,1.1-3.4-.2-1.6-3-2-3.5-3.4l-.4.5v-.7a6.2006,6.2006,0,0,0,.5-4.8,7.5355,7.5355,0,0,1-7-2c-.4-.5,0-1.2-.7-1.7s-1.5-.8-2.1-1.2c-1.7-1.2-1.4-1.2-1.7-2.7a2.0874,2.0874,0,0,0,.5-1.4c-.2-.6-1.5-1.3-2.7-1.6s-2.7,0-3.4-1.6.8-2.9.5-3.4-2.7-.7-3.7,0c-3-2.4,1.5-3.9,1.4-5.6-.2-1.7-3.3-2.2-4.9-2s-1.7.8-3,1.2c-2.8.8-4.4-1.8-6.6-2.7a14.7143,14.7143,0,0,1-3.9-2.1c-1.1-.7-3.1-1.9-4.3-1.2s-.4,2.4-1.2,3.4-2.5,0-4.1,1.4-1,3.8-2.9,2.1c-1.1-1,0-3.4-2.3-3.5-1.3,0-3.3,2.1-4.6,2.6-1.2.5-2.5,0-3.8.5a16.1534,16.1534,0,0,0-3.5,1.7,20.2533,20.2533,0,0,1-3.4,1.4c-2.1.5-2.5,0-4.1,1.5a7.9157,7.9157,0,0,0-2,3.7c-.6,1.6-.4,2.1-2.5,2.5a4.629,4.629,0,0,1-3.8-.8c-.7,4.1-2.5,1-4.8,3.3-1,.9-.7,1.8-1,3-.5,2.4-.7,1.4-2.7,2.2s-2.3,4.4-1.7,7,2.3,3.5-.6,4.4a2.9842,2.9842,0,0,1-3.9-1.7h0c-.5-.8,0-8.6-3-4.4-.7,1.1,0,2.7,0,3.8-.8,2.3-2.8,1-3.5,2.5s1,2.4.3,3.5-3.1.6-4.2,1.2-.7,1.3-1.7,1.7a4.4109,4.4109,0,0,1-2.3,0c-.6,0-1.4,0-1.2,2.1,0,3.1,1.6,2-1.6,3.4-.7.3-1,1-1.9,1.3s-2.3-.5-2.8.7c-.6,1.2,1,1.8,1.2,2.5a5.4375,5.4375,0,0,1,0,1.8c0,1.2-1.6,0-.7,1.7.4,1,2.5,1.4,3.4,2a8.226,8.226,0,0,0-.6,3.8c0,1,.8,1.4,1.1,2.1a8.8542,8.8542,0,0,1,0,2.3c0,.7,2.2,1.6,2.4,2.6a2.0871,2.0871,0,0,1-.7,2.3c-.8.6-2,0-2.8,0l-.7,1.5c-1.9,1.5-4.4.5-5.6,2.4s-.4,2.4-1.4,3.5-2.9.4-3.4,2.1c-.8,2.9,3.7,1.7,4.6,3.8.3.8-.3,2,0,2.8.4,2.4.9.7,1.7,1.8s.3,1.8,1.1,2.6c1.9,2.2,5.6,0,8-.5-.6,1.5-5.6,3-6,4.5-.3,1.5,3.9,1.7,3,4.6,1.4,1.1,3.3.3,4.8.6a9.8259,9.8259,0,0,0,4.8.6c-1.2,1.6-3.5,3.3-3.7,5.6,1.6,0,2.8,1.1,2,2.8a3.8978,3.8978,0,0,0,3,0,2.2959,2.2959,0,0,1,.4,1.4,5.2643,5.2643,0,0,0,.3-3.9l-.7-.7a5.4453,5.4453,0,0,1,3.8,3.7c.3,1.1-.7,3.3,0,4.2,1.2,1.7,7,.7,8.7,1.2s2.4,1.6,3.7,2.1,4.3.7,3.8,3-3.4,1.5-.7,2.8a4.1022,4.1022,0,0,0,5-1.5c1.4.3,1.5,1.6,1.6,2.7,1,0,1.4-1.1,2.2-1.4a9.6375,9.6375,0,0,1,2.4,0c.8,0,1.4-1.2,2.3-1.4s1.9.4,2.8,0a10.6974,10.6974,0,0,1,2.4-.9l1.6.6c1.4,0,3.4-1.9,3.9.7,1.6.5,1.4-1.1,2.5-1.4,1.2-.3,1.4.4,2.4.7s2.7,0,3.5,1c2.5,0,5.6-.4,8.1-.3l3.6-1.2c1.1-.5,2.6,0,3.7,0,2-.7,1.7-2.3,3.9-2.9,2.3-.6,4.9-2.3,8-1.1a14.2725,14.2725,0,0,1,2.2.8l.6,1.5h1.5a13.77,13.77,0,0,0,2.4,1.4h3.9a19.5044,19.5044,0,0,1,4.6.4,3.3975,3.3975,0,0,0,1.2.8c.6.1.7-1.1,1.7-.5s.3,2.5,2.9,2.8c2.6.2,1.7-1.2,3.3-2.3s2.1,1.5,4.3,1.5a6.915,6.915,0,0,0,0-3.5l-2.5-2.3h-1.9c-.6,0,0-1.2,0-1.4s-2.5,0-3.3-1.5c-1.6-3.3,4.3-1,5.6-.5,1.4.5,2.1,1.6,3.7,1.1s1.7-3.4,3.5-.7c.5-3.4,6.8,1.1,4-4.4,3.4-.8,0-2.5,0-3.7,0-2.4,2-1.9,3.3-2.1,3.1-.7,3.7-2.3,3.8-5.6a5.4157,5.4157,0,0,1,1.1-3.7c1.1-1.8.6-1.5,2.6-2h1.2c.9,0,1.2-.8,1.9-1.1s2.6-.8,2.6-1.4c2-3.4-3.8-2.6-5.2-3.1Z" transform="translate(-9.3839 -0.0881)" fill="#244917"/><path d="M363.6,265.5a21.7732,21.7732,0,0,1-4.6-2.8c-1.1-.7-1.9-.7-2.5-2.3-1.7-4.3,3.7-1.9,6.3-1.9,1,0,2.4.5,3-.5.6-.9-1.1-2.7-2-3.1a6.2249,6.2249,0,0,0,.5-3.8c-1-2.4-1.7,0-3.4-.6a2.3359,2.3359,0,0,1-1.8-2.7c0-.1,0-.1.1-.2.5-1.7,1.3-1,2.7-1.5s.7-1,1.5-1.1,1.7.7,2.3.6a2.5809,2.5809,0,0,0,2.4-2.4c0-2.4-1.4-1-2.6-1.4-1.3-.4-1.2-1.4-2-2.4-.8-1.1-5.6-2.3-3.6-5.6.6-.8,2.1-.6,2.4-1.7s-.5-1.7-.6-2.4c-.5-2-.3-3.2-2.4-4.2a13.4143,13.4143,0,0,0-5.2-1.4c-1.5,0-2.6,2.5-4.6.3-1-1.1,0-2.9-.8-3.8s-3.4,0-4.4,0-3.5.4-4.2-.4v-1.6l-1-1.5c-.4-1.6,1.2-1.8,1-3.4s-3-2-3.5-3.4l-.5.3V210a6.6741,6.6741,0,0,0,.5-4.8,7.7094,7.7094,0,0,1-7.2-2.1c-.4-.5,0-1.2-.7-1.7a8.1769,8.1769,0,0,0-2-1.2c-1.7-1.2-1.4-1.2-1.8-2.8,0,0,.7-.7.5-1.3s-1.5-1.3-2.6-1.6-2.8,0-3.4-1.6.7-2.9.5-3.4c-.3-.5-2.7-.7-3.6,0-3-2.4,1.5-3.9,1.3-5.6s-3.3-2.3-4.8-2.1c-1.6.2-1.7.9-3,1.3-2.7.8-4.3-1.8-6.6-2.7a18.2835,18.2835,0,0,1-3.9-2.1c-1-.7-3-1.9-4.3-1.2-1.2.7-.4,2.4-1.2,3.4s-2.5,0-4.1,1.4-1,3.8-2.9,2.1c-1.1-.9,0-3.4-2.3-3.4-1.4,0-3.4,2.1-4.6,2.6s-2.5,0-3.8.5a37.2727,37.2727,0,0,0-3.5,1.6,20.6524,20.6524,0,0,1-3.4,1.5c-2,.5-2.5,0-4.1,1.5a10.2319,10.2319,0,0,0-2,3.7c-.6,1.6-.3,2.1-2.5,2.5a4.7071,4.7071,0,0,1-3.8-.8c-.7,4.1-2.5,1-4.9,3.3-.9.9-.7,1.8-.9,3-.5,2.4-.7,1.4-2.7,2.2s-2.3,4.4-1.7,7,2.3,3.5-.6,4.4a3.1067,3.1067,0,0,1-3.7-1.4c-.5-.8,0-8.6-3-4.4-.8,1,0,2.7,0,3.8-.8,2.4-2.8,1.1-3.5,2.5-.7,1.5,1.1,2.4.4,3.5s-3.1.6-4.2,1.2c-1.1.7-.7,1.3-1.7,1.7a4.4109,4.4109,0,0,1-2.3,0c-.6,0-1.4,0-1.2,2,0,3.1,1.6,2.1-1.5,3.5-.8.3-1,1-2,1.3s-2.3-.5-2.8.7c-.6,1.2,1.1,1.8,1.2,2.4a6.0449,6.0449,0,0,1,0,1.9c0,1.1-1.5,0-.7,1.7.5,1,2.6,1.4,3.4,2a8.2247,8.2247,0,0,0-.6,3.8c0,1,.8,1.4,1,2.1a8.8449,8.8449,0,0,1,0,2.3c0,.6,2.2,1.6,2.5,2.6a2.0872,2.0872,0,0,1-.7,2.3c-.7.6-2-.3-2.7,0l-.7,1.5c-1.8,1.4-4.4.5-5.6,2.4-.8,1-.4,2.4-1.4,3.4s-2.9.5-3.4,2.2c-.8,2.9,3.7,1.7,4.6,3.8.3.9-.3,2,0,2.8.4,2.3.9.7,1.7,1.8s.3,1.7,1.1,2.6c1.9,2.2,5.6,0,8-.5-.6,1.5-5.6,2.9-6,4.5s4,1.7,3,4.5c1.3,1.1,3.3.4,4.8.6,1.6.2,2.6,1.1,4.7.7-1.2,1.6-3.5,3.3-3.7,5.6,1.7,0,2.8,1,2.1,2.8a3.8978,3.8978,0,0,0,3,0,2.41,2.41,0,0,1,.4,1.5,5.5644,5.5644,0,0,0,.3-4l-.7-.7a5.309,5.309,0,0,1,3.7,3.7c0,1.1-.6,3.4,0,4.2,1.2,1.7,7,.7,8.7,1.2s2.4,1.7,3.7,2.1c1.3.5,4.3.7,3.8,3s-3.5,1.5-.7,2.8a4.1022,4.1022,0,0,0,5-1.5c1.5,0,1.5,1.6,1.6,2.7,1,0,1.4-1.2,2.3-1.4a9.6282,9.6282,0,0,1,2.4,0c.8,0,1.4-1.2,2.3-1.4s2,.4,2.9.3,2-1,2.4-1l1.6.6c1.4,0,3.4-1.9,3.9.7,1.6.5,1.4-1.1,2.5-1.4s1.5.4,2.5.7a8.7837,8.7837,0,0,1,3.5,1c2.6,0,5.6-.4,8.1-.3l3.6-1.2c1.2-.5,2.6,0,3.8,0s1.6-2.3,3.9-2.9,5-2.3,8.1-1.2a8.493,8.493,0,0,1,2.2.9l.6,1.4H320a9.7369,9.7369,0,0,0,2.4,1.5h3.9a27.0089,27.0089,0,0,1,4.7.4,2.7472,2.7472,0,0,0,1.2.7c.6.1.7-1,1.7-.5s.3,2.6,2.9,2.8,1.7-1.2,3.3-2.3c2.4-1.7,2.1,1.5,4.4,1.5a10.2787,10.2787,0,0,0,0-3.5l-2-2.2h-1.9c-.6,0,0-1.2,0-1.5s-2.5,0-3.3-1.5c-1.6-3.3,4.2-1,5.6-.5s2,1.6,3.7,1.1,1.7-3.4,3.5-.7c.5-3.4,6.8,1.1,3.9-4.4,3.4-.8,0-2.5,0-3.7,0-2.4,2-1.9,3.2-2.2,3.2-.7,3.8-2.3,3.8-5.6a5.4157,5.4157,0,0,1,1.1-3.7c1-1.8.6-1.5,2.6-2H366c.9,0,1.1-.8,1.9-1.1.7-.3,2.8-.7,3.2-1.6-.2-3.5-6-2.6-7.5-3.1Z" transform="translate(-9.3839 -0.0881)" fill="#235912"/><path d="M231,257.8a31.4142,31.4142,0,0,1-4.6-2.8c-1.1-.7-1.9-.7-2.5-2.3-1.7-4.3,3.7-1.9,6.3-1.9,1,0,2.4.5,2.9-.5.6-.9-1-2.7-2-3.1a5.5783,5.5783,0,0,0,.5-3.8c-1-2.4-1.8,0-3.4-.6a2.3359,2.3359,0,0,1-1.8-2.7c0-.1,0-.1.1-.2.5-1.7,1.2-1,2.6-1.5s.8-1,1.6-1.1,1.6.6,2.3.6a2.5033,2.5033,0,0,0,2.4-2.4c0-2.5-1.3-1-2.6-1.4-1.4-.4-1.1-1.4-2-2.4-.8-1-5.6-2.3-3.7-5.6.6-.8,2.1-.7,2.4-1.8s-.5-1.6-.6-2.3c-.5-2-.3-3.2-2.4-4.2a13.4162,13.4162,0,0,0-5.2-1.4c-1.5,0-2.6,2.5-4.6,0-1-1.1,0-2.9-.8-3.8s-3.5,0-4.5,0-3.4.5-4.2-.4v-1.6l-1-1.4c-.5-1.6,1.2-1.8,1-3.5s-3-2-3.5-3.4l-.4.5v-.6a6.2006,6.2006,0,0,0,.5-4.8,8.1754,8.1754,0,0,1-7-2c-.4-.5,0-1.2-.7-1.7a7.1935,7.1935,0,0,0-2.1-1.2c-1.7-1.2-1.4-1.3-1.7-2.8a1.9954,1.9954,0,0,0,.5-1.3c-.2-.6-1.5-1.3-2.7-1.6s-2.7,0-3.4-1.6.8-3,.5-3.4-2.7-.7-3.7-.3c-3-2.3,1.6-3.9,1.4-5.6s-3.3-2.3-4.9-2.1-1.7.9-3,1.3c-2.7.8-4.4-1.8-6.6-2.7a24.1867,24.1867,0,0,1-3.9-2.1c-1.1-.7-3.1-2-4.3-1.2-1.2.7-.4,2.5-1.1,3.4-.7,1-2.5,0-4.2,1.4-1.6,1.4-1,3.8-2.9,2.1-1.1-1,0-3.4-2.3-3.4-1.3,0-3.3,2.1-4.5,2.6-1.2.6-2.5,0-3.9.5a22.1327,22.1327,0,0,0-3.5,1.6,14.3441,14.3441,0,0,1-3.4,1.4c-2.1.5-2.5,0-4.1,1.5a7.9157,7.9157,0,0,0-2,3.7c-.6,1.6-.4,2.1-2.5,2.5a4.7071,4.7071,0,0,1-3.8-.8c-.7,4.1-2.5.9-4.8,3.3-1,1-.7,1.9-1,3.1-.5,2.4-.7,1.3-2.7,2.1s-2.3,4.4-1.7,7.1c.6,2.6,2.3,3.4-.6,4.4a3.0633,3.0633,0,0,1-3.7-1.4c-.5-.8,0-8.5-3-4.4-.7,1,0,2.6,0,3.8-.8,2.3-2.8,1.1-3.5,2.5-.7,1.5,1,2.4.4,3.5s-3.2.6-4.3,1.2c-1.1.7-.7,1.3-1.7,1.7a4.4109,4.4109,0,0,1-2.3,0c-.6,0-1.4.3-1.2,2.1,0,3.1,1.6,2.1-1.6,3.5-.7.3-1,1-1.9,1.3s-2.3-.5-2.8.7c-.6,1.2,1,1.7,1.2,2.4a6.0449,6.0449,0,0,1,0,1.9c0,1.1-1.6,0-.7,1.7.4,1,2.5,1.5,3.4,2a8.2247,8.2247,0,0,0-.6,3.8c0,1,.8,1.4,1,2.1a8.8449,8.8449,0,0,1,0,2.3c0,.6,2.2,1.6,2.4,2.6a2.0412,2.0412,0,0,1-.7,2.3c-.8.6-2-.3-2.8,0l-.7,1.5c-1.9,1.4-4.4.5-5.6,2.4-.8,1-.4,2.4-1.4,3.4-1,1.1-2.9.5-3.4,2.1-.8,2.9,3.7,1.7,4.6,3.8.4.9-.3,2,0,2.8.4,2.4.9.7,1.7,1.9.8,1.1.4,1.7,1.1,2.6,1.9,2.2,5.6,0,8-.5-.6,1.5-5.6,2.9-6,4.4-.3,1.5,3.9,1.7,3,4.6,1.3,1.1,3.3.4,4.8.6a11.2248,11.2248,0,0,0,4.8.7c-1.2,1.6-3.5,3.3-3.7,5.6,1.6,0,2.8,1,2,2.8a3.8978,3.8978,0,0,0,3,0,3.36,3.36,0,0,1,.5,1.4,5.2643,5.2643,0,0,0,.3-3.9l-.7-.7a5.1023,5.1023,0,0,1,3.8,3.7c.3,1.1-.7,3.3,0,4.2,1.2,1.8,7,.8,8.7,1.2,1.7.5,2.4,1.7,3.7,2.1,1.3.5,4.3.7,3.8,3s-3.4,1.4-.7,2.8a4.1022,4.1022,0,0,0,5-1.5c1.4,0,1.5,1.6,1.6,2.6,1,0,1.4-1.1,2.2-1.4a9.6327,9.6327,0,0,1,2.4,0c.8,0,1.4-1.2,2.3-1.5s1.9.5,2.8.3c.9-.1,2-1,2.4-1l1.6.6c1.4,0,3.4-2,3.9.7,1.6.5,1.4-1.1,2.5-1.5,1.2-.3,1.4.4,2.4.7s2.7,0,3.5,1c2.5,0,5.6-.5,8.1-.4l3.6-1.2c1.2-.4,2.6,0,3.8,0,2-.7,1.6-2.3,3.9-2.8,2.3-.6,4.9-2.3,8.1-1.2a6.6688,6.6688,0,0,1,2.1.9l.6,1.4h1.5a9.7369,9.7369,0,0,0,2.4,1.5H193a25.8563,25.8563,0,0,1,4.6.3c.3,0,.7.7,1.2.8s.7-1,1.7-.5.3,2.6,2.9,2.8,1.7-1.2,3.3-2.3,2.1,1.5,4.4,1.4a10.1789,10.1789,0,0,0-.3-3.5l-2-2.1h-1.9c-.6,0,0-1.2,0-1.5,0-.2-2.5,0-3.3-1.5-1.6-3.3,4.3-1,5.6-.6,1.4.4,2.1,1.7,3.7,1.2s1.7-3.4,3.5-.7c.5-3.4,6.7,1.1,3.9-4.3,3.4-.8,0-2.5,0-3.8,0-2.4,2-1.9,3.3-2.1,3.1-.7,3.7-2.3,3.8-5.6a5.5721,5.5721,0,0,1,1.1-3.7c1.1-1.8.6-1.6,2.6-2.1h1.2c.9,0,1.2-.8,1.9-1.2.7-.3,2.8-.7,3.2-1.5.8-3-5-2.1-6.4-2.6Z" transform="translate(-9.3839 -0.0881)" fill="#235912"/><path d="M160.2,277.1a21.7732,21.7732,0,0,1-4.6-2.8c-1.1-.7-1.9-.6-2.5-2.2-1.7-4.3,3.7-1.9,6.3-1.9,1,0,2.4.5,2.9-.5.6-.9-1-2.7-2-3.1a5.5783,5.5783,0,0,0,.5-3.8c-1-2.4-1.8,0-3.4-.6a2.26,2.26,0,0,1-1.8-2.6c0-.1,0-.2.1-.2.5-1.7,1.2-1,2.7-1.6.6,0,.7-1,1.5-1.1s1.6.7,2.3.6a2.5809,2.5809,0,0,0,2.4-2.4c0-2.4-1.4-1-2.6-1.4-1.3-.5-1.2-1.4-2-2.4s-5.6-2.3-3.6-5.6c.6-.8,2-.6,2.4-1.7s-.5-1.6-.6-2.4c-.5-2-.3-3.2-2.4-4.2a13.4162,13.4162,0,0,0-5.2-1.4c-1.6,0-2.6,2.5-4.6.3-1-1.1,0-2.9-.8-3.8-.8-1-3.4,0-4.5,0s-3.4.4-4.2-.4v-1.6l-1-1.5c-.4-1.6,1.2-1.8,1-3.4s-3-2-3.5-3.4l-.3.5v-.7a6.2006,6.2006,0,0,0,.5-4.8,7.35,7.35,0,0,1-6.9-2c-.4-.5,0-1.2-.7-1.7s-1.5-.8-2.1-1.2c-1.7-1.2-1.4-1.2-1.7-2.8,0,0,.7-.7.5-1.3s-1.5-1.3-2.7-1.6-2.7,0-3.4-1.6.8-2.9.5-3.4-2.7-.7-3.7,0c-3-2.4,1.6-3.9,1.4-5.6s-3.3-2.2-4.8-2c-1.6.2-1.7.8-3,1.2-2.7.8-4.4-1.8-6.6-2.7a18.2859,18.2859,0,0,1-3.9-2.1c-1-.7-3-1.9-4.3-1.2s-.4,2.4-1.1,3.4-2.5,0-4.1,1.4-1,3.8-2.9,2.1c-1.1-.9,0-3.4-2.3-3.4-1.4,0-3.4,2.1-4.6,2.6s-2.5,0-3.8.5a16.1534,16.1534,0,0,0-3.5,1.7,20.25,20.25,0,0,1-3.4,1.4c-2.1.5-2.5,0-4.1,1.5a7.9157,7.9157,0,0,0-2,3.7c-.6,1.6-.4,2.1-2.5,2.5a4.3355,4.3355,0,0,1-3.9-1.2c-.7,4.1-2.5,1-4.9,3.3-1,.9-.7,1.8-.9,3-.5,2.4-.7,1.4-2.7,2.2s-2.4,4.4-1.7,7c.6,2.6,2.3,3.5-.5,4.4a2.86,2.86,0,0,1-3.7-1.4c-.5-.8,0-8.6-3-4.4-.8,1.1,0,2.7,0,3.8-.8,2.3-2.8,1-3.5,2.5s1,2.4.4,3.5-3.1.5-4.2,1.2-.7,1.3-1.7,1.7a4.4109,4.4109,0,0,1-2.3,0c-.6,0-1.4,0-1.2,2.1,0,3.1,1.6,2-1.6,3.4-.7.3-1,1-1.9,1.3-1,.3-2.3-.5-2.8.7-.6,1.2,1.1,1.8,1.2,2.5a5.4375,5.4375,0,0,1,0,1.8c0,1.2-1.6,0-.7,1.7.5,1,2.5,1.4,3.4,2a8.2247,8.2247,0,0,0-.6,3.8c0,1,.8,1.4,1,2.1a8.8542,8.8542,0,0,1,0,2.3c0,.6,2.2,1.6,2.5,2.6a2.2674,2.2674,0,0,1-.7,2.3c-.8.6-2,0-2.7,0l-.7,1.5c-1.9,1.5-4.4.5-5.9,2.4-.7,1-.4,2.4-1.3,3.5s-2.9.4-3.4,2.1c-.9,2.9,3.7,1.7,4.6,3.8.3.8-.3,2,0,2.8.5,2.3.9.7,1.7,1.8s.4,1.7,1.1,2.6c1.9,2.2,5.6,0,7.9-.5-.6,1.5-5.6,2.9-6,4.5-.3,1.6,3.9,1.7,3,4.6,1.3,1.1,3.3.3,4.8.6a9.8259,9.8259,0,0,0,4.8.6c-1.2,1.6-3.5,3.3-3.7,5.6,1.6.3,2.8,1.1,2.1,2.8a3.9,3.9,0,0,0,3,0,2.3893,2.3893,0,0,1,.5,1.4,5.2643,5.2643,0,0,0,.3-3.9l-.7-.7a5.4453,5.4453,0,0,1,3.8,3.7c0,1.1-.7,3.3,0,4.2,1.2,1.7,7,.7,8.7,1.2s2.4,1.6,3.7,2.1c1.2.5,4.3.7,3.8,3s-3.5,1.5-.7,2.8a4.1022,4.1022,0,0,0,5-1.5c1.4,0,1.5,1.6,1.6,2.7,1,0,1.4-1.1,2.2-1.4a6.4563,6.4563,0,0,1,2.4,0c.8,0,1.4-1.2,2.3-1.4s1.9.4,2.8.3,2.1-1,2.4-1l1.6.6c1.4,0,3.4-1.9,3.9.7,1.6.5,1.4-1.1,2.5-1.4,1.2-.3,1.5.4,2.5.7s2.6,0,3.4,1c2.5,0,5.6-.4,8.1-.3l3.6-1.2c1.2-.5,2.6,0,3.8,0,1.1,0,1.6-2.3,3.9-2.9s4.9-2.3,8.1-1.1a13.0728,13.0728,0,0,1,2.1.8l.6,1.5h1.5a13.77,13.77,0,0,0,2.4,1.4h3.9a19.5044,19.5044,0,0,1,4.6.4c.3,0,.7.7,1.3.8s.7-1.1,1.7-.5.3,2.5,2.9,2.8c2.6.2,1.7-1.2,3.3-2.3,2.4-1.7,2.1,1.5,4.4,1.5a10.1789,10.1789,0,0,0-.3-3.5l-1.9-2.2h-2c-.6,0,0-1.2,0-1.4s-2.5,0-3.3-1.5c-1.6-3.3,4.2-1,5.6-.5s2.1,1.6,3.7,1.1,1.7-3.4,3.5-.7c.5-3.4,6.7,1.1,3.9-4.4,3.4-.8,0-2.5,0-3.7,0-2.4,1.9-1.9,3.2-2.1,3.2-.7,3.7-2.3,3.8-5.6a5.4152,5.4152,0,0,1,1.1-3.7c1-1.8.6-1.5,2.6-2h1.3c.9,0,1.1-.8,1.9-1.1.7-.3,2.8-.7,3.2-1.5.3-3.8-5.5-2.9-7.1-3.4Z" transform="translate(-9.3839 -0.0881)" fill="#1d6602"/><path d="M266.7,139.5a31.4142,31.4142,0,0,1-4.6-2.8c-1.1-.7-1.9-.7-2.5-2.3-1.7-4.3,3.7-1.9,6.3-1.9,1,0,2.4.5,2.9-.5.6-.9-1-2.7-2-3.1a5.5783,5.5783,0,0,0,.5-3.8c-1-2.3-1.8,0-3.4-.6a2.26,2.26,0,0,1-1.8-2.6.3674.3674,0,0,1,.1-.3c.5-1.7,1.2-1,2.6-1.5,1.4-.6.8-1,1.6-1.1s1.6.7,2.3.6a2.5033,2.5033,0,0,0,2.4-2.4c0-2.4-1.3-1-2.6-1.4-1.4-.5-1.1-1.4-2-2.4-.8-1.1-5.6-2.3-3.7-5.6.6-.8,2.1-.6,2.5-1.7s-.5-1.7-.6-2.4c-.5-2-.3-3.2-2.4-4.2a13.4162,13.4162,0,0,0-5.2-1.4c-1.5,0-2.6,2.5-4.6.3-1-1.1,0-2.9-.8-3.8-.8-1-3.5,0-4.5,0s-3.4.4-4.2-.4V92.6l-1-1.5c-.5-1.6,1.2-1.8,1-3.4s-3-2-3.5-3.4l-.4.5v-.7a6.2006,6.2006,0,0,0,.5-4.8,7.88,7.88,0,0,1-7-2c-.4-.5,0-1.2-.7-1.7a7.1935,7.1935,0,0,0-2.1-1.2c-1.7-1.2-1.4-1.2-1.7-2.8a1.9954,1.9954,0,0,0,.5-1.3c-.2-.6-1.5-1.3-2.7-1.6s-2.7,0-3.4-1.6.8-2.9.5-3.4-2.7-.7-3.7,0c-3-2.4,1.6-3.9,1.4-5.6s-3.3-2.2-4.9-2-1.7.8-3,1.2c-2.7.8-4.4-1.8-6.6-2.7a18.2859,18.2859,0,0,1-3.9-2.1c-1.1-.7-3-1.9-4.3-1.2s-.4,2.4-1.1,3.4-2.5,0-4.2,1.4c-1.6,1.4-1,3.8-2.9,2.1s0-3.4-2.3-3.4c-1.3,0-3.3,2.1-4.5,2.6s-2.5,0-3.9.5a37.2727,37.2727,0,0,0-3.5,1.6,20.6524,20.6524,0,0,1-3.4,1.5c-2.1.5-2.5,0-4.1,1.5a7.467,7.467,0,0,0-2,3.7c-.6,1.6-.4,2.1-2.5,2.5a4.7071,4.7071,0,0,1-3.8-.8c-.7,4.1-2.5,1-4.9,3.3-1,.9-.7,1.8-1,3-.5,2.4-.7,1.4-2.7,2.2s-2.3,4.4-1.7,7,2.3,3.5-.6,4.4a2.86,2.86,0,0,1-3.7-1.4c-.5-.8,0-8.6-3-4.4-.7,1.1,0,2.7,0,3.8-.8,2.3-2.8,1-3.5,2.5s1,2.4.4,3.5-3.2.5-4.3,1.2-.7,1.3-1.7,1.7-1.7-.3-2.3,0-1.4,0-1.2,2.1c0,3,1.6,2-1.6,3.4-.7.3-1,1-1.9,1.3s-2.3-.5-2.8.7c-.6,1.2,1,1.8,1.2,2.5a5.4375,5.4375,0,0,1,0,1.8c0,1.1-1.6,0-.7,1.7.4,1,2.5,1.4,3.4,2a8.2247,8.2247,0,0,0-.6,3.8c0,1,.8,1.4,1,2.1a8.8542,8.8542,0,0,1,0,2.3c0,.6,2.2,1.6,2.4,2.6a2.0872,2.0872,0,0,1-.7,2.3c-.8.6-2-.3-2.8,0l-.7,1.5c-1.9,1.4-4.4.5-5.9,2.4-.8,1-.4,2.4-1.3,3.4s-2.9.5-3.4,2.2c-.8,2.9,3.7,1.7,4.6,3.8.4.8-.3,2,0,2.8.4,2.3.9.7,1.7,1.8s.4,1.7,1.1,2.6c1.9,2.2,5.6,0,8-.5-.6,1.5-5.6,2.9-6,4.5-.3,1.6,3.9,1.7,3,4.6,1.3,1.1,3.3.3,4.8.6a9.8259,9.8259,0,0,0,4.8.6c-1.2,1.6-3.5,3.3-3.7,5.6,1.6,0,2.8,1.1,2,2.8a3.8978,3.8978,0,0,0,3,0,3.33,3.33,0,0,1,.5,1.5,5.5644,5.5644,0,0,0,.3-4l-.7-.7a5.1023,5.1023,0,0,1,3.8,3.7c.3,1.1-.7,3.4,0,4.2,1.2,1.7,7,.7,8.7,1.2s2.4,1.6,3.7,2.1,4.3.7,3.8,3c-.6,2.3-3.4,1.5-.7,2.8a4.1022,4.1022,0,0,0,5-1.5c1.4,0,1.5,1.6,1.6,2.7,1,0,1.4-1.1,2.2-1.4a9.6375,9.6375,0,0,1,2.4,0c.8,0,1.4-1.2,2.3-1.4s1.9.4,2.8.3,2-1,2.4-1l1.6.6c1.4,0,3.4-1.9,3.9.7,1.6.5,1.4-1.1,2.5-1.4,1.2-.3,1.4.4,2.4.7s2.7,0,3.5,1c2.5,0,5.3-.4,8.1-.3l3.6-1.2c1.2-.5,2.6,0,3.8,0,1.1,0,1.6-2.3,3.9-2.9s4.9-2.3,8.1-1.1a13.0542,13.0542,0,0,1,2.1.8l.6,1.5h1.4a9.7369,9.7369,0,0,0,2.4,1.5h3.9a19.5091,19.5091,0,0,1,4.6.4,3.6561,3.6561,0,0,0,1.2.7c.6.1.7-1,1.7-.5,1,.6.3,2.5,2.9,2.8,2.6.2,1.7-1.2,3.3-2.3s2.1,1.5,4.4,1.5a10.1791,10.1791,0,0,0-.3-3.5l-1.6-3h-2c-.6,0,0-1.2,0-1.4s-2.5,0-3.3-1.5c-1.6-3.3,4.3-1,5.6-.5,1.4.5,2.1,1.6,3.7,1.1s1.7-3.4,3.5-.7c.5-3.4,6.7,1.1,3.9-4.4,3.4-.8,0-2.5,0-3.7,0-2.4,2-1.9,3.3-2.1,3.1-.7,3.7-2.3,3.8-5.6a5.4153,5.4153,0,0,1,1.1-3.7c1-1.8.6-1.5,2.6-2h.2c.9-.3,1.2-.8,1.9-1.1s2.8-.7,3.2-1.6c1.9-3.2-3.9-2.3-5.4-2.8Z" transform="translate(-9.3839 -0.0881)" fill="#244917"/><path d="M332.7,207.4a31.4142,31.4142,0,0,1-4.6-2.8c-1.1-.7-1.9-.7-2.5-2.3-1.7-4.3,3.7-1.9,6.3-1.9,1,0,2.4.5,2.9-.5.6-.9-1-2.7-2-3.1a5.5783,5.5783,0,0,0,.5-3.8c-1-2.3-1.8,0-3.4-.6a2.26,2.26,0,0,1-1.8-2.6.3674.3674,0,0,1,.1-.3c.5-1.7,1.2-1,2.6-1.5s.8-1,1.6-1.1,1.6.7,2.3.6a2.5033,2.5033,0,0,0,2.4-2.4c0-2.4-1.3-1-2.6-1.4-1.4-.4-1.1-1.4-2-2.4-.8-1.1-5.6-2.3-3.7-5.6.6-.8,2.1-.6,2.5-1.7s-.5-1.7-.6-2.4c-.5-2-.3-3.2-2.4-4.2a13.4162,13.4162,0,0,0-5.2-1.4c-1.5,0-2.6,2.5-4.6.3-1-1.1,0-2.8-.8-3.8s-3.5,0-4.5,0-3.4.4-4.2-.4v-1.6l-1-1.5c-.5-1.6,1.2-1.8,1-3.4s-3-2-3.5-3.4l-.4.5V152a6.2006,6.2006,0,0,0,.5-4.8,7.88,7.88,0,0,1-7-2c-.4-.5,0-1.2-.7-1.7a7.1935,7.1935,0,0,0-2.1-1.2c-1.7-1.2-1.4-1.2-1.7-2.8a1.9949,1.9949,0,0,0,.5-1.3c-.2-.6-1.5-1.3-2.7-1.6s-2.7,0-3.4-1.6.8-2.9.5-3.4-2.7-.7-3.7,0c-3-2.4,1.6-3.9,1.4-5.6s-3.3-2.3-4.9-2c-1.6.2-1.7.8-3,1.2-2.7.8-4.4-1.8-6.6-2.7a18.2859,18.2859,0,0,1-3.9-2.1c-1.1-.7-3-1.9-4.3-1.2s-.4,2.4-1.1,3.4-2.5,0-4.2,1.4c-1.6,1.4-1,3.8-2.9,2.1s0-3.4-2.3-3.4c-1.4,0-3.4,2.1-4.6,2.6s-2.5,0-3.9.5a37.2727,37.2727,0,0,0-3.5,1.6,20.6524,20.6524,0,0,1-3.4,1.5c-2.1.5-2.5,0-4.1,1.5a7.467,7.467,0,0,0-2,3.7c-.6,1.6-.4,2.1-2.5,2.5a4.629,4.629,0,0,1-3.8-.8c-.7,4.1-2.5,1-4.8,3.3-1,.9-.7,1.8-1,3-.5,2.4-.7,1.4-2.7,2.2s-2.3,4.4-1.7,7,2.3,3.5-.6,4.4a3.0377,3.0377,0,0,1-4-1.5c-.1-.1-.1-.3-.2-.4-.5-.8,0-8.6-3-4.4-.7,1,0,2.7,0,3.8-.8,2.3-2.8,1-3.5,2.5s1,2.4.4,3.5-3.2.5-4.3,1.2-.7,1.3-1.7,1.7a4.4109,4.4109,0,0,1-2.3,0c-.6,0-1.4.3-1.2,2.1,0,3,1.6,2-1.6,3.4-.7.3-1,1-1.9,1.3s-2.3-.5-2.8.7c-.6,1.2,1.1,1.8,1.2,2.4a6.0449,6.0449,0,0,1,0,1.9c0,1.1-1.6,0-.7,1.7.4,1,2.5,1.4,3.4,2a8.2247,8.2247,0,0,0-.6,3.8c0,1,.8,1.4,1,2.1a8.8449,8.8449,0,0,1,0,2.3c0,.7,2.2,1.6,2.4,2.6a2.0872,2.0872,0,0,1-.7,2.3c-.8.6-2-.3-2.8,0l-.7,1.5c-1.9,1.4-4.4.5-5.6,2.4-.7,1-.4,2.4-1.4,3.4s-2.9.5-3.4,2.2c-.8,2.9,3.7,1.7,4.6,3.8.4.9-.3,2,0,2.8.4,2.3.9.7,1.7,1.8s.4,1.7,1.1,2.6c1.9,2.2,5.6,0,8-.5-.6,1.5-5.6,2.9-6,4.5-.3,1.6,3.9,1.7,3,4.6,1.3,1.1,3.3.3,4.8.6,1.5.2,2.7,1.1,4.8.7-1.2,1.6-3.5,3.3-3.7,5.6,1.6,0,2.8,1,2,2.8a3.8978,3.8978,0,0,0,3,0,3.33,3.33,0,0,1,.5,1.5,5.5644,5.5644,0,0,0,.3-4l-.7-.7a5.1023,5.1023,0,0,1,3.8,3.7c0,1.1-.7,3.4,0,4.2,1.2,1.7,7,.7,8.7,1.2s2.4,1.7,3.7,2.1c1.3.5,4.3.7,3.8,3-.6,2.3-3.4,1.5-.7,2.8a4.1022,4.1022,0,0,0,5-1.5c1.4,0,1.5,1.6,1.6,2.7,1,0,1.4-1.1,2.2-1.4a9.6375,9.6375,0,0,1,2.4,0c.8,0,1.4-1.2,2.3-1.4s1.9.4,2.8,0a12.37,12.37,0,0,1,2.4-1l1.6.6c1.4,0,3.4-1.9,3.9.7,1.6.5,1.4-1.1,2.5-1.4,1.2-.3,1.4.4,2.4.7s2.7.3,3.5,1h.3c2.5,0,5.3-.4,8.1-.3l3.6-1.2c1.2-.5,2.6,0,3.8,0s1.6-2.3,3.9-2.9,4.9-2.3,8.1-1.2a7.8367,7.8367,0,0,1,2.1.9l.6,1.4h1.5a9.7369,9.7369,0,0,0,2.4,1.5h3.9a19.5044,19.5044,0,0,1,4.6.4,3.658,3.658,0,0,0,1.2.7c.6.1.7-1,1.7-.5s.3,2.6,2.9,2.8,1.7-1.2,3.3-2.3,2.1,1.5,4.4,1.5a10.1789,10.1789,0,0,0-.3-3.5l-1.9-2.2h-2c-.6,0,0-1.2,0-1.4s-2.5,0-3.3-1.5c-1.6-3.3,4.3-1,5.6-.5,1.4.5,2.1,1.6,3.7,1.1s1.7-3.4,3.5-.7c.5-3.4,6.7,1.1,3.9-4.4,3.4-.8,0-2.5,0-3.7,0-2.4,2-1.9,3.3-2.1,3.1-.7,3.7-2.3,3.8-5.6a5.4157,5.4157,0,0,1,1.1-3.7c1-1.8.6-1.5,2.6-2h1.2c.9-.3,1.2-.8,1.9-1.1s2.8-.7,3.2-1.6c1.1-3.2-4.7-2.3-6.2-2.8Z" transform="translate(-9.3839 -0.0881)" fill="#1d6602"/><path d="M436.1,168.3a21.7732,21.7732,0,0,1-4.6-2.8c-1.1-.7-1.9-.6-2.5-2.2-1.7-4.3,3.7-1.9,6.3-1.9,1,0,2.4.5,3-.5s-1.1-2.7-2-3.1a5.5783,5.5783,0,0,0,.5-3.8c-1-2.4-1.8,0-3.4-.6a2.26,2.26,0,0,1-1.8-2.6c0-.1,0-.2.1-.2.5-1.7,1.2-1,2.7-1.6.6,0,.7-1,1.5-1.1s1.7.7,2.3.6a2.5033,2.5033,0,0,0,2.4-2.4c0-2.4-1.4-1-2.6-1.4-1.3-.4-1.2-1.4-2-2.4-.8-1.1-5.6-2.3-3.6-5.6.6-.8,2-.6,2.4-1.7s-.5-1.6-.6-2.3c-.5-2.1-.3-3.3-2.4-4.2a15.5684,15.5684,0,0,0-5.2-1.5c-1.5,0-2.6,2.5-4.6.3-1-1.1,0-2.9-.8-3.8-.8-1-3.4,0-4.4,0s-3.5.4-4.2-.4v-1.6l-1-1.5c-.4-1.6,1.2-1.8,1-3.4s-3-2-3.5-3.4l-.4.5V113a6.2006,6.2006,0,0,0,.5-4.8,7.35,7.35,0,0,1-6.9-2c-.4-.5,0-1.2-.7-1.7s-1.5-.8-2-1.2c-1.7-1.2-1.4-1.2-1.8-2.7a1.6775,1.6775,0,0,0,.5-1.4c-.2-.6-1.5-1.3-2.6-1.6s-2.8,0-3.4-1.6.7-2.9.5-3.4c-.3-.5-2.7-.7-3.6,0-3.1-2.4,1.5-3.9,1.3-5.6s-3.3-2.2-4.8-2c-1.6.2-1.7.8-3,1.2-2.7.8-4.3-1.8-6.6-2.7a18.2859,18.2859,0,0,1-3.9-2.1c-1-.7-3-1.9-4.3-1.2-1.2.7-.4,2.4-1.2,3.4s-2.5,0-4.1,1.4-1,3.8-2.9,2.1c-1.1-1,0-3.4-2.3-3.5-1.4,0-3.4,2.1-4.6,2.6s-2.5,0-3.8.5a16.1534,16.1534,0,0,0-3.5,1.7,20.25,20.25,0,0,1-3.4,1.4c-2,.5-2.5,0-4.1,1.5a7.9157,7.9157,0,0,0-2,3.7c-.6,1.6-.3,2.1-2.5,2.5a4.7071,4.7071,0,0,1-3.8-.8c-.7,4.1-2.5,1-4.9,3.3-.9.9-.7,1.8-.9,3-.5,2.4-.7,1.4-2.7,2.2s-2.3,4.4-1.7,7,2.3,3.5-.6,4.4a2.86,2.86,0,0,1-3.7-1.4c-.5-.8,0-8.6-3-4.4-.8,1.1,0,2.7-.3,3.8-.8,2.3-2.8,1-3.5,2.5s1.1,2.4.4,3.5-3.1.6-4.2,1.2-.7,1.3-1.7,1.7a4.4109,4.4109,0,0,1-2.3,0c-.6,0-1.4,0-1.2,2.1,0,3.1,1.6,2-1.5,3.4-.8.3-1,1-2,1.3s-2.3-.5-2.8.7c-.6,1.2,1.1,1.8,1.2,2.5a5.4375,5.4375,0,0,1,0,1.8c0,1.2-1.5,0-.7,1.7.5,1,2.5,1.4,3.4,2a8.2247,8.2247,0,0,0-.6,3.8c0,1,.8,1.4,1,2.1a8.8542,8.8542,0,0,1,0,2.3c0,.7,2.2,1.6,2.5,2.6a2.2674,2.2674,0,0,1-.7,2.3c-.7.6-2,0-2.7,0l-.7,1.5c-1.8,1.5-4.4.5-5.6,2.4s-.5,2.4-1.4,3.5-2.9.4-3.4,2.1c-.8,2.9,3.7,1.7,4.6,3.8.3.8-.3,2,0,2.8.4,2.4.9.7,1.7,1.8s.3,1.8,1.1,2.6c1.9,2.2,5.6,0,7.9-.5-.5,1.5-5.6,3-6,4.5-.3,1.5,3.9,1.7,3,4.6,1.3,1.1,3.3.3,4.8.6a9.4323,9.4323,0,0,0,4.7.6c-1.2,1.6-3.5,3.3-3.7,5.6,1.7,0,2.8,1.1,2.1,2.8a3.8978,3.8978,0,0,0,3,0,2.2959,2.2959,0,0,1,.4,1.4,5.2638,5.2638,0,0,0,.3-3.9l-.7-.7a5.4453,5.4453,0,0,1,3.8,3.7c0,1.1-.7,3.3,0,4.2,1.2,1.7,7,.7,8.7,1.2s2.4,1.6,3.7,2.1,4.3.7,3.8,3-3.5,1.5-.7,2.8a4.1022,4.1022,0,0,0,5-1.5c1.4.3,1.5,1.6,1.6,2.7,1,0,1.4-1.1,2.2-1.4a9.6375,9.6375,0,0,1,2.4,0c.8,0,1.4-1.2,2.3-1.4s2,.4,2.8,0a10.6974,10.6974,0,0,1,2.4-.9l1.6.6c1.4,0,3.4-1.9,3.9.7,1.6.5,1.4-1.1,2.5-1.4s1.5.4,2.5.7,2.6,0,3.4,1c2.6,0,5.6-.4,8.1-.3l3.6-1.2c1.2-.5,2.6,0,3.8,0,1.1,0,1.6-2.3,3.9-2.9s5-2.3,8.1-1.1a14.2725,14.2725,0,0,1,2.2.8l.6,1.5h1.4a14.9172,14.9172,0,0,0,2.4,1.4h3.9a20.7427,20.7427,0,0,1,4.7.4,2.6016,2.6016,0,0,0,1.2.8c.6.1.7-1.1,1.7-.5s0,2.5,2.9,2.8c2.9.2,1.7-1.2,3.3-2.3,2.4-1.7,2.1,1.5,4.4,1.5a10.1789,10.1789,0,0,0-.3-3.5l-2-2.2h-1.9c-.6,0,0-1.2,0-1.4s-2.5,0-3.3-1.5c-1.6-3.3,4.2-1,5.6-.5s2,1.6,3.7,1.1,1.7-3.4,3.5-.7c.5-3.4,6.8,1.1,3.9-4.4,3.4-.8,0-2.5,0-3.7,0-2.4,2-1.9,3.2-2.1,3.2-.7,3.8-2.3,3.8-5.6a5.4157,5.4157,0,0,1,1.1-3.7c1-1.8.6-1.5,2.6-2h1.3c.9,0,1.1-.8,1.9-1.1.7-.3,2.8-.7,3.2-1.5.4-3.8-5.4-3-6.9-3.5Z" transform="translate(-9.3839 -0.0881)" fill="#235912"/><path d="M442.4,367.3a21.7732,21.7732,0,0,1-4.6-2.8c-1.1-.7-1.9-.7-2.5-2.3-1.7-4.3,3.7-1.9,6.3-1.9,1,0,2.4.5,2.9-.5.6-.9-1-2.7-2-3.1a5.5783,5.5783,0,0,0,.5-3.8c-1-2.4-1.8,0-3.4-.6a2.3581,2.3581,0,0,1-1.8-2.8v-.1c.5-1.7,1.2-1,2.7-1.5.6,0,.7-1,1.5-1.1s1.6.7,2.3.6a2.5809,2.5809,0,0,0,2.4-2.4c0-2.5-1.4-1-2.6-1.4-1.3-.4-1.2-1.4-2-2.4-.8-1.1-5.6-2.3-3.6-5.6.6-.8,2-.6,2.4-1.7s-.5-1.7-.6-2.4c-.5-2-.3-3.2-2.4-4.2a13.4162,13.4162,0,0,0-5.2-1.4c-1.5,0-2.6,2.5-4.6,0-1-1.1,0-2.9-.8-3.8s-3.4,0-4.5,0-3.4.5-4.2-.3v-1.6l-1-1.5c-.4-1.6,1.2-1.8,1-3.5s-3-2-3.5-3.4l-.4.5v-.7a6.201,6.201,0,0,0,.5-4.8,7.6069,7.6069,0,0,1-6.9-2c-.4-.5,0-1.2-.7-1.7a8.1731,8.1731,0,0,0-2-1.2c-1.7-1.2-1.4-1.2-1.8-2.8,0,0,.7-.7.5-1.3s-1.5-1.3-2.6-1.6-2.8,0-3.4-1.6.7-3,.5-3.4a4.0784,4.0784,0,0,0-3.6,0c-3.1-2.4,1.5-3.9,1.3-5.6s-3.3-2.3-4.8-2.1c-1.6.2-1.7.9-3,1.3-2.7.8-4.3-1.8-6.6-2.7a24.1857,24.1857,0,0,1-3.9-2.1c-1-.7-3-1.9-4.3-1.2s-.3,2.4-1.1,3.4-2.5,0-4.1,1.4-1,3.8-2.9,2.1c-1.1-.9,0-3.4-2.3-3.4-1.4,0-3.4,2.1-4.6,2.6-1.2.6-2.5,0-3.8.5a37.2727,37.2727,0,0,0-3.5,1.6,20.6524,20.6524,0,0,1-3.4,1.5c-2,.5-2.5,0-4.1,1.4a8.92,8.92,0,0,0-2,3.7c-.6,1.6-.3,2.1-2.5,2.5a4.7071,4.7071,0,0,1-3.8-.8c-.7,4.1-2.5.9-4.9,3.3-.9.9-.7,1.8-.9,3-.5,2.4-.7,1.4-2.7,2.2s-2.3,4.4-1.7,7,2.3,3.4-.5,4.4a2.956,2.956,0,0,1-3.7-1.4c-.5-.8,0-8.6-3-4.4-.8,1,0,2.7,0,3.8-.8,2.4-2.8,1.1-3.5,2.5-.7,1.5,1.1,2.4.4,3.5s-3.1.5-4.2,1.2-.7,1.3-1.7,1.7-1.7-.3-2.3,0-1.4,0-1.2,2c0,3.1,1.6,2.1-1.6,3.5-.7.3-1,1-1.9,1.3-1,.3-2.3-.5-2.8.7-.6,1.2,1.1,1.8,1.2,2.4a6.0449,6.0449,0,0,1,0,1.9c0,1.1-1.5,0-.7,1.7.5,1,2.5,1.4,3.4,2a8.2247,8.2247,0,0,0-.6,3.8c0,1,.8,1.4,1,2.1a8.8449,8.8449,0,0,1,0,2.3c0,.7,2.2,1.6,2.5,2.6a2.2674,2.2674,0,0,1-.7,2.3c-.7.6-2-.3-2.7,0l-.7,1.5c-1.8,1.4-4.4.5-5.6,2.4-.7,1-.4,2.4-1.3,3.4s-2.9.5-3.4,2.2c-.9,2.9,3.7,1.6,4.6,3.8.3.9-.3,2,0,2.8.4,2.3.9.7,1.7,1.8s.3,1.7,1.1,2.6c1.9,2.2,5.6,0,7.9-.5-.5,1.5-5.6,2.9-6,4.5-.3,1.6,3.9,1.7,3,4.6,1.3,1.1,3.3.3,4.8.6,1.6.2,2.6,1.1,4.7.7-1.2,1.6-3.5,3.3-3.7,5.6,1.6,0,2.8,1,2.1,2.8a3.8978,3.8978,0,0,0,3,0,2.41,2.41,0,0,1,.4,1.5,5.5644,5.5644,0,0,0,.3-4l-.7-.7A5.1023,5.1023,0,0,1,319,390c0,1.1-.7,3.4,0,4.2,1.2,1.7,7,.7,8.7,1.2s2.4,1.7,3.7,2.1c1.3.5,4.3.7,3.8,3s-3.5,1.5-.7,2.8a4.1022,4.1022,0,0,0,5-1.5c1.4,0,1.5,1.6,1.6,2.7,1,0,1.4-1.2,2.2-1.4s1.6.3,2.4,0,1.4-1.2,2.3-1.4,1.9.4,2.8,0a15.6241,15.6241,0,0,1,2.4-1l1.6.6c1.4,0,3.4-1.9,3.9.7,1.6.5,1.4-1.1,2.5-1.4s1.5.4,2.5.7,2.6,0,3.4,1c2.6,0,5.6-.5,8.1-.3l3.6-1.3c1.2-.4,2.6,0,3.8,0,2-.7,1.6-2.3,3.9-2.9s4.9-2.3,8.1-1.2a7.8367,7.8367,0,0,1,2.1.9l.7,1.4h1.4a12.036,12.036,0,0,0,2.4,1.5h3.9a27.4972,27.4972,0,0,1,4.7.3,2.6016,2.6016,0,0,0,1.2.8c.6.1.7-1,1.7-.5s0,2.6,2.9,2.8,1.7-1.2,3.3-2.3c2.4-1.7,2.1,1.5,4.4,1.5a10.1787,10.1787,0,0,0-.3-3.5l-2-2.2h-1.9c-.5,0,0-1.2,0-1.5,0-.2-2.5,0-3.3-1.5-1.6-3.3,4.2-1,5.6-.5s2,1.6,3.7,1.1,1.7-3.4,3.5-.7c.5-3.4,6.8,1.2,3.9-4.3,3.4-.8,0-2.5,0-3.7,0-2.4,2-1.9,3.2-2.1,3.2-.7,3.8-2.4,3.8-5.6a5.4157,5.4157,0,0,1,1.1-3.7c1-1.8.6-1.5,2.6-2h1.3c.9-.3,1.1-.8,1.9-1.1.7-.3,2.8-.7,3.2-1.6C449.7,366.9,443.8,367.8,442.4,367.3Z" transform="translate(-9.3839 -0.0881)" fill="#235912"/><path d="M209.2,348a18.2984,18.2984,0,0,1-4.6-2.8c-1.1-.7-1.9-.6-2.5-2.2-1.7-4.3,3.7-1.9,6.3-1.9,1,0,2.4.4,3-.5s-1.1-2.7-2-3a5.5783,5.5783,0,0,0,.5-3.8c-1-2.4-1.7,0-3.4-.6a2.2143,2.2143,0,0,1-1.8-2.5.3674.3674,0,0,1,.1-.3c.5-1.7,1.2-1,2.6-1.6s.7-1,1.5-1.1,1.7.7,2.3.6a2.5948,2.5948,0,0,0,2.4-2.5c0-2.4-1.4-1-2.6-1.4-1.3-.4-1.1-1.4-2-2.5s-5.6-2.3-3.6-5.6c.6-.8,2.1-.6,2.4-1.7s-.5-1.6-.6-2.3c-.5-2.1-.3-3.3-2.4-4.2a13.6921,13.6921,0,0,0-5.2-1.6c-1.5,0-2.6,2.5-4.6.3-1-1.1,0-2.9-.8-3.8-.8-1-3.5,0-4.5,0s-3.5.5-4.2-.4V301l-1-1.5c-.4-1.6,1.2-1.8,1.1-3.4-.2-1.6-3-2-3.5-3.4l-.4.5v-.7a6.6741,6.6741,0,0,0,.5-4.8,7.35,7.35,0,0,1-6.9-2c-.4-.5,0-1.1-.7-1.7a15.6925,15.6925,0,0,0-2.1-1.2c-1.7-1.1-1.4-1.2-1.8-2.7a1.6775,1.6775,0,0,0,.5-1.4c-.2-.6-1.5-1.3-2.6-1.6s-2.8,0-3.4-1.6.7-2.9.5-3.3-2.7-.7-3.7-.3c-3-2.4,1.5-3.9,1.4-5.6-.2-1.7-3.3-2.3-4.9-2.1s-1.7.8-3,1.2c-2.8.8-4.4-1.8-6.6-2.7a18.2859,18.2859,0,0,1-3.9-2.1c-1-.7-3-1.9-4.3-1.2-1.2.7-.4,2.4-1.2,3.4s-2.5,0-4.1,1.4-1,3.8-2.9,2.1c-1.1-1,0-3.4-2.3-3.5-1.3,0-3.4,2.1-4.6,2.7s-2.5,0-3.8.5a22.6128,22.6128,0,0,0-3.5,1.7,23.2926,23.2926,0,0,1-3.3,1.4c-2.1.5-2.5,0-4.1,1.5a7.467,7.467,0,0,0-2,3.7c-.6,1.6-.4,2.1-2.5,2.5a4.7071,4.7071,0,0,1-3.8-.8c-.7,4.1-2.5,1-4.9,3.3-.9.9-.7,1.9-.9,3-.5,2.5-.7,1.4-2.7,2.2s-2.3,4.4-1.7,7,2.3,3.5-.6,4.4a2.86,2.86,0,0,1-3.7-1.4c-.5-.8,0-8.6-3-4.4-.7,1,0,2.6,0,3.8-.8,2.3-2.8,1.1-3.5,2.5s1.1,2.5.4,3.5c-.7,1.1-3.1.6-4.2,1.2s-.7,1.4-1.7,1.7a5.836,5.836,0,0,1-2.3,0c-.6,0-1.4,0-1.2,2.1,0,3.1,1.6,2-1.5,3.4-.7.3-1,1-2,1.3s-2.3-.5-2.8.7,1,1.7,1.2,2.4a5.4375,5.4375,0,0,1,0,1.8c0,1.2-1.5,0-.7,1.7.5,1,2.6,1.4,3.4,2a8.2247,8.2247,0,0,0-.6,3.8c0,1,.8,1.4,1,2.1a8.8542,8.8542,0,0,1,0,2.3c0,.7,2.2,1.6,2.5,2.6a2.0872,2.0872,0,0,1-.7,2.3c-.7.6-2,0-2.7,0l-.7,1.5c-1.9,1.5-4.4.5-5.9,2.4s-.4,2.4-1.4,3.5-2.9.4-3.4,2.1c-.8,2.9,3.7,1.7,4.6,3.8.3.8-.3,2,0,2.8.4,2.4.9.7,1.7,1.9.8,1.1.3,1.7,1.1,2.5,1.9,2.2,5.6,0,8-.5-.6,1.5-5.6,3-6,4.5s4,1.7,3,4.6c1.3,1.1,3.3.3,4.8.6,1.6.3,2.6,1.1,4.7.6-1.2,1.7-3.5,3.3-3.7,5.6,1.7,0,2.8,1.1,2.1,2.8a3.8978,3.8978,0,0,0,3,0,2.2959,2.2959,0,0,1,.4,1.4,5.2643,5.2643,0,0,0,.3-3.9l-.6-.8a5.309,5.309,0,0,1,3.7,3.7c0,1.1-.6,3.3,0,4.2,1.2,1.8,7,.7,8.7,1.2s2.4,1.6,3.7,2.1,4.3.7,3.8,3-3.5,1.5-.7,2.8a3.9859,3.9859,0,0,0,5-1.5c1.5,0,1.5,1.6,1.6,2.6.9,0,1.4-1.1,2.2-1.4a6.4562,6.4562,0,0,1,2.4,0c.8,0,1.4-1.2,2.3-1.5.9-.2,2,.5,2.9.3s2-.9,2.4-.9l1.6.6c1.4,0,3.4-2,3.9.7,1.6.4,1.4-1.2,2.5-1.5s1.5.4,2.5.7,2.6,0,3.5,1.1c2.6,0,5.6-.4,8.1-.3l3.6-1.2c1.2-.4,2.6,0,3.8,0,1.1,0,1.7-2.3,3.9-2.9s5-2.2,8.1-1.1a14.2828,14.2828,0,0,1,2.2.8l.6,1.5h1.5a9.4556,9.4556,0,0,0,2.4,1.4h3.9a19.5044,19.5044,0,0,1,4.6.4,3.3975,3.3975,0,0,0,1.2.8c.6.1.7-1.1,1.7-.5s.3,2.5,2.9,2.8c2.6.2,1.7-1.2,3.2-2.3,2.4-1.7,2.1,1.5,4.4,1.4a10.1789,10.1789,0,0,0-.3-3.5l-2-2.1h-1.9c-.6,0,0-1.2,0-1.5,0-.2-2.5,0-3.3-1.5-1.6-3.3,4.2-1,5.6-.5s2,1.6,3.7,1.1,1.7-3.3,3.5-.7c.5-3.4,6.8,1.1,3.9-4.4,3.4-.7,0-2.5,0-3.7,0-2.4,2-1.9,3.3-2.1,3.1-.7,3.7-2.3,3.8-5.6a5.5721,5.5721,0,0,1,1.1-3.7c1.1-1.8.6-1.6,2.6-2.1H211c.9,0,1.1-.8,1.9-1.1.7-.3,2.9-.7,3.2-1.5.4-3.2-5.2-2.3-6.9-2.8Z" transform="translate(-9.3839 -0.0881)" fill="#235912"/><path d="M199.6,202.5a31.4142,31.4142,0,0,1-4.6-2.8c-1.2-.7-1.9-.7-2.5-2.3-1.7-4.3,3.7-1.9,6.3-1.9.9,0,2.4.5,2.9-.5.6-.9-1.1-2.7-2-3.1a5.5783,5.5783,0,0,0,.5-3.8c-1-2.3-1.8,0-3.5-.6a2.323,2.323,0,0,1-1.7-2.8v-.2c.5-1.7,1.2-1,2.6-1.5s.8-1,1.5-1.1,1.7.7,2.3.6a2.5033,2.5033,0,0,0,2.4-2.4c0-2.4-1.4-1-2.6-1.4-1.3-.4-1.1-1.4-2-2.4-.8-1.1-5.6-2.3-3.7-5.6.6-.8,2.1-.6,2.4-1.7s-.5-1.7-.6-2.4c-.5-2-.3-3.2-2.4-4.2a13.4162,13.4162,0,0,0-5.2-1.4c-1.5,0-2.6,2.5-4.6,0-1-1.1,0-2.9-.8-3.8s-3.5-.3-4.5,0-3.5.4-4.2-.4v-1.6l-1.1-1.5c-.4-1.6,1.2-1.8,1.1-3.4-.2-1.6-3-2-3.5-3.4l-.4.5v-.7a6.2006,6.2006,0,0,0,.5-4.8,7.5232,7.5232,0,0,1-6.6-1.9c-.4-.5,0-1.2-.7-1.7a7.1935,7.1935,0,0,0-2.1-1.2c-1.7-1.2-1.4-1.2-1.7-2.8a1.9954,1.9954,0,0,0,.5-1.3c-.2-.6-1.5-1.3-2.7-1.6s-2.8,0-3.4-1.6.8-2.9.5-3.4-2.7-.7-3.7,0c-3-2.4,1.5-3.9,1.4-5.6-.2-1.7-3.3-2.3-4.9-2-1.6.2-1.7.8-3,1.2-2.8.8-4.4-1.8-6.6-2.7a14.7143,14.7143,0,0,1-3.9-2.1c-1.1-.7-3.1-1.9-4.3-1.2s-.4,2.4-1.2,3.4-2.5,0-4.1,1.4-1,3.8-2.9,2.1c-1.1-.9,0-3.4-2.3-3.4-1.3,0-3.3,2.1-4.6,2.6-1.2.5-2.5,0-3.8.5a37.2727,37.2727,0,0,0-3.5,1.6,20.6524,20.6524,0,0,1-3.4,1.5c-2.1.5-2.5,0-4.1,1.5a7.467,7.467,0,0,0-2,3.7c-.6,1.6-.4,2.1-2.5,2.5a4.7071,4.7071,0,0,1-3.8-.8c-.7,4.1-2.5,1-4.9,3.3-.9.9-.6,1.8-.9,3-.5,2.4-.7,1.4-2.7,2.2s-2.3,4.4-1.7,7,2.3,3.5-.6,4.4a2.86,2.86,0,0,1-3.7-1.4c-.5-.8,0-8.6-3-4.4-.7,1,0,2.7,0,3.8-.8,2.3-2.8,1-3.5,2.5s1,2.4.3,3.5-3.1.5-4.2,1.2-.7,1.3-1.7,1.7a4.4109,4.4109,0,0,1-2.3,0c-.6,0-1.4,0-1.2,2.1,0,3,1.6,2-1.6,3.4-.7.3-1,1-1.9,1.3s-2.3-.5-2.8.7c-.6,1.2,1,1.8,1.2,2.4a6.0449,6.0449,0,0,1,0,1.9c0,1.1-1.6,0-.7,1.7.4,1,2.5,1.4,3.4,2a8.2247,8.2247,0,0,0-.6,3.8c0,1,.8,1.4,1.1,2.1a8.8449,8.8449,0,0,1,0,2.3c0,.6,2.1,1.6,2.4,2.6a2.0872,2.0872,0,0,1-.7,2.3c-.8.6-2-.3-2.8,0l-.7,1.5c-1.9,1.4-4.4.5-5.6,2.4-.8,1-.4,2.4-1.4,3.4s-2.9.5-3.4,2.2c-.8,2.9,3.7,1.7,4.6,3.8.3.9-.3,2,0,2.8.4,2.3.9.7,1.7,1.8s.3,1.7,1.1,2.6c1.9,2.2,5.6,0,8-.5-.6,1.5-5.6,2.9-6,4.5-.3,1.6,3.9,1.7,3,4.6,1.4,1.1,3.3.3,4.8.6,1.5.2,2.7,1.1,4.7.7-1.2,1.6-3.5,3.3-3.6,5.6,1.6.3,2.8,1,2,2.8a3.8978,3.8978,0,0,0,3,0,2.41,2.41,0,0,1,.4,1.5,5.4341,5.4341,0,0,0-.2-4.5l-.7-.7a5.6331,5.6331,0,0,1,3.8,3.7c0,1.1-.7,3.4,0,4.2,1.1,1.7,7,.7,8.7,1.2,1.7.4,2.4,1.7,3.7,2.1,1.3.5,4.3.7,3.8,3s-3.4,1.5-.7,2.8a3.9351,3.9351,0,0,0,4.9-1.5c1.5,0,1.5,1.6,1.6,2.7.9,0,1.4-1.1,2.2-1.4a9.6375,9.6375,0,0,1,2.4,0c.8,0,1.4-1.2,2.2-1.4s2,.4,2.9.3,2-1,2.4-1l1.6.6c1.4,0,3.4-1.9,3.9.7,1.6.5,1.4-1.1,2.5-1.4,1.2-.3,1.4.4,2.4.7a8.7849,8.7849,0,0,1,3.5,1h.3c2.5,0,5.3-.4,8.1-.3l3.6-1.2c1.1-.5,2.6,0,3.7,0,2-.7,1.7-2.3,3.9-2.9,2.3-.6,4.9-2.3,8-1.2a8.488,8.488,0,0,1,2.2.9l.6,1.4h1.5a9.7369,9.7369,0,0,0,2.4,1.5h3.9a19.5044,19.5044,0,0,1,4.6.4,3.658,3.658,0,0,0,1.2.7c.6.1.7-1,1.7-.5s.3,2.6,2.9,2.8,1.7-1.2,3.3-2.3,2.1,1.5,4.3,1.5a6.8968,6.8968,0,0,0-.3-3.5l-2-2.2h-1.9c-.6,0,0-1.2,0-1.5,0-.2-2.5,0-3.3-1.5-1.6-3.3,4.3-1,5.6-.5,1.4.5,2,1.6,3.7,1.1s1.7-3.4,3.5-.7c.5-3.4,6.8,1.1,4-4.4,3.4-.8,0-2.5,0-3.7,0-2.4,2-1.9,3.3-2.1,3.1-.7,3.7-2.3,3.8-5.6a5.4157,5.4157,0,0,1,1.1-3.7c1.1-1.8.6-1.5,2.6-2h1.2c.9,0,1.2-.8,1.9-1.1s2.8-.7,3.2-1.6c1.3-3.1-4.5-2.2-6.2-2.7Z" transform="translate(-9.3839 -0.0881)" fill="#235912"/><path d="M357.3,88.5a18.2984,18.2984,0,0,1-4.6-2.8c-1.1-.7-1.9-.6-2.5-2.2-1.7-4.3,3.7-1.9,6.3-1.9,1,0,2.4.5,3-.5.6-.9-1.1-2.7-2-3.1a6.2249,6.2249,0,0,0,.5-3.8c-1-2.4-1.7,0-3.4-.6a2.26,2.26,0,0,1-1.8-2.6c0-.1,0-.2.1-.2.5-1.7,1.3-1,2.7-1.6s.7-1,1.5-1.1,1.7.7,2.3.6a2.5033,2.5033,0,0,0,2.4-2.4c0-2.4-1.4-1-2.6-1.4-1.3-.4-1.1-1.4-2-2.5s-5.6-2.3-3.6-5.6c.6-.8,2.1-.6,2.4-1.7s-.5-1.6-.6-2.3c-.5-2.1-.3-3.3-2.4-4.2a15.5684,15.5684,0,0,0-5.2-1.5c-1.5,0-2.6,2.5-4.6.3-1-1.1,0-2.9-.8-3.8-.8-1-3.5,0-4.5,0s-3.5.5-4.2-.4V41.6l-1-1.5c-.4-1.6,1.2-1.8,1.1-3.4-.2-1.6-3-2-3.5-3.4l-.4.5v-.7a6.6741,6.6741,0,0,0,.5-4.8,7.35,7.35,0,0,1-6.9-2c-.4-.5,0-1.2-.7-1.7s-1.4-.8-2-1.2c-1.7-1.1-1.4-1.2-1.8-2.7a1.6775,1.6775,0,0,0,.5-1.4c-.2-.6-1.5-1.3-2.6-1.6s-2.8,0-3.4-1.6.7-2.9.5-3.4c-.3-.5-2.7-.7-3.6,0-3-2.4,1.5-3.9,1.4-5.6-.2-1.7-3.3-2.2-4.9-2s-1.7.8-3,1.2c-2.7.8-4.3-1.8-6.6-2.7a18.2835,18.2835,0,0,1-3.9-2.1c-1-.7-3-1.9-4.3-1.2-1.2.7-.4,2.4-1.2,3.4s-2.5,0-4.1,1.4-1,3.8-2.9,2.1c-1.1-1,0-3.4-2.3-3.5-1.4,0-3.4,2.1-4.6,2.7s-2.5,0-3.8.5a22.6128,22.6128,0,0,0-3.5,1.7,14.3441,14.3441,0,0,1-3.4,1.4c-2,.5-2.5,0-4.1,1.5a7.467,7.467,0,0,0-2,3.7c-.6,1.6-.4,2.1-2.5,2.5a4.7071,4.7071,0,0,1-3.8-.8c-.7,4.1-2.5,1-4.9,3.3-.9.9-.7,1.9-.9,3-.5,2.4-.7,1.4-2.7,2.2s-2.3,4.4-1.7,7,2.3,3.5-.6,4.4a2.86,2.86,0,0,1-3.7-1.4c-.5-.8,0-8.6-3-4.4-.8,1.1,0,2.7,0,3.8-.7,2.3-2.8,1-3.5,2.5s1.1,2.4.4,3.5-3.1.6-4.2,1.2-.7,1.3-1.7,1.7a4.4109,4.4109,0,0,1-2.3,0c-.6,0-1.4,0-1.2,2.1,0,3.1,1.6,2-1.5,3.4-.8.3-1,1-2,1.3s-2.3-.5-2.8.7c-.6,1.2,1.1,1.8,1.2,2.5a5.4375,5.4375,0,0,1,0,1.8c0,1.2-1.5,0-.7,1.7.5,1,2.6,1.4,3.4,2a8.2247,8.2247,0,0,0-.6,3.8c0,1,.8,1.4,1,2.1a8.8542,8.8542,0,0,1,0,2.3c0,.7,2.2,1.6,2.5,2.6a2.0872,2.0872,0,0,1-.7,2.3c-.7.6-2,0-2.7,0l-.7,1.5c-1.9,1.5-4.4.5-5.6,2.4s-.4,2.4-1.4,3.5-2.9.4-3.4,2.1c-.8,2.9,3.7,1.7,4.6,3.8.3.8-.3,2,0,2.8.4,2.4.9.7,1.7,1.9.8,1.1.3,1.7,1.1,2.5,1.9,2.2,5.6,0,8-.5-.6,1.5-5.6,3-6,4.5s4,1.7,3,4.6c1.3,1.1,3.3.3,4.8.6,1.6.3,2.6,1.1,4.7.6-1.2,1.6-3.5,3.3-3.7,5.6,1.7,0,2.8,1.1,2.1,2.8a3.8978,3.8978,0,0,0,3,0,2.2959,2.2959,0,0,1,.4,1.4,5.2643,5.2643,0,0,0,.3-3.9l-.7-.7a5.309,5.309,0,0,1,3.7,3.7c0,1.1-.6,3.3,0,4.2,1.2,1.8,7,.7,8.7,1.2s2.4,1.6,3.7,2.1,4.3.7,3.8,3-3.5,1.5-.7,2.8a3.9859,3.9859,0,0,0,5-1.5c1.5,0,1.5,1.6,1.6,2.6.9,0,1.4-1.1,2.2-1.4a9.6375,9.6375,0,0,1,2.4,0c.8,0,1.4-1.2,2.3-1.5.9-.2,2,.4,2.9,0a10.6974,10.6974,0,0,1,2.4-.9l1.6.6c1.4,0,3.4-2,3.9.7,1.6.4,1.4-1.2,2.5-1.5s1.5.4,2.5.7a8.7849,8.7849,0,0,1,3.5,1c2.6,0,5.6-.4,8.1-.3l3.6-1.2c1.2-.5,2.6,0,3.8,0,1.1,0,1.7-2.3,3.9-2.9s5-2.2,8.1-1.1a14.2725,14.2725,0,0,1,2.2.8l.6,1.5H314c.6,0,1.7,1.3,2.4,1.4s2.7,0,3.9,0a20.3126,20.3126,0,0,1,4.7.4,3.3975,3.3975,0,0,0,1.2.8c.6.1.7-1.1,1.7-.5s.3,2.5,2.9,2.8c2.5.2,1.7-1.2,3.3-2.3,2.4-1.7,2.1,1.5,4.4,1.5a10.2787,10.2787,0,0,0,0-3.5l-2.8-2.5h-1.9c-.6,0,0-1.2,0-1.4s-2.5,0-3.3-1.5c-1.6-3.3,4.2-1,5.6-.5s2,1.6,3.7,1.1,1.7-3.3,3.5-.7c.5-3.4,6.8,1.1,3.9-4.4,3.4-.8,0-2.5,0-3.7,0-2.4,2-1.9,3.2-2.1,3.2-.7,3.8-2.3,3.8-5.6a5.5721,5.5721,0,0,1,1.1-3.7c1.1-1.9.6-1.6,2.6-2.1h1.2c.9,0,1.1-.8,1.9-1.1.7-.3,2.8-.7,3.2-1.5.4-3.2-5.4-2.3-6.9-2.8Z" transform="translate(-9.3839 -0.0881)" fill="#235912"/></svg>