<?xml version="1.0" encoding="utf-8"?>
<!-- Generator: Adobe Illustrator 25.0.0, SVG Export Plug-In . SVG Version: 6.00 Build 0)  -->
<svg version="1.1" id="Capa_1" xmlns="http://www.w3.org/2000/svg" xmlns:xlink="http://www.w3.org/1999/xlink" x="0px" y="0px"
	 viewBox="0 0 494.2594 511.9119" enable-background="new 0 0 494.2594 511.9119" xml:space="preserve">
<path fill="#4BDD14" d="M253.1161,296.5119c-1.6433-0.7394-3.1884-1.6799-4.6-2.8c-1.1-0.7-1.9-0.6-2.5-2.2
	c-1.7-4.3,3.7-1.9,6.3-1.9c1,0,2.4,0.5,2.9-0.5c0.6-0.9-1-2.7-2-3c0.6102-1.1678,0.7874-2.514,0.5-3.8c-1-2.4-1.8,0-3.4-0.6
	c-1.2074-0.2327-2.0072-1.388-1.8-2.6c0-0.1,0-0.2,0.1-0.2c0.5-1.7,1.2-1,2.7-1.6c0.6,0,0.7-1,1.5-1.1s1.6,0.7,2.3,0.6
	c1.2875-0.0875,2.3125-1.1125,2.4-2.4c0-2.4-1.4-1-2.6-1.4c-1.3-0.4-1.2-1.4-2-2.5s-5.6-2.3-3.6-5.6c0.6-0.8,2-0.6,2.4-1.7
	s-0.5-1.6-0.6-2.3c-0.5-2.1-0.3-3.3-2.4-4.2c-1.6325-0.7997-3.3924-1.3074-5.2-1.5c-1.6,0-2.6,2.5-4.6,0.3c-1-1.1,0-2.9-0.8-3.8
	c-0.8-1-3.4,0-4.5,0s-3.4,0.4-4.2-0.4v-1.6l-1-1.5c-0.4-1.6,1.2-1.8,1-3.4s-3-2-3.5-3.4l-0.3,0.5v-0.7
	c0.808-1.4668,0.9884-3.1981,0.5-4.8c-2.4913,0.5793-5.1047-0.1781-6.9-2c-0.4-0.5,0-1.1-0.7-1.7
	c-0.6681-0.4534-1.3702-0.8546-2.1-1.2c-1.7-1.1-1.4-1.2-1.7-2.7c0.3756-0.3633,0.5605-0.8809,0.5-1.4c-0.2-0.6-1.5-1.3-2.6-1.6
	s-2.8,0-3.4-1.6c-0.7-1.6,0.8-2.9,0.5-3.4s-2.7-0.7-3.7,0c-3-2.4,1.6-3.9,1.4-5.6s-3.3-2.2-4.8-2c-1.6,0.2-1.7,0.8-3,1.2
	c-2.7,0.8-4.4-1.8-6.6-2.7c-1.3803-0.5394-2.6899-1.2446-3.9-2.1c-1-0.7-3-1.9-4.3-1.2s-0.4,2.4-1.1,3.4s-2.5,0-4.1,1.4
	s-1,3.8-2.9,2.1c-1.1-1,0-3.4-2.3-3.5c-1.4,0-3.4,2.1-4.6,2.7s-2.5,0-3.8,0.5c-1.2057,0.3623-2.377,0.8308-3.5,1.4
	c-1.0885,0.5688-2.2265,1.0374-3.4,1.4c-2,0.5-2.5,0-4.1,1.5c-0.9881,1.0304-1.6791,2.3089-2,3.7c-0.6,1.6-0.4,2.1-2.5,2.5
	c-1.3228,0.2926-2.7075,0.0011-3.8-0.8c-0.7,4.1-2.5,1-4.9,3.3c-1,0.9-0.7,1.8-0.9,3c-0.5,2.4-0.7,1.4-2.7,2.2s-2.4,4.4-1.7,7
	c0.6,2.6,2.3,3.5-0.5,4.4c-1.4092,0.5991-3.0403-0.0181-3.7-1.4c-0.5-0.8,0-8.6-3-4.4c-0.8,1.1,0,2.7,0,3.8c-0.8,2.3-2.8,1-3.5,2.5
	s1,2.4,0.4,3.5s-3.1,0.6-4.2,1.2s-0.7,1.3-1.7,1.7c-0.7532,0.2034-1.5468,0.2034-2.3,0c-0.6,0-1.4,0.3-1.2,2.1c0,3.1,1.6,2-1.6,3.4
	c-0.7,0.3-1,1-1.9,1.3c-0.9,0.3-2.3-0.5-2.8,0.7c-0.6,1.2,1.1,1.8,1.2,2.5c0.1,0.5958,0.1,1.2042,0,1.8c0,1.2-1.6,0-0.7,1.7
	c0.5,1,2.5,1.4,3.4,2c-0.4976,1.2014-0.7032,2.5037-0.6,3.8c0,1,0.8,1.4,1,2.1c0.1,0.7634,0.1,1.5366,0,2.3c0,0.7,2.2,1.6,2.5,2.6
	c0.2258,0.8374-0.046,1.7303-0.7,2.3c-0.8,0.6-2-0.3-2.7,0l-0.7,1.5c-1.9,1.5-4.4,0.5-5.9,2.4c-0.7,1-0.4,2.4-1.3,3.5
	c-0.9,1.1-2.9,0.4-3.4,2.1c-0.9,2.9,3.7,1.7,4.6,3.8c0.3,0.8-0.3,2,0,2.8c0.5,2.4,0.9,0.7,1.7,1.9c0.8,1.1,0.4,1.7,1.1,2.5
	c1.9,2.2,5.6,0,7.9-0.5c-0.6,1.5-5.6,3-6,4.5c-0.3,1.5,3.9,1.7,3,4.6c1.3,1.1,3.3,0.3,4.8,0.6c1.525,0.5969,3.175,0.8031,4.8,0.6
	c-1.2,1.6-3.5,3.3-3.7,5.6c1.6,0,2.8,1.1,2.1,2.8c0.96,0.4,2.04,0.4,3,0c0.3113,0.4016,0.4865,0.892,0.5,1.4
	c0.5972-1.2132,0.7046-2.6097,0.3-3.9l-0.7-0.7c1.8223,0.4914,3.2602,1.8914,3.8,3.7c0.3,1.1-0.7,3.3,0,4.2c1.2,1.8,7,0.7,8.7,1.2
	s2.4,1.6,3.7,2.1s4.3,0.7,3.8,3s-3.5,1.5-0.7,2.8c1.8078,0.8127,3.9381,0.1736,5-1.5c1.4,0,1.5,1.6,1.6,2.6c1,0,1.4-1.1,2.2-1.4
	c0.7969-0.1,1.6031-0.1,2.4,0c0.8,0,1.4-1.2,2.3-1.5s1.9,0.4,2.8,0c0.768-0.3793,1.572-0.6808,2.4-0.9l1.6,0.6c1.4,0,3.4-2,3.9,0.7
	c1.6,0.4,1.4-1.2,2.5-1.5c1.2-0.3,1.5,0.4,2.5,0.7s2.6,0,3.4,1.1c2.5,0,5.6-0.4,8.1-0.3l3.6-1.2c1.2-0.4,2.6,0,3.8,0
	c1.1,0,1.6-2.3,3.9-2.9s4.9-2.2,8.1-1.1c0.7217,0.2058,1.4243,0.4735,2.1,0.8l0.6,1.5h1.5c0.7267,0.5823,1.5354,1.054,2.4,1.4h3.9
	c1.5438-0.0493,3.0879,0.085,4.6,0.4c0.3619,0.3683,0.8081,0.6429,1.3,0.8c0.6,0.1,0.7-1.1,1.7-0.5s0,2.5,2.9,2.8
	c2.9,0.2,1.7-1.2,3.3-2.3c2.4-1.7,2.1,1.5,4.4,1.5c0.1036-1.1752,0.0021-2.3595-0.3-3.5l-1.9-2.2h-2c-0.6,0,0-1.3,0-1.5
	s-2.5,0-3.3-1.5c-1.6-3.3,4.2-1,5.6-0.5s2.1,1.6,3.7,1.1s1.7-3.3,3.5-0.7c0.5-3.4,6.7,1.1,3.9-4.4c3.4-0.8,0-2.5,0-3.7
	c0-2.4,1.9-1.9,3.2-2.1c3.2-0.7,3.7-2.3,3.8-5.6c-0.0859-1.325,0.3042-2.6371,1.1-3.7c1-1.9,0.6-1.6,2.6-2.1h1.3
	c0.9,0,1.1-0.8,1.9-1.1c0.7-0.3,2.8-0.7,3.2-1.5C260.4161,296.2118,254.6161,297.0118,253.1161,296.5119L253.1161,296.5119z"/>
<path fill="#985B3F" d="M237.4161,375.5119c0,0,16.9,92.2-9.9,136.4h53.9c0,0-16.9-104.2-10.8-148
	C276.7161,320.0119,237.4161,375.5119,237.4161,375.5119z"/>
<path fill="#34D607" d="M460.5161,300.3119c-1.6107-0.7999-3.1496-1.7367-4.6-2.8c-1.2-0.7-1.9-0.7-2.5-2.3
	c-1.7-4.3,3.7-1.9,6.3-1.9c0.9,0,2.4,0.5,2.9-0.5c0.6-0.9-1.1-2.7-2-3.1c0.6102-1.1678,0.7874-2.514,0.5-3.8c-1-2.4-1.8,0-3.5-0.6
	c-1.2403-0.307-1.9998-1.558-1.7-2.8v-0.2c0.5-1.7,1.2-1,2.6-1.5s0.8-1,1.5-1.1s1.7,0.7,2.3,0.6c1.303-0.0527,2.3473-1.097,2.4-2.4
	c0-2.4-1.3-1-2.6-1.4c-1.4-0.4-1.1-1.4-2-2.4c-0.8-1.1-5.6-2.3-3.7-5.6c0.6-0.8,2.1-0.6,2.4-1.7s-0.5-1.7-0.6-2.4
	c-0.5-2-0.3-3.2-2.4-4.2c-1.6209-0.8133-3.3899-1.2896-5.2-1.4c-1.5,0-2.6,2.5-4.6,0.3c-1-1.1,0-2.9-0.8-3.8s-3.5,0-4.5,0
	s-3.5,0.4-4.2-0.4v-1.6l-1.1-1.4c-0.4-1.6,1.2-1.8,1.1-3.4c-0.2-1.6-3-2-3.5-3.4l-0.4,0.5v-0.7c0.808-1.4668,0.9884-3.1981,0.5-4.8
	c-2.5199,0.5157-5.1329-0.2308-7-2c-0.4-0.5,0-1.2-0.7-1.7c-0.6273-0.5157-1.3373-0.9214-2.1-1.2c-1.7-1.2-1.4-1.2-1.7-2.8
	c0.3174-0.3592,0.4949-0.8207,0.5-1.3c-0.2-0.6-1.5-1.3-2.7-1.6s-2.8,0-3.4-1.6s0.8-2.9,0.5-3.4s-2.7-0.7-3.7,0
	c-3-2.4,1.5-3.9,1.4-5.6c-0.2-1.7-3.3-2.3-4.9-2.1s-1.7,0.9-3,1.3c-2.8,0.8-4.4-1.8-6.6-2.7c-1.3985-0.4992-2.7134-1.2072-3.9-2.1
	c-1.1-0.7-3.1-1.9-4.3-1.2s-0.4,2.4-1.2,3.4s-2.5,0-4.1,1.4s-1,3.8-2.9,2.1c-1.1-0.9,0-3.4-2.3-3.4c-1.3,0-3.3,2.1-4.6,2.6
	c-1.2,0.5-2.5,0-3.8,0.5c-1.1935,0.4727-2.3617,1.0068-3.5,1.6c-1.0859,0.6012-2.2239,1.1032-3.4,1.5c-2.1,0.5-2.5,0-4.1,1.5
	c-1.0074,1.0162-1.7016,2.3005-2,3.7c-0.6,1.6-0.4,2.1-2.5,2.5c-1.4213,0.2002-2.8483-0.3256-3.8-1.4c-0.7,4.1-2.5,1-4.9,3.3
	c-0.9,0.9-0.6,1.8-0.9,3c-0.5,2.4-0.7,1.4-2.7,2.2s-2.3,4.4-1.7,7s2.3,3.5-0.6,4.4c-1.4095,0.4804-2.9616-0.1069-3.7-1.4
	c-0.5-0.8,0-8.6-3-4.4c-0.7,1,0,2.7,0,3.8c-0.8,2.4-2.8,1.1-3.5,2.5c-0.7,1.5,1,2.4,0.3,3.5s-3.1,0.5-4.2,1.2s-0.7,1.3-1.7,1.7
	c-0.7532,0.2034-1.5468,0.2034-2.3,0c-0.6,0-1.4,0-1.2,2c0,3.1,1.6,2.1-1.6,3.5c-0.7,0.3-1,1-1.9,1.3s-2.3-0.5-2.8,0.7
	c-0.6,1.2,1,1.8,1.2,2.4c0.1003,0.6294,0.1003,1.2706,0,1.9c0,1.1-1.6,0-0.7,1.7c0.4,1,2.5,1.4,3.4,2
	c-0.4976,1.2014-0.7032,2.5037-0.6,3.8c0,1,0.8,1.4,1.1,2.1c0.1001,0.7634,0.1001,1.5366,0,2.3c0,0.6,2.1,1.6,2.4,2.6
	c0.276,0.8376-0.0042,1.7582-0.7,2.3c-0.8,0.6-2-0.3-2.8,0l-0.7,1.5c-1.9,1.4-4.4,0.5-5.6,2.4c-0.8,1-0.4,2.4-1.4,3.4
	s-2.9,0.5-3.4,2.2c-0.8,2.9,3.7,1.7,4.6,3.8c0.1501,0.9273,0.1501,1.8727,0,2.8c0.4,2.3,0.9,0.7,1.7,1.8s0.3,1.7,1.1,2.6
	c1.9,2.2,5.6,0,8-0.5c-0.6,1.5-5.6,2.9-6,4.5c-0.3,1.6,3.9,1.7,3,4.6c1.4,1.1,3.3,0.3,4.8,0.6c1.5,0.2,2.7,1.1,4.8,0.7
	c-1.2,1.6-3.5,3.3-3.7,5.6c1.6,0.3,2.8,1,2,2.8c0.96,0.4002,2.04,0.4002,3,0c0.2951,0.4422,0.4358,0.9696,0.4,1.5
	c0.5974-1.2487,0.7045-2.6761,0.3-4l-0.7-0.7c1.8044,0.5226,3.2295,1.9102,3.8,3.7c0,1.1-0.7,3.4,0,4.2c1.2,1.7,7,0.7,8.7,1.2
	s2.4,1.7,3.7,2.1c1.3,0.5,4.3,0.7,3.8,3s-3.4,1.5-0.7,2.8c1.7797,0.7777,3.8607,0.1407,4.9-1.5c1.5,0,1.5,1.6,1.6,2.7
	c1-0.3,1.4-1.2,2.2-1.4c0.7969-0.1,1.6031-0.1,2.4,0c0.8,0,1.4-1.2,2.2-1.4s2,0.4,2.9,0c0.7626-0.4167,1.5671-0.7519,2.4-1l1.6,0.6
	c1.4,0,3.4-1.9,3.9,0.7c1.6,0.5,1.4-1.1,2.5-1.4c1.2-0.3,1.4,0.4,2.4,0.7c1.2237,0.0853,2.416,0.426,3.5,1c2.5,0,5.6-0.5,8.1-0.3
	l3.6-1.2c1.1-0.5,2.6,0,3.7,0c2-0.7,1.7-2.3,3.9-2.9c2.3-0.6,4.9-2.3,8-1.2c0.7719,0.1953,1.5125,0.4983,2.2,0.9l0.6,1.4h1.5
	c0.7227,0.6142,1.5312,1.1196,2.4,1.5h3.9c1.5423-0.0061,3.0819,0.1277,4.6,0.4c0.3516,0.3079,0.759,0.5455,1.2,0.7
	c0.6,0.1,0.7-1,1.7-0.5s0.3,2.6,2.9,2.8s1.7-1.2,3.3-2.3s2.1,1.5,4.3,1.5c0.3001-1.1474,0.3001-2.3526,0-3.5l-2-2.2h-1.9
	c-0.6,0,0-1.2,0-1.5c0-0.2-2.5,0-3.3-1.5c-1.6-3.3,4.3-1,5.6-0.5c1.4,0.4,2,1.6,3.7,1.1s1.7-3.4,3.5-0.7c0.5-3.4,6.8,1.1,4-4.4
	c3.4-0.8,0-2.5,0-3.7c0-2.4,2-1.9,3.3-2.1c3.1-0.7,3.7-2.4,3.8-5.6c-0.1002-1.3266,0.2913-2.6436,1.1-3.7c1.1-1.8,0.6-1.5,2.6-2h1.2
	c0.9,0,1.2-0.8,1.9-1.1s2.8-0.7,3.2-1.6c1-3-4.8-2.2-6.3-2.6L460.5161,300.3119z"/>
<path fill="#58EF26" d="M487.6161,250.0119c-1.6107-0.7999-3.1497-1.7367-4.6-2.8c-1.1-0.7-1.9-0.6-2.5-2.2
	c-1.7-4.3,3.7-1.9,6.3-1.9c1,0,2.4,0.5,2.9-0.5c0.6-0.9-1-2.7-2-3.1c0.6103-1.1679,0.7874-2.514,0.5-3.8c-1-2.4-1.8,0-3.4-0.6
	c-1.2292-0.2684-2.0251-1.4621-1.8-2.7c0-0.1,0-0.1,0.1-0.2c0.5-1.7,1.2-1,2.7-1.5c0.6,0,0.7-1,1.5-1.1s1.6,0.7,2.3,0.6
	c1.2875-0.0875,2.3125-1.1125,2.4-2.4c0-2.4-1.4-1-2.6-1.4c-1.3-0.5-1.2-1.4-2-2.4c-0.8-1.1-5.6-2.3-3.6-5.6c0.6-0.8,2-0.6,2.4-1.7
	s-0.5-1.6-0.6-2.4c-0.5-2-0.3-3.2-2.4-4.2c-1.6325-0.7998-3.3924-1.3074-5.2-1.5c-1.6,0-2.6,2.5-4.6,0.3c-1-1.1,0-2.9-0.8-3.8
	c-0.8-1-3.4,0-4.5,0s-3.4,0.4-4.2-0.4v-1.6l-1-1.5c-0.4-1.6,1.2-1.8,1-3.4s-3-2-3.5-3.4l-0.3,0.5v-0.7
	c0.808-1.4668,0.9884-3.1981,0.5-4.8c-2.4913,0.5793-5.1047-0.1781-6.9-2c-0.4-0.5,0-1.2-0.7-1.7
	c-0.6273-0.5157-1.3373-0.9214-2.1-1.2c-1.7-1.2-1.4-1.2-1.7-2.7c0.3757-0.3633,0.5606-0.8809,0.5-1.4c-0.2-0.7-1.5-1.3-2.7-1.6
	s-2.7,0-3.4-1.6s0.8-2.9,0.5-3.4s-2.7-0.7-3.7,0c-3-2.4,1.6-3.9,1.4-5.6s-3.6-3-5.1-3s-1.7,0.8-3,1.2c-2.7,0.8-4.4-1.8-6.6-2.7
	c-1.3803-0.5394-2.6899-1.2446-3.9-2.1c-1-0.7-3-1.9-4.3-1.2s-0.4,2.4-1.1,3.4s-2.5,0-4.1,1.4s-1,3.8-2.9,2.1
	c-1.1-0.9,0-3.4-2.3-3.4c-1.4,0-3.4,2.1-4.6,2.6s-2.5,0-3.8,0.5c-1.2309,0.4236-2.4061,0.9944-3.5,1.7
	c-1.0885,0.5688-2.2266,1.0374-3.4,1.4c-2,0.5-2.5,0-4.1,1.5c-0.9881,1.0304-1.6792,2.3089-2,3.7c-0.6,1.6-0.4,2.1-2.5,2.5
	c-1.3228,0.2926-2.7075,0.0011-3.8-0.8c-0.7,4.1-2.5,1-4.9,3.3c-1,0.9-0.7,1.8-0.9,3c-0.5,2.4-0.7,1.4-2.7,2.2s-2.4,4.4-1.7,7
	c0.6,2.6,2.3,3.5-0.5,4.4c-1.4092,0.5991-3.0403-0.018-3.7-1.4c-0.5-0.8,0-8.6-3-4.4c-0.8,1.1,0,2.7-0.3,3.8c-0.8,2.3-2.8,1-3.5,2.5
	s1,2.4,0.4,3.5s-3.1,0.6-4.2,1.2s-0.7,1.3-1.7,1.7s-1.7-0.3-2.3,0s-1.4,0-1.2,2.1c0,3.1,1.6,2-1.6,3.4c-0.7,0.3-1,1-1.9,1.3
	c-1,0.3-2.3-0.5-2.8,0.7c-0.6,1.2,1.1,1.8,1.2,2.5c0.1,0.5958,0.1,1.2042,0,1.8c0,1.2-1.6,0-0.7,1.7c0.5,1,2.5,1.4,3.4,2
	c-0.4976,1.2014-0.7032,2.5037-0.6,3.8c0,1,0.8,1.4,1,2.1c0.1,0.7634,0.1,1.5366,0,2.3c0,0.7,2.2,1.6,2.5,2.6
	c0.2258,0.8374-0.046,1.7303-0.7,2.3c-0.8,0.6-2,0-2.7,0l-0.7,1.5c-1.9,1.5-4.4,0.5-5.6,2.4c-0.7,1-0.4,2.4-1.3,3.5
	s-2.9,0.4-3.4,2.1c-0.9,2.9,3.7,1.7,4.6,3.8c0.3,0.8-0.3,2,0,2.8c0.5,2.4,0.9,0.7,1.7,1.8s0.4,1.7,1.1,2.6c1.9,2.2,5.6,0,7.9-0.5
	c-0.6,1.5-5.6,2.9-6,4.5c-0.3,1.6,3.9,1.7,3,4.6c1.3,1.1,3.3,0.3,4.8,0.6c1.525,0.5969,3.175,0.8031,4.8,0.6
	c-1.2,1.6-3.5,3.3-3.7,5.6c1.6,0,2.8,1.1,2.1,2.8c0.96,0.4,2.04,0.4,3,0c0.3113,0.4016,0.4865,0.892,0.5,1.4
	c0.5972-1.2132,0.7046-2.6097,0.3-3.9l-0.7-0.7c1.8223,0.4914,3.2602,1.8914,3.8,3.7c0,1.1-0.7,3.3,0,4.2c1.2,1.7,7,0.7,8.7,1.2
	s2.4,1.6,3.7,2.1c1.2,0.5,4.3,0.7,3.8,3s-3.5,1.5-0.7,2.8c1.8108,0.7617,3.9075,0.1328,5-1.5c1.4,0,1.5,1.6,1.6,2.7
	c1,0,1.4-1.1,2.2-1.4c0.7969-0.1,1.6031-0.1,2.4,0c0.8,0,1.4-1.2,2.3-1.4s1.9,0.4,2.8,0s2.1-0.9,2.4-1l1.1,1c1.4,0,3.4-1.9,3.9,0.7
	c1.6,0.5,1.4-1.1,2.5-1.4c1.2-0.3,1.5,0.4,2.5,0.7s2.6,0,3.4,1h0.3c2.5,0,5.3-0.4,8.1-0.3l3.6-1.2c1.2-0.5,2.6,0,3.8,0
	c1.1,0,1.6-2.3,3.9-2.9s4.9-2.3,8.1-1.1c0.7217,0.2058,1.4243,0.4735,2.1,0.8l0.6,1.5h1.5c0.7508,0.5464,1.5548,1.0154,2.4,1.4h3.9
	c1.5423-0.0061,3.0819,0.1278,4.6,0.4c0.3503,0.3624,0.8046,0.607,1.3,0.7c0.6,0.1,0.7-1,1.6-0.5s0.3,2.5,2.9,2.8
	c2.6,0.2,1.7-1.2,3.3-2.3c2.4-1.7,2.1,1.5,4.4,1.5c0.1036-1.1752,0.0021-2.3595-0.3-3.5l-1.9-2.2h-2c-0.6,0,0-1.2,0-1.4
	s-2.5,0-3.3-1.5c-1.6-3.3,4.2-1,5.6-0.5c1.4,0.4,2.1,1.6,3.7,1.1s1.7-3.4,3.5-0.7c0.5-3.4,6.7,1.1,3.9-4.4c3.4-0.8,0-2.5,0-3.7
	c0-2.4,1.9-1.9,3.2-2.1c3.1-0.7,3.7-2.3,3.8-5.6c-0.1002-1.3266,0.2913-2.6436,1.1-3.7c1-1.8,0.6-1.5,2.6-2h1.3
	c0.9,0,1.1-0.8,1.9-1.1c0.7-0.3,2.8-0.7,3.2-1.5c0.6-3.4-5.2-2.7-6.6-2.7L487.6161,250.0119z"/>
<path fill="#34D607" d="M308.5161,363.3119c-1.6107-0.7999-3.1496-1.7367-4.6-2.8c-1.2-0.7-1.9-0.7-2.5-2.3
	c-1.7-4.3,3.7-1.9,6.3-1.9c0.9,0,2.4,0.5,2.9-0.5c0.6-0.9-1.1-2.7-2-3.1c0.6102-1.1678,0.7874-2.514,0.5-3.8c-1-2.4-1.8,0-3.5-0.6
	c-1.2403-0.307-1.9998-1.558-1.7-2.8v-0.2c0.5-1.7,1.2-1,2.6-1.5s0.8-1,1.5-1.1s1.7,0.7,2.3,0.6c1.303-0.0527,2.3473-1.097,2.4-2.4
	c0-2.5-1.3-1-2.6-1.4c-1.4-0.4-1.1-1.4-2-2.4c-0.8-1.1-5.6-2.3-3.7-5.6c0.6-0.8,2.1-0.6,2.4-1.7s-0.5-1.7-0.6-2.4
	c-0.5-2-0.3-3.2-2.4-4.2c-1.6209-0.8133-3.3899-1.2896-5.2-1.4c-1.5,0-2.6,2.5-4.6,0c-1-1.1,0-2.9-0.8-3.8s-3.5,0-4.5,0
	s-3.5,0.4-4.2-0.4v-1.6l-1.1-1.4c-0.4-1.6,1.2-1.8,1.1-3.4s-3-2.1-3.5-3.4l-0.4,0.5v-0.7c0.8081-1.4668,0.9884-3.1981,0.5-4.8
	c-2.5178,0.4663-5.1086-0.2739-7-2c-0.4-0.5,0-1.2-0.7-1.7c-0.6273-0.5157-1.3373-0.9214-2.1-1.2c-1.7-1.2-1.4-1.2-1.7-2.8
	c0.3174-0.3592,0.4949-0.8207,0.5-1.3c-0.1-0.6-1.5-1.3-2.7-1.6s-2.7,0-3.4-1.6s0.8-3,0.5-3.4c-1.1696-0.5606-2.5304-0.5606-3.7,0
	c-3-2.4,1.5-3.9,1.4-5.6c-0.2-1.7-3.3-2.3-4.9-2.1c-1.6,0.2-1.7,0.9-3,1.3c-2.8,0.8-4.4-1.8-6.6-2.7
	c-1.3803-0.5394-2.6899-1.2446-3.9-2.1c-1.1-0.7-3.1-1.9-4.3-1.2s-0.4,2.4-1.2,3.4s-2.5,0-4.1,1.4s-1,3.8-2.9,2.1
	c-1.1-0.9,0-3.4-2.3-3.4c-1.3,0-3.3,2.1-4.6,2.6c-1.2,0.6-2.5,0-3.8,0.5c-1.1934,0.4727-2.3616,1.0068-3.5,1.6
	c-1.086,0.6012-2.2239,1.1032-3.4,1.5c-2.1,0.5-2.5,0-4.1,1.4c-0.9521,1.0563-1.6378,2.3249-2,3.7c-0.6,1.6-0.4,2.1-2.5,2.5
	c-1.3227,0.3032-2.7118,0.0108-3.8-0.8c-0.7,4.1-2.5,1-4.8,3.3c-1,0.9-0.7,1.8-1,3c-0.5,2.4-0.7,1.4-2.7,2.2s-2.3,4.4-1.7,7
	s2.3,3.4-0.6,4.4c-1.4095,0.4804-2.9616-0.1069-3.7-1.4c-0.5-0.8,0-8.6-3-4.4c-0.7,1,0,2.7,0,3.8c-0.8,2.4-2.8,1.1-3.5,2.5
	c-0.7,1.5,1,2.4,0.3,3.5s-3.1,0.6-4.2,1.2c-1.1,0.7-0.7,1.3-1.7,1.7c-0.7532,0.2034-1.5468,0.2034-2.3,0c-0.6,0-1.4,0-1.2,2
	c0,3.1,1.6,2.1-1.6,3.5c-0.7,0.3-1,1-1.9,1.3s-2.3-0.5-2.8,0.7c-0.6,1.2,1,1.8,1.2,2.4c0.1003,0.6294,0.1003,1.2706,0,1.9
	c0,1.1-1.6,0-0.7,1.7c0.4,1,2.5,1.4,3.4,2c-0.4976,1.2014-0.7032,2.5037-0.6,3.8c0,1,0.8,1.4,1.1,2.1
	c0.1001,0.7634,0.1001,1.5366,0,2.3c0,0.6,2.2,1.6,2.4,2.6c0.276,0.8376-0.0042,1.7582-0.7,2.3c-0.8,0.6-2-0.3-2.8,0l-0.7,1.5
	c-1.9,1.4-4.4,0.5-5.6,2.4c-0.8,1-0.4,2.4-1.4,3.4c-1,1.1-2.9,0.5-3.4,2.2c-0.8,2.9,3.7,1.6,4.6,3.8c0.3,0.9-0.3,2,0,2.8
	c0.4,2.3,0.9,0.7,1.7,1.8s0.3,1.7,1.1,2.6c1.9,2.2,5.6,0,8-0.5c-0.6,1.5-5.6,2.9-6,4.5c-0.3,1.6,3.9,1.7,3,4.5
	c1.4,1.1,3.3,0.4,4.8,0.6s2.7,1.1,4.8,0.7c-1.2,1.6-3.5,3.3-3.7,5.6c1.6,0,2.8,1,2,2.8c0.9599,0.4002,2.0401,0.4002,3,0
	c0.2951,0.4422,0.4358,0.9696,0.4,1.5c0.5974-1.2487,0.7045-2.6761,0.3-4l-0.7-0.7c1.8585,0.4264,3.3242,1.8535,3.8,3.7
	c0.3,1.1-0.7,3.4,0,4.2c1.2,1.7,7,0.7,8.7,1.2s2.4,1.7,3.7,2.1c1.3,0.5,4.3,0.7,3.8,3s-3.4,1.5-0.7,2.8
	c1.8108,0.7617,3.9075,0.1328,5-1.5c1.4,0,1.5,1.6,1.6,2.7c1,0,1.4-1.2,2.2-1.4c0.7969-0.0999,1.6031-0.0999,2.4,0
	c0.8,0,1.4-1.2,2.3-1.4s1.9,0.4,2.8,0.3s2-1,2.4-1l1.6,0.6c1.4,0,3.4-1.9,3.9,0.7c1.6,0.5,1.4-1.1,2.5-1.4c1.2-0.3,1.4,0.4,2.4,0.7
	s2.7,0,3.5,1c2.5,0,5.6-0.5,8.1-0.3l3.6-1.3c1.1-0.4,2.6,0,3.7,0c2-0.7,1.7-2.3,3.9-2.9s4.9-2.3,8-1.2
	c0.7719,0.1953,1.5125,0.4983,2.2,0.9l0.6,1.4h1.5c0.7227,0.6142,1.5312,1.1196,2.4,1.5h3.9c1.5392-0.0372,3.0787,0.0632,4.6,0.3
	c0.3381,0.3495,0.7473,0.6223,1.2,0.8c0.6,0.1,0.7-1,1.7-0.5s0.3,2.6,2.9,2.8s1.7-1.2,3.3-2.3s2.1,1.5,4.3,1.5
	c0.3001-1.1474,0.3001-2.3526,0-3.5l-2.6-2.5h-1.9c-0.6,0,0-1.2,0-1.5c0-0.2-2.5,0-3.3-1.5c-1.6-3.3,4.3-1,5.6-0.5
	c1.4,0.5,2.1,1.6,3.7,1.1s1.7-3.4,3.5-0.7c0.5-3.4,6.8,1.1,4-4.3c3.4-0.8,0-2.5,0-3.7c0-2.4,2-1.9,3.3-2.2c3.1-0.7,3.7-2.3,3.8-5.6
	c-0.1002-1.3266,0.2913-2.6436,1.1-3.7c1.1-1.8,0.6-1.5,2.6-2h1.2c0.9,0,1.2-0.8,1.9-1.1s2.8-0.7,3.2-1.6
	C315.716,363.0119,309.916,363.8119,308.5161,363.3119L308.5161,363.3119z"/>
<path fill="#4BDD14" d="M344.0161,312.7119c-1.6107-0.7999-3.1496-1.7367-4.6-2.8c-1.1-0.7-1.9-0.6-2.5-2.3
	c-1.7-4.3,3.7-1.9,6.3-1.9c1,0,2.4,0.5,2.9-0.5c0.6-0.9-1-2.7-2-3.1c0.6102-1.1678,0.7874-2.514,0.5-3.8c-1-2.4-1.8,0-3.4-0.6
	c-1.2074-0.2327-2.0072-1.388-1.8-2.6c0-0.1,0-0.2,0.1-0.2c0.5-1.7,1.2-1,2.7-1.6c0.6,0,0.7-1,1.5-1.1s1.6,0.7,2.3,0.6
	c1.3085-0.0801,2.3666-1.0959,2.5-2.4c0-2.4-1.4-1-2.7-1.4c-1.4-0.5-1.1-1.4-2-2.4c-0.8-1.1-5.6-2.3-3.7-5.6
	c0.6-0.8,2.1-0.6,2.5-1.7s-0.5-1.7-0.6-2.4c-0.5-2-0.3-3.2-2.4-4.2c-1.6209-0.8133-3.3899-1.2896-5.2-1.4c-1.6,0-2.6,2.5-4.6,0.3
	c-1-1.1,0-2.9-0.8-3.8c-0.8-1-3.5,0-4.5,0s-3.4,0.4-4.2-0.4v-1.5l-1-1.5c-0.4-1.6,1.2-1.8,1-3.4s-3-2-3.5-3.4l-0.3,0.5v-0.7
	c0.808-1.4668,0.9884-3.1981,0.5-4.8c-2.4913,0.5793-5.1047-0.1781-6.9-2c-0.5-0.5,0-1.2-0.7-1.7
	c-0.6273-0.5157-1.3373-0.9214-2.1-1.2c-1.7-1.2-1.4-1.2-1.7-2.8c0.3174-0.3592,0.4949-0.8207,0.5-1.3c-0.2-0.6-1.5-1.3-2.7-1.6
	s-2.7,0-3.4-1.6s0.8-2.9,0.5-3.4s-2.7-0.7-3.7,0c-3-2.4,1.6-3.9,1.4-5.6s-3.3-2.2-4.9-2s-1.7,0.8-3,1.2c-2.7,0.8-4.4-1.8-6.6-2.7
	c-1.3803-0.5394-2.6899-1.2446-3.9-2.1c-1.1-0.7-3-1.9-4.3-1.2s-0.4,2.4-1.1,3.4s-2.5,0-4.1,1.4s-1,3.8-2.9,2.1
	c-1.1-0.9,0-3.4-2.3-3.4c-1.4,0-3.4,2.1-4.6,2.6s-2.5,0-3.8,0.5c-1.2109,0.4307-2.382,0.9661-3.5,1.6
	c-1.086,0.6012-2.2239,1.1032-3.4,1.5c-2.1,0.5-2.5,0-4.1,1.5c-1.0074,1.0162-1.7016,2.3005-2,3.7c-0.6,1.6-0.4,2.1-2.5,2.5
	c-1.3228,0.2926-2.7075,0.0011-3.8-0.8c-0.7,4.1-2.5,1-4.9,3.3c-1,0.9-0.7,1.8-1,3c-0.5,2.4-0.7,1.4-2.7,2.2s-2.3,4.4-1.7,7
	s2.3,3.5-0.6,4.4c-1.4092,0.5991-3.0403-0.018-3.7-1.4c-0.5-0.8,0-8.6-3-4.4c-0.8,1.1,0,2.7,0,3.8c-0.8,2.3-2.8,1-3.5,2.5
	s1,2.4,0.4,3.5s-3.2,0.5-4.3,1.2s-0.7,1.3-1.7,1.7c-0.7532,0.2034-1.5468,0.2034-2.3,0c-0.6,0-1.4,0-1.2,2.1c0,3,1.6,2-1.6,3.4
	c-0.7,0.3-1,1-1.9,1.3s-2.3-0.5-2.8,0.7c-0.6,1.2,1.1,1.8,1.2,2.5c0.1,0.5958,0.1,1.2042,0,1.8c0,1.1-1.6,0-0.7,1.7
	c0.4,1,2.5,1.4,3.4,2c-0.4976,1.2014-0.7032,2.5037-0.6,3.8c0,1,0.8,1.4,1,2.1c0.1,0.7634,0.1,1.5366,0,2.3c0,0.6,2.2,1.6,2.4,2.6
	c0.276,0.8376-0.0042,1.7582-0.7,2.3c-0.8,0.6-2,0-2.8,0l-0.7,1.5c-1.9,1.4-4.4,0.5-5.6,2.4c-0.7,1-0.4,2.4-1.3,3.5
	s-2.9,0.4-3.4,2.1c-0.8,2.9,3.8,1.7,4.6,3.8c0.3,0.8-0.3,2,0,2.8c0.4,2.3,0.9,0.7,1.7,1.8s0.4,1.7,1.1,2.6c1.9,2.2,5.6,0,8-0.5
	c-0.6,1.5-5.6,2.9-6,4.5c-0.3,1.6,3.9,1.7,3,4.6c1.3,1.1,3.3,0.3,4.8,0.6c1.525,0.5969,3.175,0.8031,4.8,0.6
	c-1.2,1.6-3.5,3.3-3.7,5.6c1.6,0,2.8,1.1,2.1,2.8c0.96,0.4,2.04,0.4,3,0c0.3113,0.4016,0.4865,0.892,0.5,1.4
	c0.5972-1.2132,0.7046-2.6097,0.3-3.9l-0.7-0.7c1.8586,0.4263,3.3243,1.8535,3.8,3.7c0,1.1-0.7,3.4,0,4.2c1.2,1.7,7,0.7,8.7,1.2
	s2.4,1.6,3.7,2.1s4.3,0.7,3.8,3c-0.6,2.3-3.4,1.5-0.7,2.8c1.8108,0.7617,3.9075,0.1328,5-1.5c1.4,0,1.5,1.6,1.6,2.7
	c1,0,1.4-1.1,2.2-1.4c0.793-0.15,1.607-0.15,2.4,0c0.8,0,1.4-1.2,2.3-1.4s1.9,0.4,2.8,0c0.7708-0.3994,1.5736-0.7339,2.4-1l1.6,0.6
	c1.4,0,3.4-1.9,3.9,0.7c1.6,0.5,1.4-1.1,2.5-1.4c1.2-0.3,1.4,0.4,2.4,0.7s2.7,0.3,3.5,1c2.5,0,5.6-0.4,8.1-0.3l3.6-1.2
	c1.2-0.5,2.6,0,3.8,0c1.1,0,1.6-2.3,3.9-2.9s4.9-2.3,8.1-1.1c0.7217,0.2059,1.4243,0.4735,2.1,0.8l0.6,1.5h1.5
	c0.7227,0.6142,1.5312,1.1195,2.4,1.5h3.9c1.5438-0.0493,3.0879,0.085,4.6,0.4c0.3,0,0.7,0.7,1.2,0.7s0.7-1,1.7-0.5s0.3,2.5,2.9,2.8
	c2.6,0.2,1.7-1.2,3.3-2.3c2.4-1.7,2.1,1.5,4.4,1.5c0.1035-1.1752,0.002-2.3595-0.3-3.5l-1.9-2.2h-2c-0.6,0,0-1.2,0-1.4
	s-2.5,0-3.3-1.5c-1.6-3.3,4.2-1,5.6-0.5s2.1,1.6,3.7,1.1s1.7-3.4,3.5-0.7c0.5-3.4,6.7,1.1,3.9-4.4c3.4-0.8,0-2.5,0-3.7
	c0-2.4,2-1.9,3.3-2.1c3.1-0.7,3.7-2.3,3.8-5.6c-0.1003-1.3266,0.2913-2.6437,1.1-3.7c1-1.8,0.6-1.5,2.6-2h1.2c0.9,0,1.2-0.8,1.9-1.1
	s2.8-0.7,3.2-1.5C351.3161,312.3119,345.5161,313.2119,344.0161,312.7119z"/>
<path fill="#4BDD14" d="M402.1161,221.8119c-1.6433-0.7394-3.1884-1.6799-4.6-2.8c-1.2-0.7-1.9-0.6-2.5-2.2
	c-1.7-4.3,3.7-1.9,6.3-1.9c0.9,0,2.4,0.4,2.9-0.5c0.6-0.8-1.1-2.7-2-3.1c0.6103-1.1679,0.7874-2.514,0.5-3.8c-1-2.4-1.8,0-3.5-0.6
	c-1.2403-0.307-1.9998-1.558-1.7-2.8v-0.2c0.5-1.7,1.2-1,2.6-1.5s0.8-1,1.5-1.1c0.7-0.2,1.7,0.7,2.3,0.6
	c1.3208-0.0987,2.3553-1.1763,2.4-2.5c0-2.4-1.3-1-2.6-1.4c-1.4-0.4-1.1-1.4-2-2.4c-0.8-1-5.6-2.4-3.7-5.6c0.6-0.8,2.1-0.7,2.4-1.8
	s-0.5-1.6-0.6-2.3c-0.5-2.1-0.3-3.3-2.4-4.2c-1.6209-0.8133-3.3899-1.2896-5.2-1.4c-1.5,0-2.6,2.5-4.6,0c-1-1.1,0-2.9-0.8-3.8
	s-3.5,0-4.5,0s-3.5,0.5-4.2-0.4v-1.6l-1.1-1.4c-0.4-1.7,1.2-1.9,1.1-3.5c-0.2-1.6-3-2-3.5-3.4l-0.4,0.5v-0.7
	c0.808-1.4668,0.9884-3.1981,0.5-4.8c-2.522,0.5794-5.1648-0.1757-7-2c-0.4-0.5,0-1.1-0.7-1.7c-0.6681-0.4534-1.3702-0.8546-2.1-1.2
	c-1.7-1.1-1.4-1.2-1.7-2.7c0.3328-0.3895,0.5108-0.8878,0.5-1.4c-0.2-0.6-1.5-1.2-2.7-1.6c-1.2-0.3-2.8,0-3.4-1.6s0.8-2.9,0.5-3.3
	s-2.7-0.7-3.7-0.3c-3-2.4,1.5-3.9,1.4-5.6c-0.2-1.7-3.3-2.3-4.9-2.1s-1.7,0.8-3,1.3c-2.8,0.8-4.4-1.9-6.6-2.7
	c-1.3836-0.5741-2.6931-1.3127-3.9-2.2c-1.1-0.7-3.1-1.9-4.3-1.2s-0.4,2.5-1.2,3.4s-2.5,0-4.1,1.4s-1,3.8-2.9,2.1
	c-1.1-1,0-3.4-2.3-3.5c-1.3,0-3.3,2.1-4.6,2.7c-1.2,0.6-2.5,0-3.8,0.5c-1.2133,0.4651-2.3843,1.0338-3.5,1.7
	c-1.0885,0.5688-2.2266,1.0374-3.4,1.4c-2.1,0.5-2.5,0-4.1,1.5c-0.9881,1.0304-1.6792,2.3089-2,3.7c-0.6,1.6-0.4,2.1-2.5,2.5
	c-1.3228,0.2926-2.7075,0.0011-3.8-0.8c-0.7,4-2.5,0.9-4.8,3.3c-1,1-0.7,1.9-1,3c-0.5,2.5-0.7,1.4-2.7,2.2s-2.3,4.4-1.7,7
	s2.3,3.5-0.6,4.5c-1.4097,0.499-2.9737-0.0927-3.7-1.4c-0.5-0.8,0-8.6-3-4.4c-0.7,1,0,2.6,0,3.8c-0.8,2.3-2.8,1.1-3.5,2.5
	c-0.7,1.5,1,2.4,0.3,3.5s-3.1,0.6-4.2,1.2s-0.7,1.4-1.7,1.7c-1,0.4-1.7-0.3-2.3,0s-1.4,0.3-1.2,2.1c0,3.1,1.6,2-1.6,3.5
	c-0.7,0.3-1,1-1.9,1.3s-2.3-0.5-2.8,0.7c-0.6,1.2,1,1.7,1.2,2.4c0.1,0.5958,0.1,1.2042,0,1.8c0,1.2-1.6,0-0.7,1.7
	c0.4,1,2.5,1.4,3.4,2c-0.4976,1.2014-0.7032,2.5037-0.6,3.8c0,1,0.8,1.4,1.1,2.1c0.1,0.7634,0.1,1.5366,0,2.3c0,0.7,2.1,1.6,2.4,2.6
	c0.2908,0.8373,0.008,1.7666-0.7,2.3c-0.8,0.6-2-0.3-2.8,0l-0.7,1.5c-1.9,1.5-4.4,0.5-5.6,2.4c-1.2,1.9-0.4,2.4-1.4,3.5
	s-2.9,0.5-3.4,2.1c-0.8,2.9,3.7,1.7,4.6,3.8c0.15,0.9273,0.15,1.8727,0,2.8c0.4,2.4,0.9,0.7,1.7,1.9c0.8,1.1,0.3,1.7,1.1,2.6
	c1.9,2.2,5.6,0,8-0.5c-0.6,1.5-5.6,2.9-6,4.4c-0.3,1.5,3.9,1.7,3,4.6c1.4,1.1,3.3,0.3,4.8,0.6c1.525,0.5969,3.175,0.8031,4.8,0.6
	c-1.2,1.7-3.5,3.3-3.7,5.6c1.6,0,2.8,1.1,2,2.8c0.96,0.4002,2.04,0.4002,3,0c0.2817,0.4109,0.4221,0.9023,0.4,1.4
	c0.5972-1.2132,0.7046-2.6097,0.3-3.9l-0.7-0.7c1.8044,0.5226,3.2295,1.9102,3.8,3.7c0,1.1-0.7,3.3,0,4.2c1.2,1.8,7,0.7,8.7,1.2
	s2.4,1.6,3.7,2.1s4.3,0.6,3.8,3s-3.4,1.4-0.7,2.7c1.8078,0.8127,3.9381,0.1736,5-1.5c1.4,0,1.5,1.6,1.6,2.6c1,0,1.4-1.1,2.2-1.4
	c0.7969-0.1,1.6031-0.1,2.4,0c0.8,0,1.4-1.2,2.3-1.5c0.9-0.2,1.9,0.5,2.8,0c0.7404-0.4396,1.553-0.7444,2.4-0.9l1.6,0.6
	c1.4,0,3.4-2,3.9,0.7c1.6,0.4,1.4-1.2,2.5-1.5c1.2-0.3,1.4,0.4,2.4,0.7s2.7,0.3,3.5,1.1c2.5,0,5.6-0.4,8.1-0.3l3.6-1.2
	c1.1-0.4,2.6,0,3.7,0c2-0.7,1.7-2.3,3.9-2.9c2.3-0.6,4.9-2.2,8-1.1c0.754,0.206,1.4898,0.4736,2.2,0.8l0.6,1.5h1.5
	c0.7267,0.5823,1.5354,1.054,2.4,1.4h3.9c1.5423-0.0061,3.0819,0.1278,4.6,0.4c0.3381,0.3495,0.7474,0.6223,1.2,0.8
	c0.5,0.1,0.7-1,1.7-0.5s0.3,2.5,2.9,2.8c2.6,0.2,1.7-1.2,3.3-2.3s2.1,1.5,4.3,1.4c0.3001-1.1474,0.3001-2.3526,0-3.5l-2-2.1h-1.9
	c-0.5,0,0-1.2,0-1.5c0-0.2-2.5,0-3.3-1.5c-1.6-3.3,4.3-1,5.6-0.5c1.4,0.5,2,1.7,3.7,1.1s1.7-3.3,3.5-0.7c0.5-3.4,6.8,1.1,4-4.3
	c3.4-0.8,0-2.5,0-3.8c0-2.4,2-1.9,3.3-2.1c3.1-0.7,3.7-2.3,3.8-5.6c-0.0858-1.3251,0.3043-2.6372,1.1002-3.7001
	c1.1-1.8,0.6-1.6,2.6-2.1h1.2c0.9,0,1.2-0.8,1.9-1.1s2.8-0.7,3.2-1.5C409.4161,221.5119,403.6161,222.3119,402.1161,221.8119
	L402.1161,221.8119z"/>
<path fill="#4BDD14" d="M308.5161,168.2119c-1.6107-0.7999-3.1497-1.7367-4.6-2.8c-1.2-0.7-1.9-0.6-2.5-2.2
	c-1.7-4.3,3.7-1.9,6.3-1.9c0.9,0,2.4,0.5,2.9-0.5c0.6-0.9-1.1-2.7-2-3.1c0.6103-1.1679,0.7874-2.514,0.5-3.8c-1-2.4-1.8,0-3.5-0.6
	c-1.2002-0.2525-1.9684-1.4302-1.7158-2.6304c0.0049-0.0233,0.0102-0.0465,0.0158-0.0696c0-0.1,0-0.1,0.1-0.2c0.5-1.7,1.2-1,2.6-1.6
	s0.8-1,1.5-1.1s1.7,0.7,2.3,0.6c1.303-0.0528,2.3472-1.097,2.4-2.4c0-2.4-1.3-1-2.6-1.4c-1.4-0.5-1.1-1.4-2-2.4
	c-0.8-1.1-5.6-2.3-3.7-5.6c0.6-0.8,2.1-0.6,2.4-1.7s-0.5-1.6-0.6-2.3c-0.5-2.1-0.3-3.3-2.4-4.2
	c-1.6325-0.7998-3.3924-1.3074-5.2-1.5c-1.5,0-2.6,2.5-4.6,0.3c-1-1.1,0-2.9-0.8-3.8c-0.8-1-3.5,0-4.5,0s-3.5,0.4-4.2-0.4v-1.6
	l-1.1-1.5c-0.4-1.6,1.2-1.8,1.1-3.4c-0.2-1.6-3-2-3.5-3.4l-0.4,0.5v-0.7c0.808-1.4668,0.9884-3.1981,0.5-4.8
	c-2.522,0.5794-5.1648-0.1757-7-2c-0.4-0.5,0-1.2-0.7-1.7s-1.5-0.8-2.1-1.2c-1.7-1.2-1.4-1.2-1.7-2.7
	c0.3328-0.3895,0.5108-0.8878,0.5-1.4c-0.2-0.6-1.5-1.3-2.7-1.6s-2.7,0-3.4-1.6s0.8-2.9,0.5-3.4s-2.7-0.7-3.7,0
	c-3-2.4,1.5-3.9,1.4-5.6c-0.2-1.7-3.3-2.2-4.9-2c-1.6,0.2-1.7,0.8-3,1.2c-2.8,0.8-4.4-1.8-6.6-2.7
	c-1.3985-0.4992-2.7134-1.2072-3.9-2.1c-1.1-0.7-3.1-1.9-4.3-1.2s-0.4,2.4-1.2,3.4s-2.5,0-4.1,1.4s-1,3.8-2.9,2.1
	c-1.1-1,0-3.4-2.3-3.5c-1.3,0-3.3,2.1-4.6,2.6c-1.2,0.5-2.5,0-3.8,0.5c-1.2309,0.4236-2.4061,0.9944-3.5,1.7
	c-1.0885,0.5688-2.2266,1.0374-3.4,1.4c-2.1,0.5-2.5,0-4.1,1.5c-0.9881,1.0304-1.6792,2.3089-2,3.7c-0.6,1.6-0.4,2.1-2.5,2.5
	c-1.3227,0.3032-2.7118,0.0108-3.8-0.8c-0.7,4.1-2.5,1-4.8,3.3c-1,0.9-0.7,1.8-1,3c-0.5,2.4-0.7,1.4-2.7,2.2s-2.3,4.4-1.7,7
	s2.3,3.5-0.6,4.4c-1.5291,0.6151-3.2672-0.1259-3.8823-1.6549c-0.006-0.015-0.0119-0.03-0.0177-0.0451l0,0c-0.5-0.8,0-8.6-3-4.4
	c-0.7,1.1,0,2.7,0,3.8c-0.8,2.3-2.8,1-3.5,2.5s1,2.4,0.3,3.5s-3.1,0.6-4.2,1.2s-0.7,1.3-1.7,1.7c-0.7532,0.2034-1.5468,0.2034-2.3,0
	c-0.6,0-1.4,0-1.2,2.1c0,3.1,1.6,2-1.6,3.4c-0.7,0.3-1,1-1.9,1.3s-2.3-0.5-2.8,0.7c-0.6,1.2,1,1.8,1.2,2.5
	c0.1,0.5958,0.1,1.2042,0,1.8c0,1.2-1.6,0-0.7,1.7c0.4,1,2.5,1.4,3.4,2c-0.4975,1.2014-0.7032,2.5037-0.6,3.8c0,1,0.8,1.4,1.1,2.1
	c0.1,0.7634,0.1,1.5366,0,2.3c0,0.7,2.2,1.6,2.4,2.6c0.276,0.8376-0.0042,1.7582-0.7,2.3c-0.8,0.6-2,0-2.8,0l-0.7,1.5
	c-1.9,1.5-4.4,0.5-5.6,2.4s-0.4,2.4-1.4,3.5s-2.9,0.4-3.4,2.1c-0.8,2.9,3.7,1.7,4.6,3.8c0.3,0.8-0.3,2,0,2.8
	c0.4,2.4,0.9,0.7,1.7,1.8s0.3,1.8,1.1,2.6c1.9,2.2,5.6,0,8-0.5c-0.6,1.5-5.6,3-6,4.5c-0.3,1.5,3.9,1.7,3,4.6
	c1.4,1.1,3.3,0.3,4.8,0.6c1.525,0.5969,3.175,0.8031,4.8,0.6c-1.2,1.6-3.5,3.3-3.7,5.6c1.6,0,2.8,1.1,2,2.8
	c0.9599,0.4002,2.0401,0.4002,3,0c0.2817,0.4109,0.4221,0.9023,0.4,1.4c0.5972-1.2132,0.7046-2.6097,0.3-3.9l-0.7-0.7
	c1.8223,0.4914,3.2602,1.8914,3.8,3.7c0.3,1.1-0.7,3.3,0,4.2c1.2,1.7,7,0.7,8.7,1.2s2.4,1.6,3.7,2.1s4.3,0.7,3.8,3s-3.4,1.5-0.7,2.8
	c1.8108,0.7617,3.9075,0.1327,5-1.5c1.4,0.3,1.5,1.6,1.6,2.7c1,0,1.4-1.1,2.2-1.4c0.7969-0.1,1.6031-0.1,2.4,0
	c0.8,0,1.4-1.2,2.3-1.4s1.9,0.4,2.8,0c0.761-0.3951,1.5668-0.6973,2.4-0.9l1.6,0.6c1.4,0,3.4-1.9,3.9,0.7c1.6,0.5,1.4-1.1,2.5-1.4
	c1.2-0.3,1.4,0.4,2.4,0.7s2.7,0,3.5,1c2.5,0,5.6-0.4,8.1-0.3l3.6-1.2c1.1-0.5,2.6,0,3.7,0c2-0.7,1.7-2.3,3.9-2.9
	c2.3-0.6,4.9-2.3,8-1.1c0.754,0.206,1.4898,0.4735,2.2,0.8l0.6,1.5h1.5c0.7508,0.5464,1.5548,1.0154,2.4,1.4h3.9
	c1.5438-0.0493,3.0879,0.085,4.6,0.4c0.3381,0.3495,0.7474,0.6223,1.2,0.8c0.6,0.1,0.7-1.1,1.7-0.5s0.3,2.5,2.9,2.8
	c2.6,0.2,1.7-1.2,3.3-2.3s2.1,1.5,4.3,1.5c0.3001-1.1474,0.3001-2.3526,0-3.5l-2.5-2.3h-1.9c-0.6,0,0-1.2,0-1.4s-2.5,0-3.3-1.5
	c-1.6-3.3,4.3-1,5.6-0.5c1.4,0.5,2.1,1.6,3.7,1.1s1.7-3.4,3.5-0.7c0.5-3.4,6.8,1.1,4-4.4c3.4-0.8,0-2.5,0-3.7c0-2.4,2-1.9,3.3-2.1
	c3.1-0.7,3.7-2.3,3.8-5.6c-0.1002-1.3266,0.2913-2.6436,1.1-3.7c1.1-1.8,0.6-1.5,2.6-2h1.2c0.9,0,1.2-0.8,1.9-1.1s2.6-0.8,2.6-1.4
	C315.716,167.912,309.916,168.712,308.5161,168.2119L308.5161,168.2119z"/>
<path fill="#58EF26" d="M354.2161,265.4119c-1.6433-0.7394-3.1884-1.6799-4.6-2.8c-1.1-0.7-1.9-0.7-2.5-2.3
	c-1.7-4.3,3.7-1.9,6.3-1.9c1,0,2.4,0.5,3-0.5c0.6-0.9-1.1-2.7-2-3.1c0.5622-1.1826,0.7372-2.5123,0.5-3.8c-1-2.4-1.7,0-3.4-0.6
	c-1.2292-0.2684-2.0251-1.4621-1.8-2.7c0-0.1,0-0.1,0.1-0.2c0.5-1.7,1.3-1,2.7-1.5s0.7-1,1.5-1.1s1.7,0.7,2.3,0.6
	c1.2875-0.0875,2.3125-1.1125,2.4-2.4c0-2.4-1.4-1-2.6-1.4c-1.3-0.4-1.2-1.4-2-2.4c-0.8-1.1-5.6-2.3-3.6-5.6
	c0.6-0.8,2.1-0.6,2.4-1.7s-0.5-1.7-0.6-2.4c-0.5-2-0.3-3.2-2.4-4.2c-1.6209-0.8134-3.3899-1.2896-5.2-1.4c-1.5,0-2.6,2.5-4.6,0.3
	c-1-1.1,0-2.9-0.8-3.8s-3.4,0-4.4,0s-3.5,0.4-4.2-0.4v-1.6l-1-1.5c-0.4-1.6,1.2-1.8,1-3.4s-3-2-3.5-3.4l-0.5,0.3v-0.6001
	c0.7596-1.4816,0.9379-3.1936,0.5-4.8c-2.6017,0.5933-5.3252-0.2011-7.2-2.1c-0.4-0.5,0-1.2-0.7-1.7
	c-0.6059-0.4935-1.2794-0.8976-2-1.2c-1.7-1.2-1.4-1.2-1.8-2.8c0,0,0.7-0.7,0.5-1.3s-1.5-1.3-2.6-1.6s-2.8,0-3.4-1.6
	s0.7-2.9,0.5-3.4c-0.3-0.5-2.7-0.7-3.6,0c-3-2.4,1.5-3.9,1.3-5.6s-3.3-2.3-4.8-2.1c-1.6,0.2-1.7,0.9-3,1.3c-2.7,0.8-4.3-1.8-6.6-2.7
	c-1.3803-0.5394-2.6899-1.2445-3.9-2.1c-1-0.7-3-1.9-4.3-1.2c-1.2,0.7-0.4,2.4-1.2,3.4s-2.5,0-4.1,1.4s-1,3.8-2.9,2.1
	c-1.1-0.9,0-3.4-2.3-3.4c-1.4,0-3.4,2.1-4.6,2.6s-2.5,0-3.8,0.5c-1.1935,0.4727-2.3617,1.0068-3.5,1.6
	c-1.0859,0.6012-2.2239,1.1032-3.4,1.5c-2,0.5-2.5,0-4.1,1.5c-0.9157,1.0815-1.5967,2.3415-2,3.7c-0.6,1.6-0.3,2.1-2.5,2.5
	c-1.3228,0.2926-2.7075,0.0011-3.8-0.8c-0.7,4.1-2.5,1-4.9,3.3c-0.9,0.9-0.7,1.8-0.9,3c-0.5,2.4-0.7,1.4-2.7,2.2s-2.3,4.4-1.7,7
	s2.3,3.5-0.6,4.4c-1.4095,0.4804-2.9616-0.1069-3.7-1.4c-0.5-0.8,0-8.6-3-4.4c-0.8,1,0,2.7,0,3.8c-0.8,2.4-2.8,1.1-3.5,2.5
	c-0.7,1.5,1.1,2.4,0.4,3.5s-3.1,0.6-4.2,1.2c-1.1,0.7-0.7,1.3-1.7,1.7c-0.7532,0.2034-1.5468,0.2034-2.3,0c-0.6,0-1.4,0-1.2,2
	c0,3.1,1.6,2.1-1.5,3.5c-0.8,0.3-1,1-2,1.3s-2.3-0.5-2.8,0.7c-0.6,1.2,1.1,1.8,1.2,2.4c0.1002,0.6294,0.1002,1.2706,0,1.9
	c0,1.1-1.5,0-0.7,1.7c0.5,1,2.6,1.4,3.4,2c-0.4976,1.2014-0.7032,2.5037-0.6,3.8c0,1,0.8,1.4,1,2.1
	c0.1001,0.7634,0.1001,1.5366,0,2.3c0,0.6,2.2,1.6,2.5,2.6c0.276,0.8376-0.0042,1.7582-0.7,2.3c-0.7,0.6-2-0.3-2.7,0l-0.7,1.5
	c-1.8,1.4-4.4,0.5-5.6,2.4c-0.8,1-0.4,2.4-1.4,3.4c-1,1-2.9,0.5-3.4,2.2c-0.8,2.9,3.7,1.7,4.6,3.8c0.3,0.9-0.3,2,0,2.8
	c0.4,2.3,0.9,0.7,1.7,1.8s0.3,1.7,1.1,2.6c1.9,2.2,5.6,0,8-0.5c-0.6,1.5-5.6,2.9-6,4.5s4,1.7,3,4.5c1.3,1.1,3.3,0.4,4.8,0.6
	c1.6,0.2,2.6,1.1,4.7,0.7c-1.2,1.6-3.5,3.3-3.7,5.6c1.7,0,2.8,1,2.1,2.8c0.9599,0.4002,2.0401,0.4002,3,0
	c0.2951,0.4422,0.4358,0.9696,0.4,1.5c0.5938-1.2497,0.7008-2.6758,0.3-4l-0.7-0.7c1.7977,0.4977,3.2023,1.9023,3.7,3.7
	c0,1.1-0.6,3.4,0,4.2c1.2,1.7,7,0.7,8.7,1.2s2.4,1.7,3.7,2.1c1.3,0.5,4.3,0.7,3.8,3s-3.5,1.5-0.7,2.8
	c1.8108,0.7617,3.9075,0.1327,5-1.5c1.5,0,1.5,1.6,1.6,2.7c1,0,1.4-1.2,2.3-1.4c0.7969-0.1001,1.6031-0.1001,2.4,0
	c0.8,0,1.4-1.2,2.3-1.4s2,0.4,2.9,0.3s2-1,2.4-1l1.6,0.6c1.4,0,3.4-1.9,3.9,0.7c1.6,0.5,1.4-1.1,2.5-1.4s1.5,0.4,2.5,0.7
	c1.2237,0.0853,2.416,0.4259,3.5,1c2.6,0,5.6-0.4,8.1-0.3l3.6-1.2c1.2-0.5,2.6,0,3.8,0s1.6-2.3,3.9-2.9s5-2.3,8.1-1.2
	c0.7719,0.1954,1.5125,0.4984,2.2,0.9l0.6,1.4h1.5c0.7227,0.6142,1.5312,1.1196,2.4,1.5h3.9c1.5753-0.004,3.148,0.1299,4.7,0.4
	c0.3334,0.3323,0.7466,0.5733,1.2,0.7c0.6,0.1,0.7-1,1.7-0.5s0.3,2.6,2.9,2.8s1.7-1.2,3.3-2.3c2.4-1.7,2.1,1.5,4.4,1.5
	c0.2001-1.1581,0.2001-2.3419,0-3.5l-2-2.2h-1.9c-0.6,0,0-1.2,0-1.5s-2.5,0-3.3-1.5c-1.6-3.3,4.2-1,5.6-0.5s2,1.6,3.7,1.1
	s1.7-3.4,3.5-0.7c0.5-3.4,6.8,1.1,3.9-4.4c3.4-0.8,0-2.5,0-3.7c0-2.4,2-1.9,3.2-2.2c3.2-0.7,3.8-2.3,3.8-5.6
	c-0.1002-1.3266,0.2913-2.6436,1.1-3.7c1-1.8,0.6-1.5,2.6-2h1.3c0.9,0,1.1-0.8,1.9-1.1c0.7-0.3,2.8-0.7,3.2-1.6
	C361.5161,265.0119,355.7161,265.9119,354.2161,265.4119L354.2161,265.4119z"/>
<path fill="#58EF26" d="M221.6161,257.7119c-1.6107-0.8-3.1496-1.7367-4.6-2.8c-1.1-0.7-1.9-0.7-2.5-2.3c-1.7-4.3,3.7-1.9,6.3-1.9
	c1,0,2.4,0.5,2.9-0.5c0.6-0.9-1-2.7-2-3.1c0.6102-1.1679,0.7874-2.514,0.5-3.8c-1-2.4-1.8,0-3.4-0.6
	c-1.2292-0.2684-2.0251-1.4621-1.8-2.7c0-0.1,0-0.1,0.1-0.2c0.5-1.7,1.2-1,2.6-1.5s0.8-1,1.6-1.1s1.6,0.6,2.3,0.6
	c1.303-0.0527,2.3472-1.097,2.4-2.4c0-2.5-1.3-1-2.6-1.4c-1.4-0.4-1.1-1.4-2-2.4c-0.8-1-5.6-2.3-3.7-5.6c0.6-0.8,2.1-0.7,2.4-1.8
	s-0.5-1.6-0.6-2.3c-0.5-2-0.3-3.2-2.4-4.2c-1.6209-0.8133-3.3899-1.2896-5.2-1.4c-1.5,0-2.6,2.5-4.6,0c-1-1.1,0-2.9-0.8-3.8
	s-3.5,0-4.5,0s-3.4,0.5-4.2-0.4v-1.6l-1-1.4c-0.5-1.6,1.2-1.8,1-3.5s-3-2-3.5-3.4l-0.4,0.5v-0.6c0.808-1.4668,0.9884-3.1981,0.5-4.8
	c-2.5178,0.4664-5.1086-0.2739-7-2c-0.4-0.5,0-1.2-0.7-1.7c-0.6273-0.5157-1.3373-0.9214-2.1-1.2c-1.7-1.2-1.4-1.3-1.7-2.8
	c0.3174-0.3592,0.4949-0.8207,0.5-1.3c-0.2-0.6-1.5-1.3-2.7-1.6s-2.7,0-3.4-1.6s0.8-3,0.5-3.4s-2.7-0.7-3.7-0.3
	c-3-2.3,1.6-3.9,1.4-5.6s-3.3-2.3-4.9-2.1s-1.7,0.9-3,1.3c-2.7,0.8-4.4-1.8-6.6-2.7c-1.3615-0.5792-2.667-1.2822-3.9-2.1
	c-1.1-0.7-3.1-2-4.3-1.2c-1.2,0.7-0.4,2.5-1.1,3.4c-0.7,1-2.5,0-4.2,1.4c-1.6,1.4-1,3.8-2.9,2.1c-1.1-1,0-3.4-2.3-3.4
	c-1.3,0-3.3,2.1-4.5,2.6c-1.2,0.6-2.5,0-3.9,0.5c-1.2109,0.4307-2.382,0.9661-3.5,1.6c-1.0686,0.6106-2.2113,1.0811-3.4,1.4
	c-2.1,0.5-2.5,0-4.1,1.5c-0.9881,1.0304-1.6792,2.3089-2,3.7c-0.6,1.6-0.4,2.1-2.5,2.5c-1.3228,0.2926-2.7075,0.0011-3.8-0.8
	c-0.7,4.1-2.5,0.9-4.8,3.3c-1,1-0.7,1.9-1,3.1c-0.5,2.4-0.7,1.3-2.7,2.1s-2.3,4.4-1.7,7.1c0.6,2.6,2.3,3.4-0.6,4.4
	c-1.4097,0.499-2.9737-0.0928-3.7-1.4c-0.5-0.8,0-8.5-3-4.4c-0.7,1,0,2.6,0,3.8c-0.8,2.3-2.8,1.1-3.5,2.5c-0.7,1.5,1,2.4,0.4,3.5
	c-0.6,1.1-3.2,0.6-4.3,1.2c-1.1,0.7-0.7,1.3-1.7,1.7c-0.7532,0.2034-1.5468,0.2034-2.3,0c-0.6,0-1.4,0.3-1.2,2.1
	c0,3.1,1.6,2.1-1.6,3.5c-0.7,0.3-1,1-1.9,1.3c-0.9,0.3-2.3-0.5-2.8,0.7c-0.6,1.2,1,1.7,1.2,2.4c0.1001,0.6294,0.1001,1.2706,0,1.9
	c0,1.1-1.6,0-0.7,1.7c0.4,1,2.5,1.5,3.4,2c-0.4976,1.2014-0.7032,2.5037-0.6,3.8c0,1,0.8,1.4,1,2.1
	c0.1001,0.7634,0.1001,1.5366,0,2.3c0,0.6,2.2,1.6,2.4,2.6c0.2908,0.8373,0.008,1.7666-0.7,2.3c-0.8,0.6-2-0.3-2.8,0l-0.7,1.5
	c-1.9,1.4-4.4,0.5-5.6,2.4c-0.8,1-0.4,2.4-1.4,3.4c-1,1.1-2.9,0.5-3.4,2.1c-0.8,2.9,3.7,1.7,4.6,3.8c0.4,0.9-0.3,2,0,2.8
	c0.4,2.4,0.9,0.7,1.7,1.9c0.8,1.1,0.4,1.7,1.1,2.6c1.9,2.2,5.6,0,8-0.5c-0.6,1.5-5.6,2.9-6,4.4c-0.3,1.5,3.9,1.7,3,4.6
	c1.3,1.1,3.3,0.4,4.8,0.6c1.5298,0.5804,3.1681,0.8193,4.8,0.7c-1.2,1.6-3.5,3.3-3.7,5.6c1.6,0,2.8,1,2,2.8
	c0.9599,0.4002,2.04,0.4002,3,0c0.2691,0.4235,0.44,0.9019,0.5,1.4c0.5972-1.2132,0.7046-2.6097,0.3-3.9l-0.7-0.7
	c1.8585,0.4264,3.3242,1.8535,3.8,3.7c0.3,1.1-0.7,3.3,0,4.2c1.2,1.8,7,0.8,8.7,1.2c1.7,0.5,2.4,1.7,3.7,2.1c1.3,0.5,4.3,0.7,3.8,3
	s-3.4,1.4-0.7,2.8c1.8108,0.7617,3.9075,0.1328,5-1.5c1.4,0,1.5,1.6,1.6,2.6c1,0,1.4-1.1,2.2-1.4c0.7969-0.1,1.6031-0.1,2.4,0
	c0.8,0,1.4-1.2,2.3-1.5s1.9,0.5,2.8,0.3c0.9-0.1,2-1,2.4-1l1.6,0.6c1.4,0,3.4-2,3.9,0.7c1.6,0.5,1.4-1.1,2.5-1.5
	c1.2-0.3,1.4,0.4,2.4,0.7s2.7,0,3.5,1c2.5,0,5.6-0.5,8.1-0.4l3.6-1.2c1.2-0.4,2.6,0,3.8,0c2-0.7,1.6-2.3,3.9-2.8
	c2.3-0.6,4.9-2.3,8.1-1.2c0.7466,0.177,1.457,0.4814,2.1,0.9l0.6,1.4h1.5c0.7227,0.6142,1.5312,1.1196,2.4,1.5h3.8999
	c1.5392-0.0372,3.0787,0.0632,4.6,0.3c0.3,0,0.7,0.7,1.2,0.8s0.7-1,1.7-0.5s0.3,2.6,2.9,2.8s1.7-1.2,3.3-2.3s2.1,1.5,4.4,1.4
	c0.1036-1.1752,0.0021-2.3595-0.3-3.5l-2-2.1h-1.9c-0.6,0,0-1.2,0-1.5c0-0.2-2.5,0-3.3-1.5c-1.6-3.3,4.3-1,5.6-0.6
	c1.4,0.4,2.1,1.7,3.7,1.2s1.7-3.4,3.5-0.7c0.5-3.4,6.7,1.1,3.9-4.3c3.4-0.8,0-2.5,0-3.8c0-2.4,2-1.9,3.3-2.1
	c3.1-0.7,3.7-2.3,3.8-5.6c-0.0859-1.325,0.3042-2.6371,1.1-3.7c1.1-1.8,0.6-1.6,2.6-2.1h1.2c0.9,0,1.2-0.8,1.9-1.2
	c0.7-0.3,2.8-0.7,3.2-1.5C228.8161,257.3119,223.0161,258.2119,221.6161,257.7119z"/>
<path fill="#34D607" d="M150.8161,277.0119c-1.6433-0.7394-3.1884-1.6799-4.6-2.8c-1.1-0.7-1.9-0.6-2.5-2.2
	c-1.7-4.3,3.7-1.9,6.3-1.9c1,0,2.4,0.5,2.9-0.5c0.6-0.9-1-2.7-2-3.1c0.6102-1.1678,0.7874-2.514,0.5-3.8c-1-2.4-1.8,0-3.4-0.6
	c-1.2074-0.2327-2.0072-1.388-1.8-2.6c0-0.1,0-0.2,0.1-0.2c0.5-1.7,1.2-1,2.7-1.6c0.6,0,0.7-1,1.5-1.1s1.6,0.7,2.3,0.6
	c1.2875-0.0875,2.3125-1.1125,2.4-2.4c0-2.4-1.4-1-2.6-1.4c-1.3-0.5-1.2-1.4-2-2.4s-5.6-2.3-3.6-5.6c0.6-0.8,2-0.6,2.4-1.7
	s-0.5-1.6-0.6-2.4c-0.5-2-0.3-3.2-2.4-4.2c-1.6209-0.8133-3.3899-1.2896-5.2-1.4c-1.6,0-2.6,2.5-4.6,0.3c-1-1.1,0-2.9-0.8-3.8
	c-0.8-1-3.4,0-4.5,0s-3.4,0.4-4.2-0.4v-1.6l-1-1.5c-0.4-1.6,1.2-1.8,1-3.4s-3-2-3.5-3.4l-0.3,0.5v-0.7
	c0.808-1.4668,0.9884-3.1981,0.5-4.8c-2.4913,0.5793-5.1047-0.1781-6.9-2c-0.4-0.5,0-1.2-0.7-1.7s-1.5-0.8-2.1-1.2
	c-1.7-1.2-1.4-1.2-1.7-2.8c0,0,0.7-0.7,0.5-1.3s-1.5-1.3-2.7-1.6s-2.7,0-3.4-1.6c-0.7-1.6,0.8-2.9,0.5-3.4s-2.7-0.7-3.7,0
	c-3-2.4,1.6-3.9,1.4-5.6s-3.3-2.2-4.8-2c-1.6,0.2-1.7,0.8-3,1.2c-2.7,0.8-4.4-1.8-6.6-2.7c-1.3803-0.5394-2.6899-1.2446-3.9-2.1
	c-1-0.7-3-1.9-4.3-1.2s-0.4,2.4-1.1,3.4s-2.5,0-4.1,1.4c-1.6,1.4-1,3.8-2.9,2.1c-1.1-0.9,0-3.4-2.3-3.4c-1.4,0-3.4,2.1-4.6,2.6
	s-2.5,0-3.8,0.5c-1.2309,0.4236-2.4061,0.9944-3.5,1.7c-1.0885,0.5688-2.2266,1.0374-3.4,1.4c-2.1,0.5-2.5,0-4.1,1.5
	c-0.9881,1.0304-1.6792,2.3089-2,3.7c-0.6,1.6-0.4,2.1-2.5,2.5c-1.4188,0.275-2.8812-0.175-3.9-1.2c-0.7,4.1-2.5,1-4.9,3.3
	c-1,0.9-0.7,1.8-0.9,3c-0.5,2.4-0.7,1.4-2.7,2.2s-2.4,4.4-1.7,7c0.6,2.6,2.3,3.5-0.5,4.4c-1.4092,0.5991-3.0403-0.0181-3.7-1.4
	c-0.5-0.8,0-8.6-3-4.4c-0.8,1.1,0,2.7,0,3.8c-0.8,2.3-2.8,1-3.5,2.5s1,2.4,0.4,3.5s-3.1,0.5-4.2,1.2s-0.7,1.3-1.7,1.7
	c-0.7532,0.2034-1.5468,0.2034-2.3,0c-0.6,0-1.4,0-1.2,2.1c0,3.1,1.6,2-1.6,3.4c-0.7,0.3-1,1-1.9,1.3c-1,0.3-2.3-0.5-2.8,0.7
	c-0.6,1.2,1.1,1.8,1.2,2.5c0.1,0.5958,0.1,1.2042,0,1.8c0,1.2-1.6,0-0.7,1.7c0.5,1,2.5,1.4,3.4,2
	c-0.4976,1.2014-0.7032,2.5037-0.6,3.8c0,1,0.8,1.4,1,2.1c0.1,0.7634,0.1,1.5366,0,2.3c0,0.6,2.2,1.6,2.5,2.6
	c0.2258,0.8374-0.046,1.7303-0.7,2.3c-0.8,0.6-2,0-2.7,0l-0.7,1.5c-1.9,1.5-4.4,0.5-5.9,2.4c-0.7,1-0.4,2.4-1.3,3.5
	s-2.9,0.4-3.4,2.1c-0.9,2.9,3.7,1.7,4.6,3.8c0.3,0.8-0.3,2,0,2.8c0.5,2.3,0.9,0.7,1.7,1.8s0.4,1.7,1.1,2.6c1.9,2.2,5.6,0,7.9-0.5
	c-0.6,1.5-5.6,2.9-6,4.5c-0.3,1.6,3.9,1.7,3,4.6c1.3,1.1,3.3,0.3,4.8,0.6c1.525,0.5969,3.175,0.8031,4.8,0.6
	c-1.2,1.6-3.5,3.3-3.7,5.6c1.6,0.3,2.8,1.1,2.1,2.8c0.96,0.4,2.04,0.4,3,0c0.3113,0.4016,0.4864,0.892,0.5,1.4
	c0.5972-1.2132,0.7046-2.6097,0.3-3.9l-0.7-0.7c1.8223,0.4914,3.2602,1.8914,3.8,3.7c0,1.1-0.7,3.3,0,4.2c1.2,1.7,7,0.7,8.7,1.2
	s2.4,1.6,3.7,2.1c1.2,0.5,4.3,0.7,3.8,3s-3.5,1.5-0.7,2.8c1.8108,0.7617,3.9075,0.1328,5-1.5c1.4,0,1.5,1.6,1.6,2.7
	c1,0,1.4-1.1,2.2-1.4c0.793-0.15,1.607-0.15,2.4,0c0.8,0,1.4-1.2,2.3-1.4s1.9,0.4,2.8,0.3s2.1-1,2.4-1l1.6,0.6
	c1.4,0,3.4-1.9,3.9,0.7c1.6,0.5,1.4-1.1,2.5-1.4c1.2-0.3,1.5,0.4,2.5,0.7s2.6,0,3.4,1c2.5,0,5.6-0.4,8.1-0.3l3.6-1.2
	c1.2-0.5,2.6,0,3.8,0c1.1,0,1.6-2.3,3.9-2.9s4.9-2.3,8.1-1.1c0.7217,0.2059,1.4243,0.4735,2.1,0.8l0.6,1.5h1.5
	c0.7508,0.5464,1.5549,1.0154,2.4,1.4h3.9c1.5438-0.0493,3.0879,0.085,4.6,0.4c0.3,0,0.7,0.7,1.3,0.8s0.7-1.1,1.7-0.5
	s0.3,2.5,2.9,2.8c2.6,0.2,1.7-1.2,3.3-2.3c2.4-1.7,2.1,1.5,4.4,1.5c0.1036-1.1752,0.0021-2.3595-0.3-3.5l-1.9-2.2h-2
	c-0.6,0,0-1.2,0-1.4s-2.5,0-3.3-1.5c-1.6-3.3,4.2-1,5.6-0.5s2.1,1.6,3.7,1.1s1.7-3.4,3.5-0.7c0.5-3.4,6.7,1.1,3.9-4.4
	c3.4-0.8,0-2.5,0-3.7c0-2.4,1.9-1.9,3.2-2.1c3.2-0.7,3.7-2.3,3.8-5.6c-0.1003-1.3266,0.2913-2.6437,1.1-3.7c1-1.8,0.6-1.5,2.6-2h1.3
	c0.9,0,1.1-0.8,1.9-1.1c0.7-0.3,2.8-0.7,3.2-1.5C158.2161,276.6119,152.4161,277.5119,150.8161,277.0119L150.8161,277.0119z"/>
<path fill="#4BDD14" d="M257.3161,139.4119c-1.6106-0.7999-3.1496-1.7367-4.6-2.8c-1.1-0.7-1.9-0.7-2.5-2.3
	c-1.7-4.3,3.7-1.9,6.3-1.9c1,0,2.4,0.5,2.9-0.5c0.6-0.9-1-2.7-2-3.1c0.6103-1.1678,0.7874-2.514,0.5-3.8c-1-2.3-1.8,0-3.4-0.6
	c-1.2074-0.2327-2.0072-1.388-1.8-2.6c-0.0136-0.11,0.0231-0.2202,0.1-0.3c0.5-1.7,1.2-1,2.6-1.5c1.4-0.6,0.8-1,1.6-1.1
	s1.6,0.7,2.3,0.6c1.303-0.0527,2.3473-1.097,2.4-2.4c0-2.4-1.3-1-2.6-1.4c-1.4-0.5-1.1-1.4-2-2.4c-0.8-1.1-5.6-2.3-3.7-5.6
	c0.6-0.8,2.1-0.6,2.5-1.7c0.4-1.1-0.5-1.7-0.6-2.4c-0.5-2-0.3-3.2-2.4-4.2c-1.6209-0.8133-3.3899-1.2896-5.2-1.4
	c-1.5,0-2.6,2.5-4.6,0.3c-1-1.1,0-2.9-0.8-3.8c-0.8-1-3.5,0-4.5,0s-3.4,0.4-4.2-0.4v-1.6l-1-1.5c-0.5-1.6,1.2-1.8,1-3.4
	s-3-2-3.5-3.4l-0.4,0.5v-0.7c0.808-1.4668,0.9884-3.1981,0.5-4.8c-2.5199,0.5157-5.1329-0.2308-7-2c-0.4-0.5,0-1.2-0.7-1.7
	c-0.6273-0.5157-1.3373-0.9214-2.1-1.2c-1.7-1.2-1.4-1.2-1.7-2.8c0.3174-0.3592,0.4949-0.8207,0.5-1.3c-0.2-0.6-1.5-1.3-2.7-1.6
	s-2.7,0-3.4-1.6s0.8-2.9,0.5-3.4c-0.3-0.5-2.7-0.7-3.7,0c-3-2.4,1.6-3.9,1.4-5.6s-3.3-2.2-4.9-2s-1.7,0.8-3,1.2
	c-2.7,0.8-4.4-1.8-6.6-2.7c-1.3803-0.5394-2.6899-1.2446-3.9-2.1c-1.1-0.7-3-1.9-4.3-1.2s-0.4,2.4-1.1,3.4s-2.5,0-4.2,1.4
	c-1.6,1.4-1,3.8-2.9,2.1s0-3.4-2.3-3.4c-1.3,0-3.3,2.1-4.5,2.6s-2.5,0-3.9,0.5c-1.1934,0.4727-2.3617,1.0068-3.5,1.6
	c-1.086,0.6012-2.2239,1.1032-3.4,1.5c-2.1,0.5-2.5,0-4.1,1.5c-1.0074,1.0162-1.7016,2.3005-2,3.7c-0.6,1.6-0.4,2.1-2.5,2.5
	c-1.3228,0.2926-2.7075,0.0011-3.8-0.8c-0.7,4.1-2.5,1-4.9,3.3c-1,0.9-0.7,1.8-1,3c-0.5,2.4-0.7,1.4-2.7,2.2s-2.3,4.4-1.7,7
	s2.3,3.5-0.6,4.4c-1.4092,0.5991-3.0403-0.0181-3.7-1.4c-0.5-0.8,0-8.6-3-4.4c-0.7,1.1,0,2.7,0,3.8c-0.8,2.3-2.8,1-3.5,2.5
	s1,2.4,0.4,3.5s-3.2,0.5-4.3,1.2s-0.7,1.3-1.7,1.7s-1.7-0.3-2.3,0s-1.4,0-1.2,2.1c0,3,1.6,2-1.6,3.4c-0.7,0.3-1,1-1.9,1.3
	c-0.9,0.3-2.3-0.5-2.8,0.7c-0.6,1.2,1,1.8,1.2,2.5c0.1,0.5958,0.1,1.2042,0,1.8c0,1.1-1.6,0-0.7,1.7c0.4,1,2.5,1.4,3.4,2
	c-0.4976,1.2014-0.7032,2.5037-0.6,3.8c0,1,0.8,1.4,1,2.1c0.1,0.7634,0.1,1.5366,0,2.3c0,0.6,2.2,1.6,2.4,2.6
	c0.276,0.8376-0.0042,1.7582-0.7,2.3c-0.8,0.6-2-0.3-2.8,0l-0.7,1.5c-1.9,1.4-4.4,0.5-5.9,2.4c-0.8,1-0.4,2.4-1.3,3.4
	c-0.9,1-2.9,0.5-3.4,2.2c-0.8,2.9,3.7,1.7,4.6,3.8c0.4,0.8-0.3,2,0,2.8c0.4,2.3,0.9,0.7,1.7,1.8c0.8,1.1,0.4,1.7,1.1,2.6
	c1.9,2.2,5.6,0,8-0.5c-0.6,1.5-5.6,2.9-6,4.5c-0.3,1.6,3.9,1.7,3,4.6c1.3,1.1,3.3,0.3,4.8,0.6c1.525,0.5969,3.175,0.8031,4.8,0.6
	c-1.2,1.6-3.5,3.3-3.7,5.6c1.6,0,2.8,1.1,2,2.8c0.9599,0.4002,2.0401,0.4002,3,0c0.2847,0.4526,0.4562,0.9671,0.5,1.5
	c0.5938-1.2497,0.7008-2.6757,0.3-4l-0.7-0.7c1.8585,0.4264,3.3242,1.8535,3.8,3.7c0.3,1.1-0.7,3.4,0,4.2c1.2,1.7,7,0.7,8.7,1.2
	s2.4,1.6,3.7,2.1s4.3,0.7,3.8,3c-0.6,2.3-3.4,1.5-0.7,2.8c1.8108,0.7617,3.9075,0.1327,5-1.5c1.4,0,1.5,1.6,1.6,2.7
	c1,0,1.4-1.1,2.2-1.4c0.7969-0.1,1.6031-0.1,2.4,0c0.8,0,1.4-1.2,2.3-1.4s1.9,0.4,2.8,0.3s2-1,2.4-1l1.6,0.6c1.4,0,3.4-1.9,3.9,0.7
	c1.6,0.5,1.4-1.1,2.5-1.4c1.2-0.3,1.4,0.4,2.4,0.7s2.7,0,3.5,1c2.5,0,5.3-0.4,8.1-0.3l3.6-1.2c1.2-0.5,2.6,0,3.8,0
	c1.1,0,1.6-2.3,3.9-2.9s4.9-2.3,8.1-1.1c0.7217,0.2058,1.4243,0.4735,2.1,0.8l0.6,1.5h1.4c0.7227,0.6142,1.5312,1.1196,2.4,1.5h3.9
	c1.5438-0.0492,3.0879,0.085,4.6,0.4c0.3516,0.3079,0.7589,0.5455,1.2,0.7c0.6,0.1,0.7-1,1.7-0.5c1,0.6,0.3,2.5,2.9,2.8
	c2.6,0.2,1.7-1.2,3.3-2.3s2.1,1.5,4.4,1.5c0.1036-1.1752,0.0021-2.3595-0.3-3.5l-1.6-3h-2c-0.6,0,0-1.2,0-1.4s-2.5,0-3.3-1.5
	c-1.6-3.3,4.3-1,5.6-0.5c1.4,0.5,2.1,1.6,3.7,1.1s1.7-3.4,3.5-0.7c0.5-3.4,6.7,1.1,3.9-4.4c3.4-0.8,0-2.5,0-3.7c0-2.4,2-1.9,3.3-2.1
	c3.1-0.7,3.7-2.3,3.8-5.6c-0.1003-1.3266,0.2913-2.6436,1.1-3.7c1-1.8,0.6-1.5,2.6-2h0.2c0.9-0.3,1.2-0.8,1.9-1.1s2.8-0.7,3.2-1.6
	C264.6161,139.0119,258.8161,139.9119,257.3161,139.4119L257.3161,139.4119z"/>
<path fill="#34D607" d="M323.3161,207.3119c-1.6107-0.7999-3.1497-1.7367-4.6-2.8c-1.1-0.7-1.9-0.7-2.5-2.3
	c-1.7-4.3,3.7-1.9,6.3-1.9c1,0,2.4,0.5,2.9-0.5c0.6-0.9-1-2.7-2-3.1c0.6103-1.1679,0.7874-2.514,0.5-3.8c-1-2.3-1.8,0-3.4-0.6
	c-1.2074-0.2327-2.0072-1.388-1.8-2.6c-0.0136-0.11,0.0231-0.2202,0.1-0.3c0.5-1.7,1.2-1,2.6-1.5s0.8-1,1.6-1.1s1.6,0.7,2.3,0.6
	c1.303-0.0527,2.3473-1.097,2.4-2.4c0-2.4-1.3-1-2.6-1.4c-1.4-0.4-1.1-1.4-2-2.4c-0.8-1.1-5.6-2.3-3.7-5.6c0.6-0.8,2.1-0.6,2.5-1.7
	s-0.5-1.7-0.6-2.4c-0.5-2-0.3-3.2-2.4-4.2c-1.6209-0.8133-3.3899-1.2896-5.2-1.4c-1.5,0-2.6,2.5-4.6,0.3c-1-1.1,0-2.8-0.8-3.8
	s-3.5,0-4.5,0s-3.4,0.4-4.2-0.4v-1.6l-1-1.5c-0.5-1.6,1.2-1.8,1-3.4s-3-2-3.5-3.4l-0.4,0.5v-0.7c0.808-1.4668,0.9884-3.1981,0.5-4.8
	c-2.5199,0.5157-5.1329-0.2308-7-2c-0.4-0.5,0-1.2-0.7-1.7c-0.6273-0.5157-1.3373-0.9214-2.1-1.2c-1.7-1.2-1.4-1.2-1.7-2.8
	c0.3174-0.3592,0.4949-0.8207,0.5-1.3c-0.2-0.6-1.5-1.3-2.7-1.6s-2.7,0-3.4-1.6s0.8-2.9,0.5-3.4s-2.7-0.7-3.7,0
	c-3-2.4,1.6-3.9,1.4-5.6s-3.3-2.3-4.9-2c-1.6,0.2-1.7,0.8-3,1.2c-2.7,0.8-4.4-1.8-6.6-2.7c-1.3803-0.5394-2.6899-1.2446-3.9-2.1
	c-1.1-0.7-3-1.9-4.3-1.2s-0.4,2.4-1.1,3.4s-2.5,0-4.2,1.4c-1.6,1.4-1,3.8-2.9,2.1s0-3.4-2.3-3.4c-1.4,0-3.4,2.1-4.6,2.6
	s-2.5,0-3.9,0.5c-1.1934,0.4727-2.3617,1.0068-3.5,1.6c-1.086,0.6012-2.2239,1.1032-3.4,1.5c-2.1,0.5-2.5,0-4.1,1.5
	c-1.0074,1.0162-1.7016,2.3005-2,3.7c-0.6,1.6-0.4,2.1-2.5,2.5c-1.3227,0.3032-2.7118,0.0108-3.8-0.8c-0.7,4.1-2.5,1-4.8,3.3
	c-1,0.9-0.7,1.8-1,3c-0.5,2.4-0.7,1.4-2.7,2.2s-2.3,4.4-1.7,7s2.3,3.5-0.6,4.4c-1.5191,0.6803-3.3028,0.0114-4-1.5
	c-0.1-0.1-0.1-0.3-0.2-0.4c-0.5-0.8,0-8.6-3-4.4c-0.7,1,0,2.7,0,3.8c-0.8,2.3-2.8,1-3.5,2.5s1,2.4,0.4,3.5s-3.2,0.5-4.3,1.2
	s-0.7,1.3-1.7,1.7c-0.7532,0.2034-1.5468,0.2034-2.3,0c-0.6,0-1.4,0.3-1.2,2.1c0,3,1.6,2-1.6,3.4c-0.7,0.3-1,1-1.9,1.3
	s-2.3-0.5-2.8,0.7c-0.6,1.2,1.1,1.8,1.2,2.4c0.1002,0.6294,0.1002,1.2706,0,1.9c0,1.1-1.6,0-0.7,1.7c0.4,1,2.5,1.4,3.4,2
	c-0.4976,1.2014-0.7032,2.5037-0.6,3.8c0,1,0.8,1.4,1,2.1c0.1001,0.7634,0.1001,1.5366,0,2.3c0,0.7,2.2,1.6,2.4,2.6
	c0.276,0.8376-0.0042,1.7582-0.7,2.3c-0.8,0.6-2-0.3-2.8,0l-0.7,1.5c-1.9,1.4-4.4,0.5-5.6,2.4c-0.7,1-0.4,2.4-1.4,3.4
	s-2.9,0.5-3.4,2.2c-0.8,2.9,3.7,1.7,4.6,3.8c0.4,0.9-0.3,2,0,2.8c0.4,2.3,0.9,0.7,1.7,1.8s0.4,1.7,1.1,2.6c1.9,2.2,5.6,0,8-0.5
	c-0.6,1.5-5.6,2.9-6,4.5c-0.3,1.6,3.9,1.7,3,4.6c1.3,1.1,3.3,0.3,4.8,0.6c1.5,0.2,2.7,1.1,4.8,0.7c-1.2,1.6-3.5,3.3-3.7,5.6
	c1.6,0,2.8,1,2,2.8c0.9599,0.4002,2.0401,0.4002,3,0c0.2847,0.4526,0.4562,0.9671,0.5,1.5c0.5938-1.2497,0.7008-2.6757,0.3-4
	l-0.7-0.7c1.8585,0.4264,3.3242,1.8535,3.8,3.7c0,1.1-0.7,3.4,0,4.2c1.2,1.7,7,0.7,8.7,1.2s2.4,1.7,3.7,2.1c1.3,0.5,4.3,0.7,3.8,3
	c-0.6,2.3-3.4,1.5-0.7,2.8c1.8108,0.7617,3.9075,0.1327,5-1.5c1.4,0,1.5,1.6,1.6,2.7c1,0,1.4-1.1,2.2-1.4
	c0.7969-0.1,1.6031-0.1,2.4,0c0.8,0,1.4-1.2,2.3-1.4s1.9,0.4,2.8,0c0.7626-0.4167,1.5671-0.7519,2.4-1l1.6,0.6
	c1.4,0,3.4-1.9,3.9,0.7c1.6,0.5,1.4-1.1,2.5-1.4c1.2-0.3,1.4,0.4,2.4,0.7s2.7,0.3,3.5,1h0.3c2.5,0,5.3-0.4,8.1-0.3l3.6-1.2
	c1.2-0.5,2.6,0,3.8,0s1.6-2.3,3.9-2.9s4.9-2.3,8.1-1.2c0.7402,0.1958,1.4477,0.499,2.1,0.9l0.6,1.4h1.5
	c0.7227,0.6142,1.5312,1.1196,2.4,1.5h3.9c1.5438-0.0493,3.0879,0.085,4.6,0.4c0.3516,0.3078,0.759,0.5455,1.2,0.7
	c0.6,0.1,0.7-1,1.7-0.5s0.3,2.6,2.9,2.8s1.7-1.2,3.3-2.3s2.1,1.5,4.4,1.5c0.1036-1.1752,0.0021-2.3595-0.3-3.5l-1.9-2.2h-2
	c-0.6,0,0-1.2,0-1.4s-2.5,0-3.3-1.5c-1.6-3.3,4.3-1,5.6-0.5c1.4,0.5,2.1,1.6,3.7,1.1s1.7-3.4,3.5-0.7c0.5-3.4,6.7,1.1,3.9-4.4
	c3.4-0.8,0-2.5,0-3.7c0-2.4,2-1.9,3.3-2.1c3.1-0.7,3.7-2.3,3.8-5.6c-0.1002-1.3266,0.2913-2.6436,1.1-3.7c1-1.8,0.6-1.5,2.6-2h1.2
	c0.9-0.3,1.2-0.8,1.9-1.1s2.8-0.7,3.2-1.6C330.6161,206.9119,324.816,207.8119,323.3161,207.3119L323.3161,207.3119z"/>
<path fill="#58EF26" d="M426.7161,168.2119c-1.6433-0.7394-3.1884-1.6799-4.6-2.8c-1.1-0.7-1.9-0.6-2.5-2.2
	c-1.7-4.3,3.7-1.9,6.3-1.9c1,0,2.4,0.5,3-0.5s-1.1-2.7-2-3.1c0.6103-1.1679,0.7874-2.514,0.5-3.8c-1-2.4-1.8,0-3.4-0.6
	c-1.2074-0.2327-2.0072-1.388-1.8-2.6c0-0.1,0-0.2,0.1-0.2c0.5-1.7,1.2-1,2.7-1.6c0.6,0,0.7-1,1.5-1.1s1.7,0.7,2.3,0.6
	c1.303-0.0527,2.3473-1.097,2.4-2.4c0-2.4-1.4-1-2.6-1.4c-1.3-0.4-1.2-1.4-2-2.4c-0.8-1.1-5.6-2.3-3.6-5.6c0.6-0.8,2-0.6,2.4-1.7
	s-0.5-1.6-0.6-2.3c-0.5-2.1-0.3-3.3-2.4-4.2c-1.6325-0.7998-3.3924-1.3074-5.2-1.5c-1.5,0-2.6,2.5-4.6,0.3c-1-1.1,0-2.9-0.8-3.8
	c-0.8-1-3.4,0-4.4,0s-3.5,0.4-4.2-0.4v-1.6l-1-1.5c-0.4-1.6,1.2-1.8,1-3.4s-3-2-3.5-3.4l-0.4,0.5v-0.7
	c0.808-1.4668,0.9884-3.1981,0.5-4.8c-2.4913,0.5793-5.1047-0.1782-6.9-2c-0.4-0.5,0-1.2-0.7-1.7s-1.5-0.8-2-1.2
	c-1.7-1.2-1.4-1.2-1.8-2.7c0.3756-0.3633,0.5605-0.8809,0.5-1.4c-0.2-0.6-1.5-1.3-2.6-1.6s-2.8,0-3.4-1.6s0.7-2.9,0.5-3.4
	c-0.3-0.5-2.7-0.7-3.6,0c-3.1-2.4,1.5-3.9,1.3-5.6s-3.3-2.2-4.8-2c-1.6,0.2-1.7,0.8-3,1.2c-2.7,0.8-4.3-1.8-6.6-2.7
	c-1.3803-0.5394-2.6899-1.2446-3.9-2.1c-1-0.7-3-1.9-4.3-1.2c-1.2,0.7-0.4,2.4-1.2,3.4s-2.5,0-4.1,1.4s-1,3.8-2.9,2.1
	c-1.1-1,0-3.4-2.3-3.5c-1.4,0-3.4,2.1-4.6,2.6s-2.5,0-3.8,0.5c-1.2309,0.4236-2.4061,0.9944-3.5,1.7
	c-1.0885,0.5688-2.2266,1.0374-3.4,1.4c-2,0.5-2.5,0-4.1,1.5c-0.9881,1.0304-1.6792,2.3089-2,3.7c-0.6,1.6-0.3,2.1-2.5,2.5
	c-1.3228,0.2926-2.7075,0.0011-3.8-0.8c-0.7,4.1-2.5,1-4.9,3.3c-0.9,0.9-0.7,1.8-0.9,3c-0.5,2.4-0.7,1.4-2.7,2.2s-2.3,4.4-1.7,7
	s2.3,3.5-0.6,4.4c-1.4092,0.5991-3.0404-0.018-3.7-1.4c-0.5-0.8,0-8.6-3-4.4c-0.8,1.1,0,2.7-0.3,3.8c-0.8,2.3-2.8,1-3.5,2.5
	s1.1,2.4,0.4,3.5s-3.1,0.6-4.2,1.2s-0.7,1.3-1.7,1.7c-0.7532,0.2034-1.5468,0.2034-2.3,0c-0.6,0-1.4,0-1.2,2.1c0,3.1,1.6,2-1.5,3.4
	c-0.8,0.3-1,1-2,1.3s-2.3-0.5-2.8,0.7c-0.6,1.2,1.1,1.8,1.2,2.5c0.1,0.5958,0.1,1.2042,0,1.8c0,1.2-1.5,0-0.7,1.7
	c0.5,1,2.5,1.4,3.4,2c-0.4976,1.2014-0.7032,2.5037-0.6,3.8c0,1,0.8,1.4,1,2.1c0.1,0.7634,0.1,1.5366,0,2.3c0,0.7,2.2,1.6,2.5,2.6
	c0.2258,0.8374-0.046,1.7303-0.7,2.3c-0.7,0.6-2,0-2.7,0l-0.7,1.5c-1.8,1.5-4.4,0.5-5.6,2.4s-0.5,2.4-1.4,3.5s-2.9,0.4-3.4,2.1
	c-0.8,2.9,3.7,1.7,4.6,3.8c0.3,0.8-0.3,2,0,2.8c0.4,2.4,0.9,0.7,1.7,1.8s0.3,1.8,1.1,2.6c1.9,2.2,5.6,0,7.9-0.5
	c-0.5,1.5-5.6,3-6,4.5c-0.3,1.5,3.9,1.7,3,4.6c1.3,1.1,3.3,0.3,4.8,0.6c1.4901,0.5966,3.1078,0.8032,4.7,0.6
	c-1.2,1.6-3.5,3.3-3.7,5.6c1.7,0,2.8,1.1,2.1,2.8c0.96,0.4002,2.04,0.4002,3,0c0.2817,0.4109,0.4221,0.9023,0.4,1.4
	c0.5972-1.2132,0.7047-2.6097,0.3-3.9l-0.7-0.7c1.8223,0.4914,3.2602,1.8914,3.8,3.7c0,1.1-0.7,3.3,0,4.2c1.2,1.7,7,0.7,8.7,1.2
	s2.4,1.6,3.7,2.1s4.3,0.7,3.8,3s-3.5,1.5-0.7,2.8c1.8108,0.7617,3.9075,0.1327,5-1.5c1.4,0.3,1.5,1.6,1.6,2.7c1,0,1.4-1.1,2.2-1.4
	c0.7969-0.1,1.6031-0.1,2.4,0c0.8,0,1.4-1.2,2.3-1.4s2,0.4,2.8,0c0.761-0.3951,1.5668-0.6973,2.4-0.9l1.6,0.6c1.4,0,3.4-1.9,3.9,0.7
	c1.6,0.5,1.4-1.1,2.5-1.4s1.5,0.4,2.5,0.7s2.6,0,3.4,1c2.6,0,5.6-0.4,8.1-0.3l3.6-1.2c1.2-0.5,2.6,0,3.8,0c1.1,0,1.6-2.3,3.9-2.9
	s5-2.3,8.1-1.1c0.754,0.206,1.4898,0.4735,2.2,0.8l0.6,1.5h1.4c0.7547,0.5403,1.5582,1.009,2.4,1.4h3.9
	c1.5768-0.0458,3.1537,0.0884,4.7,0.4c0.3166,0.3744,0.7326,0.6517,1.2,0.8c0.6,0.1,0.7-1.1,1.7-0.5s0,2.5,2.9,2.8
	c2.9,0.2,1.7-1.2,3.3-2.3c2.4-1.7,2.1,1.5,4.4,1.5c0.1036-1.1752,0.0021-2.3595-0.3-3.5l-2-2.2h-1.9c-0.6,0,0-1.2,0-1.4
	s-2.5,0-3.3-1.5c-1.6-3.3,4.2-1,5.6-0.5s2,1.6,3.7,1.1s1.7-3.4,3.5-0.7c0.5-3.4,6.8,1.1,3.9-4.4c3.4-0.8,0-2.5,0-3.7
	c0-2.4,2-1.9,3.2-2.1c3.2-0.7,3.8-2.3,3.8-5.6c-0.1002-1.3266,0.2913-2.6436,1.1-3.7c1-1.8,0.6-1.5,2.6-2h1.3c0.9,0,1.1-0.8,1.9-1.1
	c0.7-0.3,2.8-0.7,3.2-1.5C434.016,167.912,428.216,168.712,426.7161,168.2119L426.7161,168.2119z"/>
<path fill="#58EF26" d="M433.0161,367.2119c-1.6433-0.7394-3.1884-1.6799-4.6-2.8c-1.1-0.7-1.9-0.7-2.5-2.3
	c-1.7-4.3,3.7-1.9,6.3-1.9c1,0,2.4,0.5,2.9-0.5c0.6-0.9-1-2.7-2-3.1c0.6102-1.1678,0.7874-2.514,0.5-3.8c-1-2.4-1.8,0-3.4-0.6
	c-1.2688-0.2783-2.0735-1.5302-1.8-2.8v-0.1c0.5-1.7,1.2-1,2.7-1.5c0.6,0,0.7-1,1.5-1.1s1.6,0.7,2.3,0.6
	c1.2875-0.0875,2.3125-1.1125,2.4-2.4c0-2.5-1.4-1-2.6-1.4c-1.3-0.4-1.2-1.4-2-2.4c-0.8-1.1-5.6-2.3-3.6-5.6c0.6-0.8,2-0.6,2.4-1.7
	s-0.5-1.7-0.6-2.4c-0.5-2-0.3-3.2-2.4-4.2c-1.6209-0.8133-3.3899-1.2896-5.2-1.4c-1.5,0-2.6,2.5-4.6,0c-1-1.1,0-2.9-0.8-3.8
	s-3.4,0-4.5,0s-3.4,0.5-4.2-0.3v-1.6l-1-1.5c-0.4-1.6,1.2-1.8,1-3.5s-3-2-3.5-3.4l-0.4,0.5v-0.7c0.808-1.4668,0.9883-3.1981,0.5-4.8
	c-2.4897,0.5298-5.0795-0.2209-6.9-2c-0.4-0.5,0-1.2-0.7-1.7c-0.6059-0.4936-1.2794-0.8977-2-1.2c-1.7-1.2-1.4-1.2-1.8-2.8
	c0,0,0.7-0.7,0.5-1.3s-1.5-1.3-2.6-1.6s-2.8,0-3.4-1.6s0.7-3,0.5-3.4c-1.1351-0.5583-2.4649-0.5583-3.6,0c-3.1-2.4,1.5-3.9,1.3-5.6
	s-3.3-2.3-4.8-2.1c-1.6,0.2-1.7,0.9-3,1.3c-2.7,0.8-4.3-1.8-6.6-2.7c-1.3615-0.5792-2.667-1.2822-3.9-2.1c-1-0.7-3-1.9-4.3-1.2
	s-0.3,2.4-1.1,3.4s-2.5,0-4.1,1.4s-1,3.8-2.9,2.1c-1.1-0.9,0-3.4-2.3-3.4c-1.4,0-3.4,2.1-4.6,2.6c-1.2,0.6-2.5,0-3.8,0.5
	c-1.1935,0.4727-2.3617,1.0067-3.5,1.6c-1.0859,0.6012-2.2239,1.1032-3.4,1.5c-2,0.5-2.5,0-4.1,1.4
	c-0.9521,1.0563-1.6378,2.3249-2,3.7c-0.6,1.6-0.3,2.1-2.5,2.5c-1.3228,0.2926-2.7075,0.0011-3.8-0.8c-0.7,4.1-2.5,0.9-4.9,3.3
	c-0.9,0.9-0.7,1.8-0.9,3c-0.5,2.4-0.7,1.4-2.7,2.2s-2.3,4.4-1.7,7s2.3,3.4-0.5,4.4c-1.4099,0.549-3.0067-0.0552-3.7-1.4
	c-0.5-0.8,0-8.6-3-4.4c-0.8,1,0,2.7,0,3.8c-0.8,2.4-2.8,1.1-3.5,2.5c-0.7,1.5,1.1,2.4,0.4,3.5s-3.1,0.5-4.2,1.2s-0.7,1.3-1.7,1.7
	s-1.7-0.3-2.3,0s-1.4,0-1.2,2c0,3.1,1.6,2.1-1.6,3.5c-0.7,0.3-1,1-1.9,1.3c-1,0.3-2.3-0.5-2.8,0.7c-0.6,1.2,1.1,1.8,1.2,2.4
	c0.1002,0.6294,0.1002,1.2706,0,1.9c0,1.1-1.5,0-0.7,1.7c0.5,1,2.5,1.4,3.4,2c-0.4976,1.2014-0.7032,2.5037-0.6,3.8
	c0,1,0.8,1.4,1,2.1c0.1001,0.7634,0.1001,1.5366,0,2.3c0,0.7,2.2,1.6,2.5,2.6c0.2258,0.8374-0.046,1.7303-0.7,2.3
	c-0.7,0.6-2-0.3-2.7,0l-0.7,1.5c-1.8,1.4-4.4,0.5-5.6,2.4c-0.7,1-0.4,2.4-1.3,3.4s-2.9,0.5-3.4,2.2c-0.9,2.9,3.7,1.6,4.6,3.8
	c0.3,0.9-0.3,2,0,2.8c0.4,2.3,0.9,0.7,1.7,1.8s0.3,1.7,1.1,2.6c1.9,2.2,5.6,0,7.9-0.5c-0.5,1.5-5.6,2.9-6,4.5
	c-0.3,1.6,3.9,1.7,3,4.6c1.3,1.1,3.3,0.3,4.8,0.6c1.6,0.2,2.6,1.1,4.7,0.7c-1.2,1.6-3.5,3.3-3.7,5.6c1.6,0,2.8,1,2.1,2.8
	c0.96,0.4002,2.04,0.4002,3,0c0.2951,0.4422,0.4358,0.9696,0.4,1.5c0.5938-1.2497,0.7008-2.6758,0.3-4l-0.7-0.7
	c1.8586,0.4263,3.3243,1.8535,3.8001,3.7c0,1.1-0.7,3.4,0,4.2c1.2,1.7,7,0.7,8.7,1.2s2.4,1.7,3.7,2.1c1.3,0.5,4.3,0.7,3.8,3
	s-3.5,1.5-0.7,2.8c1.8108,0.7617,3.9075,0.1328,5-1.5c1.4,0,1.5,1.6,1.6,2.7c1,0,1.4-1.2,2.2-1.4s1.6,0.3,2.4,0s1.4-1.2,2.3-1.4
	s1.9,0.4,2.8,0c0.7708-0.3994,1.5736-0.7339,2.4-1l1.6,0.6c1.4,0,3.4-1.9,3.9,0.7c1.6,0.5,1.4-1.1,2.5-1.4s1.5,0.4,2.5,0.7
	s2.6,0,3.4,1c2.6,0,5.6-0.5,8.1-0.3l3.6-1.3c1.2-0.4,2.6,0,3.8,0c2-0.7,1.6-2.3,3.9-2.9s4.9-2.3,8.1-1.2
	c0.7402,0.1958,1.4477,0.499,2.1,0.9l0.7,1.4h1.4c0.7382,0.5927,1.5438,1.0961,2.4,1.5h3.9c1.5724-0.0346,3.1448,0.0658,4.7,0.3
	c0.3166,0.3744,0.7326,0.6517,1.2,0.8c0.6,0.1,0.7-1,1.7-0.5s0,2.6,2.9,2.8s1.7-1.2,3.3-2.3c2.4-1.7,2.1,1.5,4.4,1.5
	c0.1036-1.1752,0.0021-2.3595-0.3-3.5l-2-2.2h-1.9c-0.5,0,0-1.2,0-1.5c0-0.2-2.5,0-3.3-1.5c-1.6-3.3,4.2-1,5.6-0.5s2,1.6,3.7,1.1
	s1.7-3.4,3.5-0.7c0.5-3.4,6.8,1.2,3.9-4.3c3.4-0.8,0-2.5,0-3.7c0-2.4,2-1.9,3.2-2.1c3.2-0.7,3.8-2.4,3.8-5.6
	c-0.1002-1.3266,0.2913-2.6436,1.1-3.7c1-1.8,0.6-1.5,2.6-2h1.3c0.9-0.3,1.1-0.8,1.9-1.1c0.7-0.3,2.8-0.7,3.2-1.6
	C440.3161,366.8119,434.4161,367.7119,433.0161,367.2119z"/>
<path fill="#58EF26" d="M199.8161,347.9119c-1.663-0.7014-3.2132-1.6449-4.6-2.8c-1.1-0.7-1.9-0.6-2.5-2.2c-1.7-4.3,3.7-1.9,6.3-1.9
	c1,0,2.4,0.4,3-0.5s-1.1-2.7-2-3c0.6102-1.1678,0.7874-2.514,0.5-3.8c-1-2.4-1.7,0-3.4-0.6c-1.1763-0.211-1.973-1.3175-1.8-2.5
	c-0.0136-0.11,0.0231-0.2202,0.1-0.3c0.5-1.7,1.2-1,2.6-1.6s0.7-1,1.5-1.1s1.7,0.7,2.3,0.6c1.3208-0.0987,2.3553-1.1763,2.4-2.5
	c0-2.4-1.4-1-2.6-1.4c-1.3-0.4-1.1-1.4-2-2.5s-5.6-2.3-3.6-5.6c0.6-0.8,2.1-0.6,2.4-1.7s-0.5-1.6-0.6-2.3c-0.5-2.1-0.3-3.3-2.4-4.2
	c-1.6089-0.8758-3.3771-1.4199-5.2-1.6c-1.5,0-2.6,2.5-4.6,0.3c-1-1.1,0-2.9-0.8-3.8c-0.8-1-3.5,0-4.5,0s-3.5,0.5-4.2-0.4v-1.6
	l-1-1.5c-0.4-1.6,1.2-1.8,1.1-3.4c-0.2-1.6-3-2-3.5-3.4l-0.4,0.5v-0.7c0.7596-1.4816,0.9379-3.1936,0.5-4.8
	c-2.4913,0.5793-5.1047-0.1782-6.9-2c-0.4-0.5,0-1.1-0.7-1.7c-0.6681-0.4534-1.3702-0.8546-2.1-1.2c-1.7-1.1-1.4-1.2-1.8-2.7
	c0.3756-0.3633,0.5605-0.8809,0.5-1.4c-0.2-0.6-1.5-1.3-2.6-1.6s-2.8,0-3.4-1.6s0.7-2.9,0.5-3.3s-2.7-0.7-3.7-0.3
	c-3-2.4,1.5-3.9,1.4-5.6c-0.2-1.7-3.3-2.3-4.9-2.1s-1.7,0.8-3,1.2c-2.8,0.8-4.4-1.8-6.6-2.7c-1.3803-0.5394-2.6899-1.2446-3.9-2.1
	c-1-0.7-3-1.9-4.3-1.2c-1.2,0.7-0.4,2.4-1.2,3.4s-2.5,0-4.1,1.4s-1,3.8-2.9,2.1c-1.1-1,0-3.4-2.3-3.5c-1.3,0-3.4,2.1-4.6,2.7
	s-2.5,0-3.8,0.5c-1.2133,0.4651-2.3843,1.0338-3.5,1.7c-1.0624,0.5508-2.1657,1.0188-3.3,1.4c-2.1,0.5-2.5,0-4.1,1.5
	c-1.0074,1.0162-1.7016,2.3005-2,3.7c-0.6,1.6-0.4,2.1-2.5,2.5c-1.3228,0.2926-2.7075,0.0011-3.8-0.8c-0.7,4.1-2.5,1-4.9,3.3
	c-0.9,0.9-0.7,1.9-0.9,3c-0.5,2.5-0.7,1.4-2.7,2.2s-2.3,4.4-1.7,7s2.3,3.5-0.6,4.4c-1.4092,0.5991-3.0403-0.018-3.7-1.4
	c-0.5-0.8,0-8.6-3-4.4c-0.7,1,0,2.6,0,3.8c-0.8,2.3-2.8,1.1-3.5,2.5s1.1,2.5,0.4,3.5c-0.7,1.1-3.1,0.6-4.2,1.2
	c-1.1,0.6-0.7,1.4-1.7,1.7c-0.7591,0.1526-1.5409,0.1526-2.3,0c-0.6,0-1.4,0-1.2,2.1c0,3.1,1.6,2-1.5,3.4c-0.7,0.3-1,1-2,1.3
	s-2.3-0.5-2.8,0.7s1,1.7,1.2,2.4c0.1,0.5958,0.1,1.2042,0,1.8c0,1.2-1.5,0-0.7,1.7c0.5,1,2.6,1.4,3.4,2
	c-0.4976,1.2014-0.7032,2.5037-0.6,3.8c0,1,0.8,1.4,1,2.1c0.1,0.7634,0.1,1.5366,0,2.3c0,0.7,2.2,1.6,2.5,2.6
	c0.276,0.8376-0.0042,1.7582-0.7,2.3c-0.7,0.6-2,0-2.7,0l-0.7,1.5c-1.9,1.5-4.4,0.5-5.9,2.4s-0.4,2.4-1.4,3.5s-2.9,0.4-3.4,2.1
	c-0.8,2.9,3.7,1.7,4.6,3.8c0.3,0.8-0.3,2,0,2.8c0.4,2.4,0.9,0.7,1.7,1.9c0.8,1.1,0.3,1.7,1.1,2.5c1.9,2.2,5.6,0,8-0.5
	c-0.6,1.5-5.6,3-6,4.5s4,1.7,3,4.6c1.3,1.1,3.3,0.3,4.8,0.6c1.6,0.3,2.6,1.1,4.7,0.6c-1.2,1.7-3.5,3.3-3.7,5.6
	c1.7,0,2.8,1.1,2.1,2.8c0.9599,0.4002,2.04,0.4002,3,0c0.2817,0.4109,0.4221,0.9023,0.4,1.4c0.5972-1.2132,0.7046-2.6097,0.3-3.9
	l-0.6-0.8c1.7977,0.4977,3.2023,1.9023,3.7,3.7c0,1.1-0.6,3.3,0,4.2c1.2,1.8,7,0.7,8.7,1.2s2.4,1.6,3.7,2.1c1.3,0.5,4.3,0.7,3.8,3
	s-3.5,1.5-0.7,2.8c1.8078,0.8127,3.9381,0.1736,5-1.5c1.5,0,1.5,1.6,1.6,2.6c0.9,0,1.4-1.1,2.2-1.4c0.793-0.15,1.607-0.15,2.4,0
	c0.8,0,1.4-1.2,2.3-1.5c0.9-0.2,2,0.5,2.9,0.3c0.9-0.2,2-0.9,2.4-0.9l1.6,0.6c1.4,0,3.4-2,3.9,0.7c1.6,0.4,1.4-1.2,2.5-1.5
	s1.5,0.4,2.5,0.7s2.6,0,3.5,1.1c2.6,0,5.6-0.4,8.1-0.3l3.6-1.2c1.2-0.4,2.6,0,3.8,0c1.1,0,1.7-2.3,3.9-2.9s5-2.2,8.1-1.1
	c0.754,0.206,1.4898,0.4736,2.2,0.8l0.6,1.5h1.5c0.7267,0.5823,1.5354,1.054,2.4,1.4h3.9c1.5438-0.0493,3.0879,0.085,4.6,0.4
	c0.3381,0.3495,0.7474,0.6223,1.2,0.8c0.6,0.1,0.7-1.1,1.7-0.5s0.3,2.5,2.9,2.8c2.6,0.2,1.7-1.2,3.2-2.3c2.4-1.7,2.1,1.5,4.4,1.4
	c0.1036-1.1752,0.0021-2.3595-0.3-3.5l-2-2.1h-1.9c-0.6,0,0-1.2,0-1.5c0-0.2-2.5,0-3.3-1.5c-1.6-3.3,4.2-1,5.6-0.5s2,1.6,3.7,1.1
	s1.7-3.3,3.5-0.7c0.5-3.4,6.8,1.1,3.9-4.4c3.4-0.7,0-2.5,0-3.7c0-2.4,2-1.9,3.3-2.1c3.1-0.7,3.7-2.3,3.8-5.6
	c-0.0859-1.325,0.3042-2.6371,1.1-3.7c1.1-1.8,0.6-1.6,2.6-2.1h1.2c0.9,0,1.1-0.8,1.9-1.1c0.7-0.3,2.9-0.7,3.2-1.5
	C207.1161,347.5118,201.5161,348.4119,199.8161,347.9119L199.8161,347.9119z"/>
<path fill="#58EF26" d="M190.2161,202.4119c-1.6107-0.7999-3.1496-1.7367-4.6-2.8c-1.2-0.7-1.9-0.7-2.5-2.3
	c-1.7-4.3,3.7-1.9,6.3-1.9c0.9,0,2.4,0.5,2.9-0.5c0.6-0.9-1.1-2.7-2-3.1c0.6102-1.1679,0.7874-2.514,0.5-3.8c-1-2.3-1.8,0-3.5-0.6
	c-1.2403-0.307-1.9998-1.558-1.7-2.8v-0.2c0.5-1.7,1.2-1,2.6-1.5s0.8-1,1.5-1.1s1.7,0.7,2.3,0.6c1.303-0.0527,2.3472-1.097,2.4-2.4
	c0-2.4-1.4-1-2.6-1.4c-1.3-0.4-1.1-1.4-2-2.4c-0.8-1.1-5.6-2.3-3.7-5.6c0.6-0.8,2.1-0.6,2.4-1.7s-0.5-1.7-0.6-2.4
	c-0.5-2-0.3-3.2-2.4-4.2c-1.6209-0.8133-3.3899-1.2896-5.2-1.4c-1.5,0-2.6,2.5-4.6,0c-1-1.1,0-2.9-0.8-3.8s-3.5-0.3-4.5,0
	s-3.5,0.4-4.2-0.4v-1.6l-1.1-1.5c-0.4-1.6,1.2-1.8,1.1-3.4c-0.2-1.6-3-2-3.5-3.4l-0.4,0.5v-0.7c0.808-1.4668,0.9884-3.1981,0.5-4.8
	c-2.3776,0.4664-4.8343-0.2408-6.6-1.9c-0.4-0.5,0-1.2-0.7-1.7c-0.6273-0.5157-1.3373-0.9214-2.1-1.2c-1.7-1.2-1.4-1.2-1.7-2.8
	c0.3174-0.3592,0.4949-0.8207,0.5-1.3c-0.2-0.6-1.5-1.3-2.7-1.6s-2.8,0-3.4-1.6s0.8-2.9,0.5-3.4s-2.7-0.7-3.7,0
	c-3-2.4,1.5-3.9,1.4-5.6c-0.2-1.7-3.3-2.3-4.9-2c-1.6,0.2-1.7,0.8-3,1.2c-2.8,0.8-4.4-1.8-6.6-2.7
	c-1.3985-0.4992-2.7134-1.2072-3.9-2.1c-1.1-0.7-3.1-1.9-4.3-1.2s-0.4,2.4-1.2,3.4s-2.5,0-4.1,1.4c-1.6,1.4-1,3.8-2.9,2.1
	c-1.1-0.9,0-3.4-2.3-3.4c-1.3,0-3.3,2.1-4.6,2.6c-1.2,0.5-2.5,0-3.8,0.5c-1.1934,0.4727-2.3617,1.0068-3.5,1.6
	c-1.086,0.6012-2.2239,1.1032-3.4,1.5c-2.1,0.5-2.5,0-4.1,1.5c-1.0074,1.0162-1.7016,2.3005-2,3.7c-0.6,1.6-0.4,2.1-2.5,2.5
	c-1.3228,0.2926-2.7075,0.0011-3.8-0.8c-0.7,4.1-2.5,1-4.9,3.3c-0.9,0.9-0.6,1.8-0.9,3c-0.5,2.4-0.7,1.4-2.7,2.2s-2.3,4.4-1.7,7
	s2.3,3.5-0.6,4.4c-1.4092,0.5991-3.0403-0.0181-3.7-1.4c-0.5-0.8,0-8.6-3-4.4c-0.7,1,0,2.7,0,3.8c-0.8,2.3-2.8,1-3.5,2.5
	s1,2.4,0.3,3.5s-3.1,0.5-4.2,1.2s-0.7,1.3-1.7,1.7c-0.7532,0.2034-1.5468,0.2034-2.3,0c-0.6,0-1.4,0-1.2,2.1c0,3,1.6,2-1.6,3.4
	c-0.7,0.3-1,1-1.9,1.3s-2.3-0.5-2.8,0.7c-0.6,1.2,1,1.8,1.2,2.4c0.1002,0.6294,0.1002,1.2706,0,1.9c0,1.1-1.6,0-0.7,1.7
	c0.4,1,2.5,1.4,3.4,2c-0.4976,1.2014-0.7032,2.5037-0.6,3.8c0,1,0.8,1.4,1.1,2.1c0.1001,0.7634,0.1001,1.5366,0,2.3
	c0,0.6,2.1,1.6,2.4,2.6c0.276,0.8376-0.0042,1.7582-0.7,2.3c-0.8,0.6-2-0.3-2.8,0l-0.7,1.5c-1.9,1.4-4.4,0.5-5.6,2.4
	c-0.8,1-0.4,2.4-1.4,3.4s-2.9,0.5-3.4,2.2c-0.8,2.9,3.7,1.7,4.6,3.8c0.3,0.9-0.3,2,0,2.8c0.4,2.3,0.9,0.7,1.7,1.8s0.3,1.7,1.1,2.6
	c1.9,2.2,5.6,0,8-0.5c-0.6,1.5-5.6,2.9-6,4.5c-0.3,1.6,3.9,1.7,3,4.6c1.4,1.1,3.3,0.3,4.8,0.6c1.5,0.2,2.7,1.1,4.7,0.7
	c-1.2,1.6-3.5,3.3-3.6,5.6c1.6,0.3,2.8,1,2,2.8c0.96,0.4002,2.04,0.4002,3,0c0.2951,0.4422,0.4358,0.9696,0.4,1.5
	c0.5874-1.4583,0.5145-3.0996-0.2-4.5l-0.7-0.7c1.8044,0.5226,3.2295,1.9102,3.8,3.7c0,1.1-0.7,3.4,0,4.2c1.1,1.7,7,0.7,8.7,1.2
	c1.7,0.4,2.4,1.7,3.7,2.1c1.3,0.5,4.3,0.7,3.8,3s-3.4,1.5-0.7,2.8c1.7797,0.7777,3.8606,0.1407,4.9-1.5c1.5,0,1.5,1.6,1.6,2.7
	c0.9,0,1.4-1.1,2.2-1.4c0.7969-0.1,1.6031-0.1,2.4,0c0.8,0,1.4-1.2,2.2-1.4c0.8-0.2,2,0.4,2.9,0.3c0.9-0.1,2-1,2.4-1l1.6,0.6
	c1.4,0,3.4-1.9,3.9,0.7c1.6,0.5,1.4-1.1,2.5-1.4c1.2-0.3,1.4,0.4,2.4,0.7c1.2237,0.0853,2.4159,0.426,3.5,1h0.3
	c2.5,0,5.3-0.4,8.1-0.3l3.6-1.2c1.1-0.5,2.6,0,3.7,0c2-0.7,1.7-2.3,3.9-2.9c2.3-0.6,4.9-2.3,8-1.2
	c0.7719,0.1953,1.5125,0.4983,2.2,0.9l0.6,1.4h1.5c0.7227,0.6142,1.5312,1.1196,2.4,1.5h3.9c1.5438-0.0493,3.0879,0.085,4.6,0.4
	c0.3516,0.3078,0.759,0.5455,1.2,0.7c0.6,0.1,0.7-1,1.7-0.5s0.3,2.6,2.9,2.8s1.7-1.2,3.3-2.3s2.1,1.5,4.3,1.5
	c0.2038-1.173,0.1004-2.3788-0.3-3.5l-2-2.2h-1.9c-0.6,0,0-1.2,0-1.5c0-0.2-2.5,0-3.3-1.5c-1.6-3.3,4.3-1,5.6-0.5
	c1.4,0.5,2,1.6,3.7,1.1s1.7-3.4,3.5-0.7c0.5-3.4,6.8,1.1,4-4.4c3.4-0.8,0-2.5,0-3.7c0-2.4,2-1.9,3.3-2.1c3.1-0.7,3.7-2.3,3.8-5.6
	c-0.1002-1.3266,0.2913-2.6436,1.1-3.7c1.1-1.8,0.6-1.5,2.6-2h1.2c0.9,0,1.2-0.8,1.9-1.1s2.8-0.7,3.2-1.6
	C197.7161,202.0119,191.9161,202.912,190.2161,202.4119L190.2161,202.4119z"/>
<path fill="#58EF26" d="M347.9161,88.4119c-1.663-0.7014-3.2132-1.6449-4.6-2.8c-1.1-0.7-1.9-0.6-2.5-2.2c-1.7-4.3,3.7-1.9,6.3-1.9
	c1,0,2.4,0.5,3-0.5c0.6-0.9-1.1-2.7-2-3.1c0.5622-1.1826,0.7372-2.5123,0.5-3.8c-1-2.4-1.7,0-3.4-0.6
	c-1.2074-0.2327-2.0072-1.388-1.8-2.6c0-0.1,0-0.2,0.1-0.2c0.5-1.7,1.3-1,2.7-1.6s0.7-1,1.5-1.1s1.7,0.7,2.3,0.6
	c1.303-0.0527,2.3473-1.097,2.4-2.4c0-2.4-1.4-1-2.6-1.4c-1.3-0.4-1.1-1.4-2-2.5s-5.6-2.3-3.6-5.6c0.6-0.8,2.1-0.6,2.4-1.7
	s-0.5-1.6-0.6-2.3c-0.5-2.1-0.3-3.3-2.4-4.2c-1.6325-0.7998-3.3924-1.3074-5.2-1.5c-1.5,0-2.6,2.5-4.6,0.3c-1-1.1,0-2.9-0.8-3.8
	c-0.8-1-3.5,0-4.5,0s-3.5,0.5-4.2-0.4v-1.6l-1-1.5c-0.4-1.6,1.2-1.8,1.1-3.4c-0.2-1.6-3-2-3.5-3.4l-0.4,0.5v-0.7
	c0.7596-1.4816,0.9379-3.1936,0.5-4.8c-2.4913,0.5793-5.1047-0.1782-6.9-2c-0.4-0.5,0-1.2-0.7-1.7s-1.4-0.8-2-1.2
	c-1.7-1.1-1.4-1.2-1.8-2.7c0.3756-0.3633,0.5605-0.8809,0.5-1.4c-0.2-0.6-1.5-1.3-2.6-1.6s-2.8,0-3.4-1.6s0.7-2.9,0.5-3.4
	c-0.3-0.5-2.7-0.7-3.6,0c-3-2.4,1.5-3.9,1.4-5.6c-0.2-1.7-3.3-2.2-4.9-2s-1.7,0.8-3,1.2c-2.7,0.8-4.3-1.8-6.6-2.7
	c-1.3803-0.5394-2.6899-1.2445-3.9-2.1c-1-0.7-3-1.9-4.3-1.2c-1.2,0.7-0.4,2.4-1.2,3.4s-2.5,0-4.1,1.4s-1,3.8-2.9,2.1
	c-1.1-1,0-3.4-2.3-3.5c-1.4,0-3.4,2.1-4.6,2.7s-2.5,0-3.8,0.5c-1.2133,0.4651-2.3843,1.0338-3.5,1.7
	c-1.0686,0.6106-2.2113,1.0811-3.4,1.4c-2,0.5-2.5,0-4.1,1.5c-1.0074,1.0162-1.7016,2.3005-2,3.7c-0.6,1.6-0.4,2.1-2.5,2.5
	c-1.3228,0.2926-2.7075,0.0011-3.8-0.8c-0.7,4.1-2.5,1-4.9,3.3c-0.9,0.9-0.7,1.9-0.9,3c-0.5,2.4-0.7,1.4-2.7,2.2s-2.3,4.4-1.7,7
	s2.3,3.5-0.6,4.4c-1.4092,0.5991-3.0403-0.0181-3.7-1.4c-0.5-0.8,0-8.6-3-4.4c-0.8,1.1,0,2.7,0,3.8c-0.7,2.3-2.8,1-3.5,2.5
	s1.1,2.4,0.4,3.5s-3.1,0.6-4.2,1.2s-0.7,1.3-1.7,1.7c-0.7532,0.2034-1.5468,0.2034-2.3,0c-0.6,0-1.4,0-1.2,2.1c0,3.1,1.6,2-1.5,3.4
	c-0.8,0.3-1,1-2,1.3s-2.3-0.5-2.8,0.7c-0.6,1.2,1.1,1.8,1.2,2.5c0.1,0.5958,0.1,1.2042,0,1.8c0,1.2-1.5,0-0.7,1.7
	c0.5,1,2.6,1.4,3.4,2c-0.4976,1.2014-0.7032,2.5037-0.6,3.8c0,1,0.8,1.4,1,2.1c0.1,0.7634,0.1,1.5366,0,2.3c0,0.7,2.2,1.6,2.5,2.6
	c0.276,0.8376-0.0042,1.7582-0.7,2.3c-0.7,0.6-2,0-2.7,0l-0.7,1.5c-1.9,1.5-4.4,0.5-5.6,2.4s-0.4,2.4-1.4,3.5s-2.9,0.4-3.4,2.1
	c-0.8,2.9,3.7,1.7,4.6,3.8c0.3,0.8-0.3,2,0,2.8c0.4,2.4,0.9,0.7,1.7,1.9c0.8,1.1,0.3,1.7,1.1,2.5c1.9,2.2,5.6,0,8-0.5
	c-0.6,1.5-5.6,3-6,4.5s4,1.7,3,4.6c1.3,1.1,3.3,0.3,4.8,0.6c1.6,0.3,2.6,1.1,4.7,0.6c-1.2,1.6-3.5,3.3-3.7,5.6
	c1.7,0,2.8,1.1,2.1,2.8c0.9599,0.4002,2.0401,0.4002,3,0c0.2817,0.4109,0.4221,0.9023,0.4,1.4c0.5972-1.2132,0.7046-2.6097,0.3-3.9
	l-0.7-0.7c1.7977,0.4977,3.2023,1.9023,3.7,3.7c0,1.1-0.6,3.3,0,4.2c1.2,1.8,7,0.7,8.7,1.2s2.4,1.6,3.7,2.1s4.3,0.7,3.8,3
	s-3.5,1.5-0.7,2.8c1.8078,0.8127,3.9381,0.1736,5-1.5c1.5,0,1.5,1.6,1.6,2.6c0.9,0,1.4-1.1,2.2-1.4c0.7969-0.1,1.6031-0.1,2.4,0
	c0.8,0,1.4-1.2,2.3-1.5c0.9-0.2,2,0.4,2.9,0c0.761-0.3951,1.5668-0.6973,2.4-0.9l1.6,0.6c1.4,0,3.4-2,3.9,0.7
	c1.6,0.4,1.4-1.2,2.5-1.5s1.5,0.4,2.5,0.7c1.2237,0.0853,2.416,0.426,3.5,1c2.6,0,5.6-0.4,8.1-0.3l3.6-1.2c1.2-0.5,2.6,0,3.8,0
	c1.1,0,1.7-2.3,3.9-2.9s5-2.2,8.1-1.1c0.754,0.206,1.4898,0.4735,2.2,0.8l0.6,1.5h1.5c0.6,0,1.7,1.3,2.4,1.4s2.7,0,3.9,0
	c1.5769-0.0496,3.1542,0.0846,4.7,0.4c0.3381,0.3495,0.7474,0.6223,1.2,0.8c0.6,0.1,0.7-1.1,1.7-0.5s0.3,2.5,2.9,2.8
	c2.5,0.2,1.7-1.2,3.3-2.3c2.4-1.7,2.1,1.5,4.4,1.5c0.2001-1.1581,0.2001-2.3419,0-3.5l-2.8-2.5h-1.9c-0.6,0,0-1.2,0-1.4
	s-2.5,0-3.3-1.5c-1.6-3.3,4.2-1,5.6-0.5s2,1.6,3.7,1.1s1.7-3.3,3.5-0.7c0.5-3.4,6.8,1.1,3.9-4.4c3.4-0.8,0-2.5,0-3.7
	c0-2.4,2-1.9,3.2-2.1c3.2-0.7,3.8-2.3,3.8-5.6c-0.0859-1.325,0.3042-2.6371,1.1-3.7c1.1-1.9,0.6-1.6,2.6-2.1h1.2
	c0.9,0,1.1-0.8,1.9-1.1c0.7-0.3,2.8-0.7,3.2-1.5C355.2162,88.0119,349.4162,88.9119,347.9161,88.4119L347.9161,88.4119z"/>
</svg>
