<?xml version="1.0" encoding="utf-8"?>
<!-- Generator: Adobe Illustrator 25.0.0, SVG Export Plug-In . SVG Version: 6.00 Build 0)  -->
<svg version="1.1" id="Capa_1" xmlns="http://www.w3.org/2000/svg" xmlns:xlink="http://www.w3.org/1999/xlink" x="0px" y="0px"
	 viewBox="0 0 494.3 511.9" style="enable-background:new 0 0 494.3 511.9;" xml:space="preserve">
<style type="text/css">
	.st0{fill:#71F739;}
	.st1{fill:#985B3F;}
	.st2{fill:#16D342;}
	.st3{fill:#0BF96B;}
	.st4{fill:#B7F49D;}
</style>
<path class="st0" d="M253.1,296.5c-1.6-0.7-3.2-1.7-4.6-2.8c-1.1-0.7-1.9-0.6-2.5-2.2c-1.7-4.3,3.7-1.9,6.3-1.9c1,0,2.4,0.5,2.9-0.5
	c0.6-0.9-1-2.7-2-3c0.6-1.2,0.8-2.5,0.5-3.8c-1-2.4-1.8,0-3.4-0.6c-1.2-0.2-2-1.4-1.8-2.6c0-0.1,0-0.2,0.1-0.2
	c0.5-1.7,1.2-1,2.7-1.6c0.6,0,0.7-1,1.5-1.1s1.6,0.7,2.3,0.6c1.3-0.1,2.3-1.1,2.4-2.4c0-2.4-1.4-1-2.6-1.4c-1.3-0.4-1.2-1.4-2-2.5
	s-5.6-2.3-3.6-5.6c0.6-0.8,2-0.6,2.4-1.7s-0.5-1.6-0.6-2.3c-0.5-2.1-0.3-3.3-2.4-4.2c-1.6-0.8-3.4-1.3-5.2-1.5
	c-1.6,0-2.6,2.5-4.6,0.3c-1-1.1,0-2.9-0.8-3.8c-0.8-1-3.4,0-4.5,0s-3.4,0.4-4.2-0.4v-1.6l-1-1.5c-0.4-1.6,1.2-1.8,1-3.4
	s-3-2-3.5-3.4l-0.3,0.5v-0.7c0.8-1.5,1-3.2,0.5-4.8c-2.5,0.6-5.1-0.2-6.9-2c-0.4-0.5,0-1.1-0.7-1.7c-0.7-0.5-1.4-0.9-2.1-1.2
	c-1.7-1.1-1.4-1.2-1.7-2.7c0.4-0.4,0.6-0.9,0.5-1.4c-0.2-0.6-1.5-1.3-2.6-1.6s-2.8,0-3.4-1.6c-0.7-1.6,0.8-2.9,0.5-3.4
	s-2.7-0.7-3.7,0c-3-2.4,1.6-3.9,1.4-5.6s-3.3-2.2-4.8-2c-1.6,0.2-1.7,0.8-3,1.2c-2.7,0.8-4.4-1.8-6.6-2.7c-1.4-0.5-2.7-1.2-3.9-2.1
	c-1-0.7-3-1.9-4.3-1.2s-0.4,2.4-1.1,3.4s-2.5,0-4.1,1.4s-1,3.8-2.9,2.1c-1.1-1,0-3.4-2.3-3.5c-1.4,0-3.4,2.1-4.6,2.7s-2.5,0-3.8,0.5
	c-1.2,0.4-2.4,0.8-3.5,1.4c-1.1,0.6-2.2,1-3.4,1.4c-2,0.5-2.5,0-4.1,1.5c-1,1-1.7,2.3-2,3.7c-0.6,1.6-0.4,2.1-2.5,2.5
	c-1.3,0.3-2.7,0-3.8-0.8c-0.7,4.1-2.5,1-4.9,3.3c-1,0.9-0.7,1.8-0.9,3c-0.5,2.4-0.7,1.4-2.7,2.2s-2.4,4.4-1.7,7
	c0.6,2.6,2.3,3.5-0.5,4.4c-1.4,0.6-3,0-3.7-1.4c-0.5-0.8,0-8.6-3-4.4c-0.8,1.1,0,2.7,0,3.8c-0.8,2.3-2.8,1-3.5,2.5s1,2.4,0.4,3.5
	s-3.1,0.6-4.2,1.2s-0.7,1.3-1.7,1.7c-0.8,0.2-1.5,0.2-2.3,0c-0.6,0-1.4,0.3-1.2,2.1c0,3.1,1.6,2-1.6,3.4c-0.7,0.3-1,1-1.9,1.3
	s-2.3-0.5-2.8,0.7c-0.6,1.2,1.1,1.8,1.2,2.5c0.1,0.6,0.1,1.2,0,1.8c0,1.2-1.6,0-0.7,1.7c0.5,1,2.5,1.4,3.4,2
	c-0.5,1.2-0.7,2.5-0.6,3.8c0,1,0.8,1.4,1,2.1c0.1,0.8,0.1,1.5,0,2.3c0,0.7,2.2,1.6,2.5,2.6c0.2,0.8,0,1.7-0.7,2.3
	c-0.8,0.6-2-0.3-2.7,0l-0.7,1.5c-1.9,1.5-4.4,0.5-5.9,2.4c-0.7,1-0.4,2.4-1.3,3.5s-2.9,0.4-3.4,2.1c-0.9,2.9,3.7,1.7,4.6,3.8
	c0.3,0.8-0.3,2,0,2.8c0.5,2.4,0.9,0.7,1.7,1.9c0.8,1.1,0.4,1.7,1.1,2.5c1.9,2.2,5.6,0,7.9-0.5c-0.6,1.5-5.6,3-6,4.5
	c-0.3,1.5,3.9,1.7,3,4.6c1.3,1.1,3.3,0.3,4.8,0.6c1.5,0.6,3.2,0.8,4.8,0.6c-1.2,1.6-3.5,3.3-3.7,5.6c1.6,0,2.8,1.1,2.1,2.8
	c1,0.4,2,0.4,3,0c0.3,0.4,0.5,0.9,0.5,1.4c0.6-1.2,0.7-2.6,0.3-3.9l-0.7-0.7c1.8,0.5,3.3,1.9,3.8,3.7c0.3,1.1-0.7,3.3,0,4.2
	c1.2,1.8,7,0.7,8.7,1.2s2.4,1.6,3.7,2.1s4.3,0.7,3.8,3s-3.5,1.5-0.7,2.8c1.8,0.8,3.9,0.2,5-1.5c1.4,0,1.5,1.6,1.6,2.6
	c1,0,1.4-1.1,2.2-1.4c0.8-0.1,1.6-0.1,2.4,0c0.8,0,1.4-1.2,2.3-1.5s1.9,0.4,2.8,0c0.8-0.4,1.6-0.7,2.4-0.9l1.6,0.6
	c1.4,0,3.4-2,3.9,0.7c1.6,0.4,1.4-1.2,2.5-1.5c1.2-0.3,1.5,0.4,2.5,0.7s2.6,0,3.4,1.1c2.5,0,5.6-0.4,8.1-0.3l3.6-1.2
	c1.2-0.4,2.6,0,3.8,0c1.1,0,1.6-2.3,3.9-2.9s4.9-2.2,8.1-1.1c0.7,0.2,1.4,0.5,2.1,0.8l0.6,1.5h1.5c0.7,0.6,1.5,1.1,2.4,1.4h3.9
	c1.5,0,3.1,0.1,4.6,0.4c0.4,0.4,0.8,0.6,1.3,0.8c0.6,0.1,0.7-1.1,1.7-0.5s0,2.5,2.9,2.8c2.9,0.2,1.7-1.2,3.3-2.3
	c2.4-1.7,2.1,1.5,4.4,1.5c0.1-1.2,0-2.4-0.3-3.5l-1.9-2.2h-2c-0.6,0,0-1.3,0-1.5s-2.5,0-3.3-1.5c-1.6-3.3,4.2-1,5.6-0.5
	s2.1,1.6,3.7,1.1s1.7-3.3,3.5-0.7c0.5-3.4,6.7,1.1,3.9-4.4c3.4-0.8,0-2.5,0-3.7c0-2.4,1.9-1.9,3.2-2.1c3.2-0.7,3.7-2.3,3.8-5.6
	c-0.1-1.3,0.3-2.6,1.1-3.7c1-1.9,0.6-1.6,2.6-2.1h1.3c0.9,0,1.1-0.8,1.9-1.1c0.7-0.3,2.8-0.7,3.2-1.5
	C260.4,296.2,254.6,297,253.1,296.5L253.1,296.5z"/>
<path class="st1" d="M237.4,375.5c0,0,16.9,92.2-9.9,136.4h53.9c0,0-16.9-104.2-10.8-148C276.7,320,237.4,375.5,237.4,375.5z"/>
<path class="st2" d="M460.5,300.3c-1.6-0.8-3.1-1.7-4.6-2.8c-1.2-0.7-1.9-0.7-2.5-2.3c-1.7-4.3,3.7-1.9,6.3-1.9
	c0.9,0,2.4,0.5,2.9-0.5c0.6-0.9-1.1-2.7-2-3.1c0.6-1.2,0.8-2.5,0.5-3.8c-1-2.4-1.8,0-3.5-0.6c-1.2-0.3-2-1.6-1.7-2.8v-0.2
	c0.5-1.7,1.2-1,2.6-1.5s0.8-1,1.5-1.1s1.7,0.7,2.3,0.6c1.3-0.1,2.3-1.1,2.4-2.4c0-2.4-1.3-1-2.6-1.4c-1.4-0.4-1.1-1.4-2-2.4
	c-0.8-1.1-5.6-2.3-3.7-5.6c0.6-0.8,2.1-0.6,2.4-1.7s-0.5-1.7-0.6-2.4c-0.5-2-0.3-3.2-2.4-4.2c-1.6-0.8-3.4-1.3-5.2-1.4
	c-1.5,0-2.6,2.5-4.6,0.3c-1-1.1,0-2.9-0.8-3.8s-3.5,0-4.5,0s-3.5,0.4-4.2-0.4v-1.6l-1.1-1.4c-0.4-1.6,1.2-1.8,1.1-3.4
	c-0.2-1.6-3-2-3.5-3.4l-0.4,0.5v-0.7c0.8-1.5,1-3.2,0.5-4.8c-2.5,0.5-5.1-0.2-7-2c-0.4-0.5,0-1.2-0.7-1.7c-0.6-0.5-1.3-0.9-2.1-1.2
	c-1.7-1.2-1.4-1.2-1.7-2.8c0.3-0.4,0.5-0.8,0.5-1.3c-0.2-0.6-1.5-1.3-2.7-1.6s-2.8,0-3.4-1.6s0.8-2.9,0.5-3.4s-2.7-0.7-3.7,0
	c-3-2.4,1.5-3.9,1.4-5.6c-0.2-1.7-3.3-2.3-4.9-2.1s-1.7,0.9-3,1.3c-2.8,0.8-4.4-1.8-6.6-2.7c-1.4-0.5-2.7-1.2-3.9-2.1
	c-1.1-0.7-3.1-1.9-4.3-1.2s-0.4,2.4-1.2,3.4s-2.5,0-4.1,1.4s-1,3.8-2.9,2.1c-1.1-0.9,0-3.4-2.3-3.4c-1.3,0-3.3,2.1-4.6,2.6
	c-1.2,0.5-2.5,0-3.8,0.5c-1.2,0.5-2.4,1-3.5,1.6c-1.1,0.6-2.2,1.1-3.4,1.5c-2.1,0.5-2.5,0-4.1,1.5c-1,1-1.7,2.3-2,3.7
	c-0.6,1.6-0.4,2.1-2.5,2.5c-1.4,0.2-2.8-0.3-3.8-1.4c-0.7,4.1-2.5,1-4.9,3.3c-0.9,0.9-0.6,1.8-0.9,3c-0.5,2.4-0.7,1.4-2.7,2.2
	s-2.3,4.4-1.7,7s2.3,3.5-0.6,4.4c-1.4,0.5-3-0.1-3.7-1.4c-0.5-0.8,0-8.6-3-4.4c-0.7,1,0,2.7,0,3.8c-0.8,2.4-2.8,1.1-3.5,2.5
	c-0.7,1.5,1,2.4,0.3,3.5s-3.1,0.5-4.2,1.2s-0.7,1.3-1.7,1.7c-0.8,0.2-1.5,0.2-2.3,0c-0.6,0-1.4,0-1.2,2c0,3.1,1.6,2.1-1.6,3.5
	c-0.7,0.3-1,1-1.9,1.3s-2.3-0.5-2.8,0.7c-0.6,1.2,1,1.8,1.2,2.4c0.1,0.6,0.1,1.3,0,1.9c0,1.1-1.6,0-0.7,1.7c0.4,1,2.5,1.4,3.4,2
	c-0.5,1.2-0.7,2.5-0.6,3.8c0,1,0.8,1.4,1.1,2.1c0.1,0.8,0.1,1.5,0,2.3c0,0.6,2.1,1.6,2.4,2.6c0.3,0.8,0,1.8-0.7,2.3
	c-0.8,0.6-2-0.3-2.8,0l-0.7,1.5c-1.9,1.4-4.4,0.5-5.6,2.4c-0.8,1-0.4,2.4-1.4,3.4s-2.9,0.5-3.4,2.2c-0.8,2.9,3.7,1.7,4.6,3.8
	c0.2,0.9,0.2,1.9,0,2.8c0.4,2.3,0.9,0.7,1.7,1.8s0.3,1.7,1.1,2.6c1.9,2.2,5.6,0,8-0.5c-0.6,1.5-5.6,2.9-6,4.5
	c-0.3,1.6,3.9,1.7,3,4.6c1.4,1.1,3.3,0.3,4.8,0.6c1.5,0.2,2.7,1.1,4.8,0.7c-1.2,1.6-3.5,3.3-3.7,5.6c1.6,0.3,2.8,1,2,2.8
	c1,0.4,2,0.4,3,0c0.3,0.4,0.4,1,0.4,1.5c0.6-1.2,0.7-2.7,0.3-4l-0.7-0.7c1.8,0.5,3.2,1.9,3.8,3.7c0,1.1-0.7,3.4,0,4.2
	c1.2,1.7,7,0.7,8.7,1.2s2.4,1.7,3.7,2.1c1.3,0.5,4.3,0.7,3.8,3s-3.4,1.5-0.7,2.8c1.8,0.8,3.9,0.1,4.9-1.5c1.5,0,1.5,1.6,1.6,2.7
	c1-0.3,1.4-1.2,2.2-1.4c0.8-0.1,1.6-0.1,2.4,0c0.8,0,1.4-1.2,2.2-1.4s2,0.4,2.9,0c0.8-0.4,1.6-0.8,2.4-1l1.6,0.6
	c1.4,0,3.4-1.9,3.9,0.7c1.6,0.5,1.4-1.1,2.5-1.4c1.2-0.3,1.4,0.4,2.4,0.7c1.2,0.1,2.4,0.4,3.5,1c2.5,0,5.6-0.5,8.1-0.3l3.6-1.2
	c1.1-0.5,2.6,0,3.7,0c2-0.7,1.7-2.3,3.9-2.9c2.3-0.6,4.9-2.3,8-1.2c0.8,0.2,1.5,0.5,2.2,0.9l0.6,1.4h1.5c0.7,0.6,1.5,1.1,2.4,1.5
	h3.9c1.5,0,3.1,0.1,4.6,0.4c0.4,0.3,0.8,0.5,1.2,0.7c0.6,0.1,0.7-1,1.7-0.5s0.3,2.6,2.9,2.8s1.7-1.2,3.3-2.3s2.1,1.5,4.3,1.5
	c0.3-1.1,0.3-2.4,0-3.5l-2-2.2h-1.9c-0.6,0,0-1.2,0-1.5c0-0.2-2.5,0-3.3-1.5c-1.6-3.3,4.3-1,5.6-0.5c1.4,0.4,2,1.6,3.7,1.1
	s1.7-3.4,3.5-0.7c0.5-3.4,6.8,1.1,4-4.4c3.4-0.8,0-2.5,0-3.7c0-2.4,2-1.9,3.3-2.1c3.1-0.7,3.7-2.4,3.8-5.6c-0.1-1.3,0.3-2.6,1.1-3.7
	c1.1-1.8,0.6-1.5,2.6-2h1.2c0.9,0,1.2-0.8,1.9-1.1s2.8-0.7,3.2-1.6C467.8,299.9,462,300.7,460.5,300.3L460.5,300.3z"/>
<path class="st3" d="M487.6,250c-1.6-0.8-3.1-1.7-4.6-2.8c-1.1-0.7-1.9-0.6-2.5-2.2c-1.7-4.3,3.7-1.9,6.3-1.9c1,0,2.4,0.5,2.9-0.5
	c0.6-0.9-1-2.7-2-3.1c0.6-1.2,0.8-2.5,0.5-3.8c-1-2.4-1.8,0-3.4-0.6c-1.2-0.3-2-1.5-1.8-2.7c0-0.1,0-0.1,0.1-0.2
	c0.5-1.7,1.2-1,2.7-1.5c0.6,0,0.7-1,1.5-1.1s1.6,0.7,2.3,0.6c1.3-0.1,2.3-1.1,2.4-2.4c0-2.4-1.4-1-2.6-1.4c-1.3-0.5-1.2-1.4-2-2.4
	c-0.8-1.1-5.6-2.3-3.6-5.6c0.6-0.8,2-0.6,2.4-1.7s-0.5-1.6-0.6-2.4c-0.5-2-0.3-3.2-2.4-4.2c-1.6-0.8-3.4-1.3-5.2-1.5
	c-1.6,0-2.6,2.5-4.6,0.3c-1-1.1,0-2.9-0.8-3.8c-0.8-1-3.4,0-4.5,0s-3.4,0.4-4.2-0.4v-1.6l-1-1.5c-0.4-1.6,1.2-1.8,1-3.4
	s-3-2-3.5-3.4l-0.3,0.5v-0.7c0.8-1.5,1-3.2,0.5-4.8c-2.5,0.6-5.1-0.2-6.9-2c-0.4-0.5,0-1.2-0.7-1.7c-0.6-0.5-1.3-0.9-2.1-1.2
	c-1.7-1.2-1.4-1.2-1.7-2.7c0.4-0.4,0.6-0.9,0.5-1.4c-0.2-0.7-1.5-1.3-2.7-1.6s-2.7,0-3.4-1.6s0.8-2.9,0.5-3.4s-2.7-0.7-3.7,0
	c-3-2.4,1.6-3.9,1.4-5.6s-3.6-3-5.1-3s-1.7,0.8-3,1.2c-2.7,0.8-4.4-1.8-6.6-2.7c-1.4-0.5-2.7-1.2-3.9-2.1c-1-0.7-3-1.9-4.3-1.2
	s-0.4,2.4-1.1,3.4s-2.5,0-4.1,1.4s-1,3.8-2.9,2.1c-1.1-0.9,0-3.4-2.3-3.4c-1.4,0-3.4,2.1-4.6,2.6s-2.5,0-3.8,0.5
	c-1.2,0.4-2.4,1-3.5,1.7c-1.1,0.6-2.2,1-3.4,1.4c-2,0.5-2.5,0-4.1,1.5c-1,1-1.7,2.3-2,3.7c-0.6,1.6-0.4,2.1-2.5,2.5
	c-1.3,0.3-2.7,0-3.8-0.8c-0.7,4.1-2.5,1-4.9,3.3c-1,0.9-0.7,1.8-0.9,3c-0.5,2.4-0.7,1.4-2.7,2.2s-2.4,4.4-1.7,7
	c0.6,2.6,2.3,3.5-0.5,4.4c-1.4,0.6-3,0-3.7-1.4c-0.5-0.8,0-8.6-3-4.4c-0.8,1.1,0,2.7-0.3,3.8c-0.8,2.3-2.8,1-3.5,2.5s1,2.4,0.4,3.5
	s-3.1,0.6-4.2,1.2s-0.7,1.3-1.7,1.7s-1.7-0.3-2.3,0s-1.4,0-1.2,2.1c0,3.1,1.6,2-1.6,3.4c-0.7,0.3-1,1-1.9,1.3
	c-1,0.3-2.3-0.5-2.8,0.7c-0.6,1.2,1.1,1.8,1.2,2.5c0.1,0.6,0.1,1.2,0,1.8c0,1.2-1.6,0-0.7,1.7c0.5,1,2.5,1.4,3.4,2
	c-0.5,1.2-0.7,2.5-0.6,3.8c0,1,0.8,1.4,1,2.1c0.1,0.8,0.1,1.5,0,2.3c0,0.7,2.2,1.6,2.5,2.6c0.2,0.8,0,1.7-0.7,2.3
	c-0.8,0.6-2,0-2.7,0l-0.7,1.5c-1.9,1.5-4.4,0.5-5.6,2.4c-0.7,1-0.4,2.4-1.3,3.5s-2.9,0.4-3.4,2.1c-0.9,2.9,3.7,1.7,4.6,3.8
	c0.3,0.8-0.3,2,0,2.8c0.5,2.4,0.9,0.7,1.7,1.8s0.4,1.7,1.1,2.6c1.9,2.2,5.6,0,7.9-0.5c-0.6,1.5-5.6,2.9-6,4.5
	c-0.3,1.6,3.9,1.7,3,4.6c1.3,1.1,3.3,0.3,4.8,0.6c1.5,0.6,3.2,0.8,4.8,0.6c-1.2,1.6-3.5,3.3-3.7,5.6c1.6,0,2.8,1.1,2.1,2.8
	c1,0.4,2,0.4,3,0c0.3,0.4,0.5,0.9,0.5,1.4c0.6-1.2,0.7-2.6,0.3-3.9l-0.7-0.7c1.8,0.5,3.3,1.9,3.8,3.7c0,1.1-0.7,3.3,0,4.2
	c1.2,1.7,7,0.7,8.7,1.2s2.4,1.6,3.7,2.1c1.2,0.5,4.3,0.7,3.8,3s-3.5,1.5-0.7,2.8c1.8,0.8,3.9,0.1,5-1.5c1.4,0,1.5,1.6,1.6,2.7
	c1,0,1.4-1.1,2.2-1.4c0.8-0.1,1.6-0.1,2.4,0c0.8,0,1.4-1.2,2.3-1.4s1.9,0.4,2.8,0s2.1-0.9,2.4-1l1.1,1c1.4,0,3.4-1.9,3.9,0.7
	c1.6,0.5,1.4-1.1,2.5-1.4c1.2-0.3,1.5,0.4,2.5,0.7s2.6,0,3.4,1h0.3c2.5,0,5.3-0.4,8.1-0.3l3.6-1.2c1.2-0.5,2.6,0,3.8,0
	c1.1,0,1.6-2.3,3.9-2.9s4.9-2.3,8.1-1.1c0.7,0.2,1.4,0.5,2.1,0.8l0.6,1.5h1.5c0.8,0.5,1.6,1,2.4,1.4h3.9c1.5,0,3.1,0.1,4.6,0.4
	c0.4,0.4,0.8,0.6,1.3,0.7c0.6,0.1,0.7-1,1.6-0.5s0.3,2.5,2.9,2.8c2.6,0.2,1.7-1.2,3.3-2.3c2.4-1.7,2.1,1.5,4.4,1.5
	c0.1-1.2,0-2.4-0.3-3.5l-1.9-2.2h-2c-0.6,0,0-1.2,0-1.4s-2.5,0-3.3-1.5c-1.6-3.3,4.2-1,5.6-0.5c1.4,0.4,2.1,1.6,3.7,1.1
	s1.7-3.4,3.5-0.7c0.5-3.4,6.7,1.1,3.9-4.4c3.4-0.8,0-2.5,0-3.7c0-2.4,1.9-1.9,3.2-2.1c3.1-0.7,3.7-2.3,3.8-5.6
	c-0.1-1.3,0.3-2.6,1.1-3.7c1-1.8,0.6-1.5,2.6-2h1.3c0.9,0,1.1-0.8,1.9-1.1c0.7-0.3,2.8-0.7,3.2-1.5C494.8,249.3,489,250,487.6,250
	L487.6,250z"/>
<path class="st2" d="M308.5,363.3c-1.6-0.8-3.1-1.7-4.6-2.8c-1.2-0.7-1.9-0.7-2.5-2.3c-1.7-4.3,3.7-1.9,6.3-1.9
	c0.9,0,2.4,0.5,2.9-0.5c0.6-0.9-1.1-2.7-2-3.1c0.6-1.2,0.8-2.5,0.5-3.8c-1-2.4-1.8,0-3.5-0.6c-1.2-0.3-2-1.6-1.7-2.8v-0.2
	c0.5-1.7,1.2-1,2.6-1.5s0.8-1,1.5-1.1s1.7,0.7,2.3,0.6c1.3-0.1,2.3-1.1,2.4-2.4c0-2.5-1.3-1-2.6-1.4c-1.4-0.4-1.1-1.4-2-2.4
	c-0.8-1.1-5.6-2.3-3.7-5.6c0.6-0.8,2.1-0.6,2.4-1.7s-0.5-1.7-0.6-2.4c-0.5-2-0.3-3.2-2.4-4.2c-1.6-0.8-3.4-1.3-5.2-1.4
	c-1.5,0-2.6,2.5-4.6,0c-1-1.1,0-2.9-0.8-3.8s-3.5,0-4.5,0s-3.5,0.4-4.2-0.4V316l-1.1-1.4c-0.4-1.6,1.2-1.8,1.1-3.4s-3-2.1-3.5-3.4
	l-0.4,0.5v-0.7c0.8-1.5,1-3.2,0.5-4.8c-2.5,0.5-5.1-0.3-7-2c-0.4-0.5,0-1.2-0.7-1.7c-0.6-0.5-1.3-0.9-2.1-1.2
	c-1.7-1.2-1.4-1.2-1.7-2.8c0.3-0.4,0.5-0.8,0.5-1.3c-0.1-0.6-1.5-1.3-2.7-1.6s-2.7,0-3.4-1.6s0.8-3,0.5-3.4c-1.2-0.6-2.5-0.6-3.7,0
	c-3-2.4,1.5-3.9,1.4-5.6c-0.2-1.7-3.3-2.3-4.9-2.1c-1.6,0.2-1.7,0.9-3,1.3c-2.8,0.8-4.4-1.8-6.6-2.7c-1.4-0.5-2.7-1.2-3.9-2.1
	c-1.1-0.7-3.1-1.9-4.3-1.2s-0.4,2.4-1.2,3.4s-2.5,0-4.1,1.4s-1,3.8-2.9,2.1c-1.1-0.9,0-3.4-2.3-3.4c-1.3,0-3.3,2.1-4.6,2.6
	c-1.2,0.6-2.5,0-3.8,0.5c-1.2,0.5-2.4,1-3.5,1.6c-1.1,0.6-2.2,1.1-3.4,1.5c-2.1,0.5-2.5,0-4.1,1.4c-1,1.1-1.6,2.3-2,3.7
	c-0.6,1.6-0.4,2.1-2.5,2.5c-1.3,0.3-2.7,0-3.8-0.8c-0.7,4.1-2.5,1-4.8,3.3c-1,0.9-0.7,1.8-1,3c-0.5,2.4-0.7,1.4-2.7,2.2
	s-2.3,4.4-1.7,7s2.3,3.4-0.6,4.4c-1.4,0.5-3-0.1-3.7-1.4c-0.5-0.8,0-8.6-3-4.4c-0.7,1,0,2.7,0,3.8c-0.8,2.4-2.8,1.1-3.5,2.5
	c-0.7,1.5,1,2.4,0.3,3.5s-3.1,0.6-4.2,1.2c-1.1,0.7-0.7,1.3-1.7,1.7c-0.8,0.2-1.5,0.2-2.3,0c-0.6,0-1.4,0-1.2,2
	c0,3.1,1.6,2.1-1.6,3.5c-0.7,0.3-1,1-1.9,1.3s-2.3-0.5-2.8,0.7c-0.6,1.2,1,1.8,1.2,2.4c0.1,0.6,0.1,1.3,0,1.9c0,1.1-1.6,0-0.7,1.7
	c0.4,1,2.5,1.4,3.4,2c-0.5,1.2-0.7,2.5-0.6,3.8c0,1,0.8,1.4,1.1,2.1c0.1,0.8,0.1,1.5,0,2.3c0,0.6,2.2,1.6,2.4,2.6
	c0.3,0.8,0,1.8-0.7,2.3c-0.8,0.6-2-0.3-2.8,0l-0.7,1.5c-1.9,1.4-4.4,0.5-5.6,2.4c-0.8,1-0.4,2.4-1.4,3.4c-1,1.1-2.9,0.5-3.4,2.2
	c-0.8,2.9,3.7,1.6,4.6,3.8c0.3,0.9-0.3,2,0,2.8c0.4,2.3,0.9,0.7,1.7,1.8s0.3,1.7,1.1,2.6c1.9,2.2,5.6,0,8-0.5
	c-0.6,1.5-5.6,2.9-6,4.5c-0.3,1.6,3.9,1.7,3,4.5c1.4,1.1,3.3,0.4,4.8,0.6s2.7,1.1,4.8,0.7c-1.2,1.6-3.5,3.3-3.7,5.6
	c1.6,0,2.8,1,2,2.8c1,0.4,2,0.4,3,0c0.3,0.4,0.4,1,0.4,1.5c0.6-1.2,0.7-2.7,0.3-4l-0.7-0.7c1.9,0.4,3.3,1.9,3.8,3.7
	c0.3,1.1-0.7,3.4,0,4.2c1.2,1.7,7,0.7,8.7,1.2s2.4,1.7,3.7,2.1c1.3,0.5,4.3,0.7,3.8,3s-3.4,1.5-0.7,2.8c1.8,0.8,3.9,0.1,5-1.5
	c1.4,0,1.5,1.6,1.6,2.7c1,0,1.4-1.2,2.2-1.4c0.8-0.1,1.6-0.1,2.4,0c0.8,0,1.4-1.2,2.3-1.4s1.9,0.4,2.8,0.3s2-1,2.4-1l1.6,0.6
	c1.4,0,3.4-1.9,3.9,0.7c1.6,0.5,1.4-1.1,2.5-1.4c1.2-0.3,1.4,0.4,2.4,0.7s2.7,0,3.5,1c2.5,0,5.6-0.5,8.1-0.3l3.6-1.3
	c1.1-0.4,2.6,0,3.7,0c2-0.7,1.7-2.3,3.9-2.9s4.9-2.3,8-1.2c0.8,0.2,1.5,0.5,2.2,0.9l0.6,1.4h1.5c0.7,0.6,1.5,1.1,2.4,1.5h3.9
	c1.5,0,3.1,0.1,4.6,0.3c0.3,0.3,0.7,0.6,1.2,0.8c0.6,0.1,0.7-1,1.7-0.5s0.3,2.6,2.9,2.8s1.7-1.2,3.3-2.3s2.1,1.5,4.3,1.5
	c0.3-1.1,0.3-2.4,0-3.5l-2.6-2.5h-1.9c-0.6,0,0-1.2,0-1.5c0-0.2-2.5,0-3.3-1.5c-1.6-3.3,4.3-1,5.6-0.5c1.4,0.5,2.1,1.6,3.7,1.1
	s1.7-3.4,3.5-0.7c0.5-3.4,6.8,1.1,4-4.3c3.4-0.8,0-2.5,0-3.7c0-2.4,2-1.9,3.3-2.2c3.1-0.7,3.7-2.3,3.8-5.6c-0.1-1.3,0.3-2.6,1.1-3.7
	c1.1-1.8,0.6-1.5,2.6-2h1.2c0.9,0,1.2-0.8,1.9-1.1s2.8-0.7,3.2-1.6C315.7,363,309.9,363.8,308.5,363.3L308.5,363.3z"/>
<path class="st0" d="M344,312.7c-1.6-0.8-3.1-1.7-4.6-2.8c-1.1-0.7-1.9-0.6-2.5-2.3c-1.7-4.3,3.7-1.9,6.3-1.9c1,0,2.4,0.5,2.9-0.5
	c0.6-0.9-1-2.7-2-3.1c0.6-1.2,0.8-2.5,0.5-3.8c-1-2.4-1.8,0-3.4-0.6c-1.2-0.2-2-1.4-1.8-2.6c0-0.1,0-0.2,0.1-0.2
	c0.5-1.7,1.2-1,2.7-1.6c0.6,0,0.7-1,1.5-1.1s1.6,0.7,2.3,0.6c1.3-0.1,2.4-1.1,2.5-2.4c0-2.4-1.4-1-2.7-1.4c-1.4-0.5-1.1-1.4-2-2.4
	c-0.8-1.1-5.6-2.3-3.7-5.6c0.6-0.8,2.1-0.6,2.5-1.7s-0.5-1.7-0.6-2.4c-0.5-2-0.3-3.2-2.4-4.2c-1.6-0.8-3.4-1.3-5.2-1.4
	c-1.6,0-2.6,2.5-4.6,0.3c-1-1.1,0-2.9-0.8-3.8c-0.8-1-3.5,0-4.5,0s-3.4,0.4-4.2-0.4v-1.5l-1-1.5c-0.4-1.6,1.2-1.8,1-3.4
	s-3-2-3.5-3.4l-0.3,0.5v-0.7c0.8-1.5,1-3.2,0.5-4.8c-2.5,0.6-5.1-0.2-6.9-2c-0.5-0.5,0-1.2-0.7-1.7c-0.6-0.5-1.3-0.9-2.1-1.2
	c-1.7-1.2-1.4-1.2-1.7-2.8c0.3-0.4,0.5-0.8,0.5-1.3c-0.2-0.6-1.5-1.3-2.7-1.6s-2.7,0-3.4-1.6s0.8-2.9,0.5-3.4s-2.7-0.7-3.7,0
	c-3-2.4,1.6-3.9,1.4-5.6s-3.3-2.2-4.9-2s-1.7,0.8-3,1.2c-2.7,0.8-4.4-1.8-6.6-2.7c-1.4-0.5-2.7-1.2-3.9-2.1c-1.1-0.7-3-1.9-4.3-1.2
	s-0.4,2.4-1.1,3.4s-2.5,0-4.1,1.4s-1,3.8-2.9,2.1c-1.1-0.9,0-3.4-2.3-3.4c-1.4,0-3.4,2.1-4.6,2.6s-2.5,0-3.8,0.5
	c-1.2,0.4-2.4,1-3.5,1.6c-1.1,0.6-2.2,1.1-3.4,1.5c-2.1,0.5-2.5,0-4.1,1.5c-1,1-1.7,2.3-2,3.7c-0.6,1.6-0.4,2.1-2.5,2.5
	c-1.3,0.3-2.7,0-3.8-0.8c-0.7,4.1-2.5,1-4.9,3.3c-1,0.9-0.7,1.8-1,3c-0.5,2.4-0.7,1.4-2.7,2.2s-2.3,4.4-1.7,7s2.3,3.5-0.6,4.4
	c-1.4,0.6-3,0-3.7-1.4c-0.5-0.8,0-8.6-3-4.4c-0.8,1.1,0,2.7,0,3.8c-0.8,2.3-2.8,1-3.5,2.5s1,2.4,0.4,3.5s-3.2,0.5-4.3,1.2
	s-0.7,1.3-1.7,1.7c-0.8,0.2-1.5,0.2-2.3,0c-0.6,0-1.4,0-1.2,2.1c0,3,1.6,2-1.6,3.4c-0.7,0.3-1,1-1.9,1.3s-2.3-0.5-2.8,0.7
	c-0.6,1.2,1.1,1.8,1.2,2.5c0.1,0.6,0.1,1.2,0,1.8c0,1.1-1.6,0-0.7,1.7c0.4,1,2.5,1.4,3.4,2c-0.5,1.2-0.7,2.5-0.6,3.8
	c0,1,0.8,1.4,1,2.1c0.1,0.8,0.1,1.5,0,2.3c0,0.6,2.2,1.6,2.4,2.6c0.3,0.8,0,1.8-0.7,2.3c-0.8,0.6-2,0-2.8,0l-0.7,1.5
	c-1.9,1.4-4.4,0.5-5.6,2.4c-0.7,1-0.4,2.4-1.3,3.5s-2.9,0.4-3.4,2.1c-0.8,2.9,3.8,1.7,4.6,3.8c0.3,0.8-0.3,2,0,2.8
	c0.4,2.3,0.9,0.7,1.7,1.8s0.4,1.7,1.1,2.6c1.9,2.2,5.6,0,8-0.5c-0.6,1.5-5.6,2.9-6,4.5c-0.3,1.6,3.9,1.7,3,4.6
	c1.3,1.1,3.3,0.3,4.8,0.6c1.5,0.6,3.2,0.8,4.8,0.6c-1.2,1.6-3.5,3.3-3.7,5.6c1.6,0,2.8,1.1,2.1,2.8c1,0.4,2,0.4,3,0
	c0.3,0.4,0.5,0.9,0.5,1.4c0.6-1.2,0.7-2.6,0.3-3.9l-0.7-0.7c1.9,0.4,3.3,1.9,3.8,3.7c0,1.1-0.7,3.4,0,4.2c1.2,1.7,7,0.7,8.7,1.2
	s2.4,1.6,3.7,2.1s4.3,0.7,3.8,3c-0.6,2.3-3.4,1.5-0.7,2.8c1.8,0.8,3.9,0.1,5-1.5c1.4,0,1.5,1.6,1.6,2.7c1,0,1.4-1.1,2.2-1.4
	c0.8-0.1,1.6-0.1,2.4,0c0.8,0,1.4-1.2,2.3-1.4s1.9,0.4,2.8,0c0.8-0.4,1.6-0.7,2.4-1l1.6,0.6c1.4,0,3.4-1.9,3.9,0.7
	c1.6,0.5,1.4-1.1,2.5-1.4c1.2-0.3,1.4,0.4,2.4,0.7s2.7,0.3,3.5,1c2.5,0,5.6-0.4,8.1-0.3l3.6-1.2c1.2-0.5,2.6,0,3.8,0
	c1.1,0,1.6-2.3,3.9-2.9s4.9-2.3,8.1-1.1c0.7,0.2,1.4,0.5,2.1,0.8l0.6,1.5h1.5c0.7,0.6,1.5,1.1,2.4,1.5h3.9c1.5,0,3.1,0.1,4.6,0.4
	c0.3,0,0.7,0.7,1.2,0.7s0.7-1,1.7-0.5s0.3,2.5,2.9,2.8c2.6,0.2,1.7-1.2,3.3-2.3c2.4-1.7,2.1,1.5,4.4,1.5c0.1-1.2,0-2.4-0.3-3.5
	l-1.9-2.2h-2c-0.6,0,0-1.2,0-1.4s-2.5,0-3.3-1.5c-1.6-3.3,4.2-1,5.6-0.5s2.1,1.6,3.7,1.1s1.7-3.4,3.5-0.7c0.5-3.4,6.7,1.1,3.9-4.4
	c3.4-0.8,0-2.5,0-3.7c0-2.4,2-1.9,3.3-2.1c3.1-0.7,3.7-2.3,3.8-5.6c-0.1-1.3,0.3-2.6,1.1-3.7c1-1.8,0.6-1.5,2.6-2h1.2
	c0.9,0,1.2-0.8,1.9-1.1s2.8-0.7,3.2-1.5C351.3,312.3,345.5,313.2,344,312.7z"/>
<path class="st0" d="M402.1,221.8c-1.6-0.7-3.2-1.7-4.6-2.8c-1.2-0.7-1.9-0.6-2.5-2.2c-1.7-4.3,3.7-1.9,6.3-1.9
	c0.9,0,2.4,0.4,2.9-0.5c0.6-0.8-1.1-2.7-2-3.1c0.6-1.2,0.8-2.5,0.5-3.8c-1-2.4-1.8,0-3.5-0.6c-1.2-0.3-2-1.6-1.7-2.8v-0.2
	c0.5-1.7,1.2-1,2.6-1.5s0.8-1,1.5-1.1c0.7-0.2,1.7,0.7,2.3,0.6c1.3-0.1,2.4-1.2,2.4-2.5c0-2.4-1.3-1-2.6-1.4c-1.4-0.4-1.1-1.4-2-2.4
	c-0.8-1-5.6-2.4-3.7-5.6c0.6-0.8,2.1-0.7,2.4-1.8s-0.5-1.6-0.6-2.3c-0.5-2.1-0.3-3.3-2.4-4.2c-1.6-0.8-3.4-1.3-5.2-1.4
	c-1.5,0-2.6,2.5-4.6,0c-1-1.1,0-2.9-0.8-3.8s-3.5,0-4.5,0s-3.5,0.5-4.2-0.4v-1.6l-1.1-1.4c-0.4-1.7,1.2-1.9,1.1-3.5
	c-0.2-1.6-3-2-3.5-3.4l-0.4,0.5V166c0.8-1.5,1-3.2,0.5-4.8c-2.5,0.6-5.2-0.2-7-2c-0.4-0.5,0-1.1-0.7-1.7c-0.7-0.5-1.4-0.9-2.1-1.2
	c-1.7-1.1-1.4-1.2-1.7-2.7c0.3-0.4,0.5-0.9,0.5-1.4c-0.2-0.6-1.5-1.2-2.7-1.6c-1.2-0.3-2.8,0-3.4-1.6s0.8-2.9,0.5-3.3
	s-2.7-0.7-3.7-0.3c-3-2.4,1.5-3.9,1.4-5.6c-0.2-1.7-3.3-2.3-4.9-2.1s-1.7,0.8-3,1.3c-2.8,0.8-4.4-1.9-6.6-2.7
	c-1.4-0.6-2.7-1.3-3.9-2.2c-1.1-0.7-3.1-1.9-4.3-1.2s-0.4,2.5-1.2,3.4s-2.5,0-4.1,1.4s-1,3.8-2.9,2.1c-1.1-1,0-3.4-2.3-3.5
	c-1.3,0-3.3,2.1-4.6,2.7c-1.2,0.6-2.5,0-3.8,0.5c-1.2,0.5-2.4,1-3.5,1.7c-1.1,0.6-2.2,1-3.4,1.4c-2.1,0.5-2.5,0-4.1,1.5
	c-1,1-1.7,2.3-2,3.7c-0.6,1.6-0.4,2.1-2.5,2.5c-1.3,0.3-2.7,0-3.8-0.8c-0.7,4-2.5,0.9-4.8,3.3c-1,1-0.7,1.9-1,3
	c-0.5,2.5-0.7,1.4-2.7,2.2s-2.3,4.4-1.7,7s2.3,3.5-0.6,4.5c-1.4,0.5-3-0.1-3.7-1.4c-0.5-0.8,0-8.6-3-4.4c-0.7,1,0,2.6,0,3.8
	c-0.8,2.3-2.8,1.1-3.5,2.5c-0.7,1.5,1,2.4,0.3,3.5s-3.1,0.6-4.2,1.2s-0.7,1.4-1.7,1.7c-1,0.4-1.7-0.3-2.3,0s-1.4,0.3-1.2,2.1
	c0,3.1,1.6,2-1.6,3.5c-0.7,0.3-1,1-1.9,1.3s-2.3-0.5-2.8,0.7c-0.6,1.2,1,1.7,1.2,2.4c0.1,0.6,0.1,1.2,0,1.8c0,1.2-1.6,0-0.7,1.7
	c0.4,1,2.5,1.4,3.4,2c-0.5,1.2-0.7,2.5-0.6,3.8c0,1,0.8,1.4,1.1,2.1c0.1,0.8,0.1,1.5,0,2.3c0,0.7,2.1,1.6,2.4,2.6
	c0.3,0.8,0,1.8-0.7,2.3c-0.8,0.6-2-0.3-2.8,0l-0.7,1.5c-1.9,1.5-4.4,0.5-5.6,2.4c-1.2,1.9-0.4,2.4-1.4,3.5s-2.9,0.5-3.4,2.1
	c-0.8,2.9,3.7,1.7,4.6,3.8c0.1,0.9,0.1,1.9,0,2.8c0.4,2.4,0.9,0.7,1.7,1.9c0.8,1.1,0.3,1.7,1.1,2.6c1.9,2.2,5.6,0,8-0.5
	c-0.6,1.5-5.6,2.9-6,4.4c-0.3,1.5,3.9,1.7,3,4.6c1.4,1.1,3.3,0.3,4.8,0.6c1.5,0.6,3.2,0.8,4.8,0.6c-1.2,1.7-3.5,3.3-3.7,5.6
	c1.6,0,2.8,1.1,2,2.8c1,0.4,2,0.4,3,0c0.3,0.4,0.4,0.9,0.4,1.4c0.6-1.2,0.7-2.6,0.3-3.9l-0.7-0.7c1.8,0.5,3.2,1.9,3.8,3.7
	c0,1.1-0.7,3.3,0,4.2c1.2,1.8,7,0.7,8.7,1.2s2.4,1.6,3.7,2.1s4.3,0.6,3.8,3s-3.4,1.4-0.7,2.7c1.8,0.8,3.9,0.2,5-1.5
	c1.4,0,1.5,1.6,1.6,2.6c1,0,1.4-1.1,2.2-1.4c0.8-0.1,1.6-0.1,2.4,0c0.8,0,1.4-1.2,2.3-1.5c0.9-0.2,1.9,0.5,2.8,0
	c0.7-0.4,1.6-0.7,2.4-0.9l1.6,0.6c1.4,0,3.4-2,3.9,0.7c1.6,0.4,1.4-1.2,2.5-1.5c1.2-0.3,1.4,0.4,2.4,0.7s2.7,0.3,3.5,1.1
	c2.5,0,5.6-0.4,8.1-0.3l3.6-1.2c1.1-0.4,2.6,0,3.7,0c2-0.7,1.7-2.3,3.9-2.9c2.3-0.6,4.9-2.2,8-1.1c0.8,0.2,1.5,0.5,2.2,0.8l0.6,1.5
	h1.5c0.7,0.6,1.5,1.1,2.4,1.4h3.9c1.5,0,3.1,0.1,4.6,0.4c0.3,0.3,0.7,0.6,1.2,0.8c0.5,0.1,0.7-1,1.7-0.5s0.3,2.5,2.9,2.8
	c2.6,0.2,1.7-1.2,3.3-2.3s2.1,1.5,4.3,1.4c0.3-1.1,0.3-2.4,0-3.5l-2-2.1h-1.9c-0.5,0,0-1.2,0-1.5c0-0.2-2.5,0-3.3-1.5
	c-1.6-3.3,4.3-1,5.6-0.5c1.4,0.5,2,1.7,3.7,1.1s1.7-3.3,3.5-0.7c0.5-3.4,6.8,1.1,4-4.3c3.4-0.8,0-2.5,0-3.8c0-2.4,2-1.9,3.3-2.1
	c3.1-0.7,3.7-2.3,3.8-5.6c-0.1-1.3,0.3-2.6,1.1-3.7c1.1-1.8,0.6-1.6,2.6-2.1h1.2c0.9,0,1.2-0.8,1.9-1.1s2.8-0.7,3.2-1.5
	C409.4,221.5,403.6,222.3,402.1,221.8L402.1,221.8z"/>
<path class="st0" d="M308.5,168.2c-1.6-0.8-3.1-1.7-4.6-2.8c-1.2-0.7-1.9-0.6-2.5-2.2c-1.7-4.3,3.7-1.9,6.3-1.9
	c0.9,0,2.4,0.5,2.9-0.5c0.6-0.9-1.1-2.7-2-3.1c0.6-1.2,0.8-2.5,0.5-3.8c-1-2.4-1.8,0-3.5-0.6c-1.2-0.3-2-1.4-1.7-2.6c0,0,0,0,0-0.1
	c0-0.1,0-0.1,0.1-0.2c0.5-1.7,1.2-1,2.6-1.6s0.8-1,1.5-1.1s1.7,0.7,2.3,0.6c1.3-0.1,2.3-1.1,2.4-2.4c0-2.4-1.3-1-2.6-1.4
	c-1.4-0.5-1.1-1.4-2-2.4c-0.8-1.1-5.6-2.3-3.7-5.6c0.6-0.8,2.1-0.6,2.4-1.7s-0.5-1.6-0.6-2.3c-0.5-2.1-0.3-3.3-2.4-4.2
	c-1.6-0.8-3.4-1.3-5.2-1.5c-1.5,0-2.6,2.5-4.6,0.3c-1-1.1,0-2.9-0.8-3.8c-0.8-1-3.5,0-4.5,0s-3.5,0.4-4.2-0.4v-1.6l-1.1-1.5
	c-0.4-1.6,1.2-1.8,1.1-3.4c-0.2-1.6-3-2-3.5-3.4l-0.4,0.5v-0.7c0.8-1.5,1-3.2,0.5-4.8c-2.5,0.6-5.2-0.2-7-2c-0.4-0.5,0-1.2-0.7-1.7
	s-1.5-0.8-2.1-1.2c-1.7-1.2-1.4-1.2-1.7-2.7c0.3-0.4,0.5-0.9,0.5-1.4c-0.2-0.6-1.5-1.3-2.7-1.6s-2.7,0-3.4-1.6s0.8-2.9,0.5-3.4
	s-2.7-0.7-3.7,0c-3-2.4,1.5-3.9,1.4-5.6c-0.2-1.7-3.3-2.2-4.9-2s-1.7,0.8-3,1.2c-2.8,0.8-4.4-1.8-6.6-2.7c-1.4-0.5-2.7-1.2-3.9-2.1
	c-1.1-0.7-3.1-1.9-4.3-1.2s-0.4,2.4-1.2,3.4s-2.5,0-4.1,1.4s-1,3.8-2.9,2.1c-1.1-1,0-3.4-2.3-3.5c-1.3,0-3.3,2.1-4.6,2.6
	c-1.2,0.5-2.5,0-3.8,0.5c-1.2,0.4-2.4,1-3.5,1.7c-1.1,0.6-2.2,1-3.4,1.4c-2.1,0.5-2.5,0-4.1,1.5c-1,1-1.7,2.3-2,3.7
	c-0.6,1.6-0.4,2.1-2.5,2.5c-1.3,0.3-2.7,0-3.8-0.8c-0.7,4.1-2.5,1-4.8,3.3c-1,0.9-0.7,1.8-1,3c-0.5,2.4-0.7,1.4-2.7,2.2
	s-2.3,4.4-1.7,7s2.3,3.5-0.6,4.4c-1.5,0.6-3.3-0.1-3.9-1.7c0,0,0,0,0,0l0,0c-0.5-0.8,0-8.6-3-4.4c-0.7,1.1,0,2.7,0,3.8
	c-0.8,2.3-2.8,1-3.5,2.5s1,2.4,0.3,3.5s-3.1,0.6-4.2,1.2s-0.7,1.3-1.7,1.7c-0.8,0.2-1.5,0.2-2.3,0c-0.6,0-1.4,0-1.2,2.1
	c0,3.1,1.6,2-1.6,3.4c-0.7,0.3-1,1-1.9,1.3s-2.3-0.5-2.8,0.7c-0.6,1.2,1,1.8,1.2,2.5c0.1,0.6,0.1,1.2,0,1.8c0,1.2-1.6,0-0.7,1.7
	c0.4,1,2.5,1.4,3.4,2c-0.5,1.2-0.7,2.5-0.6,3.8c0,1,0.8,1.4,1.1,2.1c0.1,0.8,0.1,1.5,0,2.3c0,0.7,2.2,1.6,2.4,2.6
	c0.3,0.8,0,1.8-0.7,2.3c-0.8,0.6-2,0-2.8,0l-0.7,1.5c-1.9,1.5-4.4,0.5-5.6,2.4s-0.4,2.4-1.4,3.5s-2.9,0.4-3.4,2.1
	c-0.8,2.9,3.7,1.7,4.6,3.8c0.3,0.8-0.3,2,0,2.8c0.4,2.4,0.9,0.7,1.7,1.8s0.3,1.8,1.1,2.6c1.9,2.2,5.6,0,8-0.5c-0.6,1.5-5.6,3-6,4.5
	c-0.3,1.5,3.9,1.7,3,4.6c1.4,1.1,3.3,0.3,4.8,0.6c1.5,0.6,3.2,0.8,4.8,0.6c-1.2,1.6-3.5,3.3-3.7,5.6c1.6,0,2.8,1.1,2,2.8
	c1,0.4,2,0.4,3,0c0.3,0.4,0.4,0.9,0.4,1.4c0.6-1.2,0.7-2.6,0.3-3.9l-0.7-0.7c1.8,0.5,3.3,1.9,3.8,3.7c0.3,1.1-0.7,3.3,0,4.2
	c1.2,1.7,7,0.7,8.7,1.2s2.4,1.6,3.7,2.1s4.3,0.7,3.8,3s-3.4,1.5-0.7,2.8c1.8,0.8,3.9,0.1,5-1.5c1.4,0.3,1.5,1.6,1.6,2.7
	c1,0,1.4-1.1,2.2-1.4c0.8-0.1,1.6-0.1,2.4,0c0.8,0,1.4-1.2,2.3-1.4s1.9,0.4,2.8,0c0.8-0.4,1.6-0.7,2.4-0.9l1.6,0.6
	c1.4,0,3.4-1.9,3.9,0.7c1.6,0.5,1.4-1.1,2.5-1.4c1.2-0.3,1.4,0.4,2.4,0.7s2.7,0,3.5,1c2.5,0,5.6-0.4,8.1-0.3l3.6-1.2
	c1.1-0.5,2.6,0,3.7,0c2-0.7,1.7-2.3,3.9-2.9c2.3-0.6,4.9-2.3,8-1.1c0.8,0.2,1.5,0.5,2.2,0.8l0.6,1.5h1.5c0.8,0.5,1.6,1,2.4,1.4h3.9
	c1.5,0,3.1,0.1,4.6,0.4c0.3,0.3,0.7,0.6,1.2,0.8c0.6,0.1,0.7-1.1,1.7-0.5s0.3,2.5,2.9,2.8c2.6,0.2,1.7-1.2,3.3-2.3s2.1,1.5,4.3,1.5
	c0.3-1.1,0.3-2.4,0-3.5l-2.5-2.3h-1.9c-0.6,0,0-1.2,0-1.4s-2.5,0-3.3-1.5c-1.6-3.3,4.3-1,5.6-0.5c1.4,0.5,2.1,1.6,3.7,1.1
	s1.7-3.4,3.5-0.7c0.5-3.4,6.8,1.1,4-4.4c3.4-0.8,0-2.5,0-3.7c0-2.4,2-1.9,3.3-2.1c3.1-0.7,3.7-2.3,3.8-5.6c-0.1-1.3,0.3-2.6,1.1-3.7
	c1.1-1.8,0.6-1.5,2.6-2h1.2c0.9,0,1.2-0.8,1.9-1.1s2.6-0.8,2.6-1.4C315.7,167.9,309.9,168.7,308.5,168.2L308.5,168.2z"/>
<path class="st3" d="M354.2,265.4c-1.6-0.7-3.2-1.7-4.6-2.8c-1.1-0.7-1.9-0.7-2.5-2.3c-1.7-4.3,3.7-1.9,6.3-1.9c1,0,2.4,0.5,3-0.5
	c0.6-0.9-1.1-2.7-2-3.1c0.6-1.2,0.7-2.5,0.5-3.8c-1-2.4-1.7,0-3.4-0.6c-1.2-0.3-2-1.5-1.8-2.7c0-0.1,0-0.1,0.1-0.2
	c0.5-1.7,1.3-1,2.7-1.5s0.7-1,1.5-1.1s1.7,0.7,2.3,0.6c1.3-0.1,2.3-1.1,2.4-2.4c0-2.4-1.4-1-2.6-1.4c-1.3-0.4-1.2-1.4-2-2.4
	c-0.8-1.1-5.6-2.3-3.6-5.6c0.6-0.8,2.1-0.6,2.4-1.7s-0.5-1.7-0.6-2.4c-0.5-2-0.3-3.2-2.4-4.2c-1.6-0.8-3.4-1.3-5.2-1.4
	c-1.5,0-2.6,2.5-4.6,0.3c-1-1.1,0-2.9-0.8-3.8s-3.4,0-4.4,0s-3.5,0.4-4.2-0.4v-1.6l-1-1.5c-0.4-1.6,1.2-1.8,1-3.4s-3-2-3.5-3.4
	l-0.5,0.3v-0.6c0.8-1.5,0.9-3.2,0.5-4.8c-2.6,0.6-5.3-0.2-7.2-2.1c-0.4-0.5,0-1.2-0.7-1.7c-0.6-0.5-1.3-0.9-2-1.2
	c-1.7-1.2-1.4-1.2-1.8-2.8c0,0,0.7-0.7,0.5-1.3s-1.5-1.3-2.6-1.6s-2.8,0-3.4-1.6s0.7-2.9,0.5-3.4c-0.3-0.5-2.7-0.7-3.6,0
	c-3-2.4,1.5-3.9,1.3-5.6s-3.3-2.3-4.8-2.1c-1.6,0.2-1.7,0.9-3,1.3c-2.7,0.8-4.3-1.8-6.6-2.7c-1.4-0.5-2.7-1.2-3.9-2.1
	c-1-0.7-3-1.9-4.3-1.2c-1.2,0.7-0.4,2.4-1.2,3.4s-2.5,0-4.1,1.4s-1,3.8-2.9,2.1c-1.1-0.9,0-3.4-2.3-3.4c-1.4,0-3.4,2.1-4.6,2.6
	s-2.5,0-3.8,0.5c-1.2,0.5-2.4,1-3.5,1.6c-1.1,0.6-2.2,1.1-3.4,1.5c-2,0.5-2.5,0-4.1,1.5c-0.9,1.1-1.6,2.3-2,3.7
	c-0.6,1.6-0.3,2.1-2.5,2.5c-1.3,0.3-2.7,0-3.8-0.8c-0.7,4.1-2.5,1-4.9,3.3c-0.9,0.9-0.7,1.8-0.9,3c-0.5,2.4-0.7,1.4-2.7,2.2
	s-2.3,4.4-1.7,7s2.3,3.5-0.6,4.4c-1.4,0.5-3-0.1-3.7-1.4c-0.5-0.8,0-8.6-3-4.4c-0.8,1,0,2.7,0,3.8c-0.8,2.4-2.8,1.1-3.5,2.5
	c-0.7,1.5,1.1,2.4,0.4,3.5s-3.1,0.6-4.2,1.2c-1.1,0.7-0.7,1.3-1.7,1.7c-0.8,0.2-1.5,0.2-2.3,0c-0.6,0-1.4,0-1.2,2
	c0,3.1,1.6,2.1-1.5,3.5c-0.8,0.3-1,1-2,1.3s-2.3-0.5-2.8,0.7c-0.6,1.2,1.1,1.8,1.2,2.4c0.1,0.6,0.1,1.3,0,1.9c0,1.1-1.5,0-0.7,1.7
	c0.5,1,2.6,1.4,3.4,2c-0.5,1.2-0.7,2.5-0.6,3.8c0,1,0.8,1.4,1,2.1c0.1,0.8,0.1,1.5,0,2.3c0,0.6,2.2,1.6,2.5,2.6
	c0.3,0.8,0,1.8-0.7,2.3c-0.7,0.6-2-0.3-2.7,0l-0.7,1.5c-1.8,1.4-4.4,0.5-5.6,2.4c-0.8,1-0.4,2.4-1.4,3.4c-1,1-2.9,0.5-3.4,2.2
	c-0.8,2.9,3.7,1.7,4.6,3.8c0.3,0.9-0.3,2,0,2.8c0.4,2.3,0.9,0.7,1.7,1.8s0.3,1.7,1.1,2.6c1.9,2.2,5.6,0,8-0.5
	c-0.6,1.5-5.6,2.9-6,4.5s4,1.7,3,4.5c1.3,1.1,3.3,0.4,4.8,0.6c1.6,0.2,2.6,1.1,4.7,0.7c-1.2,1.6-3.5,3.3-3.7,5.6
	c1.7,0,2.8,1,2.1,2.8c1,0.4,2,0.4,3,0c0.3,0.4,0.4,1,0.4,1.5c0.6-1.2,0.7-2.7,0.3-4l-0.7-0.7c1.8,0.5,3.2,1.9,3.7,3.7
	c0,1.1-0.6,3.4,0,4.2c1.2,1.7,7,0.7,8.7,1.2s2.4,1.7,3.7,2.1c1.3,0.5,4.3,0.7,3.8,3s-3.5,1.5-0.7,2.8c1.8,0.8,3.9,0.1,5-1.5
	c1.5,0,1.5,1.6,1.6,2.7c1,0,1.4-1.2,2.3-1.4c0.8-0.1,1.6-0.1,2.4,0c0.8,0,1.4-1.2,2.3-1.4s2,0.4,2.9,0.3s2-1,2.4-1l1.6,0.6
	c1.4,0,3.4-1.9,3.9,0.7c1.6,0.5,1.4-1.1,2.5-1.4s1.5,0.4,2.5,0.7c1.2,0.1,2.4,0.4,3.5,1c2.6,0,5.6-0.4,8.1-0.3l3.6-1.2
	c1.2-0.5,2.6,0,3.8,0s1.6-2.3,3.9-2.9s5-2.3,8.1-1.2c0.8,0.2,1.5,0.5,2.2,0.9l0.6,1.4h1.5c0.7,0.6,1.5,1.1,2.4,1.5h3.9
	c1.6,0,3.1,0.1,4.7,0.4c0.3,0.3,0.7,0.6,1.2,0.7c0.6,0.1,0.7-1,1.7-0.5s0.3,2.6,2.9,2.8s1.7-1.2,3.3-2.3c2.4-1.7,2.1,1.5,4.4,1.5
	c0.2-1.2,0.2-2.3,0-3.5l-2-2.2h-1.9c-0.6,0,0-1.2,0-1.5s-2.5,0-3.3-1.5c-1.6-3.3,4.2-1,5.6-0.5s2,1.6,3.7,1.1s1.7-3.4,3.5-0.7
	c0.5-3.4,6.8,1.1,3.9-4.4c3.4-0.8,0-2.5,0-3.7c0-2.4,2-1.9,3.2-2.2c3.2-0.7,3.8-2.3,3.8-5.6c-0.1-1.3,0.3-2.6,1.1-3.7
	c1-1.8,0.6-1.5,2.6-2h1.3c0.9,0,1.1-0.8,1.9-1.1c0.7-0.3,2.8-0.7,3.2-1.6C361.5,265,355.7,265.9,354.2,265.4L354.2,265.4z"/>
<path class="st3" d="M221.6,257.7c-1.6-0.8-3.1-1.7-4.6-2.8c-1.1-0.7-1.9-0.7-2.5-2.3c-1.7-4.3,3.7-1.9,6.3-1.9c1,0,2.4,0.5,2.9-0.5
	c0.6-0.9-1-2.7-2-3.1c0.6-1.2,0.8-2.5,0.5-3.8c-1-2.4-1.8,0-3.4-0.6c-1.2-0.3-2-1.5-1.8-2.7c0-0.1,0-0.1,0.1-0.2
	c0.5-1.7,1.2-1,2.6-1.5s0.8-1,1.6-1.1s1.6,0.6,2.3,0.6c1.3-0.1,2.3-1.1,2.4-2.4c0-2.5-1.3-1-2.6-1.4c-1.4-0.4-1.1-1.4-2-2.4
	c-0.8-1-5.6-2.3-3.7-5.6c0.6-0.8,2.1-0.7,2.4-1.8s-0.5-1.6-0.6-2.3c-0.5-2-0.3-3.2-2.4-4.2c-1.6-0.8-3.4-1.3-5.2-1.4
	c-1.5,0-2.6,2.5-4.6,0c-1-1.1,0-2.9-0.8-3.8s-3.5,0-4.5,0s-3.4,0.5-4.2-0.4v-1.6l-1-1.4c-0.5-1.6,1.2-1.8,1-3.5s-3-2-3.5-3.4
	l-0.4,0.5v-0.6c0.8-1.5,1-3.2,0.5-4.8c-2.5,0.5-5.1-0.3-7-2c-0.4-0.5,0-1.2-0.7-1.7c-0.6-0.5-1.3-0.9-2.1-1.2
	c-1.7-1.2-1.4-1.3-1.7-2.8c0.3-0.4,0.5-0.8,0.5-1.3c-0.2-0.6-1.5-1.3-2.7-1.6s-2.7,0-3.4-1.6s0.8-3,0.5-3.4s-2.7-0.7-3.7-0.3
	c-3-2.3,1.6-3.9,1.4-5.6s-3.3-2.3-4.9-2.1s-1.7,0.9-3,1.3c-2.7,0.8-4.4-1.8-6.6-2.7c-1.4-0.6-2.7-1.3-3.9-2.1
	c-1.1-0.7-3.1-2-4.3-1.2c-1.2,0.7-0.4,2.5-1.1,3.4c-0.7,1-2.5,0-4.2,1.4c-1.6,1.4-1,3.8-2.9,2.1c-1.1-1,0-3.4-2.3-3.4
	c-1.3,0-3.3,2.1-4.5,2.6c-1.2,0.6-2.5,0-3.9,0.5c-1.2,0.4-2.4,1-3.5,1.6c-1.1,0.6-2.2,1.1-3.4,1.4c-2.1,0.5-2.5,0-4.1,1.5
	c-1,1-1.7,2.3-2,3.7c-0.6,1.6-0.4,2.1-2.5,2.5c-1.3,0.3-2.7,0-3.8-0.8c-0.7,4.1-2.5,0.9-4.8,3.3c-1,1-0.7,1.9-1,3.1
	c-0.5,2.4-0.7,1.3-2.7,2.1s-2.3,4.4-1.7,7.1c0.6,2.6,2.3,3.4-0.6,4.4c-1.4,0.5-3-0.1-3.7-1.4c-0.5-0.8,0-8.5-3-4.4
	c-0.7,1,0,2.6,0,3.8c-0.8,2.3-2.8,1.1-3.5,2.5c-0.7,1.5,1,2.4,0.4,3.5s-3.2,0.6-4.3,1.2c-1.1,0.7-0.7,1.3-1.7,1.7
	c-0.8,0.2-1.5,0.2-2.3,0c-0.6,0-1.4,0.3-1.2,2.1c0,3.1,1.6,2.1-1.6,3.5c-0.7,0.3-1,1-1.9,1.3s-2.3-0.5-2.8,0.7
	c-0.6,1.2,1,1.7,1.2,2.4c0.1,0.6,0.1,1.3,0,1.9c0,1.1-1.6,0-0.7,1.7c0.4,1,2.5,1.5,3.4,2c-0.5,1.2-0.7,2.5-0.6,3.8
	c0,1,0.8,1.4,1,2.1c0.1,0.8,0.1,1.5,0,2.3c0,0.6,2.2,1.6,2.4,2.6c0.3,0.8,0,1.8-0.7,2.3c-0.8,0.6-2-0.3-2.8,0l-0.7,1.5
	c-1.9,1.4-4.4,0.5-5.6,2.4c-0.8,1-0.4,2.4-1.4,3.4c-1,1.1-2.9,0.5-3.4,2.1c-0.8,2.9,3.7,1.7,4.6,3.8c0.4,0.9-0.3,2,0,2.8
	c0.4,2.4,0.9,0.7,1.7,1.9c0.8,1.1,0.4,1.7,1.1,2.6c1.9,2.2,5.6,0,8-0.5c-0.6,1.5-5.6,2.9-6,4.4c-0.3,1.5,3.9,1.7,3,4.6
	c1.3,1.1,3.3,0.4,4.8,0.6c1.5,0.6,3.2,0.8,4.8,0.7c-1.2,1.6-3.5,3.3-3.7,5.6c1.6,0,2.8,1,2,2.8c1,0.4,2,0.4,3,0
	c0.3,0.4,0.4,0.9,0.5,1.4c0.6-1.2,0.7-2.6,0.3-3.9l-0.7-0.7c1.9,0.4,3.3,1.9,3.8,3.7c0.3,1.1-0.7,3.3,0,4.2c1.2,1.8,7,0.8,8.7,1.2
	c1.7,0.5,2.4,1.7,3.7,2.1c1.3,0.5,4.3,0.7,3.8,3s-3.4,1.4-0.7,2.8c1.8,0.8,3.9,0.1,5-1.5c1.4,0,1.5,1.6,1.6,2.6c1,0,1.4-1.1,2.2-1.4
	c0.8-0.1,1.6-0.1,2.4,0c0.8,0,1.4-1.2,2.3-1.5s1.9,0.5,2.8,0.3c0.9-0.1,2-1,2.4-1l1.6,0.6c1.4,0,3.4-2,3.9,0.7
	c1.6,0.5,1.4-1.1,2.5-1.5c1.2-0.3,1.4,0.4,2.4,0.7s2.7,0,3.5,1c2.5,0,5.6-0.5,8.1-0.4l3.6-1.2c1.2-0.4,2.6,0,3.8,0
	c2-0.7,1.6-2.3,3.9-2.8c2.3-0.6,4.9-2.3,8.1-1.2c0.7,0.2,1.5,0.5,2.1,0.9l0.6,1.4h1.5c0.7,0.6,1.5,1.1,2.4,1.5h3.9
	c1.5,0,3.1,0.1,4.6,0.3c0.3,0,0.7,0.7,1.2,0.8s0.7-1,1.7-0.5s0.3,2.6,2.9,2.8s1.7-1.2,3.3-2.3s2.1,1.5,4.4,1.4
	c0.1-1.2,0-2.4-0.3-3.5l-2-2.1h-1.9c-0.6,0,0-1.2,0-1.5c0-0.2-2.5,0-3.3-1.5c-1.6-3.3,4.3-1,5.6-0.6c1.4,0.4,2.1,1.7,3.7,1.2
	s1.7-3.4,3.5-0.7c0.5-3.4,6.7,1.1,3.9-4.3c3.4-0.8,0-2.5,0-3.8c0-2.4,2-1.9,3.3-2.1c3.1-0.7,3.7-2.3,3.8-5.6
	c-0.1-1.3,0.3-2.6,1.1-3.7c1.1-1.8,0.6-1.6,2.6-2.1h1.2c0.9,0,1.2-0.8,1.9-1.2c0.7-0.3,2.8-0.7,3.2-1.5
	C228.8,257.3,223,258.2,221.6,257.7z"/>
<path class="st2" d="M150.8,277c-1.6-0.7-3.2-1.7-4.6-2.8c-1.1-0.7-1.9-0.6-2.5-2.2c-1.7-4.3,3.7-1.9,6.3-1.9c1,0,2.4,0.5,2.9-0.5
	c0.6-0.9-1-2.7-2-3.1c0.6-1.2,0.8-2.5,0.5-3.8c-1-2.4-1.8,0-3.4-0.6c-1.2-0.2-2-1.4-1.8-2.6c0-0.1,0-0.2,0.1-0.2
	c0.5-1.7,1.2-1,2.7-1.6c0.6,0,0.7-1,1.5-1.1s1.6,0.7,2.3,0.6c1.3-0.1,2.3-1.1,2.4-2.4c0-2.4-1.4-1-2.6-1.4c-1.3-0.5-1.2-1.4-2-2.4
	s-5.6-2.3-3.6-5.6c0.6-0.8,2-0.6,2.4-1.7s-0.5-1.6-0.6-2.4c-0.5-2-0.3-3.2-2.4-4.2c-1.6-0.8-3.4-1.3-5.2-1.4c-1.6,0-2.6,2.5-4.6,0.3
	c-1-1.1,0-2.9-0.8-3.8c-0.8-1-3.4,0-4.5,0s-3.4,0.4-4.2-0.4v-1.6l-1-1.5c-0.4-1.6,1.2-1.8,1-3.4s-3-2-3.5-3.4l-0.3,0.5v-0.7
	c0.8-1.5,1-3.2,0.5-4.8c-2.5,0.6-5.1-0.2-6.9-2c-0.4-0.5,0-1.2-0.7-1.7s-1.5-0.8-2.1-1.2c-1.7-1.2-1.4-1.2-1.7-2.8
	c0,0,0.7-0.7,0.5-1.3s-1.5-1.3-2.7-1.6s-2.7,0-3.4-1.6c-0.7-1.6,0.8-2.9,0.5-3.4s-2.7-0.7-3.7,0c-3-2.4,1.6-3.9,1.4-5.6
	s-3.3-2.2-4.8-2c-1.6,0.2-1.7,0.8-3,1.2c-2.7,0.8-4.4-1.8-6.6-2.7c-1.4-0.5-2.7-1.2-3.9-2.1c-1-0.7-3-1.9-4.3-1.2s-0.4,2.4-1.1,3.4
	s-2.5,0-4.1,1.4s-1,3.8-2.9,2.1c-1.1-0.9,0-3.4-2.3-3.4c-1.4,0-3.4,2.1-4.6,2.6s-2.5,0-3.8,0.5c-1.2,0.4-2.4,1-3.5,1.7
	c-1.1,0.6-2.2,1-3.4,1.4c-2.1,0.5-2.5,0-4.1,1.5c-1,1-1.7,2.3-2,3.7c-0.6,1.6-0.4,2.1-2.5,2.5c-1.4,0.3-2.9-0.2-3.9-1.2
	c-0.7,4.1-2.5,1-4.9,3.3c-1,0.9-0.7,1.8-0.9,3c-0.5,2.4-0.7,1.4-2.7,2.2s-2.4,4.4-1.7,7c0.6,2.6,2.3,3.5-0.5,4.4
	c-1.4,0.6-3,0-3.7-1.4c-0.5-0.8,0-8.6-3-4.4c-0.8,1.1,0,2.7,0,3.8c-0.8,2.3-2.8,1-3.5,2.5s1,2.4,0.4,3.5s-3.1,0.5-4.2,1.2
	s-0.7,1.3-1.7,1.7c-0.8,0.2-1.5,0.2-2.3,0c-0.6,0-1.4,0-1.2,2.1c0,3.1,1.6,2-1.6,3.4c-0.7,0.3-1,1-1.9,1.3c-1,0.3-2.3-0.5-2.8,0.7
	c-0.6,1.2,1.1,1.8,1.2,2.5c0.1,0.6,0.1,1.2,0,1.8c0,1.2-1.6,0-0.7,1.7c0.5,1,2.5,1.4,3.4,2c-0.5,1.2-0.7,2.5-0.6,3.8
	c0,1,0.8,1.4,1,2.1c0.1,0.8,0.1,1.5,0,2.3c0,0.6,2.2,1.6,2.5,2.6c0.2,0.8,0,1.7-0.7,2.3c-0.8,0.6-2,0-2.7,0l-0.7,1.5
	c-1.9,1.5-4.4,0.5-5.9,2.4c-0.7,1-0.4,2.4-1.3,3.5s-2.9,0.4-3.4,2.1c-0.9,2.9,3.7,1.7,4.6,3.8c0.3,0.8-0.3,2,0,2.8
	c0.5,2.3,0.9,0.7,1.7,1.8s0.4,1.7,1.1,2.6c1.9,2.2,5.6,0,7.9-0.5c-0.6,1.5-5.6,2.9-6,4.5c-0.3,1.6,3.9,1.7,3,4.6
	c1.3,1.1,3.3,0.3,4.8,0.6c1.5,0.6,3.2,0.8,4.8,0.6c-1.2,1.6-3.5,3.3-3.7,5.6c1.6,0.3,2.8,1.1,2.1,2.8c1,0.4,2,0.4,3,0
	c0.3,0.4,0.5,0.9,0.5,1.4c0.6-1.2,0.7-2.6,0.3-3.9l-0.7-0.7c1.8,0.5,3.3,1.9,3.8,3.7c0,1.1-0.7,3.3,0,4.2c1.2,1.7,7,0.7,8.7,1.2
	s2.4,1.6,3.7,2.1c1.2,0.5,4.3,0.7,3.8,3s-3.5,1.5-0.7,2.8c1.8,0.8,3.9,0.1,5-1.5c1.4,0,1.5,1.6,1.6,2.7c1,0,1.4-1.1,2.2-1.4
	c0.8-0.1,1.6-0.1,2.4,0c0.8,0,1.4-1.2,2.3-1.4s1.9,0.4,2.8,0.3s2.1-1,2.4-1l1.6,0.6c1.4,0,3.4-1.9,3.9,0.7c1.6,0.5,1.4-1.1,2.5-1.4
	c1.2-0.3,1.5,0.4,2.5,0.7s2.6,0,3.4,1c2.5,0,5.6-0.4,8.1-0.3l3.6-1.2c1.2-0.5,2.6,0,3.8,0c1.1,0,1.6-2.3,3.9-2.9s4.9-2.3,8.1-1.1
	c0.7,0.2,1.4,0.5,2.1,0.8l0.6,1.5h1.5c0.8,0.5,1.6,1,2.4,1.4h3.9c1.5,0,3.1,0.1,4.6,0.4c0.3,0,0.7,0.7,1.3,0.8s0.7-1.1,1.7-0.5
	s0.3,2.5,2.9,2.8c2.6,0.2,1.7-1.2,3.3-2.3c2.4-1.7,2.1,1.5,4.4,1.5c0.1-1.2,0-2.4-0.3-3.5l-1.9-2.2h-2c-0.6,0,0-1.2,0-1.4
	s-2.5,0-3.3-1.5c-1.6-3.3,4.2-1,5.6-0.5s2.1,1.6,3.7,1.1s1.7-3.4,3.5-0.7c0.5-3.4,6.7,1.1,3.9-4.4c3.4-0.8,0-2.5,0-3.7
	c0-2.4,1.9-1.9,3.2-2.1c3.2-0.7,3.7-2.3,3.8-5.6c-0.1-1.3,0.3-2.6,1.1-3.7c1-1.8,0.6-1.5,2.6-2h1.3c0.9,0,1.1-0.8,1.9-1.1
	c0.7-0.3,2.8-0.7,3.2-1.5C158.2,276.6,152.4,277.5,150.8,277L150.8,277z"/>
<path class="st4" d="M257.3,139.4c-1.6-0.8-3.1-1.7-4.6-2.8c-1.1-0.7-1.9-0.7-2.5-2.3c-1.7-4.3,3.7-1.9,6.3-1.9c1,0,2.4,0.5,2.9-0.5
	c0.6-0.9-1-2.7-2-3.1c0.6-1.2,0.8-2.5,0.5-3.8c-1-2.3-1.8,0-3.4-0.6c-1.2-0.2-2-1.4-1.8-2.6c0-0.1,0-0.2,0.1-0.3
	c0.5-1.7,1.2-1,2.6-1.5c1.4-0.6,0.8-1,1.6-1.1s1.6,0.7,2.3,0.6c1.3-0.1,2.3-1.1,2.4-2.4c0-2.4-1.3-1-2.6-1.4c-1.4-0.5-1.1-1.4-2-2.4
	c-0.8-1.1-5.6-2.3-3.7-5.6c0.6-0.8,2.1-0.6,2.5-1.7c0.4-1.1-0.5-1.7-0.6-2.4c-0.5-2-0.3-3.2-2.4-4.2c-1.6-0.8-3.4-1.3-5.2-1.4
	c-1.5,0-2.6,2.5-4.6,0.3c-1-1.1,0-2.9-0.8-3.8c-0.8-1-3.5,0-4.5,0s-3.4,0.4-4.2-0.4v-1.6l-1-1.5c-0.5-1.6,1.2-1.8,1-3.4
	s-3-2-3.5-3.4l-0.4,0.5V84c0.8-1.5,1-3.2,0.5-4.8c-2.5,0.5-5.1-0.2-7-2c-0.4-0.5,0-1.2-0.7-1.7c-0.6-0.5-1.3-0.9-2.1-1.2
	c-1.7-1.2-1.4-1.2-1.7-2.8c0.3-0.4,0.5-0.8,0.5-1.3c-0.2-0.6-1.5-1.3-2.7-1.6s-2.7,0-3.4-1.6s0.8-2.9,0.5-3.4s-2.7-0.7-3.7,0
	c-3-2.4,1.6-3.9,1.4-5.6s-3.3-2.2-4.9-2s-1.7,0.8-3,1.2c-2.7,0.8-4.4-1.8-6.6-2.7c-1.4-0.5-2.7-1.2-3.9-2.1c-1.1-0.7-3-1.9-4.3-1.2
	s-0.4,2.4-1.1,3.4s-2.5,0-4.2,1.4c-1.6,1.4-1,3.8-2.9,2.1s0-3.4-2.3-3.4c-1.3,0-3.3,2.1-4.5,2.6s-2.5,0-3.9,0.5
	c-1.2,0.5-2.4,1-3.5,1.6c-1.1,0.6-2.2,1.1-3.4,1.5c-2.1,0.5-2.5,0-4.1,1.5c-1,1-1.7,2.3-2,3.7c-0.6,1.6-0.4,2.1-2.5,2.5
	c-1.3,0.3-2.7,0-3.8-0.8c-0.7,4.1-2.5,1-4.9,3.3c-1,0.9-0.7,1.8-1,3c-0.5,2.4-0.7,1.4-2.7,2.2s-2.3,4.4-1.7,7s2.3,3.5-0.6,4.4
	c-1.4,0.6-3,0-3.7-1.4c-0.5-0.8,0-8.6-3-4.4c-0.7,1.1,0,2.7,0,3.8c-0.8,2.3-2.8,1-3.5,2.5s1,2.4,0.4,3.5s-3.2,0.5-4.3,1.2
	s-0.7,1.3-1.7,1.7s-1.7-0.3-2.3,0s-1.4,0-1.2,2.1c0,3,1.6,2-1.6,3.4c-0.7,0.3-1,1-1.9,1.3s-2.3-0.5-2.8,0.7c-0.6,1.2,1,1.8,1.2,2.5
	c0.1,0.6,0.1,1.2,0,1.8c0,1.1-1.6,0-0.7,1.7c0.4,1,2.5,1.4,3.4,2c-0.5,1.2-0.7,2.5-0.6,3.8c0,1,0.8,1.4,1,2.1c0.1,0.8,0.1,1.5,0,2.3
	c0,0.6,2.2,1.6,2.4,2.6c0.3,0.8,0,1.8-0.7,2.3c-0.8,0.6-2-0.3-2.8,0l-0.7,1.5c-1.9,1.4-4.4,0.5-5.9,2.4c-0.8,1-0.4,2.4-1.3,3.4
	s-2.9,0.5-3.4,2.2c-0.8,2.9,3.7,1.7,4.6,3.8c0.4,0.8-0.3,2,0,2.8c0.4,2.3,0.9,0.7,1.7,1.8c0.8,1.1,0.4,1.7,1.1,2.6
	c1.9,2.2,5.6,0,8-0.5c-0.6,1.5-5.6,2.9-6,4.5c-0.3,1.6,3.9,1.7,3,4.6c1.3,1.1,3.3,0.3,4.8,0.6c1.5,0.6,3.2,0.8,4.8,0.6
	c-1.2,1.6-3.5,3.3-3.7,5.6c1.6,0,2.8,1.1,2,2.8c1,0.4,2,0.4,3,0c0.3,0.5,0.5,1,0.5,1.5c0.6-1.2,0.7-2.7,0.3-4l-0.7-0.7
	c1.9,0.4,3.3,1.9,3.8,3.7c0.3,1.1-0.7,3.4,0,4.2c1.2,1.7,7,0.7,8.7,1.2s2.4,1.6,3.7,2.1s4.3,0.7,3.8,3c-0.6,2.3-3.4,1.5-0.7,2.8
	c1.8,0.8,3.9,0.1,5-1.5c1.4,0,1.5,1.6,1.6,2.7c1,0,1.4-1.1,2.2-1.4c0.8-0.1,1.6-0.1,2.4,0c0.8,0,1.4-1.2,2.3-1.4s1.9,0.4,2.8,0.3
	s2-1,2.4-1l1.6,0.6c1.4,0,3.4-1.9,3.9,0.7c1.6,0.5,1.4-1.1,2.5-1.4c1.2-0.3,1.4,0.4,2.4,0.7s2.7,0,3.5,1c2.5,0,5.3-0.4,8.1-0.3
	l3.6-1.2c1.2-0.5,2.6,0,3.8,0c1.1,0,1.6-2.3,3.9-2.9s4.9-2.3,8.1-1.1c0.7,0.2,1.4,0.5,2.1,0.8l0.6,1.5h1.4c0.7,0.6,1.5,1.1,2.4,1.5
	h3.9c1.5,0,3.1,0.1,4.6,0.4c0.4,0.3,0.8,0.5,1.2,0.7c0.6,0.1,0.7-1,1.7-0.5c1,0.6,0.3,2.5,2.9,2.8c2.6,0.2,1.7-1.2,3.3-2.3
	s2.1,1.5,4.4,1.5c0.1-1.2,0-2.4-0.3-3.5l-1.6-3h-2c-0.6,0,0-1.2,0-1.4s-2.5,0-3.3-1.5c-1.6-3.3,4.3-1,5.6-0.5
	c1.4,0.5,2.1,1.6,3.7,1.1s1.7-3.4,3.5-0.7c0.5-3.4,6.7,1.1,3.9-4.4c3.4-0.8,0-2.5,0-3.7c0-2.4,2-1.9,3.3-2.1
	c3.1-0.7,3.7-2.3,3.8-5.6c-0.1-1.3,0.3-2.6,1.1-3.7c1-1.8,0.6-1.5,2.6-2h0.2c0.9-0.3,1.2-0.8,1.9-1.1s2.8-0.7,3.2-1.6
	C264.6,139,258.8,139.9,257.3,139.4L257.3,139.4z"/>
<path class="st2" d="M323.3,207.3c-1.6-0.8-3.1-1.7-4.6-2.8c-1.1-0.7-1.9-0.7-2.5-2.3c-1.7-4.3,3.7-1.9,6.3-1.9c1,0,2.4,0.5,2.9-0.5
	c0.6-0.9-1-2.7-2-3.1c0.6-1.2,0.8-2.5,0.5-3.8c-1-2.3-1.8,0-3.4-0.6c-1.2-0.2-2-1.4-1.8-2.6c0-0.1,0-0.2,0.1-0.3
	c0.5-1.7,1.2-1,2.6-1.5s0.8-1,1.6-1.1s1.6,0.7,2.3,0.6c1.3-0.1,2.3-1.1,2.4-2.4c0-2.4-1.3-1-2.6-1.4c-1.4-0.4-1.1-1.4-2-2.4
	c-0.8-1.1-5.6-2.3-3.7-5.6c0.6-0.8,2.1-0.6,2.5-1.7s-0.5-1.7-0.6-2.4c-0.5-2-0.3-3.2-2.4-4.2c-1.6-0.8-3.4-1.3-5.2-1.4
	c-1.5,0-2.6,2.5-4.6,0.3c-1-1.1,0-2.8-0.8-3.8s-3.5,0-4.5,0s-3.4,0.4-4.2-0.4v-1.6l-1-1.5c-0.5-1.6,1.2-1.8,1-3.4s-3-2-3.5-3.4
	l-0.4,0.5v-0.7c0.8-1.5,1-3.2,0.5-4.8c-2.5,0.5-5.1-0.2-7-2c-0.4-0.5,0-1.2-0.7-1.7c-0.6-0.5-1.3-0.9-2.1-1.2
	c-1.7-1.2-1.4-1.2-1.7-2.8c0.3-0.4,0.5-0.8,0.5-1.3c-0.2-0.6-1.5-1.3-2.7-1.6s-2.7,0-3.4-1.6s0.8-2.9,0.5-3.4s-2.7-0.7-3.7,0
	c-3-2.4,1.6-3.9,1.4-5.6s-3.3-2.3-4.9-2c-1.6,0.2-1.7,0.8-3,1.2c-2.7,0.8-4.4-1.8-6.6-2.7c-1.4-0.5-2.7-1.2-3.9-2.1
	c-1.1-0.7-3-1.9-4.3-1.2s-0.4,2.4-1.1,3.4s-2.5,0-4.2,1.4c-1.6,1.4-1,3.8-2.9,2.1s0-3.4-2.3-3.4c-1.4,0-3.4,2.1-4.6,2.6
	s-2.5,0-3.9,0.5c-1.2,0.5-2.4,1-3.5,1.6c-1.1,0.6-2.2,1.1-3.4,1.5c-2.1,0.5-2.5,0-4.1,1.5c-1,1-1.7,2.3-2,3.7
	c-0.6,1.6-0.4,2.1-2.5,2.5c-1.3,0.3-2.7,0-3.8-0.8c-0.7,4.1-2.5,1-4.8,3.3c-1,0.9-0.7,1.8-1,3c-0.5,2.4-0.7,1.4-2.7,2.2
	s-2.3,4.4-1.7,7s2.3,3.5-0.6,4.4c-1.5,0.7-3.3,0-4-1.5c-0.1-0.1-0.1-0.3-0.2-0.4c-0.5-0.8,0-8.6-3-4.4c-0.7,1,0,2.7,0,3.8
	c-0.8,2.3-2.8,1-3.5,2.5s1,2.4,0.4,3.5s-3.2,0.5-4.3,1.2s-0.7,1.3-1.7,1.7c-0.8,0.2-1.5,0.2-2.3,0c-0.6,0-1.4,0.3-1.2,2.1
	c0,3,1.6,2-1.6,3.4c-0.7,0.3-1,1-1.9,1.3s-2.3-0.5-2.8,0.7c-0.6,1.2,1.1,1.8,1.2,2.4c0.1,0.6,0.1,1.3,0,1.9c0,1.1-1.6,0-0.7,1.7
	c0.4,1,2.5,1.4,3.4,2c-0.5,1.2-0.7,2.5-0.6,3.8c0,1,0.8,1.4,1,2.1c0.1,0.8,0.1,1.5,0,2.3c0,0.7,2.2,1.6,2.4,2.6
	c0.3,0.8,0,1.8-0.7,2.3c-0.8,0.6-2-0.3-2.8,0l-0.7,1.5c-1.9,1.4-4.4,0.5-5.6,2.4c-0.7,1-0.4,2.4-1.4,3.4s-2.9,0.5-3.4,2.2
	c-0.8,2.9,3.7,1.7,4.6,3.8c0.4,0.9-0.3,2,0,2.8c0.4,2.3,0.9,0.7,1.7,1.8s0.4,1.7,1.1,2.6c1.9,2.2,5.6,0,8-0.5
	c-0.6,1.5-5.6,2.9-6,4.5c-0.3,1.6,3.9,1.7,3,4.6c1.3,1.1,3.3,0.3,4.8,0.6c1.5,0.2,2.7,1.1,4.8,0.7c-1.2,1.6-3.5,3.3-3.7,5.6
	c1.6,0,2.8,1,2,2.8c1,0.4,2,0.4,3,0c0.3,0.5,0.5,1,0.5,1.5c0.6-1.2,0.7-2.7,0.3-4l-0.7-0.7c1.9,0.4,3.3,1.9,3.8,3.7
	c0,1.1-0.7,3.4,0,4.2c1.2,1.7,7,0.7,8.7,1.2s2.4,1.7,3.7,2.1c1.3,0.5,4.3,0.7,3.8,3c-0.6,2.3-3.4,1.5-0.7,2.8c1.8,0.8,3.9,0.1,5-1.5
	c1.4,0,1.5,1.6,1.6,2.7c1,0,1.4-1.1,2.2-1.4c0.8-0.1,1.6-0.1,2.4,0c0.8,0,1.4-1.2,2.3-1.4s1.9,0.4,2.8,0c0.8-0.4,1.6-0.8,2.4-1
	l1.6,0.6c1.4,0,3.4-1.9,3.9,0.7c1.6,0.5,1.4-1.1,2.5-1.4c1.2-0.3,1.4,0.4,2.4,0.7s2.7,0.3,3.5,1h0.3c2.5,0,5.3-0.4,8.1-0.3l3.6-1.2
	c1.2-0.5,2.6,0,3.8,0s1.6-2.3,3.9-2.9s4.9-2.3,8.1-1.2c0.7,0.2,1.4,0.5,2.1,0.9l0.6,1.4h1.5c0.7,0.6,1.5,1.1,2.4,1.5h3.9
	c1.5,0,3.1,0.1,4.6,0.4c0.4,0.3,0.8,0.5,1.2,0.7c0.6,0.1,0.7-1,1.7-0.5s0.3,2.6,2.9,2.8s1.7-1.2,3.3-2.3s2.1,1.5,4.4,1.5
	c0.1-1.2,0-2.4-0.3-3.5l-1.9-2.2h-2c-0.6,0,0-1.2,0-1.4s-2.5,0-3.3-1.5c-1.6-3.3,4.3-1,5.6-0.5c1.4,0.5,2.1,1.6,3.7,1.1
	s1.7-3.4,3.5-0.7c0.5-3.4,6.7,1.1,3.9-4.4c3.4-0.8,0-2.5,0-3.7c0-2.4,2-1.9,3.3-2.1c3.1-0.7,3.7-2.3,3.8-5.6
	c-0.1-1.3,0.3-2.6,1.1-3.7c1-1.8,0.6-1.5,2.6-2h1.2c0.9-0.3,1.2-0.8,1.9-1.1s2.8-0.7,3.2-1.6C330.6,206.9,324.8,207.8,323.3,207.3
	L323.3,207.3z"/>
<path class="st3" d="M426.7,168.2c-1.6-0.7-3.2-1.7-4.6-2.8c-1.1-0.7-1.9-0.6-2.5-2.2c-1.7-4.3,3.7-1.9,6.3-1.9c1,0,2.4,0.5,3-0.5
	s-1.1-2.7-2-3.1c0.6-1.2,0.8-2.5,0.5-3.8c-1-2.4-1.8,0-3.4-0.6c-1.2-0.2-2-1.4-1.8-2.6c0-0.1,0-0.2,0.1-0.2c0.5-1.7,1.2-1,2.7-1.6
	c0.6,0,0.7-1,1.5-1.1s1.7,0.7,2.3,0.6c1.3-0.1,2.3-1.1,2.4-2.4c0-2.4-1.4-1-2.6-1.4c-1.3-0.4-1.2-1.4-2-2.4
	c-0.8-1.1-5.6-2.3-3.6-5.6c0.6-0.8,2-0.6,2.4-1.7s-0.5-1.6-0.6-2.3c-0.5-2.1-0.3-3.3-2.4-4.2c-1.6-0.8-3.4-1.3-5.2-1.5
	c-1.5,0-2.6,2.5-4.6,0.3c-1-1.1,0-2.9-0.8-3.8c-0.8-1-3.4,0-4.4,0s-3.5,0.4-4.2-0.4v-1.6l-1-1.5c-0.4-1.6,1.2-1.8,1-3.4
	s-3-2-3.5-3.4l-0.4,0.5v-0.7c0.8-1.5,1-3.2,0.5-4.8c-2.5,0.6-5.1-0.2-6.9-2c-0.4-0.5,0-1.2-0.7-1.7s-1.5-0.8-2-1.2
	c-1.7-1.2-1.4-1.2-1.8-2.7c0.4-0.4,0.6-0.9,0.5-1.4c-0.2-0.6-1.5-1.3-2.6-1.6s-2.8,0-3.4-1.6s0.7-2.9,0.5-3.4
	c-0.3-0.5-2.7-0.7-3.6,0c-3.1-2.4,1.5-3.9,1.3-5.6s-3.3-2.2-4.8-2c-1.6,0.2-1.7,0.8-3,1.2c-2.7,0.8-4.3-1.8-6.6-2.7
	c-1.4-0.5-2.7-1.2-3.9-2.1c-1-0.7-3-1.9-4.3-1.2c-1.2,0.7-0.4,2.4-1.2,3.4s-2.5,0-4.1,1.4s-1,3.8-2.9,2.1c-1.1-1,0-3.4-2.3-3.5
	c-1.4,0-3.4,2.1-4.6,2.6s-2.5,0-3.8,0.5c-1.2,0.4-2.4,1-3.5,1.7c-1.1,0.6-2.2,1-3.4,1.4c-2,0.5-2.5,0-4.1,1.5c-1,1-1.7,2.3-2,3.7
	c-0.6,1.6-0.3,2.1-2.5,2.5c-1.3,0.3-2.7,0-3.8-0.8c-0.7,4.1-2.5,1-4.9,3.3c-0.9,0.9-0.7,1.8-0.9,3c-0.5,2.4-0.7,1.4-2.7,2.2
	s-2.3,4.4-1.7,7s2.3,3.5-0.6,4.4c-1.4,0.6-3,0-3.7-1.4c-0.5-0.8,0-8.6-3-4.4c-0.8,1.1,0,2.7-0.3,3.8c-0.8,2.3-2.8,1-3.5,2.5
	s1.1,2.4,0.4,3.5s-3.1,0.6-4.2,1.2s-0.7,1.3-1.7,1.7c-0.8,0.2-1.5,0.2-2.3,0c-0.6,0-1.4,0-1.2,2.1c0,3.1,1.6,2-1.5,3.4
	c-0.8,0.3-1,1-2,1.3s-2.3-0.5-2.8,0.7c-0.6,1.2,1.1,1.8,1.2,2.5c0.1,0.6,0.1,1.2,0,1.8c0,1.2-1.5,0-0.7,1.7c0.5,1,2.5,1.4,3.4,2
	c-0.5,1.2-0.7,2.5-0.6,3.8c0,1,0.8,1.4,1,2.1c0.1,0.8,0.1,1.5,0,2.3c0,0.7,2.2,1.6,2.5,2.6c0.2,0.8,0,1.7-0.7,2.3
	c-0.7,0.6-2,0-2.7,0l-0.7,1.5c-1.8,1.5-4.4,0.5-5.6,2.4s-0.5,2.4-1.4,3.5s-2.9,0.4-3.4,2.1c-0.8,2.9,3.7,1.7,4.6,3.8
	c0.3,0.8-0.3,2,0,2.8c0.4,2.4,0.9,0.7,1.7,1.8s0.3,1.8,1.1,2.6c1.9,2.2,5.6,0,7.9-0.5c-0.5,1.5-5.6,3-6,4.5c-0.3,1.5,3.9,1.7,3,4.6
	c1.3,1.1,3.3,0.3,4.8,0.6c1.5,0.6,3.1,0.8,4.7,0.6c-1.2,1.6-3.5,3.3-3.7,5.6c1.7,0,2.8,1.1,2.1,2.8c1,0.4,2,0.4,3,0
	c0.3,0.4,0.4,0.9,0.4,1.4c0.6-1.2,0.7-2.6,0.3-3.9l-0.7-0.7c1.8,0.5,3.3,1.9,3.8,3.7c0,1.1-0.7,3.3,0,4.2c1.2,1.7,7,0.7,8.7,1.2
	s2.4,1.6,3.7,2.1s4.3,0.7,3.8,3s-3.5,1.5-0.7,2.8c1.8,0.8,3.9,0.1,5-1.5c1.4,0.3,1.5,1.6,1.6,2.7c1,0,1.4-1.1,2.2-1.4
	c0.8-0.1,1.6-0.1,2.4,0c0.8,0,1.4-1.2,2.3-1.4s2,0.4,2.8,0c0.8-0.4,1.6-0.7,2.4-0.9l1.6,0.6c1.4,0,3.4-1.9,3.9,0.7
	c1.6,0.5,1.4-1.1,2.5-1.4s1.5,0.4,2.5,0.7s2.6,0,3.4,1c2.6,0,5.6-0.4,8.1-0.3l3.6-1.2c1.2-0.5,2.6,0,3.8,0c1.1,0,1.6-2.3,3.9-2.9
	s5-2.3,8.1-1.1c0.8,0.2,1.5,0.5,2.2,0.8l0.6,1.5h1.4c0.8,0.5,1.6,1,2.4,1.4h3.9c1.6,0,3.2,0.1,4.7,0.4c0.3,0.4,0.7,0.7,1.2,0.8
	c0.6,0.1,0.7-1.1,1.7-0.5s0,2.5,2.9,2.8c2.9,0.2,1.7-1.2,3.3-2.3c2.4-1.7,2.1,1.5,4.4,1.5c0.1-1.2,0-2.4-0.3-3.5l-2-2.2h-1.9
	c-0.6,0,0-1.2,0-1.4s-2.5,0-3.3-1.5c-1.6-3.3,4.2-1,5.6-0.5s2,1.6,3.7,1.1s1.7-3.4,3.5-0.7c0.5-3.4,6.8,1.1,3.9-4.4
	c3.4-0.8,0-2.5,0-3.7c0-2.4,2-1.9,3.2-2.1c3.2-0.7,3.8-2.3,3.8-5.6c-0.1-1.3,0.3-2.6,1.1-3.7c1-1.8,0.6-1.5,2.6-2h1.3
	c0.9,0,1.1-0.8,1.9-1.1c0.7-0.3,2.8-0.7,3.2-1.5C434,167.9,428.2,168.7,426.7,168.2L426.7,168.2z"/>
<path class="st3" d="M433,367.2c-1.6-0.7-3.2-1.7-4.6-2.8c-1.1-0.7-1.9-0.7-2.5-2.3c-1.7-4.3,3.7-1.9,6.3-1.9c1,0,2.4,0.5,2.9-0.5
	c0.6-0.9-1-2.7-2-3.1c0.6-1.2,0.8-2.5,0.5-3.8c-1-2.4-1.8,0-3.4-0.6c-1.3-0.3-2.1-1.5-1.8-2.8v-0.1c0.5-1.7,1.2-1,2.7-1.5
	c0.6,0,0.7-1,1.5-1.1s1.6,0.7,2.3,0.6c1.3-0.1,2.3-1.1,2.4-2.4c0-2.5-1.4-1-2.6-1.4c-1.3-0.4-1.2-1.4-2-2.4
	c-0.8-1.1-5.6-2.3-3.6-5.6c0.6-0.8,2-0.6,2.4-1.7s-0.5-1.7-0.6-2.4c-0.5-2-0.3-3.2-2.4-4.2c-1.6-0.8-3.4-1.3-5.2-1.4
	c-1.5,0-2.6,2.5-4.6,0c-1-1.1,0-2.9-0.8-3.8s-3.4,0-4.5,0s-3.4,0.5-4.2-0.3v-1.6l-1-1.5c-0.4-1.6,1.2-1.8,1-3.5s-3-2-3.5-3.4
	l-0.4,0.5v-0.7c0.8-1.5,1-3.2,0.5-4.8c-2.5,0.5-5.1-0.2-6.9-2c-0.4-0.5,0-1.2-0.7-1.7c-0.6-0.5-1.3-0.9-2-1.2
	c-1.7-1.2-1.4-1.2-1.8-2.8c0,0,0.7-0.7,0.5-1.3s-1.5-1.3-2.6-1.6s-2.8,0-3.4-1.6s0.7-3,0.5-3.4c-1.1-0.6-2.5-0.6-3.6,0
	c-3.1-2.4,1.5-3.9,1.3-5.6s-3.3-2.3-4.8-2.1c-1.6,0.2-1.7,0.9-3,1.3c-2.7,0.8-4.3-1.8-6.6-2.7c-1.4-0.6-2.7-1.3-3.9-2.1
	c-1-0.7-3-1.9-4.3-1.2s-0.3,2.4-1.1,3.4s-2.5,0-4.1,1.4s-1,3.8-2.9,2.1c-1.1-0.9,0-3.4-2.3-3.4c-1.4,0-3.4,2.1-4.6,2.6
	c-1.2,0.6-2.5,0-3.8,0.5c-1.2,0.5-2.4,1-3.5,1.6c-1.1,0.6-2.2,1.1-3.4,1.5c-2,0.5-2.5,0-4.1,1.4c-1,1.1-1.6,2.3-2,3.7
	c-0.6,1.6-0.3,2.1-2.5,2.5c-1.3,0.3-2.7,0-3.8-0.8c-0.7,4.1-2.5,0.9-4.9,3.3c-0.9,0.9-0.7,1.8-0.9,3c-0.5,2.4-0.7,1.4-2.7,2.2
	s-2.3,4.4-1.7,7s2.3,3.4-0.5,4.4c-1.4,0.5-3-0.1-3.7-1.4c-0.5-0.8,0-8.6-3-4.4c-0.8,1,0,2.7,0,3.8c-0.8,2.4-2.8,1.1-3.5,2.5
	c-0.7,1.5,1.1,2.4,0.4,3.5s-3.1,0.5-4.2,1.2s-0.7,1.3-1.7,1.7s-1.7-0.3-2.3,0s-1.4,0-1.2,2c0,3.1,1.6,2.1-1.6,3.5
	c-0.7,0.3-1,1-1.9,1.3c-1,0.3-2.3-0.5-2.8,0.7c-0.6,1.2,1.1,1.8,1.2,2.4c0.1,0.6,0.1,1.3,0,1.9c0,1.1-1.5,0-0.7,1.7
	c0.5,1,2.5,1.4,3.4,2c-0.5,1.2-0.7,2.5-0.6,3.8c0,1,0.8,1.4,1,2.1c0.1,0.8,0.1,1.5,0,2.3c0,0.7,2.2,1.6,2.5,2.6
	c0.2,0.8,0,1.7-0.7,2.3c-0.7,0.6-2-0.3-2.7,0l-0.7,1.5c-1.8,1.4-4.4,0.5-5.6,2.4c-0.7,1-0.4,2.4-1.3,3.4s-2.9,0.5-3.4,2.2
	c-0.9,2.9,3.7,1.6,4.6,3.8c0.3,0.9-0.3,2,0,2.8c0.4,2.3,0.9,0.7,1.7,1.8s0.3,1.7,1.1,2.6c1.9,2.2,5.6,0,7.9-0.5
	c-0.5,1.5-5.6,2.9-6,4.5c-0.3,1.6,3.9,1.7,3,4.6c1.3,1.1,3.3,0.3,4.8,0.6c1.6,0.2,2.6,1.1,4.7,0.7c-1.2,1.6-3.5,3.3-3.7,5.6
	c1.6,0,2.8,1,2.1,2.8c1,0.4,2,0.4,3,0c0.3,0.4,0.4,1,0.4,1.5c0.6-1.2,0.7-2.7,0.3-4l-0.7-0.7c1.9,0.4,3.3,1.9,3.8,3.7
	c0,1.1-0.7,3.4,0,4.2c1.2,1.7,7,0.7,8.7,1.2s2.4,1.7,3.7,2.1c1.3,0.5,4.3,0.7,3.8,3s-3.5,1.5-0.7,2.8c1.8,0.8,3.9,0.1,5-1.5
	c1.4,0,1.5,1.6,1.6,2.7c1,0,1.4-1.2,2.2-1.4s1.6,0.3,2.4,0s1.4-1.2,2.3-1.4s1.9,0.4,2.8,0c0.8-0.4,1.6-0.7,2.4-1l1.6,0.6
	c1.4,0,3.4-1.9,3.9,0.7c1.6,0.5,1.4-1.1,2.5-1.4s1.5,0.4,2.5,0.7s2.6,0,3.4,1c2.6,0,5.6-0.5,8.1-0.3l3.6-1.3c1.2-0.4,2.6,0,3.8,0
	c2-0.7,1.6-2.3,3.9-2.9s4.9-2.3,8.1-1.2c0.7,0.2,1.4,0.5,2.1,0.9l0.7,1.4h1.4c0.7,0.6,1.5,1.1,2.4,1.5h3.9c1.6,0,3.1,0.1,4.7,0.3
	c0.3,0.4,0.7,0.7,1.2,0.8c0.6,0.1,0.7-1,1.7-0.5s0,2.6,2.9,2.8s1.7-1.2,3.3-2.3c2.4-1.7,2.1,1.5,4.4,1.5c0.1-1.2,0-2.4-0.3-3.5
	l-2-2.2h-1.9c-0.5,0,0-1.2,0-1.5c0-0.2-2.5,0-3.3-1.5c-1.6-3.3,4.2-1,5.6-0.5s2,1.6,3.7,1.1s1.7-3.4,3.5-0.7
	c0.5-3.4,6.8,1.2,3.9-4.3c3.4-0.8,0-2.5,0-3.7c0-2.4,2-1.9,3.2-2.1c3.2-0.7,3.8-2.4,3.8-5.6c-0.1-1.3,0.3-2.6,1.1-3.7
	c1-1.8,0.6-1.5,2.6-2h1.3c0.9-0.3,1.1-0.8,1.9-1.1c0.7-0.3,2.8-0.7,3.2-1.6C440.3,366.8,434.4,367.7,433,367.2z"/>
<path class="st3" d="M199.8,347.9c-1.7-0.7-3.2-1.6-4.6-2.8c-1.1-0.7-1.9-0.6-2.5-2.2c-1.7-4.3,3.7-1.9,6.3-1.9c1,0,2.4,0.4,3-0.5
	s-1.1-2.7-2-3c0.6-1.2,0.8-2.5,0.5-3.8c-1-2.4-1.7,0-3.4-0.6c-1.2-0.2-2-1.3-1.8-2.5c0-0.1,0-0.2,0.1-0.3c0.5-1.7,1.2-1,2.6-1.6
	s0.7-1,1.5-1.1s1.7,0.7,2.3,0.6c1.3-0.1,2.4-1.2,2.4-2.5c0-2.4-1.4-1-2.6-1.4c-1.3-0.4-1.1-1.4-2-2.5s-5.6-2.3-3.6-5.6
	c0.6-0.8,2.1-0.6,2.4-1.7s-0.5-1.6-0.6-2.3c-0.5-2.1-0.3-3.3-2.4-4.2c-1.6-0.9-3.4-1.4-5.2-1.6c-1.5,0-2.6,2.5-4.6,0.3
	c-1-1.1,0-2.9-0.8-3.8c-0.8-1-3.5,0-4.5,0s-3.5,0.5-4.2-0.4v-1.6l-1-1.5c-0.4-1.6,1.2-1.8,1.1-3.4c-0.2-1.6-3-2-3.5-3.4l-0.4,0.5
	v-0.7c0.8-1.5,0.9-3.2,0.5-4.8c-2.5,0.6-5.1-0.2-6.9-2c-0.4-0.5,0-1.1-0.7-1.7c-0.7-0.5-1.4-0.9-2.1-1.2c-1.7-1.1-1.4-1.2-1.8-2.7
	c0.4-0.4,0.6-0.9,0.5-1.4c-0.2-0.6-1.5-1.3-2.6-1.6s-2.8,0-3.4-1.6s0.7-2.9,0.5-3.3s-2.7-0.7-3.7-0.3c-3-2.4,1.5-3.9,1.4-5.6
	c-0.2-1.7-3.3-2.3-4.9-2.1s-1.7,0.8-3,1.2c-2.8,0.8-4.4-1.8-6.6-2.7c-1.4-0.5-2.7-1.2-3.9-2.1c-1-0.7-3-1.9-4.3-1.2
	c-1.2,0.7-0.4,2.4-1.2,3.4s-2.5,0-4.1,1.4s-1,3.8-2.9,2.1c-1.1-1,0-3.4-2.3-3.5c-1.3,0-3.4,2.1-4.6,2.7s-2.5,0-3.8,0.5
	c-1.2,0.5-2.4,1-3.5,1.7c-1.1,0.6-2.2,1-3.3,1.4c-2.1,0.5-2.5,0-4.1,1.5c-1,1-1.7,2.3-2,3.7c-0.6,1.6-0.4,2.1-2.5,2.5
	c-1.3,0.3-2.7,0-3.8-0.8c-0.7,4.1-2.5,1-4.9,3.3c-0.9,0.9-0.7,1.9-0.9,3c-0.5,2.5-0.7,1.4-2.7,2.2s-2.3,4.4-1.7,7s2.3,3.5-0.6,4.4
	c-1.4,0.6-3,0-3.7-1.4c-0.5-0.8,0-8.6-3-4.4c-0.7,1,0,2.6,0,3.8c-0.8,2.3-2.8,1.1-3.5,2.5s1.1,2.5,0.4,3.5c-0.7,1.1-3.1,0.6-4.2,1.2
	s-0.7,1.4-1.7,1.7c-0.8,0.2-1.5,0.2-2.3,0c-0.6,0-1.4,0-1.2,2.1c0,3.1,1.6,2-1.5,3.4c-0.7,0.3-1,1-2,1.3s-2.3-0.5-2.8,0.7
	s1,1.7,1.2,2.4c0.1,0.6,0.1,1.2,0,1.8c0,1.2-1.5,0-0.7,1.7c0.5,1,2.6,1.4,3.4,2c-0.5,1.2-0.7,2.5-0.6,3.8c0,1,0.8,1.4,1,2.1
	c0.1,0.8,0.1,1.5,0,2.3c0,0.7,2.2,1.6,2.5,2.6c0.3,0.8,0,1.8-0.7,2.3c-0.7,0.6-2,0-2.7,0l-0.7,1.5c-1.9,1.5-4.4,0.5-5.9,2.4
	s-0.4,2.4-1.4,3.5s-2.9,0.4-3.4,2.1c-0.8,2.9,3.7,1.7,4.6,3.8c0.3,0.8-0.3,2,0,2.8c0.4,2.4,0.9,0.7,1.7,1.9c0.8,1.1,0.3,1.7,1.1,2.5
	c1.9,2.2,5.6,0,8-0.5c-0.6,1.5-5.6,3-6,4.5s4,1.7,3,4.6c1.3,1.1,3.3,0.3,4.8,0.6c1.6,0.3,2.6,1.1,4.7,0.6c-1.2,1.7-3.5,3.3-3.7,5.6
	c1.7,0,2.8,1.1,2.1,2.8c1,0.4,2,0.4,3,0c0.3,0.4,0.4,0.9,0.4,1.4c0.6-1.2,0.7-2.6,0.3-3.9l-0.6-0.8c1.8,0.5,3.2,1.9,3.7,3.7
	c0,1.1-0.6,3.3,0,4.2c1.2,1.8,7,0.7,8.7,1.2s2.4,1.6,3.7,2.1c1.3,0.5,4.3,0.7,3.8,3s-3.5,1.5-0.7,2.8c1.8,0.8,3.9,0.2,5-1.5
	c1.5,0,1.5,1.6,1.6,2.6c0.9,0,1.4-1.1,2.2-1.4c0.8-0.1,1.6-0.1,2.4,0c0.8,0,1.4-1.2,2.3-1.5c0.9-0.2,2,0.5,2.9,0.3s2-0.9,2.4-0.9
	l1.6,0.6c1.4,0,3.4-2,3.9,0.7c1.6,0.4,1.4-1.2,2.5-1.5s1.5,0.4,2.5,0.7s2.6,0,3.5,1.1c2.6,0,5.6-0.4,8.1-0.3l3.6-1.2
	c1.2-0.4,2.6,0,3.8,0c1.1,0,1.7-2.3,3.9-2.9s5-2.2,8.1-1.1c0.8,0.2,1.5,0.5,2.2,0.8l0.6,1.5h1.5c0.7,0.6,1.5,1.1,2.4,1.4h3.9
	c1.5,0,3.1,0.1,4.6,0.4c0.3,0.3,0.7,0.6,1.2,0.8c0.6,0.1,0.7-1.1,1.7-0.5s0.3,2.5,2.9,2.8c2.6,0.2,1.7-1.2,3.2-2.3
	c2.4-1.7,2.1,1.5,4.4,1.4c0.1-1.2,0-2.4-0.3-3.5l-2-2.1h-1.9c-0.6,0,0-1.2,0-1.5c0-0.2-2.5,0-3.3-1.5c-1.6-3.3,4.2-1,5.6-0.5
	s2,1.6,3.7,1.1s1.7-3.3,3.5-0.7c0.5-3.4,6.8,1.1,3.9-4.4c3.4-0.7,0-2.5,0-3.7c0-2.4,2-1.9,3.3-2.1c3.1-0.7,3.7-2.3,3.8-5.6
	c-0.1-1.3,0.3-2.6,1.1-3.7c1.1-1.8,0.6-1.6,2.6-2.1h1.2c0.9,0,1.1-0.8,1.9-1.1c0.7-0.3,2.9-0.7,3.2-1.5
	C207.1,347.5,201.5,348.4,199.8,347.9L199.8,347.9z"/>
<path class="st3" d="M190.2,202.4c-1.6-0.8-3.1-1.7-4.6-2.8c-1.2-0.7-1.9-0.7-2.5-2.3c-1.7-4.3,3.7-1.9,6.3-1.9
	c0.9,0,2.4,0.5,2.9-0.5c0.6-0.9-1.1-2.7-2-3.1c0.6-1.2,0.8-2.5,0.5-3.8c-1-2.3-1.8,0-3.5-0.6c-1.2-0.3-2-1.6-1.7-2.8v-0.2
	c0.5-1.7,1.2-1,2.6-1.5s0.8-1,1.5-1.1s1.7,0.7,2.3,0.6c1.3-0.1,2.3-1.1,2.4-2.4c0-2.4-1.4-1-2.6-1.4c-1.3-0.4-1.1-1.4-2-2.4
	c-0.8-1.1-5.6-2.3-3.7-5.6c0.6-0.8,2.1-0.6,2.4-1.7s-0.5-1.7-0.6-2.4c-0.5-2-0.3-3.2-2.4-4.2c-1.6-0.8-3.4-1.3-5.2-1.4
	c-1.5,0-2.6,2.5-4.6,0c-1-1.1,0-2.9-0.8-3.8s-3.5-0.3-4.5,0s-3.5,0.4-4.2-0.4v-1.6l-1.1-1.5c-0.4-1.6,1.2-1.8,1.1-3.4
	c-0.2-1.6-3-2-3.5-3.4l-0.4,0.5v-0.7c0.8-1.5,1-3.2,0.5-4.8c-2.4,0.5-4.8-0.2-6.6-1.9c-0.4-0.5,0-1.2-0.7-1.7
	c-0.6-0.5-1.3-0.9-2.1-1.2c-1.7-1.2-1.4-1.2-1.7-2.8c0.3-0.4,0.5-0.8,0.5-1.3c-0.2-0.6-1.5-1.3-2.7-1.6s-2.8,0-3.4-1.6
	s0.8-2.9,0.5-3.4s-2.7-0.7-3.7,0c-3-2.4,1.5-3.9,1.4-5.6c-0.2-1.7-3.3-2.3-4.9-2c-1.6,0.2-1.7,0.8-3,1.2c-2.8,0.8-4.4-1.8-6.6-2.7
	c-1.4-0.5-2.7-1.2-3.9-2.1c-1.1-0.7-3.1-1.9-4.3-1.2s-0.4,2.4-1.2,3.4s-2.5,0-4.1,1.4s-1,3.8-2.9,2.1c-1.1-0.9,0-3.4-2.3-3.4
	c-1.3,0-3.3,2.1-4.6,2.6c-1.2,0.5-2.5,0-3.8,0.5c-1.2,0.5-2.4,1-3.5,1.6c-1.1,0.6-2.2,1.1-3.4,1.5c-2.1,0.5-2.5,0-4.1,1.5
	c-1,1-1.7,2.3-2,3.7c-0.6,1.6-0.4,2.1-2.5,2.5c-1.3,0.3-2.7,0-3.8-0.8c-0.7,4.1-2.5,1-4.9,3.3c-0.9,0.9-0.6,1.8-0.9,3
	c-0.5,2.4-0.7,1.4-2.7,2.2s-2.3,4.4-1.7,7s2.3,3.5-0.6,4.4c-1.4,0.6-3,0-3.7-1.4c-0.5-0.8,0-8.6-3-4.4c-0.7,1,0,2.7,0,3.8
	c-0.8,2.3-2.8,1-3.5,2.5s1,2.4,0.3,3.5s-3.1,0.5-4.2,1.2s-0.7,1.3-1.7,1.7c-0.8,0.2-1.5,0.2-2.3,0c-0.6,0-1.4,0-1.2,2.1
	c0,3,1.6,2-1.6,3.4c-0.7,0.3-1,1-1.9,1.3s-2.3-0.5-2.8,0.7c-0.6,1.2,1,1.8,1.2,2.4c0.1,0.6,0.1,1.3,0,1.9c0,1.1-1.6,0-0.7,1.7
	c0.4,1,2.5,1.4,3.4,2c-0.5,1.2-0.7,2.5-0.6,3.8c0,1,0.8,1.4,1.1,2.1c0.1,0.8,0.1,1.5,0,2.3c0,0.6,2.1,1.6,2.4,2.6
	c0.3,0.8,0,1.8-0.7,2.3c-0.8,0.6-2-0.3-2.8,0l-0.7,1.5c-1.9,1.4-4.4,0.5-5.6,2.4c-0.8,1-0.4,2.4-1.4,3.4s-2.9,0.5-3.4,2.2
	c-0.8,2.9,3.7,1.7,4.6,3.8c0.3,0.9-0.3,2,0,2.8c0.4,2.3,0.9,0.7,1.7,1.8s0.3,1.7,1.1,2.6c1.9,2.2,5.6,0,8-0.5
	c-0.6,1.5-5.6,2.9-6,4.5c-0.3,1.6,3.9,1.7,3,4.6c1.4,1.1,3.3,0.3,4.8,0.6c1.5,0.2,2.7,1.1,4.7,0.7c-1.2,1.6-3.5,3.3-3.6,5.6
	c1.6,0.3,2.8,1,2,2.8c1,0.4,2,0.4,3,0c0.3,0.4,0.4,1,0.4,1.5c0.6-1.5,0.5-3.1-0.2-4.5L62,221c1.8,0.5,3.2,1.9,3.8,3.7
	c0,1.1-0.7,3.4,0,4.2c1.1,1.7,7,0.7,8.7,1.2c1.7,0.4,2.4,1.7,3.7,2.1c1.3,0.5,4.3,0.7,3.8,3s-3.4,1.5-0.7,2.8
	c1.8,0.8,3.9,0.1,4.9-1.5c1.5,0,1.5,1.6,1.6,2.7c0.9,0,1.4-1.1,2.2-1.4c0.8-0.1,1.6-0.1,2.4,0c0.8,0,1.4-1.2,2.2-1.4
	c0.8-0.2,2,0.4,2.9,0.3c0.9-0.1,2-1,2.4-1l1.6,0.6c1.4,0,3.4-1.9,3.9,0.7c1.6,0.5,1.4-1.1,2.5-1.4c1.2-0.3,1.4,0.4,2.4,0.7
	c1.2,0.1,2.4,0.4,3.5,1h0.3c2.5,0,5.3-0.4,8.1-0.3l3.6-1.2c1.1-0.5,2.6,0,3.7,0c2-0.7,1.7-2.3,3.9-2.9c2.3-0.6,4.9-2.3,8-1.2
	c0.8,0.2,1.5,0.5,2.2,0.9l0.6,1.4h1.5c0.7,0.6,1.5,1.1,2.4,1.5h3.9c1.5,0,3.1,0.1,4.6,0.4c0.4,0.3,0.8,0.5,1.2,0.7
	c0.6,0.1,0.7-1,1.7-0.5s0.3,2.6,2.9,2.8s1.7-1.2,3.3-2.3s2.1,1.5,4.3,1.5c0.2-1.2,0.1-2.4-0.3-3.5l-2-2.2h-1.9c-0.6,0,0-1.2,0-1.5
	c0-0.2-2.5,0-3.3-1.5c-1.6-3.3,4.3-1,5.6-0.5c1.4,0.5,2,1.6,3.7,1.1s1.7-3.4,3.5-0.7c0.5-3.4,6.8,1.1,4-4.4c3.4-0.8,0-2.5,0-3.7
	c0-2.4,2-1.9,3.3-2.1c3.1-0.7,3.7-2.3,3.8-5.6c-0.1-1.3,0.3-2.6,1.1-3.7c1.1-1.8,0.6-1.5,2.6-2h1.2c0.9,0,1.2-0.8,1.9-1.1
	s2.8-0.7,3.2-1.6C197.7,202,191.9,202.9,190.2,202.4L190.2,202.4z"/>
<path class="st3" d="M347.9,88.4c-1.7-0.7-3.2-1.6-4.6-2.8c-1.1-0.7-1.9-0.6-2.5-2.2c-1.7-4.3,3.7-1.9,6.3-1.9c1,0,2.4,0.5,3-0.5
	c0.6-0.9-1.1-2.7-2-3.1c0.6-1.2,0.7-2.5,0.5-3.8c-1-2.4-1.7,0-3.4-0.6c-1.2-0.2-2-1.4-1.8-2.6c0-0.1,0-0.2,0.1-0.2
	c0.5-1.7,1.3-1,2.7-1.6s0.7-1,1.5-1.1s1.7,0.7,2.3,0.6c1.3-0.1,2.3-1.1,2.4-2.4c0-2.4-1.4-1-2.6-1.4c-1.3-0.4-1.1-1.4-2-2.5
	s-5.6-2.3-3.6-5.6c0.6-0.8,2.1-0.6,2.4-1.7s-0.5-1.6-0.6-2.3c-0.5-2.1-0.3-3.3-2.4-4.2c-1.6-0.8-3.4-1.3-5.2-1.5
	c-1.5,0-2.6,2.5-4.6,0.3c-1-1.1,0-2.9-0.8-3.8c-0.8-1-3.5,0-4.5,0s-3.5,0.5-4.2-0.4v-1.6l-1-1.5c-0.4-1.6,1.2-1.8,1.1-3.4
	c-0.2-1.6-3-2-3.5-3.4l-0.4,0.5V33c0.8-1.5,0.9-3.2,0.5-4.8c-2.5,0.6-5.1-0.2-6.9-2c-0.4-0.5,0-1.2-0.7-1.7s-1.4-0.8-2-1.2
	c-1.7-1.1-1.4-1.2-1.8-2.7c0.4-0.4,0.6-0.9,0.5-1.4c-0.2-0.6-1.5-1.3-2.6-1.6s-2.8,0-3.4-1.6s0.7-2.9,0.5-3.4
	c-0.3-0.5-2.7-0.7-3.6,0c-3-2.4,1.5-3.9,1.4-5.6c-0.2-1.7-3.3-2.2-4.9-2s-1.7,0.8-3,1.2c-2.7,0.8-4.3-1.8-6.6-2.7
	c-1.4-0.5-2.7-1.2-3.9-2.1c-1-0.7-3-1.9-4.3-1.2c-1.2,0.7-0.4,2.4-1.2,3.4s-2.5,0-4.1,1.4s-1,3.8-2.9,2.1c-1.1-1,0-3.4-2.3-3.5
	c-1.4,0-3.4,2.1-4.6,2.7s-2.5,0-3.8,0.5c-1.2,0.5-2.4,1-3.5,1.7c-1.1,0.6-2.2,1.1-3.4,1.4c-2,0.5-2.5,0-4.1,1.5c-1,1-1.7,2.3-2,3.7
	c-0.6,1.6-0.4,2.1-2.5,2.5c-1.3,0.3-2.7,0-3.8-0.8c-0.7,4.1-2.5,1-4.9,3.3c-0.9,0.9-0.7,1.9-0.9,3c-0.5,2.4-0.7,1.4-2.7,2.2
	s-2.3,4.4-1.7,7s2.3,3.5-0.6,4.4c-1.4,0.6-3,0-3.7-1.4c-0.5-0.8,0-8.6-3-4.4c-0.8,1.1,0,2.7,0,3.8c-0.7,2.3-2.8,1-3.5,2.5
	s1.1,2.4,0.4,3.5s-3.1,0.6-4.2,1.2s-0.7,1.3-1.7,1.7c-0.8,0.2-1.5,0.2-2.3,0c-0.6,0-1.4,0-1.2,2.1c0,3.1,1.6,2-1.5,3.4
	c-0.8,0.3-1,1-2,1.3s-2.3-0.5-2.8,0.7c-0.6,1.2,1.1,1.8,1.2,2.5c0.1,0.6,0.1,1.2,0,1.8c0,1.2-1.5,0-0.7,1.7c0.5,1,2.6,1.4,3.4,2
	c-0.5,1.2-0.7,2.5-0.6,3.8c0,1,0.8,1.4,1,2.1c0.1,0.8,0.1,1.5,0,2.3c0,0.7,2.2,1.6,2.5,2.6c0.3,0.8,0,1.8-0.7,2.3
	c-0.7,0.6-2,0-2.7,0l-0.7,1.5c-1.9,1.5-4.4,0.5-5.6,2.4s-0.4,2.4-1.4,3.5s-2.9,0.4-3.4,2.1c-0.8,2.9,3.7,1.7,4.6,3.8
	c0.3,0.8-0.3,2,0,2.8c0.4,2.4,0.9,0.7,1.7,1.9c0.8,1.1,0.3,1.7,1.1,2.5c1.9,2.2,5.6,0,8-0.5c-0.6,1.5-5.6,3-6,4.5s4,1.7,3,4.6
	c1.3,1.1,3.3,0.3,4.8,0.6c1.6,0.3,2.6,1.1,4.7,0.6c-1.2,1.6-3.5,3.3-3.7,5.6c1.7,0,2.8,1.1,2.1,2.8c1,0.4,2,0.4,3,0
	c0.3,0.4,0.4,0.9,0.4,1.4c0.6-1.2,0.7-2.6,0.3-3.9l-0.7-0.7c1.8,0.5,3.2,1.9,3.7,3.7c0,1.1-0.6,3.3,0,4.2c1.2,1.8,7,0.7,8.7,1.2
	s2.4,1.6,3.7,2.1s4.3,0.7,3.8,3s-3.5,1.5-0.7,2.8c1.8,0.8,3.9,0.2,5-1.5c1.5,0,1.5,1.6,1.6,2.6c0.9,0,1.4-1.1,2.2-1.4
	c0.8-0.1,1.6-0.1,2.4,0c0.8,0,1.4-1.2,2.3-1.5c0.9-0.2,2,0.4,2.9,0c0.8-0.4,1.6-0.7,2.4-0.9l1.6,0.6c1.4,0,3.4-2,3.9,0.7
	c1.6,0.4,1.4-1.2,2.5-1.5s1.5,0.4,2.5,0.7c1.2,0.1,2.4,0.4,3.5,1c2.6,0,5.6-0.4,8.1-0.3l3.6-1.2c1.2-0.5,2.6,0,3.8,0
	c1.1,0,1.7-2.3,3.9-2.9s5-2.2,8.1-1.1c0.8,0.2,1.5,0.5,2.2,0.8l0.6,1.5h1.5c0.6,0,1.7,1.3,2.4,1.4s2.7,0,3.9,0
	c1.6,0,3.2,0.1,4.7,0.4c0.3,0.3,0.7,0.6,1.2,0.8c0.6,0.1,0.7-1.1,1.7-0.5s0.3,2.5,2.9,2.8c2.5,0.2,1.7-1.2,3.3-2.3
	c2.4-1.7,2.1,1.5,4.4,1.5c0.2-1.2,0.2-2.3,0-3.5l-2.8-2.5h-1.9c-0.6,0,0-1.2,0-1.4s-2.5,0-3.3-1.5c-1.6-3.3,4.2-1,5.6-0.5
	s2,1.6,3.7,1.1s1.7-3.3,3.5-0.7c0.5-3.4,6.8,1.1,3.9-4.4c3.4-0.8,0-2.5,0-3.7c0-2.4,2-1.9,3.2-2.1c3.2-0.7,3.8-2.3,3.8-5.6
	c-0.1-1.3,0.3-2.6,1.1-3.7c1.1-1.9,0.6-1.6,2.6-2.1h1.2c0.9,0,1.1-0.8,1.9-1.1c0.7-0.3,2.8-0.7,3.2-1.5
	C355.2,88,349.4,88.9,347.9,88.4L347.9,88.4z"/>
</svg>
