<svg id="Capa_1" data-name="Capa 1" xmlns="http://www.w3.org/2000/svg" viewBox="0 0 494.2593 511.9119"><path d="M253.1,296.5a21.7732,21.7732,0,0,1-4.6-2.8c-1.1-.7-1.9-.6-2.5-2.2-1.7-4.3,3.7-1.9,6.3-1.9,1,0,2.4.5,2.9-.5.6-.9-1-2.7-2-3a5.5783,5.5783,0,0,0,.5-3.8c-1-2.4-1.8,0-3.4-.6a2.26,2.26,0,0,1-1.8-2.6c0-.1,0-.2.1-.2.5-1.7,1.2-1,2.7-1.6.6,0,.7-1,1.5-1.1s1.6.7,2.3.6a2.5809,2.5809,0,0,0,2.4-2.4c0-2.4-1.4-1-2.6-1.4-1.3-.4-1.2-1.4-2-2.5s-5.6-2.3-3.6-5.6c.6-.8,2-.6,2.4-1.7s-.5-1.6-.6-2.3c-.5-2.1-.3-3.3-2.4-4.2a15.5684,15.5684,0,0,0-5.2-1.5c-1.6,0-2.6,2.5-4.6.3-1-1.1,0-2.9-.8-3.8-.8-1-3.4,0-4.5,0s-3.4.4-4.2-.4v-1.6l-1-1.5c-.4-1.6,1.2-1.8,1-3.4s-3-2-3.5-3.4l-.3.5v-.7a6.2006,6.2006,0,0,0,.5-4.8,7.35,7.35,0,0,1-6.9-2c-.4-.5,0-1.1-.7-1.7a11.2516,11.2516,0,0,0-2.1-1.2c-1.7-1.1-1.4-1.2-1.7-2.7a1.553,1.553,0,0,0,.5-1.4c-.2-.6-1.5-1.3-2.6-1.6s-2.8,0-3.4-1.6c-.7-1.6.8-2.9.5-3.4s-2.7-.7-3.7,0c-3-2.4,1.6-3.9,1.4-5.6s-3.3-2.2-4.8-2c-1.6.2-1.7.8-3,1.2-2.7.8-4.4-1.8-6.6-2.7a14.7143,14.7143,0,0,1-3.9-2.1c-1-.7-3-1.9-4.3-1.2s-.4,2.4-1.1,3.4-2.5,0-4.1,1.4-1,3.8-2.9,2.1c-1.1-1,0-3.4-2.3-3.5-1.4,0-3.4,2.1-4.6,2.7s-2.5,0-3.8.5a21.2979,21.2979,0,0,0-3.5,1.4,20.2533,20.2533,0,0,1-3.4,1.4c-2,.5-2.5,0-4.1,1.5a7.467,7.467,0,0,0-2,3.7c-.6,1.6-.4,2.1-2.5,2.5a4.7071,4.7071,0,0,1-3.8-.8c-.7,4.1-2.5,1-4.9,3.3-1,.9-.7,1.8-.9,3-.5,2.4-.7,1.4-2.7,2.2s-2.4,4.4-1.7,7c.6,2.6,2.3,3.5-.5,4.4a2.86,2.86,0,0,1-3.7-1.4c-.5-.8,0-8.6-3-4.4-.8,1.1,0,2.7,0,3.8-.8,2.3-2.8,1-3.5,2.5s1,2.4.4,3.5-3.1.6-4.2,1.2-.7,1.3-1.7,1.7a4.4833,4.4833,0,0,1-2.3,0c-.6,0-1.4.3-1.2,2.1,0,3.1,1.6,2-1.6,3.4-.7.3-1,1-1.9,1.3s-2.3-.5-2.8.7c-.6,1.2,1.1,1.8,1.2,2.5a5.4375,5.4375,0,0,1,0,1.8c0,1.2-1.6,0-.7,1.7.5,1,2.5,1.4,3.4,2a8.2247,8.2247,0,0,0-.6,3.8c0,1,.8,1.4,1,2.1a8.8542,8.8542,0,0,1,0,2.3c0,.7,2.2,1.6,2.5,2.6a2.2673,2.2673,0,0,1-.7,2.3c-.8.6-2-.3-2.7,0l-.7,1.5c-1.9,1.5-4.4.5-5.9,2.4-.7,1-.4,2.4-1.3,3.5s-2.9.4-3.4,2.1c-.9,2.9,3.7,1.7,4.6,3.8.3.8-.3,2,0,2.8.5,2.4.9.7,1.7,1.9.8,1.1.4,1.7,1.1,2.5,1.9,2.2,5.6,0,7.9-.5-.6,1.5-5.6,3-6,4.5-.3,1.5,3.9,1.7,3,4.6,1.3,1.1,3.3.3,4.8.6a9.8259,9.8259,0,0,0,4.8.6c-1.2,1.6-3.5,3.3-3.7,5.6,1.6,0,2.8,1.1,2.1,2.8a3.9,3.9,0,0,0,3,0,2.3893,2.3893,0,0,1,.5,1.4,5.2643,5.2643,0,0,0,.3-3.9l-.7-.7a5.4453,5.4453,0,0,1,3.8,3.7c.3,1.1-.7,3.3,0,4.2,1.2,1.8,7,.7,8.7,1.2s2.4,1.6,3.7,2.1,4.3.7,3.8,3-3.5,1.5-.7,2.8a3.9858,3.9858,0,0,0,5-1.5c1.4,0,1.5,1.6,1.6,2.6,1,0,1.4-1.1,2.2-1.4a9.6375,9.6375,0,0,1,2.4,0c.8,0,1.4-1.2,2.3-1.5s1.9.4,2.8,0a11.719,11.719,0,0,1,2.4-.9l1.6.6c1.4,0,3.4-2,3.9.7,1.6.4,1.4-1.2,2.5-1.5,1.2-.3,1.5.4,2.5.7s2.6,0,3.4,1.1c2.5,0,5.6-.4,8.1-.3l3.6-1.2c1.2-.4,2.6,0,3.8,0,1.1,0,1.6-2.3,3.9-2.9s4.9-2.2,8.1-1.1a18.0284,18.0284,0,0,1,2.1.8l.6,1.5h1.5a7.2172,7.2172,0,0,0,2.4,1.4h3.9a23.8339,23.8339,0,0,1,4.6.4,3.5283,3.5283,0,0,0,1.3.8c.6.1.7-1.1,1.7-.5s0,2.5,2.9,2.8c2.9.2,1.7-1.2,3.3-2.3,2.4-1.7,2.1,1.5,4.4,1.5a10.1789,10.1789,0,0,0-.3-3.5l-1.9-2.2h-2c-.6,0,0-1.3,0-1.5s-2.5,0-3.3-1.5c-1.6-3.3,4.2-1,5.6-.5s2.1,1.6,3.7,1.1,1.7-3.3,3.5-.7c.5-3.4,6.7,1.1,3.9-4.4,3.4-.8,0-2.5,0-3.7,0-2.4,1.9-1.9,3.2-2.1,3.2-.7,3.7-2.3,3.8-5.6a5.5721,5.5721,0,0,1,1.1-3.7c1-1.9.6-1.6,2.6-2.1h1.3c.9,0,1.1-.8,1.9-1.1.7-.3,2.8-.7,3.2-1.5,0-3.2-5.8-2.4-7.3-2.9Z" transform="translate(0.0161 0.0119)" fill="#71f739"/><path d="M237.4,375.5s16.9,92.2-9.9,136.4h53.9s-16.9-104.2-10.8-148C276.7,320,237.4,375.5,237.4,375.5Z" transform="translate(0.0161 0.0119)" fill="#985b3f"/><path d="M460.5,300.3a31.4142,31.4142,0,0,1-4.6-2.8c-1.2-.7-1.9-.7-2.5-2.3-1.7-4.3,3.7-1.9,6.3-1.9.9,0,2.4.5,2.9-.5.6-.9-1.1-2.7-2-3.1a5.5783,5.5783,0,0,0,.5-3.8c-1-2.4-1.8,0-3.5-.6a2.3727,2.3727,0,0,1-1.7-2.8v-.2c.5-1.7,1.2-1,2.6-1.5s.8-1,1.5-1.1,1.7.7,2.3.6a2.5811,2.5811,0,0,0,2.4-2.4c0-2.4-1.3-1-2.6-1.4-1.4-.4-1.1-1.4-2-2.4-.8-1.1-5.6-2.3-3.7-5.6.6-.8,2.1-.6,2.4-1.7s-.5-1.7-.6-2.4c-.5-2-.3-3.2-2.4-4.2a13.4162,13.4162,0,0,0-5.2-1.4c-1.5,0-2.6,2.5-4.6.3-1-1.1,0-2.9-.8-3.8s-3.5,0-4.5,0-3.5.4-4.2-.4v-1.6l-1.1-1.4c-.4-1.6,1.2-1.8,1.1-3.4-.2-1.6-3-2-3.5-3.4l-.4.5v-.7a6.2006,6.2006,0,0,0,.5-4.8,7.88,7.88,0,0,1-7-2c-.4-.5,0-1.2-.7-1.7a7.1935,7.1935,0,0,0-2.1-1.2c-1.7-1.2-1.4-1.2-1.7-2.8a2.1062,2.1062,0,0,0,.5-1.3c-.2-.6-1.5-1.3-2.7-1.6s-2.8,0-3.4-1.6.8-2.9.5-3.4-2.7-.7-3.7,0c-3-2.4,1.5-3.9,1.4-5.6-.2-1.7-3.3-2.3-4.9-2.1s-1.7.9-3,1.3c-2.8.8-4.4-1.8-6.6-2.7a14.7128,14.7128,0,0,1-3.9-2.1c-1.1-.7-3.1-1.9-4.3-1.2s-.4,2.4-1.2,3.4-2.5,0-4.1,1.4-1,3.8-2.9,2.1c-1.1-.9,0-3.4-2.3-3.4-1.3,0-3.3,2.1-4.6,2.6-1.2.5-2.5,0-3.8.5a37.2727,37.2727,0,0,0-3.5,1.6,20.6524,20.6524,0,0,1-3.4,1.5c-2.1.5-2.5,0-4.1,1.5a7.467,7.467,0,0,0-2,3.7c-.6,1.6-.4,2.1-2.5,2.5a4.2791,4.2791,0,0,1-3.8-1.4c-.7,4.1-2.5,1-4.9,3.3-.9.9-.6,1.8-.9,3-.5,2.4-.7,1.4-2.7,2.2s-2.3,4.4-1.7,7,2.3,3.5-.6,4.4a3.0633,3.0633,0,0,1-3.7-1.4c-.5-.8,0-8.6-3-4.4-.7,1,0,2.7,0,3.8-.8,2.4-2.8,1.1-3.5,2.5-.7,1.5,1,2.4.3,3.5s-3.1.5-4.2,1.2-.7,1.3-1.7,1.7a4.4833,4.4833,0,0,1-2.3,0c-.6,0-1.4,0-1.2,2,0,3.1,1.6,2.1-1.6,3.5-.7.3-1,1-1.9,1.3s-2.3-.5-2.8.7c-.6,1.2,1,1.8,1.2,2.4a6.0542,6.0542,0,0,1,0,1.9c0,1.1-1.6,0-.7,1.7.4,1,2.5,1.4,3.4,2a8.2247,8.2247,0,0,0-.6,3.8c0,1,.8,1.4,1.1,2.1a8.8542,8.8542,0,0,1,0,2.3c0,.6,2.1,1.6,2.4,2.6a2.0412,2.0412,0,0,1-.7,2.3c-.8.6-2-.3-2.8,0l-.7,1.5c-1.9,1.4-4.4.5-5.6,2.4-.8,1-.4,2.4-1.4,3.4s-2.9.5-3.4,2.2c-.8,2.9,3.7,1.7,4.6,3.8a6.6083,6.6083,0,0,1,0,2.8c.4,2.3.9.7,1.7,1.8s.3,1.7,1.1,2.6c1.9,2.2,5.6,0,8-.5-.6,1.5-5.6,2.9-6,4.5-.3,1.6,3.9,1.7,3,4.6,1.4,1.1,3.3.3,4.8.6,1.5.2,2.7,1.1,4.8.7-1.2,1.6-3.5,3.3-3.7,5.6,1.6.3,2.8,1,2,2.8a3.9,3.9,0,0,0,3,0,2.6041,2.6041,0,0,1,.4,1.5,5.5266,5.5266,0,0,0,.3-4l-.7-.7a5.6333,5.6333,0,0,1,3.8,3.7c0,1.1-.7,3.4,0,4.2,1.2,1.7,7,.7,8.7,1.2s2.4,1.7,3.7,2.1c1.3.5,4.3.7,3.8,3s-3.4,1.5-.7,2.8a3.9351,3.9351,0,0,0,4.9-1.5c1.5,0,1.5,1.6,1.6,2.7,1-.3,1.4-1.2,2.2-1.4a9.6375,9.6375,0,0,1,2.4,0c.8,0,1.4-1.2,2.2-1.4s2,.4,2.9,0a12.2342,12.2342,0,0,1,2.4-1l1.6.6c1.4,0,3.4-1.9,3.9.7,1.6.5,1.4-1.1,2.5-1.4,1.2-.3,1.4.4,2.4.7a8.7849,8.7849,0,0,1,3.5,1c2.5,0,5.6-.5,8.1-.3l3.6-1.2c1.1-.5,2.6,0,3.7,0,2-.7,1.7-2.3,3.9-2.9,2.3-.6,4.9-2.3,8-1.2a8.488,8.488,0,0,1,2.2.9l.6,1.4h1.5a9.731,9.731,0,0,0,2.4,1.5h3.9a23.8418,23.8418,0,0,1,4.6.4,7.4669,7.4669,0,0,0,1.2.7c.6.1.7-1,1.7-.5s.3,2.6,2.9,2.8,1.7-1.2,3.3-2.3,2.1,1.5,4.3,1.5a6.9181,6.9181,0,0,0,0-3.5l-2-2.2h-1.9c-.6,0,0-1.2,0-1.5,0-.2-2.5,0-3.3-1.5-1.6-3.3,4.3-1,5.6-.5,1.4.4,2,1.6,3.7,1.1s1.7-3.4,3.5-.7c.5-3.4,6.8,1.1,4-4.4,3.4-.8,0-2.5,0-3.7,0-2.4,2-1.9,3.3-2.1,3.1-.7,3.7-2.4,3.8-5.6a5.5721,5.5721,0,0,1,1.1-3.7c1.1-1.8.6-1.5,2.6-2h1.2c.9,0,1.2-.8,1.9-1.1s2.8-.7,3.2-1.6c1-3-4.8-2.2-6.3-2.6Z" transform="translate(0.0161 0.0119)" fill="#16d342"/><path d="M487.6,250a31.4142,31.4142,0,0,1-4.6-2.8c-1.1-.7-1.9-.6-2.5-2.2-1.7-4.3,3.7-1.9,6.3-1.9,1,0,2.4.5,2.9-.5.6-.9-1-2.7-2-3.1a5.5783,5.5783,0,0,0,.5-3.8c-1-2.4-1.8,0-3.4-.6a2.4212,2.4212,0,0,1-1.8-2.7c0-.1,0-.1.1-.2.5-1.7,1.2-1,2.7-1.5.6,0,.7-1,1.5-1.1s1.6.7,2.3.6a2.5809,2.5809,0,0,0,2.4-2.4c0-2.4-1.4-1-2.6-1.4-1.3-.5-1.2-1.4-2-2.4-.8-1.1-5.6-2.3-3.6-5.6.6-.8,2-.6,2.4-1.7s-.5-1.6-.6-2.4c-.5-2-.3-3.2-2.4-4.2a15.5684,15.5684,0,0,0-5.2-1.5c-1.6,0-2.6,2.5-4.6.3-1-1.1,0-2.9-.8-3.8-.8-1-3.4,0-4.5,0s-3.4.4-4.2-.4v-1.6l-1-1.5c-.4-1.6,1.2-1.8,1-3.4s-3-2-3.5-3.4l-.3.5v-.7a6.2006,6.2006,0,0,0,.5-4.8,7.35,7.35,0,0,1-6.9-2c-.4-.5,0-1.2-.7-1.7a7.1935,7.1935,0,0,0-2.1-1.2c-1.7-1.2-1.4-1.2-1.7-2.7a1.5532,1.5532,0,0,0,.5-1.4c-.2-.7-1.5-1.3-2.7-1.6s-2.7,0-3.4-1.6.8-2.9.5-3.4-2.7-.7-3.7,0c-3-2.4,1.6-3.9,1.4-5.6s-3.6-3-5.1-3-1.7.8-3,1.2c-2.7.8-4.4-1.8-6.6-2.7a14.7143,14.7143,0,0,1-3.9-2.1c-1-.7-3-1.9-4.3-1.2s-.4,2.4-1.1,3.4-2.5,0-4.1,1.4-1,3.8-2.9,2.1c-1.1-.9,0-3.4-2.3-3.4-1.4,0-3.4,2.1-4.6,2.6s-2.5,0-3.8.5a16.1556,16.1556,0,0,0-3.5,1.7,20.2523,20.2523,0,0,1-3.4,1.4c-2,.5-2.5,0-4.1,1.5a7.467,7.467,0,0,0-2,3.7c-.6,1.6-.4,2.1-2.5,2.5a4.7069,4.7069,0,0,1-3.8-.8c-.7,4.1-2.5,1-4.9,3.3-1,.9-.7,1.8-.9,3-.5,2.4-.7,1.4-2.7,2.2s-2.4,4.4-1.7,7c.6,2.6,2.3,3.5-.5,4.4a2.86,2.86,0,0,1-3.7-1.4c-.5-.8,0-8.6-3-4.4-.8,1.1,0,2.7-.3,3.8-.8,2.3-2.8,1-3.5,2.5s1,2.4.4,3.5-3.1.6-4.2,1.2-.7,1.3-1.7,1.7-1.7-.3-2.3,0-1.4,0-1.2,2.1c0,3.1,1.6,2-1.6,3.4-.7.3-1,1-1.9,1.3-1,.3-2.3-.5-2.8.7-.6,1.2,1.1,1.8,1.2,2.5a5.4375,5.4375,0,0,1,0,1.8c0,1.2-1.6,0-.7,1.7.5,1,2.5,1.4,3.4,2a8.2247,8.2247,0,0,0-.6,3.8c0,1,.8,1.4,1,2.1a8.8542,8.8542,0,0,1,0,2.3c0,.7,2.2,1.6,2.5,2.6a2.2674,2.2674,0,0,1-.7,2.3c-.8.6-2,0-2.7,0l-.7,1.5c-1.9,1.5-4.4.5-5.6,2.4-.7,1-.4,2.4-1.3,3.5s-2.9.4-3.4,2.1c-.9,2.9,3.7,1.7,4.6,3.8.3.8-.3,2,0,2.8.5,2.4.9.7,1.7,1.8s.4,1.7,1.1,2.6c1.9,2.2,5.6,0,7.9-.5-.6,1.5-5.6,2.9-6,4.5-.3,1.6,3.9,1.7,3,4.6,1.3,1.1,3.3.3,4.8.6a9.827,9.827,0,0,0,4.8.6c-1.2,1.6-3.5,3.3-3.7,5.6,1.6,0,2.8,1.1,2.1,2.8a3.9,3.9,0,0,0,3,0,2.3893,2.3893,0,0,1,.5,1.4,5.2644,5.2644,0,0,0,.3-3.9l-.7-.7a5.4453,5.4453,0,0,1,3.8,3.7c0,1.1-.7,3.3,0,4.2,1.2,1.7,7,.7,8.7,1.2s2.4,1.6,3.7,2.1c1.2.5,4.3.7,3.8,3s-3.5,1.5-.7,2.8a4.1022,4.1022,0,0,0,5-1.5c1.4,0,1.5,1.6,1.6,2.7,1,0,1.4-1.1,2.2-1.4a9.6375,9.6375,0,0,1,2.4,0c.8,0,1.4-1.2,2.3-1.4s1.9.4,2.8,0,2.1-.9,2.4-1l1.1,1c1.4,0,3.4-1.9,3.9.7,1.6.5,1.4-1.1,2.5-1.4,1.2-.3,1.5.4,2.5.7s2.6,0,3.4,1h.3c2.5,0,5.3-.4,8.1-.3l3.6-1.2c1.2-.5,2.6,0,3.8,0,1.1,0,1.6-2.3,3.9-2.9s4.9-2.3,8.1-1.1a18.0284,18.0284,0,0,1,2.1.8l.6,1.5h1.5c.8.5,1.6,1,2.4,1.4h3.9a23.8339,23.8339,0,0,1,4.6.4,2.3891,2.3891,0,0,0,1.3.7c.6.1.7-1,1.6-.5s.3,2.5,2.9,2.8c2.6.2,1.7-1.2,3.3-2.3,2.4-1.7,2.1,1.5,4.4,1.5a10.1789,10.1789,0,0,0-.3-3.5l-1.9-2.2h-2c-.6,0,0-1.2,0-1.4s-2.5,0-3.3-1.5c-1.6-3.3,4.2-1,5.6-.5,1.4.4,2.1,1.6,3.7,1.1s1.7-3.4,3.5-.7c.5-3.4,6.7,1.1,3.9-4.4,3.4-.8,0-2.5,0-3.7,0-2.4,1.9-1.9,3.2-2.1,3.1-.7,3.7-2.3,3.8-5.6a5.5721,5.5721,0,0,1,1.1-3.7c1-1.8.6-1.5,2.6-2h1.3c.9,0,1.1-.8,1.9-1.1.7-.3,2.8-.7,3.2-1.5.6-3.4-5.2-2.7-6.6-2.7Z" transform="translate(0.0161 0.0119)" fill="#0bf96b"/><path d="M308.5,363.3a31.4142,31.4142,0,0,1-4.6-2.8c-1.2-.7-1.9-.7-2.5-2.3-1.7-4.3,3.7-1.9,6.3-1.9.9,0,2.4.5,2.9-.5.6-.9-1.1-2.7-2-3.1a5.5783,5.5783,0,0,0,.5-3.8c-1-2.4-1.8,0-3.5-.6a2.3727,2.3727,0,0,1-1.7-2.8v-.2c.5-1.7,1.2-1,2.6-1.5s.8-1,1.5-1.1,1.7.7,2.3.6a2.5811,2.5811,0,0,0,2.4-2.4c0-2.5-1.3-1-2.6-1.4-1.4-.4-1.1-1.4-2-2.4-.8-1.1-5.6-2.3-3.7-5.6.6-.8,2.1-.6,2.4-1.7s-.5-1.7-.6-2.4c-.5-2-.3-3.2-2.4-4.2a13.4162,13.4162,0,0,0-5.2-1.4c-1.5,0-2.6,2.5-4.6,0-1-1.1,0-2.9-.8-3.8s-3.5,0-4.5,0-3.5.4-4.2-.4V316l-1.1-1.4c-.4-1.6,1.2-1.8,1.1-3.4s-3-2.1-3.5-3.4l-.4.5v-.7a6.2006,6.2006,0,0,0,.5-4.8,8.1754,8.1754,0,0,1-7-2c-.4-.5,0-1.2-.7-1.7a7.1935,7.1935,0,0,0-2.1-1.2c-1.7-1.2-1.4-1.2-1.7-2.8a2.1062,2.1062,0,0,0,.5-1.3c-.1-.6-1.5-1.3-2.7-1.6s-2.7,0-3.4-1.6.8-3,.5-3.4a4.0278,4.0278,0,0,0-3.7,0c-3-2.4,1.5-3.9,1.4-5.6-.2-1.7-3.3-2.3-4.9-2.1s-1.7.9-3,1.3c-2.8.8-4.4-1.8-6.6-2.7a14.7143,14.7143,0,0,1-3.9-2.1c-1.1-.7-3.1-1.9-4.3-1.2s-.4,2.4-1.2,3.4-2.5,0-4.1,1.4-1,3.8-2.9,2.1c-1.1-.9,0-3.4-2.3-3.4-1.3,0-3.3,2.1-4.6,2.6-1.2.6-2.5,0-3.8.5a37.2727,37.2727,0,0,0-3.5,1.6,20.6561,20.6561,0,0,1-3.4,1.5c-2.1.5-2.5,0-4.1,1.4a8.9192,8.9192,0,0,0-2,3.7c-.6,1.6-.4,2.1-2.5,2.5a4.7071,4.7071,0,0,1-3.8-.8c-.7,4.1-2.5,1-4.8,3.3-1,.9-.7,1.8-1,3-.5,2.4-.7,1.4-2.7,2.2s-2.3,4.4-1.7,7,2.3,3.4-.6,4.4a3.0632,3.0632,0,0,1-3.7-1.4c-.5-.8,0-8.6-3-4.4-.7,1,0,2.7,0,3.8-.8,2.4-2.8,1.1-3.5,2.5-.7,1.5,1,2.4.3,3.5s-3.1.6-4.2,1.2c-1.1.7-.7,1.3-1.7,1.7a4.4833,4.4833,0,0,1-2.3,0c-.6,0-1.4,0-1.2,2,0,3.1,1.6,2.1-1.6,3.5-.7.3-1,1-1.9,1.3s-2.3-.5-2.8.7c-.6,1.2,1,1.8,1.2,2.4a6.0542,6.0542,0,0,1,0,1.9c0,1.1-1.6,0-.7,1.7.4,1,2.5,1.4,3.4,2a8.226,8.226,0,0,0-.6,3.8c0,1,.8,1.4,1.1,2.1a8.8542,8.8542,0,0,1,0,2.3c0,.6,2.2,1.6,2.4,2.6a2.0412,2.0412,0,0,1-.7,2.3c-.8.6-2-.3-2.8,0l-.7,1.5c-1.9,1.4-4.4.5-5.6,2.4-.8,1-.4,2.4-1.4,3.4-1,1.1-2.9.5-3.4,2.2-.8,2.9,3.7,1.6,4.6,3.8.3.9-.3,2,0,2.8.4,2.3.9.7,1.7,1.8s.3,1.7,1.1,2.6c1.9,2.2,5.6,0,8-.5-.6,1.5-5.6,2.9-6,4.5-.3,1.6,3.9,1.7,3,4.5,1.4,1.1,3.3.4,4.8.6s2.7,1.1,4.8.7c-1.2,1.6-3.5,3.3-3.7,5.6,1.6,0,2.8,1,2,2.8a3.9,3.9,0,0,0,3,0,2.6041,2.6041,0,0,1,.4,1.5,5.5266,5.5266,0,0,0,.3-4l-.7-.7a5.1072,5.1072,0,0,1,3.8,3.7c.3,1.1-.7,3.4,0,4.2,1.2,1.7,7,.7,8.7,1.2s2.4,1.7,3.7,2.1c1.3.5,4.3.7,3.8,3s-3.4,1.5-.7,2.8a4.1022,4.1022,0,0,0,5-1.5c1.4,0,1.5,1.6,1.6,2.7,1,0,1.4-1.2,2.2-1.4a9.6375,9.6375,0,0,1,2.4,0c.8,0,1.4-1.2,2.3-1.4s1.9.4,2.8.3,2-1,2.4-1l1.6.6c1.4,0,3.4-1.9,3.9.7,1.6.5,1.4-1.1,2.5-1.4,1.2-.3,1.4.4,2.4.7s2.7,0,3.5,1c2.5,0,5.6-.5,8.1-.3l3.6-1.3c1.1-.4,2.6,0,3.7,0,2-.7,1.7-2.3,3.9-2.9s4.9-2.3,8-1.2a8.493,8.493,0,0,1,2.2.9l.6,1.4h1.5a9.7369,9.7369,0,0,0,2.4,1.5h3.9a35.5292,35.5292,0,0,1,4.6.3,3.596,3.596,0,0,0,1.2.8c.6.1.7-1,1.7-.5s.3,2.6,2.9,2.8,1.7-1.2,3.3-2.3,2.1,1.5,4.3,1.5a6.92,6.92,0,0,0,0-3.5l-2.6-2.5h-1.9c-.6,0,0-1.2,0-1.5,0-.2-2.5,0-3.3-1.5-1.6-3.3,4.3-1,5.6-.5,1.4.5,2.1,1.6,3.7,1.1s1.7-3.4,3.5-.7c.5-3.4,6.8,1.1,4-4.3,3.4-.8,0-2.5,0-3.7,0-2.4,2-1.9,3.3-2.2,3.1-.7,3.7-2.3,3.8-5.6a5.5721,5.5721,0,0,1,1.1-3.7c1.1-1.8.6-1.5,2.6-2h1.2c.9,0,1.2-.8,1.9-1.1s2.8-.7,3.2-1.6c1.4-2.9-4.4-2.1-5.8-2.6Z" transform="translate(0.0161 0.0119)" fill="#16d342"/><path d="M344,312.7a31.4142,31.4142,0,0,1-4.6-2.8c-1.1-.7-1.9-.6-2.5-2.3-1.7-4.3,3.7-1.9,6.3-1.9,1,0,2.4.5,2.9-.5.6-.9-1-2.7-2-3.1a5.5783,5.5783,0,0,0,.5-3.8c-1-2.4-1.8,0-3.4-.6a2.26,2.26,0,0,1-1.8-2.6c0-.1,0-.2.1-.2.5-1.7,1.2-1,2.7-1.6.6,0,.7-1,1.5-1.1s1.6.7,2.3.6a2.6775,2.6775,0,0,0,2.5-2.4c0-2.4-1.4-1-2.7-1.4-1.4-.5-1.1-1.4-2-2.4-.8-1.1-5.6-2.3-3.7-5.6.6-.8,2.1-.6,2.5-1.7s-.5-1.7-.6-2.4c-.5-2-.3-3.2-2.4-4.2a13.4162,13.4162,0,0,0-5.2-1.4c-1.6,0-2.6,2.5-4.6.3-1-1.1,0-2.9-.8-3.8-.8-1-3.5,0-4.5,0s-3.4.4-4.2-.4v-1.5l-1-1.5c-.4-1.6,1.2-1.8,1-3.4s-3-2-3.5-3.4l-.3.5v-.7a6.2006,6.2006,0,0,0,.5-4.8,7.35,7.35,0,0,1-6.9-2c-.5-.5,0-1.2-.7-1.7a7.1935,7.1935,0,0,0-2.1-1.2c-1.7-1.2-1.4-1.2-1.7-2.8a2.1062,2.1062,0,0,0,.5-1.3c-.2-.6-1.5-1.3-2.7-1.6s-2.7,0-3.4-1.6.8-2.9.5-3.4-2.7-.7-3.7,0c-3-2.4,1.6-3.9,1.4-5.6s-3.3-2.2-4.9-2-1.7.8-3,1.2c-2.7.8-4.4-1.8-6.6-2.7a14.7143,14.7143,0,0,1-3.9-2.1c-1.1-.7-3-1.9-4.3-1.2s-.4,2.4-1.1,3.4-2.5,0-4.1,1.4-1,3.8-2.9,2.1c-1.1-.9,0-3.4-2.3-3.4-1.4,0-3.4,2.1-4.6,2.6s-2.5,0-3.8.5a22.1327,22.1327,0,0,0-3.5,1.6,20.6561,20.6561,0,0,1-3.4,1.5c-2.1.5-2.5,0-4.1,1.5a7.467,7.467,0,0,0-2,3.7c-.6,1.6-.4,2.1-2.5,2.5a4.7073,4.7073,0,0,1-3.8-.8c-.7,4.1-2.5,1-4.9,3.3-1,.9-.7,1.8-1,3-.5,2.4-.7,1.4-2.7,2.2s-2.3,4.4-1.7,7,2.3,3.5-.6,4.4a2.86,2.86,0,0,1-3.7-1.4c-.5-.8,0-8.6-3-4.4-.8,1.1,0,2.7,0,3.8-.8,2.3-2.8,1-3.5,2.5s1,2.4.4,3.5-3.2.5-4.3,1.2-.7,1.3-1.7,1.7a4.4837,4.4837,0,0,1-2.3,0c-.6,0-1.4,0-1.2,2.1,0,3,1.6,2-1.6,3.4-.7.3-1,1-1.9,1.3s-2.3-.5-2.8.7c-.6,1.2,1.1,1.8,1.2,2.5a5.4321,5.4321,0,0,1,0,1.8c0,1.1-1.6,0-.7,1.7.4,1,2.5,1.4,3.4,2a8.2247,8.2247,0,0,0-.6,3.8c0,1,.8,1.4,1,2.1a8.8542,8.8542,0,0,1,0,2.3c0,.6,2.2,1.6,2.4,2.6a2.0412,2.0412,0,0,1-.7,2.3c-.8.6-2,0-2.8,0l-.7,1.5c-1.9,1.4-4.4.5-5.6,2.4-.7,1-.4,2.4-1.3,3.5s-2.9.4-3.4,2.1c-.8,2.9,3.8,1.7,4.6,3.8.3.8-.3,2,0,2.8.4,2.3.9.7,1.7,1.8s.4,1.7,1.1,2.6c1.9,2.2,5.6,0,8-.5-.6,1.5-5.6,2.9-6,4.5-.3,1.6,3.9,1.7,3,4.6,1.3,1.1,3.3.3,4.8.6a9.8259,9.8259,0,0,0,4.8.6c-1.2,1.6-3.5,3.3-3.7,5.6,1.6,0,2.8,1.1,2.1,2.8a3.9,3.9,0,0,0,3,0,2.3893,2.3893,0,0,1,.5,1.4,5.2643,5.2643,0,0,0,.3-3.9l-.7-.7a5.1075,5.1075,0,0,1,3.8,3.7c0,1.1-.7,3.4,0,4.2,1.2,1.7,7,.7,8.7,1.2s2.4,1.6,3.7,2.1,4.3.7,3.8,3c-.6,2.3-3.4,1.5-.7,2.8a4.1022,4.1022,0,0,0,5-1.5c1.4,0,1.5,1.6,1.6,2.7,1,0,1.4-1.1,2.2-1.4a9.6375,9.6375,0,0,1,2.4,0c.8,0,1.4-1.2,2.3-1.4s1.9.4,2.8,0a24.4254,24.4254,0,0,1,2.4-1l1.6.6c1.4,0,3.4-1.9,3.9.7,1.6.5,1.4-1.1,2.5-1.4,1.2-.3,1.4.4,2.4.7s2.7.3,3.5,1c2.5,0,5.6-.4,8.1-.3l3.6-1.2c1.2-.5,2.6,0,3.8,0,1.1,0,1.6-2.3,3.9-2.9s4.9-2.3,8.1-1.1a18.0216,18.0216,0,0,1,2.1.8l.6,1.5h1.5a9.7382,9.7382,0,0,0,2.4,1.5h3.9a23.8417,23.8417,0,0,1,4.6.4c.3,0,.7.7,1.2.7s.7-1,1.7-.5.3,2.5,2.9,2.8c2.6.2,1.7-1.2,3.3-2.3,2.4-1.7,2.1,1.5,4.4,1.5a10.1787,10.1787,0,0,0-.3-3.5l-1.9-2.2h-2c-.6,0,0-1.2,0-1.4s-2.5,0-3.3-1.5c-1.6-3.3,4.2-1,5.6-.5s2.1,1.6,3.7,1.1,1.7-3.4,3.5-.7c.5-3.4,6.7,1.1,3.9-4.4,3.4-.8,0-2.5,0-3.7,0-2.4,2-1.9,3.3-2.1,3.1-.7,3.7-2.3,3.8-5.6a5.5721,5.5721,0,0,1,1.1-3.7c1-1.8.6-1.5,2.6-2h1.2c.9,0,1.2-.8,1.9-1.1s2.8-.7,3.2-1.5C351.3,312.3,345.5,313.2,344,312.7Z" transform="translate(0.0161 0.0119)" fill="#71f739"/><path d="M402.1,221.8a21.7732,21.7732,0,0,1-4.6-2.8c-1.2-.7-1.9-.6-2.5-2.2-1.7-4.3,3.7-1.9,6.3-1.9.9,0,2.4.4,2.9-.5.6-.8-1.1-2.7-2-3.1a5.5783,5.5783,0,0,0,.5-3.8c-1-2.4-1.8,0-3.5-.6a2.3727,2.3727,0,0,1-1.7-2.8v-.2c.5-1.7,1.2-1,2.6-1.5s.8-1,1.5-1.1c.7-.2,1.7.7,2.3.6a2.5948,2.5948,0,0,0,2.4-2.5c0-2.4-1.3-1-2.6-1.4-1.4-.4-1.1-1.4-2-2.4-.8-1-5.6-2.4-3.7-5.6.6-.8,2.1-.7,2.4-1.8s-.5-1.6-.6-2.3c-.5-2.1-.3-3.3-2.4-4.2a13.4162,13.4162,0,0,0-5.2-1.4c-1.5,0-2.6,2.5-4.6,0-1-1.1,0-2.9-.8-3.8s-3.5,0-4.5,0-3.5.5-4.2-.4v-1.6l-1.1-1.4c-.4-1.7,1.2-1.9,1.1-3.5-.2-1.6-3-2-3.5-3.4l-.4.5V166a6.2006,6.2006,0,0,0,.5-4.8,7.5355,7.5355,0,0,1-7-2c-.4-.5,0-1.1-.7-1.7a11.2516,11.2516,0,0,0-2.1-1.2c-1.7-1.1-1.4-1.2-1.7-2.7a2.3893,2.3893,0,0,0,.5-1.4c-.2-.6-1.5-1.2-2.7-1.6-1.2-.3-2.8,0-3.4-1.6s.8-2.9.5-3.3-2.7-.7-3.7-.3c-3-2.4,1.5-3.9,1.4-5.6-.2-1.7-3.3-2.3-4.9-2.1s-1.7.8-3,1.3c-2.8.8-4.4-1.9-6.6-2.7a18.6547,18.6547,0,0,1-3.9-2.2c-1.1-.7-3.1-1.9-4.3-1.2s-.4,2.5-1.2,3.4-2.5,0-4.1,1.4-1,3.8-2.9,2.1c-1.1-1,0-3.4-2.3-3.5-1.3,0-3.3,2.1-4.6,2.7-1.2.6-2.5,0-3.8.5a22.6128,22.6128,0,0,0-3.5,1.7,20.25,20.25,0,0,1-3.4,1.4c-2.1.5-2.5,0-4.1,1.5a7.467,7.467,0,0,0-2,3.7c-.6,1.6-.4,2.1-2.5,2.5a4.7071,4.7071,0,0,1-3.8-.8c-.7,4-2.5.9-4.8,3.3-1,1-.7,1.9-1,3-.5,2.5-.7,1.4-2.7,2.2s-2.3,4.4-1.7,7,2.3,3.5-.6,4.5a3.0633,3.0633,0,0,1-3.7-1.4c-.5-.8,0-8.6-3-4.4-.7,1,0,2.6,0,3.8-.8,2.3-2.8,1.1-3.5,2.5-.7,1.5,1,2.4.3,3.5s-3.1.6-4.2,1.2-.7,1.4-1.7,1.7c-1,.4-1.7-.3-2.3,0s-1.4.3-1.2,2.1c0,3.1,1.6,2-1.6,3.5-.7.3-1,1-1.9,1.3s-2.3-.5-2.8.7c-.6,1.2,1,1.7,1.2,2.4a5.4375,5.4375,0,0,1,0,1.8c0,1.2-1.6,0-.7,1.7.4,1,2.5,1.4,3.4,2a8.2247,8.2247,0,0,0-.6,3.8c0,1,.8,1.4,1.1,2.1a8.8542,8.8542,0,0,1,0,2.3c0,.7,2.1,1.6,2.4,2.6a2.0412,2.0412,0,0,1-.7,2.3c-.8.6-2-.3-2.8,0l-.7,1.5c-1.9,1.5-4.4.5-5.6,2.4s-.4,2.4-1.4,3.5-2.9.5-3.4,2.1c-.8,2.9,3.7,1.7,4.6,3.8a13.1042,13.1042,0,0,1,0,2.8c.4,2.4.9.7,1.7,1.9.8,1.1.3,1.7,1.1,2.6,1.9,2.2,5.6,0,8-.5-.6,1.5-5.6,2.9-6,4.4-.3,1.5,3.9,1.7,3,4.6,1.4,1.1,3.3.3,4.8.6a9.826,9.826,0,0,0,4.8.6c-1.2,1.7-3.5,3.3-3.7,5.6,1.6,0,2.8,1.1,2,2.8a3.9,3.9,0,0,0,3,0,2.2959,2.2959,0,0,1,.4,1.4,5.2643,5.2643,0,0,0,.3-3.9l-.7-.7a5.6333,5.6333,0,0,1,3.8,3.7c0,1.1-.7,3.3,0,4.2,1.2,1.8,7,.7,8.7,1.2s2.4,1.6,3.7,2.1,4.3.6,3.8,3-3.4,1.4-.7,2.7a3.9859,3.9859,0,0,0,5-1.5c1.4,0,1.5,1.6,1.6,2.6,1,0,1.4-1.1,2.2-1.4a9.6375,9.6375,0,0,1,2.4,0c.8,0,1.4-1.2,2.3-1.5.9-.2,1.9.5,2.8,0a9.8893,9.8893,0,0,1,2.4-.9l1.6.6c1.4,0,3.4-2,3.9.7,1.6.4,1.4-1.2,2.5-1.5,1.2-.3,1.4.4,2.4.7s2.7.3,3.5,1.1c2.5,0,5.6-.4,8.1-.3l3.6-1.2c1.1-.4,2.6,0,3.7,0,2-.7,1.7-2.3,3.9-2.9,2.3-.6,4.9-2.2,8-1.1a14.2725,14.2725,0,0,1,2.2.8l.6,1.5h1.5a7.2172,7.2172,0,0,0,2.4,1.4h3.9a23.8339,23.8339,0,0,1,4.6.4,3.596,3.596,0,0,0,1.2.8c.5.1.7-1,1.7-.5s.3,2.5,2.9,2.8c2.6.2,1.7-1.2,3.3-2.3s2.1,1.5,4.3,1.4a6.9181,6.9181,0,0,0,0-3.5l-2-2.1h-1.9c-.5,0,0-1.2,0-1.5,0-.2-2.5,0-3.3-1.5-1.6-3.3,4.3-1,5.6-.5,1.4.5,2,1.7,3.7,1.1s1.7-3.3,3.5-.7c.5-3.4,6.8,1.1,4-4.3,3.4-.8,0-2.5,0-3.8,0-2.4,2-1.9,3.3-2.1,3.1-.7,3.7-2.3,3.8-5.6a5.5718,5.5718,0,0,1,1.1-3.7c1.1-1.8.6-1.6,2.6-2.1h1.2c.9,0,1.2-.8,1.9-1.1s2.8-.7,3.2-1.5c.9-2.7-4.9-1.9-6.4-2.4Z" transform="translate(0.0161 0.0119)" fill="#71f739"/><path d="M308.5,168.2a31.4142,31.4142,0,0,1-4.6-2.8c-1.2-.7-1.9-.6-2.5-2.2-1.7-4.3,3.7-1.9,6.3-1.9.9,0,2.4.5,2.9-.5.6-.9-1.1-2.7-2-3.1a5.5783,5.5783,0,0,0,.5-3.8c-1-2.4-1.8,0-3.5-.6a2.1676,2.1676,0,0,1-1.7-2.6v-.1c0-.1,0-.1.1-.2.5-1.7,1.2-1,2.6-1.6s.8-1,1.5-1.1,1.7.7,2.3.6a2.5809,2.5809,0,0,0,2.4-2.4c0-2.4-1.3-1-2.6-1.4-1.4-.5-1.1-1.4-2-2.4-.8-1.1-5.6-2.3-3.7-5.6.6-.8,2.1-.6,2.4-1.7s-.5-1.6-.6-2.3c-.5-2.1-.3-3.3-2.4-4.2a15.5684,15.5684,0,0,0-5.2-1.5c-1.5,0-2.6,2.5-4.6.3-1-1.1,0-2.9-.8-3.8-.8-1-3.5,0-4.5,0s-3.5.4-4.2-.4v-1.6l-1.1-1.5c-.4-1.6,1.2-1.8,1.1-3.4-.2-1.6-3-2-3.5-3.4l-.4.5v-.7a6.2006,6.2006,0,0,0,.5-4.8,7.5355,7.5355,0,0,1-7-2c-.4-.5,0-1.2-.7-1.7s-1.5-.8-2.1-1.2c-1.7-1.2-1.4-1.2-1.7-2.7a2.3893,2.3893,0,0,0,.5-1.4c-.2-.6-1.5-1.3-2.7-1.6s-2.7,0-3.4-1.6.8-2.9.5-3.4-2.7-.7-3.7,0c-3-2.4,1.5-3.9,1.4-5.6-.2-1.7-3.3-2.2-4.9-2s-1.7.8-3,1.2c-2.8.8-4.4-1.8-6.6-2.7a14.7143,14.7143,0,0,1-3.9-2.1c-1.1-.7-3.1-1.9-4.3-1.2s-.4,2.4-1.2,3.4-2.5,0-4.1,1.4-1,3.8-2.9,2.1c-1.1-1,0-3.4-2.3-3.5-1.3,0-3.3,2.1-4.6,2.6-1.2.5-2.5,0-3.8.5a16.1534,16.1534,0,0,0-3.5,1.7,20.25,20.25,0,0,1-3.4,1.4c-2.1.5-2.5,0-4.1,1.5a7.467,7.467,0,0,0-2,3.7c-.6,1.6-.4,2.1-2.5,2.5a4.7071,4.7071,0,0,1-3.8-.8c-.7,4.1-2.5,1-4.8,3.3-1,.9-.7,1.8-1,3-.5,2.4-.7,1.4-2.7,2.2s-2.3,4.4-1.7,7,2.3,3.5-.6,4.4a2.9843,2.9843,0,0,1-3.9-1.7h0c-.5-.8,0-8.6-3-4.4-.7,1.1,0,2.7,0,3.8-.8,2.3-2.8,1-3.5,2.5s1,2.4.3,3.5-3.1.6-4.2,1.2-.7,1.3-1.7,1.7a4.4833,4.4833,0,0,1-2.3,0c-.6,0-1.4,0-1.2,2.1,0,3.1,1.6,2-1.6,3.4-.7.3-1,1-1.9,1.3s-2.3-.5-2.8.7c-.6,1.2,1,1.8,1.2,2.5a5.4375,5.4375,0,0,1,0,1.8c0,1.2-1.6,0-.7,1.7.4,1,2.5,1.4,3.4,2a8.2247,8.2247,0,0,0-.6,3.8c0,1,.8,1.4,1.1,2.1a8.8542,8.8542,0,0,1,0,2.3c0,.7,2.2,1.6,2.4,2.6a2.0412,2.0412,0,0,1-.7,2.3c-.8.6-2,0-2.8,0l-.7,1.5c-1.9,1.5-4.4.5-5.6,2.4s-.4,2.4-1.4,3.5-2.9.4-3.4,2.1c-.8,2.9,3.7,1.7,4.6,3.8.3.8-.3,2,0,2.8.4,2.4.9.7,1.7,1.8s.3,1.8,1.1,2.6c1.9,2.2,5.6,0,8-.5-.6,1.5-5.6,3-6,4.5-.3,1.5,3.9,1.7,3,4.6,1.4,1.1,3.3.3,4.8.6a9.8259,9.8259,0,0,0,4.8.6c-1.2,1.6-3.5,3.3-3.7,5.6,1.6,0,2.8,1.1,2,2.8a3.9,3.9,0,0,0,3,0,2.2959,2.2959,0,0,1,.4,1.4,5.2643,5.2643,0,0,0,.3-3.9l-.7-.7a5.4452,5.4452,0,0,1,3.8,3.7c.3,1.1-.7,3.3,0,4.2,1.2,1.7,7,.7,8.7,1.2s2.4,1.6,3.7,2.1,4.3.7,3.8,3-3.4,1.5-.7,2.8a4.1022,4.1022,0,0,0,5-1.5c1.4.3,1.5,1.6,1.6,2.7,1,0,1.4-1.1,2.2-1.4a9.6279,9.6279,0,0,1,2.4,0c.8,0,1.4-1.2,2.3-1.4s1.9.4,2.8,0a11.7248,11.7248,0,0,1,2.4-.9l1.6.6c1.4,0,3.4-1.9,3.9.7,1.6.5,1.4-1.1,2.5-1.4,1.2-.3,1.4.4,2.4.7s2.7,0,3.5,1c2.5,0,5.6-.4,8.1-.3l3.6-1.2c1.1-.5,2.6,0,3.7,0,2-.7,1.7-2.3,3.9-2.9,2.3-.6,4.9-2.3,8-1.1a14.2725,14.2725,0,0,1,2.2.8l.6,1.5h1.5c.8.5,1.6,1,2.4,1.4h3.9a23.8339,23.8339,0,0,1,4.6.4,3.596,3.596,0,0,0,1.2.8c.6.1.7-1.1,1.7-.5s.3,2.5,2.9,2.8c2.6.2,1.7-1.2,3.3-2.3s2.1,1.5,4.3,1.5a6.9181,6.9181,0,0,0,0-3.5l-2.5-2.3h-1.9c-.6,0,0-1.2,0-1.4s-2.5,0-3.3-1.5c-1.6-3.3,4.3-1,5.6-.5,1.4.5,2.1,1.6,3.7,1.1s1.7-3.4,3.5-.7c.5-3.4,6.8,1.1,4-4.4,3.4-.8,0-2.5,0-3.7,0-2.4,2-1.9,3.3-2.1,3.1-.7,3.7-2.3,3.8-5.6a5.5721,5.5721,0,0,1,1.1-3.7c1.1-1.8.6-1.5,2.6-2h1.2c.9,0,1.2-.8,1.9-1.1s2.6-.8,2.6-1.4c2-3.4-3.8-2.6-5.2-3.1Z" transform="translate(0.0161 0.0119)" fill="#71f739"/><path d="M354.2,265.4a21.7732,21.7732,0,0,1-4.6-2.8c-1.1-.7-1.9-.7-2.5-2.3-1.7-4.3,3.7-1.9,6.3-1.9,1,0,2.4.5,3-.5.6-.9-1.1-2.7-2-3.1a6.2249,6.2249,0,0,0,.5-3.8c-1-2.4-1.7,0-3.4-.6a2.4212,2.4212,0,0,1-1.8-2.7c0-.1,0-.1.1-.2.5-1.7,1.3-1,2.7-1.5s.7-1,1.5-1.1,1.7.7,2.3.6a2.5809,2.5809,0,0,0,2.4-2.4c0-2.4-1.4-1-2.6-1.4-1.3-.4-1.2-1.4-2-2.4-.8-1.1-5.6-2.3-3.6-5.6.6-.8,2.1-.6,2.4-1.7s-.5-1.7-.6-2.4c-.5-2-.3-3.2-2.4-4.2a13.4162,13.4162,0,0,0-5.2-1.4c-1.5,0-2.6,2.5-4.6.3-1-1.1,0-2.9-.8-3.8s-3.4,0-4.4,0-3.5.4-4.2-.4v-1.6l-1-1.5c-.4-1.6,1.2-1.8,1-3.4s-3-2-3.5-3.4l-.5.3v-.6a6.6741,6.6741,0,0,0,.5-4.8A7.7092,7.7092,0,0,1,320,203c-.4-.5,0-1.2-.7-1.7a8.1746,8.1746,0,0,0-2-1.2c-1.7-1.2-1.4-1.2-1.8-2.8,0,0,.7-.7.5-1.3s-1.5-1.3-2.6-1.6-2.8,0-3.4-1.6.7-2.9.5-3.4c-.3-.5-2.7-.7-3.6,0-3-2.4,1.5-3.9,1.3-5.6s-3.3-2.3-4.8-2.1c-1.6.2-1.7.9-3,1.3-2.7.8-4.3-1.8-6.6-2.7a14.7128,14.7128,0,0,1-3.9-2.1c-1-.7-3-1.9-4.3-1.2-1.2.7-.4,2.4-1.2,3.4s-2.5,0-4.1,1.4-1,3.8-2.9,2.1c-1.1-.9,0-3.4-2.3-3.4-1.4,0-3.4,2.1-4.6,2.6s-2.5,0-3.8.5a37.2727,37.2727,0,0,0-3.5,1.6,20.6524,20.6524,0,0,1-3.4,1.5c-2,.5-2.5,0-4.1,1.5a10.2319,10.2319,0,0,0-2,3.7c-.6,1.6-.3,2.1-2.5,2.5a4.7071,4.7071,0,0,1-3.8-.8c-.7,4.1-2.5,1-4.9,3.3-.9.9-.7,1.8-.9,3-.5,2.4-.7,1.4-2.7,2.2s-2.3,4.4-1.7,7,2.3,3.5-.6,4.4a3.0633,3.0633,0,0,1-3.7-1.4c-.5-.8,0-8.6-3-4.4-.8,1,0,2.7,0,3.8-.8,2.4-2.8,1.1-3.5,2.5-.7,1.5,1.1,2.4.4,3.5s-3.1.6-4.2,1.2c-1.1.7-.7,1.3-1.7,1.7a4.4833,4.4833,0,0,1-2.3,0c-.6,0-1.4,0-1.2,2,0,3.1,1.6,2.1-1.5,3.5-.8.3-1,1-2,1.3s-2.3-.5-2.8.7c-.6,1.2,1.1,1.8,1.2,2.4a6.0542,6.0542,0,0,1,0,1.9c0,1.1-1.5,0-.7,1.7.5,1,2.6,1.4,3.4,2a8.2247,8.2247,0,0,0-.6,3.8c0,1,.8,1.4,1,2.1a8.8542,8.8542,0,0,1,0,2.3c0,.6,2.2,1.6,2.5,2.6a2.0412,2.0412,0,0,1-.7,2.3c-.7.6-2-.3-2.7,0l-.7,1.5c-1.8,1.4-4.4.5-5.6,2.4-.8,1-.4,2.4-1.4,3.4s-2.9.5-3.4,2.2c-.8,2.9,3.7,1.7,4.6,3.8.3.9-.3,2,0,2.8.4,2.3.9.7,1.7,1.8s.3,1.7,1.1,2.6c1.9,2.2,5.6,0,8-.5-.6,1.5-5.6,2.9-6,4.5s4,1.7,3,4.5c1.3,1.1,3.3.4,4.8.6,1.6.2,2.6,1.1,4.7.7-1.2,1.6-3.5,3.3-3.7,5.6,1.7,0,2.8,1,2.1,2.8a3.9,3.9,0,0,0,3,0,2.6041,2.6041,0,0,1,.4,1.5,5.5266,5.5266,0,0,0,.3-4l-.7-.7a5.309,5.309,0,0,1,3.7,3.7c0,1.1-.6,3.4,0,4.2,1.2,1.7,7,.7,8.7,1.2s2.4,1.7,3.7,2.1c1.3.5,4.3.7,3.8,3s-3.5,1.5-.7,2.8a4.1023,4.1023,0,0,0,5-1.5c1.5,0,1.5,1.6,1.6,2.7,1,0,1.4-1.2,2.3-1.4a9.6375,9.6375,0,0,1,2.4,0c.8,0,1.4-1.2,2.3-1.4s2,.4,2.9.3,2-1,2.4-1l1.6.6c1.4,0,3.4-1.9,3.9.7,1.6.5,1.4-1.1,2.5-1.4s1.5.4,2.5.7a8.7849,8.7849,0,0,1,3.5,1c2.6,0,5.6-.4,8.1-.3l3.6-1.2c1.2-.5,2.6,0,3.8,0s1.6-2.3,3.9-2.9,5-2.3,8.1-1.2a8.488,8.488,0,0,1,2.2.9l.6,1.4h1.5A9.7369,9.7369,0,0,0,313,299h3.9a24.8672,24.8672,0,0,1,4.7.4,2.4,2.4,0,0,0,1.2.7c.6.1.7-1,1.7-.5s.3,2.6,2.9,2.8,1.7-1.2,3.3-2.3c2.4-1.7,2.1,1.5,4.4,1.5a10.2833,10.2833,0,0,0,0-3.5l-2-2.2h-1.9c-.6,0,0-1.2,0-1.5s-2.5,0-3.3-1.5c-1.6-3.3,4.2-1,5.6-.5s2,1.6,3.7,1.1,1.7-3.4,3.5-.7c.5-3.4,6.8,1.1,3.9-4.4,3.4-.8,0-2.5,0-3.7,0-2.4,2-1.9,3.2-2.2,3.2-.7,3.8-2.3,3.8-5.6a5.5724,5.5724,0,0,1,1.1-3.7c1-1.8.6-1.5,2.6-2h1.3c.9,0,1.1-.8,1.9-1.1.7-.3,2.8-.7,3.2-1.6-.2-3.5-6-2.6-7.5-3.1Z" transform="translate(0.0161 0.0119)" fill="#0bf96b"/><path d="M221.6,257.7a31.4142,31.4142,0,0,1-4.6-2.8c-1.1-.7-1.9-.7-2.5-2.3-1.7-4.3,3.7-1.9,6.3-1.9,1,0,2.4.5,2.9-.5.6-.9-1-2.7-2-3.1a5.5783,5.5783,0,0,0,.5-3.8c-1-2.4-1.8,0-3.4-.6A2.4212,2.4212,0,0,1,217,240c0-.1,0-.1.1-.2.5-1.7,1.2-1,2.6-1.5s.8-1,1.6-1.1,1.6.6,2.3.6a2.5809,2.5809,0,0,0,2.4-2.4c0-2.5-1.3-1-2.6-1.4-1.4-.4-1.1-1.4-2-2.4-.8-1-5.6-2.3-3.7-5.6.6-.8,2.1-.7,2.4-1.8s-.5-1.6-.6-2.3c-.5-2-.3-3.2-2.4-4.2a13.4162,13.4162,0,0,0-5.2-1.4c-1.5,0-2.6,2.5-4.6,0-1-1.1,0-2.9-.8-3.8s-3.5,0-4.5,0-3.4.5-4.2-.4v-1.6l-1-1.4c-.5-1.6,1.2-1.8,1-3.5s-3-2-3.5-3.4l-.4.5v-.6a6.2006,6.2006,0,0,0,.5-4.8,8.1754,8.1754,0,0,1-7-2c-.4-.5,0-1.2-.7-1.7a7.1935,7.1935,0,0,0-2.1-1.2c-1.7-1.2-1.4-1.3-1.7-2.8a2.1062,2.1062,0,0,0,.5-1.3c-.2-.6-1.5-1.3-2.7-1.6s-2.7,0-3.4-1.6.8-3,.5-3.4-2.7-.7-3.7-.3c-3-2.3,1.6-3.9,1.4-5.6s-3.3-2.3-4.9-2.1-1.7.9-3,1.3c-2.7.8-4.4-1.8-6.6-2.7a24.1867,24.1867,0,0,1-3.9-2.1c-1.1-.7-3.1-2-4.3-1.2-1.2.7-.4,2.5-1.1,3.4-.7,1-2.5,0-4.2,1.4-1.6,1.4-1,3.8-2.9,2.1-1.1-1,0-3.4-2.3-3.4-1.3,0-3.3,2.1-4.5,2.6-1.2.6-2.5,0-3.9.5a22.1327,22.1327,0,0,0-3.5,1.6,14.3441,14.3441,0,0,1-3.4,1.4c-2.1.5-2.5,0-4.1,1.5a7.467,7.467,0,0,0-2,3.7c-.6,1.6-.4,2.1-2.5,2.5a4.7071,4.7071,0,0,1-3.8-.8c-.7,4.1-2.5.9-4.8,3.3-1,1-.7,1.9-1,3.1-.5,2.4-.7,1.3-2.7,2.1s-2.3,4.4-1.7,7.1c.6,2.6,2.3,3.4-.6,4.4a3.0633,3.0633,0,0,1-3.7-1.4c-.5-.8,0-8.5-3-4.4-.7,1,0,2.6,0,3.8-.8,2.3-2.8,1.1-3.5,2.5-.7,1.5,1,2.4.4,3.5s-3.2.6-4.3,1.2c-1.1.7-.7,1.3-1.7,1.7a4.4833,4.4833,0,0,1-2.3,0c-.6,0-1.4.3-1.2,2.1,0,3.1,1.6,2.1-1.6,3.5-.7.3-1,1-1.9,1.3s-2.3-.5-2.8.7c-.6,1.2,1,1.7,1.2,2.4a6.0542,6.0542,0,0,1,0,1.9c0,1.1-1.6,0-.7,1.7.4,1,2.5,1.5,3.4,2a8.2247,8.2247,0,0,0-.6,3.8c0,1,.8,1.4,1,2.1a8.8542,8.8542,0,0,1,0,2.3c0,.6,2.2,1.6,2.4,2.6a2.0412,2.0412,0,0,1-.7,2.3c-.8.6-2-.3-2.8,0l-.7,1.5c-1.9,1.4-4.4.5-5.6,2.4-.8,1-.4,2.4-1.4,3.4-1,1.1-2.9.5-3.4,2.1-.8,2.9,3.7,1.7,4.6,3.8.4.9-.3,2,0,2.8.4,2.4.9.7,1.7,1.9.8,1.1.4,1.7,1.1,2.6,1.9,2.2,5.6,0,8-.5-.6,1.5-5.6,2.9-6,4.4-.3,1.5,3.9,1.7,3,4.6,1.3,1.1,3.3.4,4.8.6a11.2264,11.2264,0,0,0,4.8.7c-1.2,1.6-3.5,3.3-3.7,5.6,1.6,0,2.8,1,2,2.8a3.9,3.9,0,0,0,3,0,3.36,3.36,0,0,1,.5,1.4,5.2643,5.2643,0,0,0,.3-3.9l-.7-.7a5.1075,5.1075,0,0,1,3.8,3.7c.3,1.1-.7,3.3,0,4.2,1.2,1.8,7,.8,8.7,1.2,1.7.5,2.4,1.7,3.7,2.1,1.3.5,4.3.7,3.8,3s-3.4,1.4-.7,2.8a4.1022,4.1022,0,0,0,5-1.5c1.4,0,1.5,1.6,1.6,2.6,1,0,1.4-1.1,2.2-1.4a9.6375,9.6375,0,0,1,2.4,0c.8,0,1.4-1.2,2.3-1.5s1.9.5,2.8.3c.9-.1,2-1,2.4-1l1.6.6c1.4,0,3.4-2,3.9.7,1.6.5,1.4-1.1,2.5-1.5,1.2-.3,1.4.4,2.4.7s2.7,0,3.5,1c2.5,0,5.6-.5,8.1-.4l3.6-1.2c1.2-.4,2.6,0,3.8,0,2-.7,1.6-2.3,3.9-2.8,2.3-.6,4.9-2.3,8.1-1.2a7.838,7.838,0,0,1,2.1.9l.6,1.4h1.5a9.7369,9.7369,0,0,0,2.4,1.5h3.9a35.5292,35.5292,0,0,1,4.6.3c.3,0,.7.7,1.2.8s.7-1,1.7-.5.3,2.6,2.9,2.8,1.7-1.2,3.3-2.3,2.1,1.5,4.4,1.4a10.1791,10.1791,0,0,0-.3-3.5l-2-2.1h-1.9c-.6,0,0-1.2,0-1.5,0-.2-2.5,0-3.3-1.5-1.6-3.3,4.3-1,5.6-.6,1.4.4,2.1,1.7,3.7,1.2s1.7-3.4,3.5-.7c.5-3.4,6.7,1.1,3.9-4.3,3.4-.8,0-2.5,0-3.8,0-2.4,2-1.9,3.3-2.1,3.1-.7,3.7-2.3,3.8-5.6a5.5718,5.5718,0,0,1,1.1-3.7c1.1-1.8.6-1.6,2.6-2.1h1.2c.9,0,1.2-.8,1.9-1.2.7-.3,2.8-.7,3.2-1.5C228.8,257.3,223,258.2,221.6,257.7Z" transform="translate(0.0161 0.0119)" fill="#0bf96b"/><path d="M150.8,277a21.7732,21.7732,0,0,1-4.6-2.8c-1.1-.7-1.9-.6-2.5-2.2-1.7-4.3,3.7-1.9,6.3-1.9,1,0,2.4.5,2.9-.5.6-.9-1-2.7-2-3.1a5.5783,5.5783,0,0,0,.5-3.8c-1-2.4-1.8,0-3.4-.6a2.26,2.26,0,0,1-1.8-2.6c0-.1,0-.2.1-.2.5-1.7,1.2-1,2.7-1.6.6,0,.7-1,1.5-1.1s1.6.7,2.3.6a2.5809,2.5809,0,0,0,2.4-2.4c0-2.4-1.4-1-2.6-1.4-1.3-.5-1.2-1.4-2-2.4s-5.6-2.3-3.6-5.6c.6-.8,2-.6,2.4-1.7s-.5-1.6-.6-2.4c-.5-2-.3-3.2-2.4-4.2a13.4162,13.4162,0,0,0-5.2-1.4c-1.6,0-2.6,2.5-4.6.3-1-1.1,0-2.9-.8-3.8-.8-1-3.4,0-4.5,0s-3.4.4-4.2-.4v-1.6l-1-1.5c-.4-1.6,1.2-1.8,1-3.4s-3-2-3.5-3.4l-.3.5v-.7a6.2006,6.2006,0,0,0,.5-4.8,7.35,7.35,0,0,1-6.9-2c-.4-.5,0-1.2-.7-1.7s-1.5-.8-2.1-1.2c-1.7-1.2-1.4-1.2-1.7-2.8,0,0,.7-.7.5-1.3s-1.5-1.3-2.7-1.6-2.7,0-3.4-1.6.8-2.9.5-3.4-2.7-.7-3.7,0c-3-2.4,1.6-3.9,1.4-5.6s-3.3-2.2-4.8-2c-1.6.2-1.7.8-3,1.2-2.7.8-4.4-1.8-6.6-2.7a14.7143,14.7143,0,0,1-3.9-2.1c-1-.7-3-1.9-4.3-1.2s-.4,2.4-1.1,3.4-2.5,0-4.1,1.4-1,3.8-2.9,2.1c-1.1-.9,0-3.4-2.3-3.4-1.4,0-3.4,2.1-4.6,2.6s-2.5,0-3.8.5a16.1534,16.1534,0,0,0-3.5,1.7,20.25,20.25,0,0,1-3.4,1.4c-2.1.5-2.5,0-4.1,1.5a7.467,7.467,0,0,0-2,3.7c-.6,1.6-.4,2.1-2.5,2.5a4.3355,4.3355,0,0,1-3.9-1.2c-.7,4.1-2.5,1-4.9,3.3-1,.9-.7,1.8-.9,3-.5,2.4-.7,1.4-2.7,2.2s-2.4,4.4-1.7,7c.6,2.6,2.3,3.5-.5,4.4a2.86,2.86,0,0,1-3.7-1.4c-.5-.8,0-8.6-3-4.4-.8,1.1,0,2.7,0,3.8-.8,2.3-2.8,1-3.5,2.5s1,2.4.4,3.5-3.1.5-4.2,1.2-.7,1.3-1.7,1.7a4.4833,4.4833,0,0,1-2.3,0c-.6,0-1.4,0-1.2,2.1,0,3.1,1.6,2-1.6,3.4-.7.3-1,1-1.9,1.3-1,.3-2.3-.5-2.8.7-.6,1.2,1.1,1.8,1.2,2.5a5.4375,5.4375,0,0,1,0,1.8c0,1.2-1.6,0-.7,1.7.5,1,2.5,1.4,3.4,2a8.2247,8.2247,0,0,0-.6,3.8c0,1,.8,1.4,1,2.1a8.8542,8.8542,0,0,1,0,2.3c0,.6,2.2,1.6,2.5,2.6a2.2674,2.2674,0,0,1-.7,2.3c-.8.6-2,0-2.7,0l-.7,1.5c-1.9,1.5-4.4.5-5.9,2.4-.7,1-.4,2.4-1.3,3.5S.6,268.3.1,270c-.9,2.9,3.7,1.7,4.6,3.8.3.8-.3,2,0,2.8.5,2.3.9.7,1.7,1.8s.4,1.7,1.1,2.6c1.9,2.2,5.6,0,7.9-.5-.6,1.5-5.6,2.9-6,4.5-.3,1.6,3.9,1.7,3,4.6,1.3,1.1,3.3.3,4.8.6a9.8259,9.8259,0,0,0,4.8.6c-1.2,1.6-3.5,3.3-3.7,5.6,1.6.3,2.8,1.1,2.1,2.8a3.9,3.9,0,0,0,3,0,2.3893,2.3893,0,0,1,.5,1.4,5.2643,5.2643,0,0,0,.3-3.9l-.7-.7a5.4453,5.4453,0,0,1,3.8,3.7c0,1.1-.7,3.3,0,4.2,1.2,1.7,7,.7,8.7,1.2s2.4,1.6,3.7,2.1c1.2.5,4.3.7,3.8,3s-3.5,1.5-.7,2.8a4.1022,4.1022,0,0,0,5-1.5c1.4,0,1.5,1.6,1.6,2.7,1,0,1.4-1.1,2.2-1.4a9.6375,9.6375,0,0,1,2.4,0c.8,0,1.4-1.2,2.3-1.4s1.9.4,2.8.3,2.1-1,2.4-1l1.6.6c1.4,0,3.4-1.9,3.9.7,1.6.5,1.4-1.1,2.5-1.4,1.2-.3,1.5.4,2.5.7s2.6,0,3.4,1c2.5,0,5.6-.4,8.1-.3l3.6-1.2c1.2-.5,2.6,0,3.8,0,1.1,0,1.6-2.3,3.9-2.9s4.9-2.3,8.1-1.1a18.0464,18.0464,0,0,1,2.1.8l.6,1.5h1.5c.8.5,1.6,1,2.4,1.4h3.9a23.8339,23.8339,0,0,1,4.6.4c.3,0,.7.7,1.3.8s.7-1.1,1.7-.5.3,2.5,2.9,2.8c2.6.2,1.7-1.2,3.3-2.3,2.4-1.7,2.1,1.5,4.4,1.5a10.1789,10.1789,0,0,0-.3-3.5l-1.9-2.2h-2c-.6,0,0-1.2,0-1.4s-2.5,0-3.3-1.5c-1.6-3.3,4.2-1,5.6-.5s2.1,1.6,3.7,1.1,1.7-3.4,3.5-.7c.5-3.4,6.7,1.1,3.9-4.4,3.4-.8,0-2.5,0-3.7,0-2.4,1.9-1.9,3.2-2.1,3.2-.7,3.7-2.3,3.8-5.6a5.5721,5.5721,0,0,1,1.1-3.7c1-1.8.6-1.5,2.6-2h1.3c.9,0,1.1-.8,1.9-1.1.7-.3,2.8-.7,3.2-1.5.3-3.8-5.5-2.9-7.1-3.4Z" transform="translate(0.0161 0.0119)" fill="#16d342"/><path d="M257.3,139.4a31.4142,31.4142,0,0,1-4.6-2.8c-1.1-.7-1.9-.7-2.5-2.3-1.7-4.3,3.7-1.9,6.3-1.9,1,0,2.4.5,2.9-.5.6-.9-1-2.7-2-3.1a5.5783,5.5783,0,0,0,.5-3.8c-1-2.3-1.8,0-3.4-.6a2.26,2.26,0,0,1-1.8-2.6.3674.3674,0,0,1,.1-.3c.5-1.7,1.2-1,2.6-1.5,1.4-.6.8-1,1.6-1.1s1.6.7,2.3.6a2.5811,2.5811,0,0,0,2.4-2.4c0-2.4-1.3-1-2.6-1.4-1.4-.5-1.1-1.4-2-2.4-.8-1.1-5.6-2.3-3.7-5.6.6-.8,2.1-.6,2.5-1.7s-.5-1.7-.6-2.4c-.5-2-.3-3.2-2.4-4.2a13.4157,13.4157,0,0,0-5.2-1.4c-1.5,0-2.6,2.5-4.6.3-1-1.1,0-2.9-.8-3.8-.8-1-3.5,0-4.5,0s-3.4.4-4.2-.4V92.5l-1-1.5c-.5-1.6,1.2-1.8,1-3.4s-3-2-3.5-3.4l-.4.5V84a6.2006,6.2006,0,0,0,.5-4.8,7.88,7.88,0,0,1-7-2c-.4-.5,0-1.2-.7-1.7a7.1941,7.1941,0,0,0-2.1-1.2c-1.7-1.2-1.4-1.2-1.7-2.8a2.1062,2.1062,0,0,0,.5-1.3c-.2-.6-1.5-1.3-2.7-1.6s-2.7,0-3.4-1.6.8-2.9.5-3.4-2.7-.7-3.7,0c-3-2.4,1.6-3.9,1.4-5.6s-3.3-2.2-4.9-2-1.7.8-3,1.2c-2.7.8-4.4-1.8-6.6-2.7a14.7143,14.7143,0,0,1-3.9-2.1c-1.1-.7-3-1.9-4.3-1.2s-.4,2.4-1.1,3.4-2.5,0-4.2,1.4c-1.6,1.4-1,3.8-2.9,2.1s0-3.4-2.3-3.4c-1.3,0-3.3,2.1-4.5,2.6s-2.5,0-3.9.5a37.2727,37.2727,0,0,0-3.5,1.6,20.6524,20.6524,0,0,1-3.4,1.5c-2.1.5-2.5,0-4.1,1.5a7.467,7.467,0,0,0-2,3.7c-.6,1.6-.4,2.1-2.5,2.5a4.7071,4.7071,0,0,1-3.8-.8c-.7,4.1-2.5,1-4.9,3.3-1,.9-.7,1.8-1,3-.5,2.4-.7,1.4-2.7,2.2s-2.3,4.4-1.7,7,2.3,3.5-.6,4.4a2.86,2.86,0,0,1-3.7-1.4c-.5-.8,0-8.6-3-4.4-.7,1.1,0,2.7,0,3.8-.8,2.3-2.8,1-3.5,2.5s1,2.4.4,3.5-3.2.5-4.3,1.2-.7,1.3-1.7,1.7-1.7-.3-2.3,0-1.4,0-1.2,2.1c0,3,1.6,2-1.6,3.4-.7.3-1,1-1.9,1.3s-2.3-.5-2.8.7c-.6,1.2,1,1.8,1.2,2.5a5.4375,5.4375,0,0,1,0,1.8c0,1.1-1.6,0-.7,1.7.4,1,2.5,1.4,3.4,2a8.2247,8.2247,0,0,0-.6,3.8c0,1,.8,1.4,1,2.1a8.8542,8.8542,0,0,1,0,2.3c0,.6,2.2,1.6,2.4,2.6a2.0412,2.0412,0,0,1-.7,2.3c-.8.6-2-.3-2.8,0l-.7,1.5c-1.9,1.4-4.4.5-5.9,2.4-.8,1-.4,2.4-1.3,3.4s-2.9.5-3.4,2.2c-.8,2.9,3.7,1.7,4.6,3.8.4.8-.3,2,0,2.8.4,2.3.9.7,1.7,1.8s.4,1.7,1.1,2.6c1.9,2.2,5.6,0,8-.5-.6,1.5-5.6,2.9-6,4.5-.3,1.6,3.9,1.7,3,4.6,1.3,1.1,3.3.3,4.8.6a9.8259,9.8259,0,0,0,4.8.6c-1.2,1.6-3.5,3.3-3.7,5.6,1.6,0,2.8,1.1,2,2.8a3.9,3.9,0,0,0,3,0,2.9757,2.9757,0,0,1,.5,1.5,5.5266,5.5266,0,0,0,.3-4l-.7-.7a5.1075,5.1075,0,0,1,3.8,3.7c.3,1.1-.7,3.4,0,4.2,1.2,1.7,7,.7,8.7,1.2s2.4,1.6,3.7,2.1,4.3.7,3.8,3c-.6,2.3-3.4,1.5-.7,2.8a4.1022,4.1022,0,0,0,5-1.5c1.4,0,1.5,1.6,1.6,2.7,1,0,1.4-1.1,2.2-1.4a9.6375,9.6375,0,0,1,2.4,0c.8,0,1.4-1.2,2.3-1.4s1.9.4,2.8.3,2-1,2.4-1l1.6.6c1.4,0,3.4-1.9,3.9.7,1.6.5,1.4-1.1,2.5-1.4,1.2-.3,1.4.4,2.4.7s2.7,0,3.5,1c2.5,0,5.3-.4,8.1-.3l3.6-1.2c1.2-.5,2.6,0,3.8,0,1.1,0,1.6-2.3,3.9-2.9s4.9-2.3,8.1-1.1a18.0284,18.0284,0,0,1,2.1.8l.6,1.5h1.4a9.7369,9.7369,0,0,0,2.4,1.5H219a23.8339,23.8339,0,0,1,4.6.4,7.4586,7.4586,0,0,0,1.2.7c.6.1.7-1,1.7-.5,1,.6.3,2.5,2.9,2.8,2.6.2,1.7-1.2,3.3-2.3s2.1,1.5,4.4,1.5a10.1789,10.1789,0,0,0-.3-3.5l-1.6-3h-2c-.6,0,0-1.2,0-1.4s-2.5,0-3.3-1.5c-1.6-3.3,4.3-1,5.6-.5,1.4.5,2.1,1.6,3.7,1.1s1.7-3.4,3.5-.7c.5-3.4,6.7,1.1,3.9-4.4,3.4-.8,0-2.5,0-3.7,0-2.4,2-1.9,3.3-2.1,3.1-.7,3.7-2.3,3.8-5.6a5.5721,5.5721,0,0,1,1.1-3.7c1-1.8.6-1.5,2.6-2h.2c.9-.3,1.2-.8,1.9-1.1s2.8-.7,3.2-1.6c1.9-3.2-3.9-2.3-5.4-2.8Z" transform="translate(0.0161 0.0119)" fill="#b7f49d"/><path d="M323.3,207.3a31.4142,31.4142,0,0,1-4.6-2.8c-1.1-.7-1.9-.7-2.5-2.3-1.7-4.3,3.7-1.9,6.3-1.9,1,0,2.4.5,2.9-.5.6-.9-1-2.7-2-3.1a5.5783,5.5783,0,0,0,.5-3.8c-1-2.3-1.8,0-3.4-.6a2.26,2.26,0,0,1-1.8-2.6.3674.3674,0,0,1,.1-.3c.5-1.7,1.2-1,2.6-1.5s.8-1,1.6-1.1,1.6.7,2.3.6a2.5809,2.5809,0,0,0,2.4-2.4c0-2.4-1.3-1-2.6-1.4-1.4-.4-1.1-1.4-2-2.4-.8-1.1-5.6-2.3-3.7-5.6.6-.8,2.1-.6,2.5-1.7s-.5-1.7-.6-2.4c-.5-2-.3-3.2-2.4-4.2a13.4162,13.4162,0,0,0-5.2-1.4c-1.5,0-2.6,2.5-4.6.3-1-1.1,0-2.8-.8-3.8s-3.5,0-4.5,0-3.4.4-4.2-.4v-1.6l-1-1.5c-.5-1.6,1.2-1.8,1-3.4s-3-2-3.5-3.4l-.4.5v-.7a6.201,6.201,0,0,0,.5-4.8,7.88,7.88,0,0,1-7-2c-.4-.5,0-1.2-.7-1.7a7.1922,7.1922,0,0,0-2.1-1.2c-1.7-1.2-1.4-1.2-1.7-2.8a2.1062,2.1062,0,0,0,.5-1.3c-.2-.6-1.5-1.3-2.7-1.6s-2.7,0-3.4-1.6.8-2.9.5-3.4-2.7-.7-3.7,0c-3-2.4,1.6-3.9,1.4-5.6s-3.3-2.3-4.9-2c-1.6.2-1.7.8-3,1.2-2.7.8-4.4-1.8-6.6-2.7a14.7143,14.7143,0,0,1-3.9-2.1c-1.1-.7-3-1.9-4.3-1.2s-.4,2.4-1.1,3.4-2.5,0-4.2,1.4c-1.6,1.4-1,3.8-2.9,2.1s0-3.4-2.3-3.4c-1.4,0-3.4,2.1-4.6,2.6s-2.5,0-3.9.5a37.2727,37.2727,0,0,0-3.5,1.6,20.6524,20.6524,0,0,1-3.4,1.5c-2.1.5-2.5,0-4.1,1.5a7.467,7.467,0,0,0-2,3.7c-.6,1.6-.4,2.1-2.5,2.5a4.7071,4.7071,0,0,1-3.8-.8c-.7,4.1-2.5,1-4.8,3.3-1,.9-.7,1.8-1,3-.5,2.4-.7,1.4-2.7,2.2s-2.3,4.4-1.7,7,2.3,3.5-.6,4.4a3.0377,3.0377,0,0,1-4-1.5c-.1-.1-.1-.3-.2-.4-.5-.8,0-8.6-3-4.4-.7,1,0,2.7,0,3.8-.8,2.3-2.8,1-3.5,2.5s1,2.4.4,3.5-3.2.5-4.3,1.2-.7,1.3-1.7,1.7a4.4833,4.4833,0,0,1-2.3,0c-.6,0-1.4.3-1.2,2.1,0,3,1.6,2-1.6,3.4-.7.3-1,1-1.9,1.3s-2.3-.5-2.8.7c-.6,1.2,1.1,1.8,1.2,2.4a6.0542,6.0542,0,0,1,0,1.9c0,1.1-1.6,0-.7,1.7.4,1,2.5,1.4,3.4,2a8.2247,8.2247,0,0,0-.6,3.8c0,1,.8,1.4,1,2.1a8.8542,8.8542,0,0,1,0,2.3c0,.7,2.2,1.6,2.4,2.6a2.0412,2.0412,0,0,1-.7,2.3c-.8.6-2-.3-2.8,0l-.7,1.5c-1.9,1.4-4.4.5-5.6,2.4-.7,1-.4,2.4-1.4,3.4s-2.9.5-3.4,2.2c-.8,2.9,3.7,1.7,4.6,3.8.4.9-.3,2,0,2.8.4,2.3.9.7,1.7,1.8s.4,1.7,1.1,2.6c1.9,2.2,5.6,0,8-.5-.6,1.5-5.6,2.9-6,4.5-.3,1.6,3.9,1.7,3,4.6,1.3,1.1,3.3.3,4.8.6,1.5.2,2.7,1.1,4.8.7-1.2,1.6-3.5,3.3-3.7,5.6,1.6,0,2.8,1,2,2.8a3.9,3.9,0,0,0,3,0,2.9757,2.9757,0,0,1,.5,1.5,5.5266,5.5266,0,0,0,.3-4l-.7-.7a5.1075,5.1075,0,0,1,3.8,3.7c0,1.1-.7,3.4,0,4.2,1.2,1.7,7,.7,8.7,1.2s2.4,1.7,3.7,2.1c1.3.5,4.3.7,3.8,3-.6,2.3-3.4,1.5-.7,2.8a4.1022,4.1022,0,0,0,5-1.5c1.4,0,1.5,1.6,1.6,2.7,1,0,1.4-1.1,2.2-1.4a9.6375,9.6375,0,0,1,2.4,0c.8,0,1.4-1.2,2.3-1.4s1.9.4,2.8,0a12.2281,12.2281,0,0,1,2.4-1l1.6.6c1.4,0,3.4-1.9,3.9.7,1.6.5,1.4-1.1,2.5-1.4,1.2-.3,1.4.4,2.4.7s2.7.3,3.5,1h.3c2.5,0,5.3-.4,8.1-.3l3.6-1.2c1.2-.5,2.6,0,3.8,0s1.6-2.3,3.9-2.9,4.9-2.3,8.1-1.2a9.4935,9.4935,0,0,1,2.1.9l.6,1.4h1.5a9.7369,9.7369,0,0,0,2.4,1.5h3.9a23.8417,23.8417,0,0,1,4.6.4,7.4512,7.4512,0,0,0,1.2.7c.6.1.7-1,1.7-.5s.3,2.6,2.9,2.8,1.7-1.2,3.3-2.3,2.1,1.5,4.4,1.5a10.1791,10.1791,0,0,0-.3-3.5l-1.9-2.2h-2c-.6,0,0-1.2,0-1.4s-2.5,0-3.3-1.5c-1.6-3.3,4.3-1,5.6-.5,1.4.5,2.1,1.6,3.7,1.1s1.7-3.4,3.5-.7c.5-3.4,6.7,1.1,3.9-4.4,3.4-.8,0-2.5,0-3.7,0-2.4,2-1.9,3.3-2.1,3.1-.7,3.7-2.3,3.8-5.6a5.5721,5.5721,0,0,1,1.1-3.7c1-1.8.6-1.5,2.6-2h1.2c.9-.3,1.2-.8,1.9-1.1s2.8-.7,3.2-1.6c1.1-3.2-4.7-2.3-6.2-2.8Z" transform="translate(0.0161 0.0119)" fill="#16d342"/><path d="M426.7,168.2a21.7732,21.7732,0,0,1-4.6-2.8c-1.1-.7-1.9-.6-2.5-2.2-1.7-4.3,3.7-1.9,6.3-1.9,1,0,2.4.5,3-.5s-1.1-2.7-2-3.1a5.5783,5.5783,0,0,0,.5-3.8c-1-2.4-1.8,0-3.4-.6a2.26,2.26,0,0,1-1.8-2.6c0-.1,0-.2.1-.2.5-1.7,1.2-1,2.7-1.6.6,0,.7-1,1.5-1.1s1.7.7,2.3.6a2.5809,2.5809,0,0,0,2.4-2.4c0-2.4-1.4-1-2.6-1.4-1.3-.4-1.2-1.4-2-2.4-.8-1.1-5.6-2.3-3.6-5.6.6-.8,2-.6,2.4-1.7s-.5-1.6-.6-2.3c-.5-2.1-.3-3.3-2.4-4.2a15.5684,15.5684,0,0,0-5.2-1.5c-1.5,0-2.6,2.5-4.6.3-1-1.1,0-2.9-.8-3.8-.8-1-3.4,0-4.4,0s-3.5.4-4.2-.4v-1.6l-1-1.5c-.4-1.6,1.2-1.8,1-3.4s-3-2-3.5-3.4l-.4.5v-.7a6.2006,6.2006,0,0,0,.5-4.8,7.35,7.35,0,0,1-6.9-2c-.4-.5,0-1.2-.7-1.7s-1.5-.8-2-1.2c-1.7-1.2-1.4-1.2-1.8-2.7a1.553,1.553,0,0,0,.5-1.4c-.2-.6-1.5-1.3-2.6-1.6s-2.8,0-3.4-1.6.7-2.9.5-3.4c-.3-.5-2.7-.7-3.6,0-3.1-2.4,1.5-3.9,1.3-5.6s-3.3-2.2-4.8-2c-1.6.2-1.7.8-3,1.2-2.7.8-4.3-1.8-6.6-2.7a14.7143,14.7143,0,0,1-3.9-2.1c-1-.7-3-1.9-4.3-1.2-1.2.7-.4,2.4-1.2,3.4s-2.5,0-4.1,1.4-1,3.8-2.9,2.1c-1.1-1,0-3.4-2.3-3.5-1.4,0-3.4,2.1-4.6,2.6s-2.5,0-3.8.5a16.1534,16.1534,0,0,0-3.5,1.7,20.25,20.25,0,0,1-3.4,1.4c-2,.5-2.5,0-4.1,1.5a7.467,7.467,0,0,0-2,3.7c-.6,1.6-.3,2.1-2.5,2.5a4.7071,4.7071,0,0,1-3.8-.8c-.7,4.1-2.5,1-4.9,3.3-.9.9-.7,1.8-.9,3-.5,2.4-.7,1.4-2.7,2.2s-2.3,4.4-1.7,7,2.3,3.5-.6,4.4a2.86,2.86,0,0,1-3.7-1.4c-.5-.8,0-8.6-3-4.4-.8,1.1,0,2.7-.3,3.8-.8,2.3-2.8,1-3.5,2.5s1.1,2.4.4,3.5-3.1.6-4.2,1.2-.7,1.3-1.7,1.7a4.4833,4.4833,0,0,1-2.3,0c-.6,0-1.4,0-1.2,2.1,0,3.1,1.6,2-1.5,3.4-.8.3-1,1-2,1.3s-2.3-.5-2.8.7c-.6,1.2,1.1,1.8,1.2,2.5a5.4375,5.4375,0,0,1,0,1.8c0,1.2-1.5,0-.7,1.7.5,1,2.5,1.4,3.4,2a8.2247,8.2247,0,0,0-.6,3.8c0,1,.8,1.4,1,2.1a8.8542,8.8542,0,0,1,0,2.3c0,.7,2.2,1.6,2.5,2.6a2.2674,2.2674,0,0,1-.7,2.3c-.7.6-2,0-2.7,0l-.7,1.5c-1.8,1.5-4.4.5-5.6,2.4s-.5,2.4-1.4,3.5-2.9.4-3.4,2.1c-.8,2.9,3.7,1.7,4.6,3.8.3.8-.3,2,0,2.8.4,2.4.9.7,1.7,1.8s.3,1.8,1.1,2.6c1.9,2.2,5.6,0,7.9-.5-.5,1.5-5.6,3-6,4.5-.3,1.5,3.9,1.7,3,4.6,1.3,1.1,3.3.3,4.8.6a9.4335,9.4335,0,0,0,4.7.6c-1.2,1.6-3.5,3.3-3.7,5.6,1.7,0,2.8,1.1,2.1,2.8a3.9,3.9,0,0,0,3,0,2.2965,2.2965,0,0,1,.4,1.4,5.2634,5.2634,0,0,0,.3-3.9l-.7-.7a5.4453,5.4453,0,0,1,3.8,3.7c0,1.1-.7,3.3,0,4.2,1.2,1.7,7,.7,8.7,1.2s2.4,1.6,3.7,2.1,4.3.7,3.8,3-3.5,1.5-.7,2.8a4.1022,4.1022,0,0,0,5-1.5c1.4.3,1.5,1.6,1.6,2.7,1,0,1.4-1.1,2.2-1.4a9.6375,9.6375,0,0,1,2.4,0c.8,0,1.4-1.2,2.3-1.4s2,.4,2.8,0a11.7248,11.7248,0,0,1,2.4-.9l1.6.6c1.4,0,3.4-1.9,3.9.7,1.6.5,1.4-1.1,2.5-1.4s1.5.4,2.5.7,2.6,0,3.4,1c2.6,0,5.6-.4,8.1-.3l3.6-1.2c1.2-.5,2.6,0,3.8,0,1.1,0,1.6-2.3,3.9-2.9s5-2.3,8.1-1.1a14.2725,14.2725,0,0,1,2.2.8l.6,1.5h1.4c.8.5,1.6,1,2.4,1.4h3.9a24.1814,24.1814,0,0,1,4.7.4,1.9906,1.9906,0,0,0,1.2.8c.6.1.7-1.1,1.7-.5s0,2.5,2.9,2.8c2.9.2,1.7-1.2,3.3-2.3,2.4-1.7,2.1,1.5,4.4,1.5a10.1789,10.1789,0,0,0-.3-3.5l-2-2.2h-1.9c-.6,0,0-1.2,0-1.4s-2.5,0-3.3-1.5c-1.6-3.3,4.2-1,5.6-.5s2,1.6,3.7,1.1,1.7-3.4,3.5-.7c.5-3.4,6.8,1.1,3.9-4.4,3.4-.8,0-2.5,0-3.7,0-2.4,2-1.9,3.2-2.1,3.2-.7,3.8-2.3,3.8-5.6a5.5721,5.5721,0,0,1,1.1-3.7c1-1.8.6-1.5,2.6-2h1.3c.9,0,1.1-.8,1.9-1.1.7-.3,2.8-.7,3.2-1.5.4-3.8-5.4-3-6.9-3.5Z" transform="translate(0.0161 0.0119)" fill="#0bf96b"/><path d="M433,367.2a21.7732,21.7732,0,0,1-4.6-2.8c-1.1-.7-1.9-.7-2.5-2.3-1.7-4.3,3.7-1.9,6.3-1.9,1,0,2.4.5,2.9-.5.6-.9-1-2.7-2-3.1a5.5783,5.5783,0,0,0,.5-3.8c-1-2.4-1.8,0-3.4-.6a2.3112,2.3112,0,0,1-1.8-2.8v-.1c.5-1.7,1.2-1,2.7-1.5.6,0,.7-1,1.5-1.1s1.6.7,2.3.6a2.5809,2.5809,0,0,0,2.4-2.4c0-2.5-1.4-1-2.6-1.4-1.3-.4-1.2-1.4-2-2.4-.8-1.1-5.6-2.3-3.6-5.6.6-.8,2-.6,2.4-1.7s-.5-1.7-.6-2.4c-.5-2-.3-3.2-2.4-4.2a13.42,13.42,0,0,0-5.2-1.4c-1.5,0-2.6,2.5-4.6,0-1-1.1,0-2.9-.8-3.8s-3.4,0-4.5,0-3.4.5-4.2-.3v-1.6l-1-1.5c-.4-1.6,1.2-1.8,1-3.5s-3-2-3.5-3.4l-.4.5v-.7a6.2011,6.2011,0,0,0,.5-4.8,7.6069,7.6069,0,0,1-6.9-2c-.4-.5,0-1.2-.7-1.7a8.18,8.18,0,0,0-2-1.2c-1.7-1.2-1.4-1.2-1.8-2.8,0,0,.7-.7.5-1.3s-1.5-1.3-2.6-1.6-2.8,0-3.4-1.6.7-3,.5-3.4a3.825,3.825,0,0,0-3.6,0c-3.1-2.4,1.5-3.9,1.3-5.6s-3.3-2.3-4.8-2.1c-1.6.2-1.7.9-3,1.3-2.7.8-4.3-1.8-6.6-2.7a24.1825,24.1825,0,0,1-3.9-2.1c-1-.7-3-1.9-4.3-1.2s-.3,2.4-1.1,3.4-2.5,0-4.1,1.4-1,3.8-2.9,2.1c-1.1-.9,0-3.4-2.3-3.4-1.4,0-3.4,2.1-4.6,2.6-1.2.6-2.5,0-3.8.5a37.2727,37.2727,0,0,0-3.5,1.6,20.6524,20.6524,0,0,1-3.4,1.5c-2,.5-2.5,0-4.1,1.4a8.92,8.92,0,0,0-2,3.7c-.6,1.6-.3,2.1-2.5,2.5a4.7071,4.7071,0,0,1-3.8-.8c-.7,4.1-2.5.9-4.9,3.3-.9.9-.7,1.8-.9,3-.5,2.4-.7,1.4-2.7,2.2s-2.3,4.4-1.7,7,2.3,3.4-.5,4.4a3.0633,3.0633,0,0,1-3.7-1.4c-.5-.8,0-8.6-3-4.4-.8,1,0,2.7,0,3.8-.8,2.4-2.8,1.1-3.5,2.5-.7,1.5,1.1,2.4.4,3.5s-3.1.5-4.2,1.2-.7,1.3-1.7,1.7-1.7-.3-2.3,0-1.4,0-1.2,2c0,3.1,1.6,2.1-1.6,3.5-.7.3-1,1-1.9,1.3-1,.3-2.3-.5-2.8.7-.6,1.2,1.1,1.8,1.2,2.4a6.0535,6.0535,0,0,1,0,1.9c0,1.1-1.5,0-.7,1.7.5,1,2.5,1.4,3.4,2a8.2245,8.2245,0,0,0-.6,3.8c0,1,.8,1.4,1,2.1a8.8534,8.8534,0,0,1,0,2.3c0,.7,2.2,1.6,2.5,2.6a2.2672,2.2672,0,0,1-.7,2.3c-.7.6-2-.3-2.7,0l-.7,1.5c-1.8,1.4-4.4.5-5.6,2.4-.7,1-.4,2.4-1.3,3.4s-2.9.5-3.4,2.2c-.9,2.9,3.7,1.6,4.6,3.8.3.9-.3,2,0,2.8.4,2.3.9.7,1.7,1.8s.3,1.7,1.1,2.6c1.9,2.2,5.6,0,7.9-.5-.5,1.5-5.6,2.9-6,4.5-.3,1.6,3.9,1.7,3,4.6,1.3,1.1,3.3.3,4.8.6,1.6.2,2.6,1.1,4.7.7-1.2,1.6-3.5,3.3-3.7,5.6,1.6,0,2.8,1,2.1,2.8a3.9,3.9,0,0,0,3,0,2.6041,2.6041,0,0,1,.4,1.5,5.5266,5.5266,0,0,0,.3-4l-.7-.7a5.1075,5.1075,0,0,1,3.8,3.7c0,1.1-.7,3.4,0,4.2,1.2,1.7,7,.7,8.7,1.2s2.4,1.7,3.7,2.1c1.3.5,4.3.7,3.8,3s-3.5,1.5-.7,2.8a4.1022,4.1022,0,0,0,5-1.5c1.4,0,1.5,1.6,1.6,2.7,1,0,1.4-1.2,2.2-1.4s1.6.3,2.4,0,1.4-1.2,2.3-1.4,1.9.4,2.8,0a24.4254,24.4254,0,0,1,2.4-1l1.6.6c1.4,0,3.4-1.9,3.9.7,1.6.5,1.4-1.1,2.5-1.4s1.5.4,2.5.7,2.6,0,3.4,1c2.6,0,5.6-.5,8.1-.3l3.6-1.3c1.2-.4,2.6,0,3.8,0,2-.7,1.6-2.3,3.9-2.9s4.9-2.3,8.1-1.2a9.4935,9.4935,0,0,1,2.1.9l.7,1.4h1.4a9.7369,9.7369,0,0,0,2.4,1.5h3.9a37.0792,37.0792,0,0,1,4.7.3,1.9906,1.9906,0,0,0,1.2.8c.6.1.7-1,1.7-.5s0,2.6,2.9,2.8,1.7-1.2,3.3-2.3c2.4-1.7,2.1,1.5,4.4,1.5a10.1789,10.1789,0,0,0-.3-3.5l-2-2.2h-1.9c-.5,0,0-1.2,0-1.5,0-.2-2.5,0-3.3-1.5-1.6-3.3,4.2-1,5.6-.5s2,1.6,3.7,1.1,1.7-3.4,3.5-.7c.5-3.4,6.8,1.2,3.9-4.3,3.4-.8,0-2.5,0-3.7,0-2.4,2-1.9,3.2-2.1,3.2-.7,3.8-2.4,3.8-5.6a5.5724,5.5724,0,0,1,1.1-3.7c1-1.8.6-1.5,2.6-2h1.3c.9-.3,1.1-.8,1.9-1.1.7-.3,2.8-.7,3.2-1.6C440.3,366.8,434.4,367.7,433,367.2Z" transform="translate(0.0161 0.0119)" fill="#0bf96b"/><path d="M199.8,347.9a16.6879,16.6879,0,0,1-4.6-2.8c-1.1-.7-1.9-.6-2.5-2.2-1.7-4.3,3.7-1.9,6.3-1.9,1,0,2.4.4,3-.5s-1.1-2.7-2-3a5.5783,5.5783,0,0,0,.5-3.8c-1-2.4-1.7,0-3.4-.6a2.1612,2.1612,0,0,1-1.8-2.5.3674.3674,0,0,1,.1-.3c.5-1.7,1.2-1,2.6-1.6s.7-1,1.5-1.1,1.7.7,2.3.6a2.5948,2.5948,0,0,0,2.4-2.5c0-2.4-1.4-1-2.6-1.4-1.3-.4-1.1-1.4-2-2.5s-5.6-2.3-3.6-5.6c.6-.8,2.1-.6,2.4-1.7s-.5-1.6-.6-2.3c-.5-2.1-.3-3.3-2.4-4.2a13.6921,13.6921,0,0,0-5.2-1.6c-1.5,0-2.6,2.5-4.6.3-1-1.1,0-2.9-.8-3.8-.8-1-3.5,0-4.5,0s-3.5.5-4.2-.4v-1.6l-1-1.5c-.4-1.6,1.2-1.8,1.1-3.4-.2-1.6-3-2-3.5-3.4l-.4.5v-.7a6.6741,6.6741,0,0,0,.5-4.8,7.35,7.35,0,0,1-6.9-2c-.4-.5,0-1.1-.7-1.7a11.2516,11.2516,0,0,0-2.1-1.2c-1.7-1.1-1.4-1.2-1.8-2.7a1.553,1.553,0,0,0,.5-1.4c-.2-.6-1.5-1.3-2.6-1.6s-2.8,0-3.4-1.6.7-2.9.5-3.3-2.7-.7-3.7-.3c-3-2.4,1.5-3.9,1.4-5.6-.2-1.7-3.3-2.3-4.9-2.1s-1.7.8-3,1.2c-2.8.8-4.4-1.8-6.6-2.7a14.7143,14.7143,0,0,1-3.9-2.1c-1-.7-3-1.9-4.3-1.2-1.2.7-.4,2.4-1.2,3.4s-2.5,0-4.1,1.4-1,3.8-2.9,2.1c-1.1-1,0-3.4-2.3-3.5-1.3,0-3.4,2.1-4.6,2.7s-2.5,0-3.8.5a22.6128,22.6128,0,0,0-3.5,1.7,23.2926,23.2926,0,0,1-3.3,1.4c-2.1.5-2.5,0-4.1,1.5a7.467,7.467,0,0,0-2,3.7c-.6,1.6-.4,2.1-2.5,2.5a4.7071,4.7071,0,0,1-3.8-.8c-.7,4.1-2.5,1-4.9,3.3-.9.9-.7,1.9-.9,3-.5,2.5-.7,1.4-2.7,2.2s-2.3,4.4-1.7,7,2.3,3.5-.6,4.4a2.86,2.86,0,0,1-3.7-1.4c-.5-.8,0-8.6-3-4.4-.7,1,0,2.6,0,3.8-.8,2.3-2.8,1.1-3.5,2.5s1.1,2.5.4,3.5c-.7,1.1-3.1.6-4.2,1.2s-.7,1.4-1.7,1.7a4.4833,4.4833,0,0,1-2.3,0c-.6,0-1.4,0-1.2,2.1,0,3.1,1.6,2-1.5,3.4-.7.3-1,1-2,1.3s-2.3-.5-2.8.7,1,1.7,1.2,2.4a5.4375,5.4375,0,0,1,0,1.8c0,1.2-1.5,0-.7,1.7.5,1,2.6,1.4,3.4,2a8.2247,8.2247,0,0,0-.6,3.8c0,1,.8,1.4,1,2.1a8.8542,8.8542,0,0,1,0,2.3c0,.7,2.2,1.6,2.5,2.6a2.0412,2.0412,0,0,1-.7,2.3c-.7.6-2,0-2.7,0l-.7,1.5c-1.9,1.5-4.4.5-5.9,2.4s-.4,2.4-1.4,3.5-2.9.4-3.4,2.1c-.8,2.9,3.7,1.7,4.6,3.8.3.8-.3,2,0,2.8.4,2.4.9.7,1.7,1.9.8,1.1.3,1.7,1.1,2.5,1.9,2.2,5.6,0,8-.5-.6,1.5-5.6,3-6,4.5s4,1.7,3,4.6c1.3,1.1,3.3.3,4.8.6,1.6.3,2.6,1.1,4.7.6-1.2,1.7-3.5,3.3-3.7,5.6,1.7,0,2.8,1.1,2.1,2.8a3.9,3.9,0,0,0,3,0,2.2959,2.2959,0,0,1,.4,1.4,5.2644,5.2644,0,0,0,.3-3.9l-.6-.8a5.309,5.309,0,0,1,3.7,3.7c0,1.1-.6,3.3,0,4.2,1.2,1.8,7,.7,8.7,1.2s2.4,1.6,3.7,2.1,4.3.7,3.8,3-3.5,1.5-.7,2.8a3.9859,3.9859,0,0,0,5-1.5c1.5,0,1.5,1.6,1.6,2.6.9,0,1.4-1.1,2.2-1.4a9.6375,9.6375,0,0,1,2.4,0c.8,0,1.4-1.2,2.3-1.5.9-.2,2,.5,2.9.3s2-.9,2.4-.9l1.6.6c1.4,0,3.4-2,3.9.7,1.6.4,1.4-1.2,2.5-1.5s1.5.4,2.5.7,2.6,0,3.5,1.1c2.6,0,5.6-.4,8.1-.3l3.6-1.2c1.2-.4,2.6,0,3.8,0,1.1,0,1.7-2.3,3.9-2.9s5-2.2,8.1-1.1a14.283,14.283,0,0,1,2.2.8l.6,1.5h1.5a7.2172,7.2172,0,0,0,2.4,1.4h3.9a23.8339,23.8339,0,0,1,4.6.4,3.596,3.596,0,0,0,1.2.8c.6.1.7-1.1,1.7-.5s.3,2.5,2.9,2.8c2.6.2,1.7-1.2,3.2-2.3,2.4-1.7,2.1,1.5,4.4,1.4a10.1789,10.1789,0,0,0-.3-3.5l-2-2.1h-1.9c-.6,0,0-1.2,0-1.5,0-.2-2.5,0-3.3-1.5-1.6-3.3,4.2-1,5.6-.5s2,1.6,3.7,1.1,1.7-3.3,3.5-.7c.5-3.4,6.8,1.1,3.9-4.4,3.4-.7,0-2.5,0-3.7,0-2.4,2-1.9,3.3-2.1,3.1-.7,3.7-2.3,3.8-5.6a5.5721,5.5721,0,0,1,1.1-3.7c1.1-1.8.6-1.6,2.6-2.1h1.2c.9,0,1.1-.8,1.9-1.1.7-.3,2.9-.7,3.2-1.5.4-3.2-5.2-2.3-6.9-2.8Z" transform="translate(0.0161 0.0119)" fill="#0bf96b"/><path d="M190.2,202.4a31.4142,31.4142,0,0,1-4.6-2.8c-1.2-.7-1.9-.7-2.5-2.3-1.7-4.3,3.7-1.9,6.3-1.9.9,0,2.4.5,2.9-.5.6-.9-1.1-2.7-2-3.1a5.5783,5.5783,0,0,0,.5-3.8c-1-2.3-1.8,0-3.5-.6a2.3727,2.3727,0,0,1-1.7-2.8v-.2c.5-1.7,1.2-1,2.6-1.5s.8-1,1.5-1.1,1.7.7,2.3.6a2.5809,2.5809,0,0,0,2.4-2.4c0-2.4-1.4-1-2.6-1.4-1.3-.4-1.1-1.4-2-2.4-.8-1.1-5.6-2.3-3.7-5.6.6-.8,2.1-.6,2.4-1.7s-.5-1.7-.6-2.4c-.5-2-.3-3.2-2.4-4.2a13.4162,13.4162,0,0,0-5.2-1.4c-1.5,0-2.6,2.5-4.6,0-1-1.1,0-2.9-.8-3.8s-3.5-.3-4.5,0-3.5.4-4.2-.4v-1.6l-1.1-1.5c-.4-1.6,1.2-1.8,1.1-3.4-.2-1.6-3-2-3.5-3.4l-.4.5v-.7a6.2006,6.2006,0,0,0,.5-4.8,7.3233,7.3233,0,0,1-6.6-1.9c-.4-.5,0-1.2-.7-1.7a7.1935,7.1935,0,0,0-2.1-1.2c-1.7-1.2-1.4-1.2-1.7-2.8a2.1062,2.1062,0,0,0,.5-1.3c-.2-.6-1.5-1.3-2.7-1.6s-2.8,0-3.4-1.6.8-2.9.5-3.4-2.7-.7-3.7,0c-3-2.4,1.5-3.9,1.4-5.6-.2-1.7-3.3-2.3-4.9-2-1.6.2-1.7.8-3,1.2-2.8.8-4.4-1.8-6.6-2.7a14.7143,14.7143,0,0,1-3.9-2.1c-1.1-.7-3.1-1.9-4.3-1.2s-.4,2.4-1.2,3.4-2.5,0-4.1,1.4-1,3.8-2.9,2.1c-1.1-.9,0-3.4-2.3-3.4-1.3,0-3.3,2.1-4.6,2.6-1.2.5-2.5,0-3.8.5a37.2727,37.2727,0,0,0-3.5,1.6,20.6524,20.6524,0,0,1-3.4,1.5c-2.1.5-2.5,0-4.1,1.5a7.467,7.467,0,0,0-2,3.7c-.6,1.6-.4,2.1-2.5,2.5a4.7071,4.7071,0,0,1-3.8-.8c-.7,4.1-2.5,1-4.9,3.3-.9.9-.6,1.8-.9,3-.5,2.4-.7,1.4-2.7,2.2s-2.3,4.4-1.7,7,2.3,3.5-.6,4.4a2.86,2.86,0,0,1-3.7-1.4c-.5-.8,0-8.6-3-4.4-.7,1,0,2.7,0,3.8-.8,2.3-2.8,1-3.5,2.5s1,2.4.3,3.5-3.1.5-4.2,1.2-.7,1.3-1.7,1.7a4.4833,4.4833,0,0,1-2.3,0c-.6,0-1.4,0-1.2,2.1,0,3,1.6,2-1.6,3.4-.7.3-1,1-1.9,1.3s-2.3-.5-2.8.7c-.6,1.2,1,1.8,1.2,2.4a6.0542,6.0542,0,0,1,0,1.9c0,1.1-1.6,0-.7,1.7.4,1,2.5,1.4,3.4,2a8.2247,8.2247,0,0,0-.6,3.8c0,1,.8,1.4,1.1,2.1a8.8542,8.8542,0,0,1,0,2.3c0,.6,2.1,1.6,2.4,2.6a2.0412,2.0412,0,0,1-.7,2.3c-.8.6-2-.3-2.8,0l-.7,1.5c-1.9,1.4-4.4.5-5.6,2.4-.8,1-.4,2.4-1.4,3.4s-2.9.5-3.4,2.2c-.8,2.9,3.7,1.7,4.6,3.8.3.9-.3,2,0,2.8.4,2.3.9.7,1.7,1.8s.3,1.7,1.1,2.6c1.9,2.2,5.6,0,8-.5-.6,1.5-5.6,2.9-6,4.5-.3,1.6,3.9,1.7,3,4.6,1.4,1.1,3.3.3,4.8.6,1.5.2,2.7,1.1,4.7.7-1.2,1.6-3.5,3.3-3.6,5.6,1.6.3,2.8,1,2,2.8a3.9,3.9,0,0,0,3,0,2.6041,2.6041,0,0,1,.4,1.5,5.4341,5.4341,0,0,0-.2-4.5L62,221a5.6333,5.6333,0,0,1,3.8,3.7c0,1.1-.7,3.4,0,4.2,1.1,1.7,7,.7,8.7,1.2,1.7.4,2.4,1.7,3.7,2.1,1.3.5,4.3.7,3.8,3s-3.4,1.5-.7,2.8a3.9351,3.9351,0,0,0,4.9-1.5c1.5,0,1.5,1.6,1.6,2.7.9,0,1.4-1.1,2.2-1.4a9.6375,9.6375,0,0,1,2.4,0c.8,0,1.4-1.2,2.2-1.4s2,.4,2.9.3,2-1,2.4-1l1.6.6c1.4,0,3.4-1.9,3.9.7,1.6.5,1.4-1.1,2.5-1.4,1.2-.3,1.4.4,2.4.7a8.7849,8.7849,0,0,1,3.5,1h.3c2.5,0,5.3-.4,8.1-.3l3.6-1.2c1.1-.5,2.6,0,3.7,0,2-.7,1.7-2.3,3.9-2.9,2.3-.6,4.9-2.3,8-1.2a8.488,8.488,0,0,1,2.2.9l.6,1.4h1.5a9.7369,9.7369,0,0,0,2.4,1.5H152a23.8339,23.8339,0,0,1,4.6.4,7.4586,7.4586,0,0,0,1.2.7c.6.1.7-1,1.7-.5s.3,2.6,2.9,2.8,1.7-1.2,3.3-2.3,2.1,1.5,4.3,1.5a6.8968,6.8968,0,0,0-.3-3.5l-2-2.2h-1.9c-.6,0,0-1.2,0-1.5,0-.2-2.5,0-3.3-1.5-1.6-3.3,4.3-1,5.6-.5,1.4.5,2,1.6,3.7,1.1s1.7-3.4,3.5-.7c.5-3.4,6.8,1.1,4-4.4,3.4-.8,0-2.5,0-3.7,0-2.4,2-1.9,3.3-2.1,3.1-.7,3.7-2.3,3.8-5.6a5.5721,5.5721,0,0,1,1.1-3.7c1.1-1.8.6-1.5,2.6-2h1.2c.9,0,1.2-.8,1.9-1.1s2.8-.7,3.2-1.6c1.3-3.1-4.5-2.2-6.2-2.7Z" transform="translate(0.0161 0.0119)" fill="#0bf96b"/><path d="M347.9,88.4a16.6879,16.6879,0,0,1-4.6-2.8c-1.1-.7-1.9-.6-2.5-2.2-1.7-4.3,3.7-1.9,6.3-1.9,1,0,2.4.5,3-.5.6-.9-1.1-2.7-2-3.1a6.2249,6.2249,0,0,0,.5-3.8c-1-2.4-1.7,0-3.4-.6a2.26,2.26,0,0,1-1.8-2.6c0-.1,0-.2.1-.2.5-1.7,1.3-1,2.7-1.6s.7-1,1.5-1.1,1.7.7,2.3.6a2.5809,2.5809,0,0,0,2.4-2.4c0-2.4-1.4-1-2.6-1.4-1.3-.4-1.1-1.4-2-2.5s-5.6-2.3-3.6-5.6c.6-.8,2.1-.6,2.4-1.7s-.5-1.6-.6-2.3c-.5-2.1-.3-3.3-2.4-4.2a15.5684,15.5684,0,0,0-5.2-1.5c-1.5,0-2.6,2.5-4.6.3-1-1.1,0-2.9-.8-3.8-.8-1-3.5,0-4.5,0s-3.5.5-4.2-.4V41.5l-1-1.5c-.4-1.6,1.2-1.8,1.1-3.4-.2-1.6-3-2-3.5-3.4l-.4.5V33a6.6741,6.6741,0,0,0,.5-4.8,7.35,7.35,0,0,1-6.9-2c-.4-.5,0-1.2-.7-1.7s-1.4-.8-2-1.2c-1.7-1.1-1.4-1.2-1.8-2.7a1.553,1.553,0,0,0,.5-1.4c-.2-.6-1.5-1.3-2.6-1.6s-2.8,0-3.4-1.6.7-2.9.5-3.4c-.3-.5-2.7-.7-3.6,0-3-2.4,1.5-3.9,1.4-5.6-.2-1.7-3.3-2.2-4.9-2s-1.7.8-3,1.2c-2.7.8-4.3-1.8-6.6-2.7A14.7143,14.7143,0,0,1,284,1.4c-1-.7-3-1.9-4.3-1.2-1.2.7-.4,2.4-1.2,3.4s-2.5,0-4.1,1.4-1,3.8-2.9,2.1c-1.1-1,0-3.4-2.3-3.5-1.4,0-3.4,2.1-4.6,2.7s-2.5,0-3.8.5a22.6128,22.6128,0,0,0-3.5,1.7,14.3441,14.3441,0,0,1-3.4,1.4c-2,.5-2.5,0-4.1,1.5a7.467,7.467,0,0,0-2,3.7c-.6,1.6-.4,2.1-2.5,2.5a4.7071,4.7071,0,0,1-3.8-.8c-.7,4.1-2.5,1-4.9,3.3-.9.9-.7,1.9-.9,3-.5,2.4-.7,1.4-2.7,2.2s-2.3,4.4-1.7,7,2.3,3.5-.6,4.4a2.86,2.86,0,0,1-3.7-1.4c-.5-.8,0-8.6-3-4.4-.8,1.1,0,2.7,0,3.8-.7,2.3-2.8,1-3.5,2.5s1.1,2.4.4,3.5-3.1.6-4.2,1.2-.7,1.3-1.7,1.7a4.4833,4.4833,0,0,1-2.3,0c-.6,0-1.4,0-1.2,2.1,0,3.1,1.6,2-1.5,3.4-.8.3-1,1-2,1.3s-2.3-.5-2.8.7c-.6,1.2,1.1,1.8,1.2,2.5a5.4375,5.4375,0,0,1,0,1.8c0,1.2-1.5,0-.7,1.7.5,1,2.6,1.4,3.4,2a8.2247,8.2247,0,0,0-.6,3.8c0,1,.8,1.4,1,2.1a8.8542,8.8542,0,0,1,0,2.3c0,.7,2.2,1.6,2.5,2.6a2.0412,2.0412,0,0,1-.7,2.3c-.7.6-2,0-2.7,0l-.7,1.5c-1.9,1.5-4.4.5-5.6,2.4s-.4,2.4-1.4,3.5-2.9.4-3.4,2.1c-.8,2.9,3.7,1.7,4.6,3.8.3.8-.3,2,0,2.8.4,2.4.9.7,1.7,1.9.8,1.1.3,1.7,1.1,2.5,1.9,2.2,5.6,0,8-.5-.6,1.5-5.6,3-6,4.5s4,1.7,3,4.6c1.3,1.1,3.3.3,4.8.6,1.6.3,2.6,1.1,4.7.6-1.2,1.6-3.5,3.3-3.7,5.6,1.7,0,2.8,1.1,2.1,2.8a3.9,3.9,0,0,0,3,0,2.2959,2.2959,0,0,1,.4,1.4,5.2643,5.2643,0,0,0,.3-3.9l-.7-.7a5.309,5.309,0,0,1,3.7,3.7c0,1.1-.6,3.3,0,4.2,1.2,1.8,7,.7,8.7,1.2s2.4,1.6,3.7,2.1,4.3.7,3.8,3-3.5,1.5-.7,2.8a3.9859,3.9859,0,0,0,5-1.5c1.5,0,1.5,1.6,1.6,2.6.9,0,1.4-1.1,2.2-1.4a9.6375,9.6375,0,0,1,2.4,0c.8,0,1.4-1.2,2.3-1.5.9-.2,2,.4,2.9,0a11.7248,11.7248,0,0,1,2.4-.9l1.6.6c1.4,0,3.4-2,3.9.7,1.6.4,1.4-1.2,2.5-1.5s1.5.4,2.5.7a8.7849,8.7849,0,0,1,3.5,1c2.6,0,5.6-.4,8.1-.3l3.6-1.2c1.2-.5,2.6,0,3.8,0,1.1,0,1.7-2.3,3.9-2.9s5-2.2,8.1-1.1a14.2725,14.2725,0,0,1,2.2.8l.6,1.5h1.5c.6,0,1.7,1.3,2.4,1.4s2.7,0,3.9,0a24.1814,24.1814,0,0,1,4.7.4,3.596,3.596,0,0,0,1.2.8c.6.1.7-1.1,1.7-.5s.3,2.5,2.9,2.8c2.5.2,1.7-1.2,3.3-2.3,2.4-1.7,2.1,1.5,4.4,1.5a10.2833,10.2833,0,0,0,0-3.5l-2.8-2.5h-1.9c-.6,0,0-1.2,0-1.4s-2.5,0-3.3-1.5c-1.6-3.3,4.2-1,5.6-.5s2,1.6,3.7,1.1,1.7-3.3,3.5-.7c.5-3.4,6.8,1.1,3.9-4.4,3.4-.8,0-2.5,0-3.7,0-2.4,2-1.9,3.2-2.1,3.2-.7,3.8-2.3,3.8-5.6a5.5721,5.5721,0,0,1,1.1-3.7c1.1-1.9.6-1.6,2.6-2.1h1.2c.9,0,1.1-.8,1.9-1.1.7-.3,2.8-.7,3.2-1.5.4-3.2-5.4-2.3-6.9-2.8Z" transform="translate(0.0161 0.0119)" fill="#0bf96b"/></svg>